<svg width="292" height="263" viewBox="0 0 292 263" fill="none" xmlns="http://www.w3.org/2000/svg">
<path d="M68.4977 69.3934C65.8877 69.7534 67.1177 76.4434 67.3977 77.7534C68.0277 80.6534 69.3477 83.6434 69.2177 86.6534C69.252 87.2716 69.1163 87.8873 68.8254 88.4337C68.5346 88.9802 68.0996 89.4366 67.5677 89.7534C63.4177 91.8734 56.7977 85.6234 52.5677 87.5934C47.4877 89.9434 48.3177 97.4834 48.7477 101.843C49.9036 112.792 53.3517 123.375 58.8677 132.903C60.4432 135.434 61.5887 138.208 62.2577 141.113C62.9377 144.653 58.8377 145.783 56.2577 146.603C50.4477 148.443 48.6177 152.243 49.0377 158.023C49.0377 158.023 49.0377 158.083 49.0377 158.113C49.2705 162.533 50.3145 166.872 52.1177 170.913C53.2526 173.187 54.5112 175.397 55.8877 177.533C56.6477 178.663 62.3577 180.413 61.8877 177.793C61.5377 175.923 59.9777 172.993 59.1877 171.273C58.2477 169.183 55.2777 161.173 55.3577 158.873C55.6377 149.693 62.2477 154.623 66.4677 150.873C71.4677 146.393 67.5677 138.443 65.4677 133.633C60.7477 123.013 55.3277 112.573 54.3877 100.803C54.2077 98.6134 54.2277 95.0934 56.9277 94.2034C57.9277 93.8734 60.0077 94.4934 61.0477 94.6734C62.5177 94.9434 63.9577 95.3434 65.3977 95.7334C67.7077 96.3634 70.7377 97.4534 73.0277 96.2034C79.4477 92.7034 73.9077 79.9934 72.4877 75.1034C72.0877 73.6934 70.7877 69.5234 68.9577 69.4034L68.4977 69.3934Z" fill="#FFF200"/>
<g style="mix-blend-mode:multiply" opacity="0.5">
<path d="M72.0077 79.4434C72.6877 82.8534 73.8777 87.1934 73.0077 90.6634C71.4377 96.7634 65.2577 93.9734 61.2177 92.5534C59.2877 91.8734 56.8777 91.1934 54.9777 92.3334C54.0885 92.8635 53.3317 93.5893 52.7651 94.4557C52.1985 95.3221 51.8369 96.3063 51.7077 97.3334C51.0877 101.703 52.4977 106.123 53.7077 110.263C55.1752 115.646 56.9924 120.927 59.1477 126.073C60.5777 129.293 62.0977 132.473 63.5077 135.693C64.6219 137.909 65.4904 140.239 66.0977 142.643C66.9777 146.923 64.4177 149.643 60.3977 150.453C57.7077 151.023 53.5077 151.193 52.7777 154.573C52.4466 156.787 52.741 159.049 53.6277 161.103C55.3777 165.933 58.6277 170.293 59.9377 175.243C60.6677 178.043 59.0077 178.613 57.0977 178.363C58.9877 179.223 62.1677 179.743 61.7977 177.763C61.4277 175.783 59.8877 172.963 59.0977 171.243C58.1577 169.153 55.1877 161.143 55.2677 158.843C55.5477 149.663 62.1577 154.593 66.3777 150.843C71.3777 146.363 67.4777 138.413 65.3777 133.603C60.6577 122.983 55.2377 112.543 54.2977 100.773C54.1177 98.5834 54.1377 95.0634 56.8377 94.1734C57.8377 93.8434 59.9177 94.4634 60.9577 94.6434C62.4277 94.9134 63.8677 95.3134 65.3077 95.7034C67.6177 96.3334 70.6477 97.4234 72.9377 96.1734C79.3577 92.6734 73.8177 79.9634 72.3977 75.0734C72.0577 73.8634 71.0577 70.6634 69.6377 69.6734C70.9077 72.7334 71.3977 76.3634 72.0077 79.4434Z" fill="#F7D12A"/>
</g>
<path d="M221.068 141.663C216.618 140.953 212.228 141.663 208.898 144.833C205.148 148.403 203.468 154.433 201.438 159.033C199.808 162.753 197.538 173.493 191.928 172.603C189.568 172.223 188.018 170.263 185.998 169.253C182.16 167.204 177.669 166.748 173.498 167.983C163.828 171.243 159.798 183.923 158.938 193.043C158.528 197.313 158.168 201.773 156.398 205.733C155.558 207.593 154.618 210.463 152.398 211.153C150.178 211.843 148.208 209.623 146.898 208.153C143.428 204.153 139.438 201.583 133.958 201.653C131.377 201.723 128.866 202.507 126.705 203.92C124.543 205.332 122.817 207.317 121.718 209.653C120.078 212.943 118.318 217.763 119.828 221.283C120.548 222.943 122.468 224.013 124.088 224.833C124.978 225.293 127.808 226.223 128.748 225.483C129.688 224.743 129.438 222.003 129.638 220.813C130.138 217.813 130.088 214.183 132.188 211.733C132.76 211.112 133.472 210.636 134.265 210.345C135.058 210.055 135.91 209.958 136.748 210.063C141.158 210.393 143.438 216.203 147.348 217.863C154.198 220.783 160.538 217.453 164.798 211.863C169.568 205.623 169.978 198.203 170.898 190.753C171.478 186.043 173.378 180.353 176.308 176.603C180.188 171.603 184.008 175.223 188.308 177.243C191.798 178.903 196.538 179.773 200.188 178.243C204.058 176.673 206.308 172.913 208.018 169.303C209.018 167.303 209.788 165.233 210.678 163.193C212.248 159.593 213.678 155.963 214.968 152.253C216.488 147.963 218.698 145.663 222.968 144.313C225.718 143.473 222.318 141.863 221.068 141.663Z" fill="#FFC709"/>
<g style="mix-blend-mode:multiply" opacity="0.5">
<path d="M219.548 143.793C214.548 145.233 211.548 150.053 209.298 154.433C207.048 158.813 205.428 163.963 202.808 168.303C200.538 172.073 197.028 175.193 192.318 174.523C188.178 173.943 184.688 171.203 180.568 170.653C174.378 169.803 170.408 175.353 168.898 180.653C168.278 182.843 167.778 185.063 167.308 187.283L166.768 190.283C165.378 197.923 163.978 210.063 155.628 213.573C151.338 215.373 147.318 213.393 144.018 210.573C141.968 208.803 139.788 206.573 137.018 205.983C133.018 205.133 130.078 206.853 128.258 210.413C126.988 212.903 126.178 215.573 125.048 218.123C124.338 219.723 123.498 221.403 121.898 222.233C121.539 222.42 121.149 222.542 120.748 222.593C121.74 223.516 122.874 224.273 124.108 224.833C124.998 225.293 127.828 226.223 128.768 225.483C129.708 224.743 129.458 222.003 129.658 220.813C130.158 217.813 130.108 214.183 132.208 211.733C132.78 211.112 133.492 210.636 134.285 210.345C135.078 210.055 135.93 209.958 136.768 210.063C141.178 210.393 143.458 216.203 147.368 217.863C154.218 220.783 160.558 217.453 164.818 211.863C169.588 205.623 169.998 198.203 170.918 190.753C171.498 186.043 173.398 180.353 176.328 176.603C180.208 171.603 184.028 175.223 188.328 177.243C191.818 178.903 196.558 179.773 200.208 178.243C204.078 176.673 206.328 172.913 208.038 169.303C209.038 167.303 209.808 165.233 210.698 163.193C212.268 159.593 213.698 155.963 214.988 152.253C216.508 147.963 218.718 145.663 222.988 144.313C223.386 144.25 223.745 144.035 223.988 143.713C222.524 143.373 220.998 143.4 219.548 143.793Z" fill="#FFC709"/>
</g>
<path d="M165.958 120.043L170.808 123.813L172.298 118.593L165.958 120.043Z" fill="#FEEB00"/>
<path d="M170.458 121.253C169.098 120.923 167.648 120.703 166.288 120.253L170.808 123.773L171.468 121.443L170.458 121.253Z" fill="#F6C11C"/>
<path d="M217.328 66.4434L217.458 74.9534L222.778 72.4334L217.328 66.4434Z" fill="#FEEB00"/>
<path d="M217.868 67.0434C217.868 67.2334 217.938 67.4234 217.988 67.6134C218.413 68.6904 218.747 69.8009 218.988 70.9334C219.288 71.9334 219.608 72.8534 219.988 73.8034L222.878 72.4334L217.868 67.0434Z" fill="#F6C41B"/>
<path d="M242.078 63.5734L245.138 67.5134L252.548 65.0534L250.398 61.3834C247.517 61.6147 244.699 62.3562 242.078 63.5734Z" fill="#CBDB2A"/>
<path d="M219.038 87.1735L224.118 88.4535C224.118 88.4535 217.408 105.753 203.808 113.353L198.218 110.223C198.218 110.223 208.828 106.223 219.038 87.1735Z" fill="#6F3092"/>
<g style="mix-blend-mode:screen">
<path d="M213.718 99.0335C216.018 95.8235 218.888 91.7335 220.268 87.4935L219.008 87.1735C208.798 106.223 198.188 110.223 198.188 110.223L200.718 111.573C205.821 108.273 210.236 104.015 213.718 99.0335Z" fill="#6F3092"/>
</g>
<path d="M132.788 136.153C135.975 127.596 142.26 120.547 150.398 116.403L147.338 111.143C147.338 111.143 135.448 116.733 128.678 133.493L132.788 136.153Z" fill="#20C4F4"/>
<path d="M138.848 121.233C141.268 118.573 144.748 114.913 148.558 113.233L147.338 111.133C147.338 111.133 135.448 116.723 128.678 133.483L130.998 134.983C132.548 129.868 135.231 125.169 138.848 121.233Z" fill="#97DAF8"/>
<path d="M190.188 74.3134C190.188 74.3134 191.938 58.1234 188.438 50.6834L193.438 50.9834C193.438 50.9834 197.848 62.1934 194.878 73.5034L190.188 74.3134Z" fill="#E9008C"/>
<g style="mix-blend-mode:screen">
<path d="M193.168 61.3334C192.99 57.7397 192.247 54.1963 190.968 50.8334L188.438 50.6834C191.938 58.1234 190.188 74.3134 190.188 74.3134L191.758 74.0334C193.114 69.946 193.594 65.6188 193.168 61.3334Z" fill="#EA69A6"/>
</g>
<path d="M209.528 38.9734L218.478 44.0934L225.998 30.6334L216.528 23.2234L209.528 38.9734Z" fill="#6F3092"/>
<g style="mix-blend-mode:screen">
<path d="M217.848 31.6434C218.688 29.8534 219.588 28.0834 220.478 26.3134L216.478 23.2234L209.478 38.9734L213.778 41.4234C215.108 38.1434 216.358 34.8434 217.848 31.6434Z" fill="#6F3092"/>
</g>
<path d="M151.398 35.3934C151.778 35.7234 155.748 42.5634 155.748 42.5634L161.568 41.8834L157.498 32.0634L151.398 35.3934Z" fill="#E61E26"/>
<g style="mix-blend-mode:screen">
<path d="M155.628 42.3534C155.838 40.7234 156.058 39.1034 156.268 37.4734C156.478 35.8434 156.558 34.1134 156.798 32.4734L151.398 35.4734C151.718 35.6934 154.958 41.2134 155.628 42.3534Z" fill="#E61E26"/>
</g>
<path d="M131.268 35.8234L134.768 42.3834L138.168 42.4534L136.558 33.0334L131.268 35.8234Z" fill="#CBDB2A"/>
<g style="mix-blend-mode:screen">
<path d="M245.528 64.4034C247.469 63.6626 249.541 63.3224 251.618 63.4034L250.398 61.3134C247.512 61.5667 244.695 62.332 242.078 63.5734L243.528 65.4434C244.147 65.013 244.82 64.6635 245.528 64.4034Z" fill="#CBDB2A"/>
</g>
<g style="mix-blend-mode:screen">
<path d="M134.148 34.3034L131.268 35.8234L134.768 42.3834H135.848C135.178 39.7334 134.718 37.0134 134.148 34.3034Z" fill="#CBDB2A"/>
</g>
<path d="M167.408 54.8034L170.938 62.7334L174.208 62.3834L171.828 53.5434L167.408 54.8034Z" fill="#20C4F4"/>
<path d="M169.348 54.2534L167.408 54.8034L170.938 62.7334L172.208 62.5934C171.62 59.7011 170.659 56.8975 169.348 54.2534Z" fill="#97DAF8"/>
<path d="M118.418 47.3734L121.078 55.7234L126.358 50.3834L118.418 47.3734Z" fill="#E9008C"/>
<g style="mix-blend-mode:screen">
<path d="M118.538 47.7734L121.078 55.7234L123.928 52.8434C122.01 51.2872 120.208 49.5927 118.538 47.7734Z" fill="#EA69A6"/>
</g>
<path d="M90.5677 65.5734L96.9477 62.4634C96.9477 62.4634 107.268 78.3234 104.218 87.5734L100.368 88.5734C100.368 88.5734 97.7177 75.3134 90.5677 65.5734Z" fill="#6F3092"/>
<g style="mix-blend-mode:screen">
<path d="M102.578 88.0034C101.198 79.5934 97.7477 71.6734 93.4577 64.2034L90.5677 65.5734C97.7177 75.2734 100.368 88.5134 100.368 88.5134L102.578 88.0034Z" fill="#6F3092"/>
</g>
<path d="M38.2078 67.6234L41.1378 62.9734L45.6878 68.7734L43.2778 70.6734L38.2078 67.6234Z" fill="#20C4F4"/>
<path d="M43.7977 70.2534C42.7977 67.9334 41.8678 65.5434 41.0378 63.1234L38.1978 67.6234L43.2777 70.6234L43.7977 70.2534Z" fill="#97DAF8"/>
<path d="M19.3077 117.213L24.9178 113.653C24.9178 113.653 32.3677 126.333 32.5477 131.583L28.3777 134.243C28.3777 134.243 23.0977 120.173 19.3077 117.213Z" fill="#E9008C"/>
<g style="mix-blend-mode:screen">
<path d="M31.0477 132.573C30.1464 129.238 28.8224 126.032 27.1077 123.033C25.7777 120.553 24.3077 117.543 22.2877 115.353L19.2877 117.243C23.0777 120.243 28.3577 134.243 28.3577 134.243L31.0477 132.573Z" fill="#EA69A6"/>
</g>
<path d="M2.97777 152.533L0.837769 156.703L7.79777 159.943L8.69777 156.153L2.97777 152.533Z" fill="#CBDB2A"/>
<g style="mix-blend-mode:screen">
<path d="M8.27777 157.923L8.69778 156.153L2.97778 152.533L1.97778 154.443C4.17243 155.423 6.27997 156.587 8.27777 157.923Z" fill="#CBDB2A"/>
</g>
<path d="M107.638 156.593L110.398 163.143L113.088 156.323L107.638 156.593Z" fill="#E9008C"/>
<g style="mix-blend-mode:screen">
<path d="M110.328 159.973C110.328 158.793 110.408 157.623 110.498 156.453L107.628 156.593L110.208 162.693C110.258 161.793 110.338 160.873 110.328 159.973Z" fill="#EA69A6"/>
</g>
<path d="M85.8278 160.923L92.9778 162.393L91.3578 173.913L86.2978 173.853L85.8278 160.923Z" fill="#CBDB2A"/>
<g style="mix-blend-mode:screen">
<path d="M88.7178 169.763C88.8278 167.023 88.6278 164.263 88.7678 161.523L85.8478 160.913L86.3278 173.853H88.6778C88.6378 172.483 88.6278 171.103 88.7178 169.763Z" fill="#CBDB2A"/>
</g>
<path d="M102.938 219.283L106.658 218.933C106.658 218.933 106.588 222.933 105.008 224.223L103.618 223.853C103.855 222.296 103.618 220.704 102.938 219.283Z" fill="#20C4F4"/>
<g style="mix-blend-mode:screen">
<path d="M104.778 222.713C105.08 221.528 105.148 220.295 104.978 219.083L102.978 219.283C103.658 220.704 103.895 222.296 103.658 223.853L104.588 224.103C104.638 223.633 104.718 223.153 104.778 222.713Z" fill="#20C4F4"/>
</g>
<path d="M99.5678 198.453L103.568 202.263C103.568 202.263 101.438 209.263 97.1578 209.573C92.8778 209.883 88.1578 205.623 88.0178 210.943L85.5378 209.173C85.5378 209.173 84.2378 205.173 85.9078 202.523C87.5778 199.873 90.1978 201.643 93.4878 203.953C96.7778 206.263 98.2578 205.183 99.5678 198.453Z" fill="#E61E26"/>
<g style="mix-blend-mode:screen">
<path d="M90.8478 205.633C94.7478 207.503 98.6178 207.453 99.1978 202.313C99.2877 201.463 99.3177 200.608 99.2878 199.753C98.0478 205.313 96.5378 206.093 93.4778 203.953C90.1878 201.643 87.5678 199.893 85.8978 202.523C84.2278 205.153 85.5278 209.173 85.5278 209.173L85.6278 209.243C86.0978 206.433 87.1078 203.843 90.8478 205.633Z" fill="#E61E26"/>
</g>
<path d="M155.958 235.833C155.688 235.923 156.288 240.003 156.288 240.003C156.288 240.003 166.828 238.463 170.498 239.913L171.178 235.233C166.135 234.142 160.898 234.348 155.958 235.833Z" fill="#E9008C"/>
<g style="mix-blend-mode:screen">
<path d="M170.848 237.453L171.178 235.233C166.135 234.142 160.899 234.348 155.958 235.833C155.852 236.562 155.875 237.303 156.028 238.023C160.718 236.923 166.078 236.323 170.848 237.453Z" fill="#EA69A6"/>
</g>
<path d="M254.268 179.063C254.268 179.063 263.128 177.263 266.928 178.163L266.608 173.233L253.838 173.283L254.268 179.063Z" fill="#CBDB2A"/>
<g style="mix-blend-mode:screen">
<path d="M262.058 175.473C263.649 175.513 265.234 175.708 266.788 176.053L266.608 173.233L253.838 173.283L254.048 176.173C256.681 175.628 259.37 175.393 262.058 175.473Z" fill="#CBDB2A"/>
</g>
<path d="M263.768 158.143C263.768 158.143 277.768 152.143 288.338 151.963L286.408 146.503C286.408 146.503 269.658 150.003 262.188 155.433L263.768 158.143Z" fill="#E9008C"/>
<g style="mix-blend-mode:screen">
<path d="M277.988 151.423C280.418 150.923 283.058 149.833 285.558 149.783C286.225 149.772 286.893 149.798 287.558 149.863L286.368 146.503C286.368 146.503 269.618 150.003 262.148 155.433L262.938 156.793C267.098 153.713 273.118 152.453 277.988 151.423Z" fill="#EA69A6"/>
</g>
<path d="M141.238 72.4734C140.505 72.1562 139.703 72.0337 138.91 72.1178C138.116 72.2019 137.357 72.4897 136.708 72.9534C135.724 73.673 135.063 74.7506 134.868 75.9534C134.746 76.7378 134.829 77.5403 135.108 78.2834C135.372 78.9925 135.812 79.6224 136.388 80.1134C136.538 80.2922 136.702 80.4593 136.878 80.6134L136.938 80.6734C137.662 81.312 138.592 81.6672 139.558 81.6734H139.638C139.814 81.6836 139.991 81.6836 140.168 81.6734H140.408H140.498C140.743 81.6267 140.984 81.5598 141.218 81.4734H141.298H141.398L141.558 81.4034L141.768 81.3034L142.058 81.1434C142.486 80.8735 142.868 80.5358 143.188 80.1434C143.404 79.8701 143.585 79.5712 143.728 79.2534C143.826 79.0529 143.909 78.8457 143.978 78.6334C144.358 77.6446 144.336 76.5465 143.918 75.5734L143.678 75.0234C143.223 73.891 142.349 72.9776 141.238 72.4734Z" fill="#CDEC25"/>
<g style="mix-blend-mode:screen">
<path d="M136.878 80.5734L136.938 80.6334C137.36 81.0304 137.882 81.3067 138.448 81.4334C138.448 78.3534 138.448 75.2834 138.308 72.1934C137.732 72.336 137.189 72.5872 136.708 72.9334C135.724 73.653 135.063 74.7306 134.868 75.9334C134.746 76.7178 134.829 77.5203 135.108 78.2634C135.372 78.9725 135.812 79.6024 136.388 80.0934C136.539 80.2653 136.703 80.4257 136.878 80.5734Z" fill="#CBDB2A"/>
</g>
<path d="M137.458 187.833L137.158 187.563C136.667 187.175 136.062 186.956 135.436 186.942C134.81 186.927 134.196 187.118 133.688 187.483C133.186 187.855 132.817 188.379 132.637 188.977C132.457 189.576 132.475 190.216 132.688 190.803C132.688 190.933 132.778 191.063 132.818 191.183C132.982 191.608 133.241 191.989 133.575 192.298C133.909 192.607 134.309 192.837 134.744 192.969C135.18 193.101 135.639 193.132 136.089 193.06C136.538 192.988 136.965 192.815 137.338 192.553C137.655 192.325 137.924 192.036 138.128 191.703C138.332 191.37 138.468 191 138.528 190.613C138.607 190.097 138.55 189.569 138.362 189.081C138.174 188.594 137.863 188.163 137.458 187.833Z" fill="#6F3092"/>
<g style="mix-blend-mode:screen">
<path d="M135.788 186.973C135.049 186.877 134.3 187.058 133.688 187.483C133.186 187.855 132.817 188.379 132.637 188.977C132.457 189.576 132.475 190.216 132.688 190.803C132.688 190.933 132.778 191.063 132.818 191.183C132.957 191.578 133.184 191.936 133.479 192.232C133.775 192.528 134.133 192.754 134.528 192.893C134.888 190.903 135.298 188.923 135.788 186.973Z" fill="#6F3092"/>
</g>
<path d="M30.8177 160.303L31.9977 156.673L34.1577 159.823H37.9777L35.6477 162.843L36.8277 166.473L33.2277 165.203L30.1377 167.443L30.2477 163.633L27.1577 161.383L30.8177 160.303Z" fill="#6F3092"/>
<g style="mix-blend-mode:screen">
<path d="M33.0877 165.303C32.9777 164.633 32.8777 163.953 32.7777 163.303C32.4777 161.193 32.4477 158.983 32.1177 156.873L31.9977 156.683L30.8177 160.313L27.1577 161.393L30.2377 163.643L30.1377 167.453L33.0877 165.303Z" fill="#6F3092"/>
</g>
<path d="M161.988 149.753L166.068 148.653L164.458 152.563L166.758 156.103L162.548 155.773L159.898 159.053L158.908 154.953L154.958 153.443L158.558 151.233L158.768 147.023L161.988 149.753Z" fill="#E61E26"/>
<g style="mix-blend-mode:screen">
<path d="M162.258 156.133C161.508 154.233 160.728 152.333 159.958 150.433C159.658 149.673 159.148 148.743 158.728 147.773L158.558 151.233L154.948 153.443L158.948 154.953L159.948 159.053L162.258 156.133Z" fill="#E61E26"/>
</g>
<path d="M120.548 103.663L124.758 100.673L124.558 105.843L128.708 108.923L123.738 110.333L122.088 115.223L119.208 110.943L114.038 110.873L117.228 106.813L115.698 101.883L120.548 103.663Z" fill="#E9008C"/>
<g style="mix-blend-mode:screen">
<path d="M115.718 101.903L117.258 106.833L114.068 110.893L119.238 110.963L122.108 115.243L123.768 110.353H123.858C122.988 109.423 116.908 103.053 115.718 101.903Z" fill="#EA69A6"/>
</g>
<path d="M222.988 197.233L229.218 195.773L226.588 201.613L229.908 207.083L223.538 206.383L219.358 211.233L218.048 204.963L212.148 202.483L217.708 199.303L218.248 192.923L222.988 197.233Z" fill="#20C4F4"/>
<path d="M223.388 206.573C223.028 205.643 218.638 195.033 218.228 193.083L217.708 199.313L212.148 202.493L218.048 204.973L219.348 211.243L223.388 206.573Z" fill="#97DAF8"/>
<path opacity="0.7" d="M67.5478 70.8534C66.9678 73.3034 67.6478 76.3334 68.0478 78.7734C68.5578 81.7734 69.9278 84.7734 69.7378 87.8834C69.7378 88.0434 69.9578 88.1334 70.0178 87.9734C70.9478 85.5834 70.2478 83.1434 69.6578 80.7534C68.8125 77.4988 68.1647 74.1961 67.7178 70.8634C67.7128 70.8453 67.7022 70.8292 67.6876 70.8175C67.673 70.8057 67.6551 70.7987 67.6364 70.7976C67.6177 70.7965 67.599 70.8013 67.5832 70.8113C67.5673 70.8213 67.5549 70.836 67.5478 70.8534Z" fill="white"/>
<path opacity="0.7" d="M51.2478 89.5734C48.8778 92.2934 48.5178 96.8335 48.7478 100.263C49.1702 104.63 49.98 108.95 51.1678 113.173C52.3084 117.522 53.9424 121.726 56.0378 125.703C57.9478 129.473 59.6378 133.303 61.7878 136.943C61.8478 137.053 62.0178 136.943 61.9778 136.843C59.4678 129.533 55.2278 122.923 52.9278 115.523C51.6971 111.334 50.7285 107.073 50.0278 102.763C49.1878 98.0935 50.0278 94.1535 51.4778 89.7635C51.503 89.733 51.515 89.6937 51.5113 89.6543C51.5075 89.6149 51.4883 89.5786 51.4578 89.5535C51.4273 89.5283 51.388 89.5162 51.3486 89.52C51.3092 89.5237 51.273 89.5429 51.2478 89.5734Z" fill="white"/>
<path opacity="0.7" d="M53.7878 148.443C52.0173 149.558 50.6667 151.229 49.9478 153.193C49.2706 155.678 49.1241 158.278 49.5178 160.823C50.0363 163.6 50.8822 166.306 52.0378 168.883C53.079 171.658 54.6364 174.209 56.6278 176.403C56.6878 176.473 56.8078 176.403 56.7478 176.313C53.6578 172.373 51.8778 167.403 50.5978 162.613C49.96 159.895 49.8649 157.078 50.3178 154.323C50.6078 151.863 52.3178 150.323 53.9178 148.573C53.9878 148.493 53.8678 148.383 53.7878 148.443Z" fill="white"/>
<g opacity="0.5">
<path d="M220.028 142.243C213.848 140.653 208.478 144.723 206.028 150.243C204.588 153.473 203.508 156.873 202.098 160.123C200.598 163.508 198.929 166.816 197.098 170.033C197.028 170.153 197.208 170.233 197.288 170.153C199.195 167.971 200.751 165.505 201.898 162.843C203.348 159.843 204.748 156.843 205.978 153.843C207.278 150.573 208.388 147.623 211.278 145.373C213.988 143.253 216.728 142.783 220.058 142.563C220.198 142.573 220.178 142.283 220.028 142.243Z" fill="white"/>
<path d="M179.648 167.783C173.548 166.593 167.648 171.883 164.908 176.783C163.332 179.693 162.209 182.826 161.578 186.073C160.918 189.143 161.008 192.263 160.578 195.363C160.574 195.435 160.597 195.506 160.642 195.562C160.687 195.618 160.751 195.655 160.822 195.666C160.893 195.677 160.966 195.662 161.026 195.622C161.086 195.583 161.13 195.523 161.148 195.453C161.656 193.003 162.023 190.526 162.248 188.033C162.751 185.128 163.604 182.294 164.788 179.593C167.268 173.663 172.998 168.353 179.658 168.023C179.778 168.023 179.778 167.813 179.648 167.783Z" fill="white"/>
<path d="M139.878 203.743C138.723 203.013 137.434 202.518 136.087 202.288C134.74 202.058 133.36 202.097 132.028 202.403C125.718 204.263 121.978 210.973 121.028 217.053C121.02 217.083 121.024 217.114 121.039 217.14C121.054 217.166 121.079 217.185 121.108 217.193C121.137 217.201 121.168 217.197 121.194 217.182C121.221 217.167 121.24 217.143 121.248 217.113C123.168 211.823 126.248 205.763 131.948 203.763C137.268 201.903 143.508 206.953 146.948 210.453C147.068 210.573 147.258 210.373 147.158 210.243C145.13 207.667 142.666 205.467 139.878 203.743Z" fill="white"/>
</g>
<path d="M264.508 70.5734C263.38 70.8979 262.274 71.2954 261.198 71.7634C259.698 72.3934 259.418 72.9134 260.328 74.4234C262.328 77.7334 265.398 80.4234 266.398 84.2734C267.184 86.9839 267.083 89.8749 266.108 92.5234C264.658 96.2334 261.858 99.6934 257.938 100.883C252.158 102.633 247.488 104.213 243.828 109.363C242.559 111.353 241.94 113.687 242.058 116.043C242.073 117.324 242.251 118.598 242.588 119.833C242.713 120.675 243.024 121.477 243.498 122.183C244.298 123.073 245.108 122.463 246.098 122.383C247.438 122.283 248.778 122.883 250.098 122.703C252.098 122.443 251.698 120.473 251.548 118.963C251.398 117.71 251.497 116.439 251.838 115.223C252.537 113.252 253.741 111.497 255.328 110.133C260.018 105.583 267.328 106.013 272.538 102.203C276.618 99.2034 279.238 92.2034 278.408 87.2834C277.408 81.4034 275.558 74.6434 270.408 71.0334C268.718 69.8034 266.548 69.9634 264.508 70.5734Z" fill="#FBAB1B"/>
<g style="mix-blend-mode:multiply" opacity="0.5">
<path d="M270.408 70.9834C268.728 69.8034 266.548 69.9834 264.508 70.5234L264.158 70.6234C274.078 72.6234 279.758 89.7134 273.028 97.4834C269.658 101.383 265.028 102.213 260.328 103.573C257.458 104.403 254.328 105.463 252.418 107.853C250.508 110.243 250.128 112.713 249.978 115.763C249.978 116.223 249.978 116.693 250.038 117.153C250.14 118.15 250.174 119.152 250.138 120.153C250.099 121.039 249.841 121.901 249.388 122.663C249.631 122.689 249.875 122.689 250.118 122.663C252.118 122.403 251.718 120.433 251.568 118.923C251.418 117.67 251.517 116.399 251.858 115.183C252.558 113.211 253.761 111.457 255.348 110.093C260.038 105.543 267.348 105.973 272.558 102.163C276.638 99.1634 279.258 92.1634 278.428 87.2434C277.428 81.3534 275.578 74.5734 270.408 70.9834Z" fill="#FBAB1B"/>
</g>
<path opacity="0.5" d="M266.108 94.8134C264.076 97.825 261.218 100.186 257.878 101.613C255.068 102.733 251.758 102.983 249.168 104.553C244.718 107.253 241.948 112.133 243.168 117.363C243.168 117.433 243.288 117.363 243.288 117.363C243.102 114.156 244.13 110.997 246.168 108.513C248.189 106.308 250.863 104.808 253.798 104.233C259.208 102.823 264.118 100.403 266.268 94.9434C266.328 94.8134 266.178 94.7134 266.108 94.8134Z" fill="white"/>
<path opacity="0.5" d="M21.4377 118.403C21.4185 118.388 21.3946 118.379 21.3699 118.379C21.3452 118.378 21.321 118.386 21.3014 118.401C21.2817 118.416 21.2677 118.438 21.2616 118.462C21.2555 118.485 21.2576 118.511 21.2677 118.533C23.9677 123.203 25.7477 128.303 28.1477 133.123C28.2577 133.323 28.6077 133.283 28.5577 133.033C27.9176 130.404 26.9075 127.879 25.5577 125.533C24.4111 123.033 23.0317 120.646 21.4377 118.403Z" fill="white"/>
<path opacity="0.5" d="M92.9277 67.9434C94.2377 71.0534 95.8277 74.0334 97.1477 77.1434C98.3635 80.1026 99.3922 83.1352 100.228 86.2234C100.228 86.3834 100.508 86.3134 100.498 86.1534C100.228 79.4834 96.1577 73.6334 93.1277 67.8734C93.0677 67.7534 92.8677 67.8134 92.9277 67.9434Z" fill="white"/>
<path opacity="0.5" d="M135.898 74.4234C134.348 76.2334 135.418 79.5834 137.598 80.4234C137.623 80.4359 137.652 80.4383 137.678 80.4302C137.705 80.4221 137.728 80.4042 137.742 80.38C137.756 80.3558 137.76 80.3272 137.754 80.3C137.748 80.2728 137.731 80.249 137.708 80.2334C136.853 79.4514 136.259 78.4248 136.008 77.2934C135.909 76.3788 135.977 75.4539 136.208 74.5634C136.226 74.5223 136.228 74.4755 136.212 74.4333C136.196 74.3911 136.164 74.357 136.123 74.3384C136.082 74.3199 136.035 74.3184 135.993 74.3343C135.951 74.3503 135.916 74.3823 135.898 74.4234Z" fill="white"/>
<path opacity="0.5" d="M119.578 50.1634C119.798 51.0134 120.028 51.8634 120.318 52.6934C120.499 53.5245 120.764 54.3353 121.108 55.1134C121.188 55.2634 121.438 55.1634 121.418 54.9934C121.218 53.2834 120.328 51.6934 119.788 50.0834C119.718 49.9434 119.548 50.0234 119.578 50.1634Z" fill="white"/>
<path opacity="0.5" d="M131.968 36.3434C132.555 38.2887 133.435 40.1332 134.578 41.8134C134.61 41.8515 134.655 41.8774 134.704 41.8869C134.753 41.8964 134.804 41.8889 134.848 41.8656C134.892 41.8423 134.927 41.8047 134.947 41.7588C134.967 41.7129 134.971 41.6617 134.958 41.6134C134.518 40.5232 133.979 39.4755 133.348 38.4834C132.958 37.7334 132.618 36.9634 132.188 36.2234C132.108 36.1034 131.928 36.2134 131.968 36.3434Z" fill="white"/>
<path opacity="0.5" d="M153.128 34.8834C152.208 35.3734 152.358 35.8834 152.768 36.7034C153.398 37.9634 154.218 39.1234 154.898 40.3534C154.978 40.5034 155.208 40.3534 155.198 40.2434C154.988 39.5219 154.649 38.8443 154.198 38.2434C153.728 37.3734 152.608 36.1034 153.348 35.1834C153.438 35.0434 153.298 34.7934 153.128 34.8834Z" fill="white"/>
<path opacity="0.5" d="M168.458 56.1634C168.838 57.3434 169.338 58.4934 169.828 59.6234C170.132 60.4874 170.511 61.3238 170.958 62.1234C170.978 62.1526 171.008 62.1741 171.042 62.1845C171.076 62.195 171.112 62.1938 171.146 62.1812C171.179 62.1686 171.207 62.1452 171.225 62.1148C171.244 62.0845 171.252 62.0488 171.248 62.0134C170.799 59.8606 169.922 57.8201 168.668 56.0134C168.598 55.9334 168.418 56.0434 168.458 56.1634Z" fill="white"/>
<path opacity="0.5" d="M189.438 51.9634C190.128 55.3534 190.718 58.7234 191.158 62.1534C191.598 65.5834 191.068 69.2934 190.748 72.8234C190.748 73.0534 191.088 73.1934 191.168 72.9434C192.168 70.0234 192.028 66.4334 191.918 63.3834C191.813 61.4224 191.572 59.4711 191.198 57.5434C190.888 55.6434 190.068 53.8234 189.628 51.9434C189.608 51.8234 189.408 51.8334 189.438 51.9634Z" fill="white"/>
<path opacity="0.5" d="M216.138 25.5734C215.508 27.6434 214.328 29.5134 213.568 31.5734C212.738 33.7534 211.138 35.6434 210.448 37.8534C210.358 38.1534 210.758 38.4734 210.958 38.1634C213.56 34.3896 215.379 30.1324 216.308 25.6434C216.318 25.5734 216.168 25.4834 216.138 25.5734Z" fill="white"/>
<path opacity="0.5" d="M217.568 67.9334C217.506 69.9358 217.576 71.9402 217.778 73.9334C217.778 73.9811 217.797 74.0269 217.83 74.0607C217.864 74.0944 217.91 74.1134 217.958 74.1134C218.005 74.1134 218.051 74.0944 218.085 74.0607C218.119 74.0269 218.138 73.9811 218.138 73.9334C218.263 73.0377 218.263 72.1291 218.138 71.2334C218.138 70.1234 217.858 69.0234 217.748 67.9234C217.737 67.9095 217.723 67.8984 217.707 67.8911C217.69 67.8838 217.673 67.8805 217.655 67.8815C217.637 67.8825 217.62 67.8877 217.605 67.8968C217.59 67.9058 217.577 67.9184 217.568 67.9334Z" fill="white"/>
<path opacity="0.5" d="M249.428 61.8134C247.348 61.4034 245.608 62.6434 243.688 63.1734C243.665 63.1804 243.646 63.1944 243.632 63.2133C243.618 63.2321 243.611 63.255 243.611 63.2784C243.611 63.3019 243.618 63.3247 243.632 63.3436C243.646 63.3625 243.665 63.3764 243.688 63.3834C244.604 63.3172 245.509 63.1323 246.378 62.8334C247.378 62.4834 248.488 62.5934 249.378 62.2034C249.419 62.1936 249.457 62.1713 249.486 62.1396C249.514 62.1078 249.532 62.0681 249.538 62.0257C249.543 61.9834 249.536 61.9403 249.516 61.9024C249.496 61.8644 249.466 61.8334 249.428 61.8134Z" fill="white"/>
<path opacity="0.5" d="M217.818 90.1535C215.649 93.4637 213.312 96.6612 210.818 99.7335C208.074 102.831 205.152 105.766 202.068 108.523C201.888 108.693 202.158 108.923 202.338 108.813C205.928 106.653 208.718 103.363 211.438 100.233C214.092 97.2315 216.301 93.8637 217.998 90.2335C218.088 90.1535 217.888 90.0235 217.818 90.1535Z" fill="white"/>
<path opacity="0.5" d="M146.588 111.993C142.818 113.563 139.518 116.993 137.008 120.143C135.507 122.065 134.169 124.109 133.008 126.253C131.838 128.373 130.668 130.253 130.398 132.743C130.398 132.953 130.688 133.073 130.768 132.853C132.477 128.491 134.819 124.404 137.718 120.723C139.173 118.901 140.805 117.227 142.588 115.723C143.418 115.003 144.208 114.223 145.098 113.583C145.718 113.235 146.27 112.778 146.728 112.233C146.743 112.224 146.757 112.212 146.768 112.197C146.779 112.183 146.787 112.166 146.792 112.149C146.797 112.131 146.798 112.113 146.795 112.095C146.793 112.077 146.787 112.059 146.778 112.043C146.769 112.028 146.756 112.014 146.742 112.003C146.727 111.992 146.711 111.984 146.693 111.979C146.675 111.974 146.657 111.973 146.639 111.976C146.621 111.978 146.603 111.984 146.588 111.993Z" fill="white"/>
<path opacity="0.5" d="M108.368 157.573C108.508 158.003 108.508 158.463 108.658 158.893C108.808 159.323 108.978 159.953 109.158 160.473C109.172 160.536 109.211 160.59 109.266 160.624C109.32 160.657 109.385 160.668 109.448 160.653C109.51 160.639 109.564 160.6 109.598 160.546C109.632 160.491 109.642 160.426 109.628 160.363C109.586 159.849 109.478 159.341 109.308 158.853C109.177 158.362 109.02 157.878 108.838 157.403C108.814 157.343 108.767 157.294 108.708 157.267C108.649 157.24 108.581 157.238 108.52 157.26C108.459 157.282 108.409 157.327 108.38 157.386C108.352 157.444 108.347 157.512 108.368 157.573Z" fill="white"/>
<path opacity="0.5" d="M86.5578 162.133C86.5078 165.453 86.5578 168.773 86.6578 172.133C86.6578 172.433 87.1778 172.453 87.1878 172.133C87.3208 168.799 87.2541 165.46 86.9878 162.133C86.9772 162.084 86.95 162.04 86.9109 162.009C86.8718 161.977 86.8231 161.96 86.7728 161.96C86.7226 161.96 86.6738 161.977 86.6347 162.009C86.5956 162.04 86.5685 162.084 86.5578 162.133Z" fill="white"/>
<path opacity="0.5" d="M98.8577 203.103C98.5737 203.794 98.1209 204.402 97.5408 204.872C96.9608 205.342 96.272 205.659 95.5377 205.793C94.5977 206.013 93.4677 205.043 92.7677 204.503C91.5077 203.503 90.7677 202.363 89.1977 201.853C86.8277 201.083 85.6977 204.423 85.5377 206.113C85.5353 206.159 85.5496 206.205 85.578 206.241C85.6064 206.277 85.647 206.302 85.6922 206.31C85.7373 206.319 85.7841 206.311 85.8237 206.287C85.8633 206.264 85.8932 206.227 85.9077 206.183C86.2077 204.893 87.2677 201.483 89.6477 202.923C90.2963 203.377 90.8873 203.907 91.4077 204.503C92.2509 205.379 93.2387 206.103 94.3277 206.643C96.4677 207.643 98.7377 204.993 99.2777 203.283C99.2938 203.229 99.2895 203.171 99.2656 203.12C99.2416 203.069 99.1998 203.029 99.1479 203.006C99.096 202.984 99.0378 202.982 98.9843 203C98.9308 203.018 98.8858 203.055 98.8577 203.103Z" fill="white"/>
<path opacity="0.5" d="M134.628 187.423C132.708 187.713 131.898 190.643 133.148 192.023C133.206 192.09 133.285 192.135 133.372 192.151C133.459 192.167 133.549 192.153 133.626 192.111C133.704 192.069 133.766 192.002 133.8 191.921C133.835 191.839 133.841 191.749 133.818 191.663C133.544 190.996 133.441 190.271 133.518 189.553C133.584 189.189 133.732 188.844 133.952 188.546C134.173 188.247 134.458 188.004 134.788 187.833C134.826 187.803 134.854 187.761 134.867 187.713C134.88 187.666 134.878 187.615 134.86 187.569C134.842 187.523 134.81 187.484 134.768 187.458C134.726 187.432 134.677 187.42 134.628 187.423Z" fill="white"/>
<path opacity="0.5" d="M286.008 147.763C282.338 147.533 278.438 149.083 275.008 150.103C271.218 151.203 266.618 152.373 263.508 154.913C263.368 155.023 263.508 155.283 263.668 155.203C270.868 151.863 278.458 150.143 286.088 148.203C286.117 148.198 286.144 148.187 286.169 148.171C286.194 148.155 286.215 148.135 286.232 148.111C286.248 148.087 286.26 148.059 286.266 148.031C286.272 148.002 286.273 147.972 286.268 147.943C286.262 147.915 286.252 147.887 286.236 147.862C286.22 147.838 286.199 147.816 286.175 147.8C286.151 147.783 286.124 147.771 286.095 147.765C286.066 147.759 286.037 147.758 286.008 147.763Z" fill="white"/>
<path opacity="0.5" d="M265.068 173.643C263.5 173.407 261.912 173.319 260.328 173.383C258.464 173.232 256.588 173.374 254.768 173.803C254.741 173.803 254.716 173.814 254.697 173.833C254.678 173.851 254.668 173.877 254.668 173.903C254.668 173.93 254.678 173.955 254.697 173.974C254.716 173.993 254.741 174.003 254.768 174.003C258.218 173.813 261.588 174.153 265.018 174.143C265.358 174.143 265.338 173.693 265.068 173.643Z" fill="white"/>
<path opacity="0.5" d="M170.088 235.903C168.388 234.853 165.698 234.723 163.768 234.823C161.488 234.953 158.768 235.013 156.668 236.053C156.558 236.113 156.588 236.303 156.728 236.283C158.65 235.951 160.59 235.727 162.538 235.613C165.058 235.543 167.398 236.213 169.868 236.393C170.108 236.403 170.348 236.063 170.088 235.903Z" fill="white"/>
<path opacity="0.5" d="M39.1578 66.9234C38.8678 66.8634 38.7178 67.3334 39.0078 67.4234C40.3078 67.8434 41.2078 68.9634 42.4378 69.4934C42.4921 69.5266 42.5575 69.5368 42.6193 69.5218C42.6812 69.5068 42.7346 69.4678 42.7678 69.4134C42.8009 69.3591 42.8111 69.2937 42.7961 69.2319C42.7811 69.17 42.7421 69.1166 42.6878 69.0834C41.6949 68.099 40.4862 67.3594 39.1578 66.9234Z" fill="white"/>
<path opacity="0.5" d="M6.78772 155.723C5.73334 154.725 4.56137 153.859 3.2977 153.143C3.23993 153.117 3.17448 153.113 3.11368 153.131C3.05288 153.149 3.00095 153.19 2.96771 153.244C2.93447 153.298 2.92223 153.362 2.93329 153.425C2.94434 153.488 2.97793 153.544 3.02771 153.583C4.20771 154.413 5.24772 155.463 6.50772 156.183C6.77772 156.343 7.00772 155.913 6.78772 155.723Z" fill="white"/>
<path d="M102.538 13.8434C100.538 15.1834 102.728 18.2434 104.758 16.8934C106.788 15.5434 104.558 12.4834 102.538 13.8434Z" fill="#00B9EF"/>
<path d="M177.718 0.36341C175.718 1.71341 177.918 4.76341 179.938 3.42341C181.958 2.08341 179.718 -0.98659 177.718 0.36341Z" fill="#00B9EF"/>
<path d="M87.3177 125.453C87.1855 125.267 87.0192 125.108 86.8277 124.983C86.5413 124.78 86.21 124.648 85.8619 124.599C85.5138 124.55 85.1591 124.586 84.8277 124.703C84.5777 124.792 84.342 124.917 84.1277 125.073V125.123C83.9826 125.233 83.8486 125.357 83.7277 125.493C83.4911 125.779 83.3387 126.126 83.2877 126.493C83.2377 126.79 83.2529 127.094 83.3324 127.384C83.4118 127.674 83.5536 127.944 83.7477 128.173L83.8477 128.283L83.9177 128.353C84.0993 128.554 84.3207 128.714 84.5677 128.823C84.8844 128.952 85.2272 129.004 85.5677 128.973C85.7677 128.964 85.9657 128.93 86.1577 128.873C86.5968 128.699 86.9828 128.413 87.2777 128.043C87.4904 127.795 87.639 127.499 87.7105 127.179C87.782 126.86 87.7741 126.529 87.6877 126.213C87.6199 125.937 87.4938 125.678 87.3177 125.453Z" fill="#00B9EF"/>
<path d="M179.498 80.7934C178.028 81.7934 179.638 83.9934 181.108 83.0234C182.578 82.0534 180.968 79.8134 179.498 80.7934Z" fill="#00B9EF"/>
<path d="M185.508 136.483C183.508 137.833 185.698 140.893 187.728 139.543C189.758 138.193 187.538 135.143 185.508 136.483Z" fill="#00B9EF"/>
<path d="M129.188 158.033C127.598 159.093 129.338 161.483 130.918 160.433C132.498 159.383 130.768 156.983 129.188 158.033Z" fill="#00B9EF"/>
<path d="M118.558 240.883C116.628 242.173 118.748 245.083 120.668 243.803C122.588 242.523 120.488 239.573 118.558 240.883Z" fill="#00B9EF"/>
<path d="M77.0577 184.783C76.8233 184.586 76.543 184.45 76.2424 184.389C75.9419 184.328 75.6308 184.343 75.3377 184.433C74.9821 184.563 74.6851 184.816 74.5014 185.147C74.3177 185.477 74.2595 185.863 74.3377 186.233C74.3672 186.484 74.4526 186.725 74.5876 186.939C74.7225 187.152 74.9036 187.333 75.1176 187.467C75.3315 187.602 75.5728 187.686 75.8238 187.715C76.0747 187.744 76.329 187.716 76.5677 187.633C76.8417 187.527 77.0834 187.351 77.2692 187.123C77.455 186.895 77.5785 186.623 77.6277 186.333C77.6794 186.048 77.6538 185.753 77.5535 185.481C77.4533 185.208 77.2822 184.968 77.0577 184.783Z" fill="#00B9EF"/>
<path d="M59.1678 210.273C57.6878 211.273 59.3078 213.473 60.7778 212.493C62.2478 211.513 60.6378 209.293 59.1678 210.273Z" fill="#00B9EF"/>
<path d="M8.57771 192.943C6.70771 194.183 8.75774 197.013 10.6377 195.763C12.5177 194.513 10.4477 191.693 8.57771 192.943Z" fill="#00B9EF"/>
<path d="M81.1578 218.843C80.8473 218.965 80.5722 219.162 80.3573 219.417C80.1425 219.672 79.9949 219.977 79.9278 220.303C79.8903 220.61 79.9312 220.922 80.0466 221.208C80.162 221.495 80.3482 221.748 80.5878 221.943C80.8405 222.136 81.1498 222.241 81.4678 222.241C81.7858 222.241 82.095 222.136 82.3478 221.943C82.5604 221.779 82.724 221.561 82.821 221.31C82.918 221.06 82.9445 220.788 82.8978 220.523C82.9699 220.284 82.9747 220.03 82.9116 219.788C82.8485 219.546 82.7201 219.326 82.5403 219.153C82.3605 218.979 82.1364 218.858 81.8925 218.804C81.6486 218.749 81.3944 218.763 81.1578 218.843Z" fill="#00B9EF"/>
<path d="M237.108 157.223C234.768 158.783 237.338 162.293 239.668 160.743C241.998 159.193 239.438 155.673 237.108 157.223Z" fill="#00B9EF"/>
<path d="M195.718 229.573C195.4 229.809 195.187 230.16 195.126 230.551C195.064 230.942 195.158 231.341 195.388 231.663L195.638 232.043C195.872 232.364 196.223 232.578 196.615 232.64C197.006 232.702 197.407 232.606 197.728 232.373C198.045 232.138 198.258 231.788 198.322 231.397C198.385 231.007 198.294 230.608 198.068 230.283L197.808 229.903C197.574 229.583 197.223 229.369 196.831 229.307C196.439 229.245 196.039 229.341 195.718 229.573Z" fill="#00B9EF"/>
<path d="M238.028 45.1734C236.288 46.3334 238.198 48.9534 239.938 47.8034C241.678 46.6534 239.768 44.0134 238.028 45.1734Z" fill="#00B9EF"/>
<path d="M290.938 129.573C290.778 129.673 290.938 129.903 291.098 129.803C291.258 129.703 291.088 129.483 290.938 129.573Z" fill="#00B9EF"/>
<path d="M289.718 127.373L289.408 127.053C289.101 126.818 288.725 126.691 288.338 126.691C287.951 126.691 287.575 126.818 287.268 127.053C286.966 127.278 286.744 127.593 286.633 127.953C286.521 128.312 286.526 128.697 286.648 129.053L286.828 129.463C286.931 129.728 287.093 129.965 287.301 130.158C287.509 130.351 287.759 130.493 288.031 130.575C288.302 130.657 288.589 130.676 288.869 130.631C289.15 130.586 289.416 130.477 289.648 130.313C290.04 130.024 290.305 129.594 290.388 129.113C290.426 128.791 290.385 128.464 290.268 128.161C290.151 127.857 289.962 127.587 289.718 127.373Z" fill="#00B9EF"/>
<path d="M34.8377 103.393C32.8377 104.743 35.0277 107.803 37.0577 106.453C39.0877 105.103 36.8577 102.043 34.8377 103.393Z" fill="#00B9EF"/>
<path d="M89.8178 45.2534C89.6449 44.9518 89.3674 44.7241 89.0378 44.6134H88.9678C89.0859 44.6777 89.1966 44.7548 89.2978 44.8434C88.9147 44.5387 88.4423 44.3678 87.9529 44.357C87.4635 44.3462 86.984 44.4959 86.5878 44.7834C86.1915 45.0698 85.8998 45.4779 85.7571 45.9456C85.6145 46.4132 85.6288 46.9147 85.7978 47.3734C85.9714 47.8365 86.2927 48.2295 86.7121 48.4916C87.1314 48.7537 87.6255 48.8703 88.1178 48.8234C88.4012 48.7922 88.6761 48.7073 88.9278 48.5734C89.1982 48.5289 89.4548 48.4228 89.6778 48.2634C89.878 48.1205 90.0475 47.9389 90.1763 47.7294C90.3051 47.5198 90.3907 47.2866 90.4278 47.0434C90.4927 46.5553 90.3751 46.0603 90.0978 45.6534C90.022 45.5086 89.9279 45.3742 89.8178 45.2534Z" fill="#F9CBDF"/>
<path d="M140.948 9.29343C138.668 10.8134 141.168 14.2934 143.448 12.7334C145.728 11.1734 143.228 7.78343 140.948 9.29343Z" fill="#F9CBDF"/>
<path d="M86.1678 102.223C85.789 102.17 85.4029 102.238 85.0652 102.418C84.7274 102.597 84.4553 102.879 84.2878 103.223C84.1778 103.423 84.0678 103.633 83.9478 103.833C83.8341 104.109 83.7835 104.407 83.7997 104.704C83.8159 105.002 83.8984 105.292 84.0412 105.554C84.184 105.816 84.3836 106.042 84.6252 106.217C84.8669 106.391 85.1445 106.51 85.4378 106.563C85.7335 106.605 86.0346 106.579 86.3191 106.489C86.6036 106.398 86.8642 106.245 87.0819 106.041C87.2996 105.837 87.4688 105.586 87.5771 105.308C87.6854 105.03 87.7301 104.731 87.7078 104.433C87.7078 104.203 87.6578 103.973 87.6378 103.753C87.5879 103.375 87.4184 103.022 87.1539 102.747C86.8895 102.472 86.5439 102.288 86.1678 102.223Z" fill="#F9CBDF"/>
<path d="M146.248 58.3834C144.158 59.7734 146.448 62.9134 148.528 61.5334C150.608 60.1534 148.328 56.9934 146.248 58.3834Z" fill="#F9CBDF"/>
<path d="M190.078 16.0634C189.837 16.1693 189.604 16.2895 189.378 16.4234C189.116 16.5543 188.885 16.7382 188.698 16.9634L188.628 17.0234V17.1034C188.288 17.5704 188.148 18.1531 188.238 18.7234C188.253 18.9047 188.294 19.083 188.358 19.2534C188.444 19.4696 188.562 19.6718 188.708 19.8534L188.808 19.9734C188.849 20.0249 188.896 20.0718 188.948 20.1134C188.989 20.1649 189.036 20.2118 189.088 20.2534L189.178 20.3134C189.53 20.5695 189.952 20.7125 190.388 20.7234H190.768C190.952 20.7074 191.134 20.667 191.308 20.6034C191.667 20.4761 191.992 20.2673 192.258 19.9934C192.582 19.7509 192.839 19.4312 193.008 19.0634C193.243 18.5174 193.261 17.9021 193.058 17.3434C192.831 16.7796 192.39 16.3286 191.832 16.0887C191.273 15.8489 190.643 15.8398 190.078 16.0634Z" fill="#F9CBDF"/>
<path d="M211.468 52.9134C208.988 54.5534 211.698 58.2734 214.158 56.6334C216.618 54.9934 213.928 51.2634 211.468 52.9134Z" fill="#F9CBDF"/>
<path d="M242.198 87.1134C240.138 88.4934 242.408 91.6034 244.458 90.2334C246.508 88.8634 244.268 85.7434 242.198 87.1134Z" fill="#F9CBDF"/>
<path d="M279.028 104.883C276.628 106.473 279.258 110.073 281.638 108.483C284.018 106.893 281.408 103.293 279.028 104.883Z" fill="#F9CBDF"/>
<path d="M251.608 144.183C251.14 143.977 250.611 143.957 250.13 144.128C249.648 144.299 249.25 144.648 249.018 145.103C248.902 145.383 248.882 145.692 248.962 145.984C249.041 146.275 249.216 146.532 249.458 146.713C249.726 147.1 250.137 147.364 250.6 147.448C251.063 147.532 251.54 147.43 251.928 147.163C252.17 146.983 252.362 146.742 252.483 146.464C252.604 146.187 252.651 145.883 252.619 145.582C252.586 145.281 252.476 144.994 252.299 144.749C252.121 144.503 251.883 144.309 251.608 144.183Z" fill="#F9CBDF"/>
<path d="M228.018 119.053C227.72 119.01 227.415 119.035 227.128 119.126C226.841 119.216 226.578 119.371 226.358 119.578C226.139 119.784 225.969 120.038 225.862 120.32C225.755 120.601 225.712 120.903 225.738 121.203C225.751 121.73 225.941 122.238 226.278 122.643C226.485 122.92 226.776 123.123 227.106 123.224C227.437 123.324 227.791 123.317 228.118 123.203C228.479 123.06 228.804 122.838 229.068 122.553C229.247 122.322 229.398 122.07 229.518 121.803C229.635 121.526 229.688 121.226 229.673 120.925C229.659 120.624 229.576 120.331 229.432 120.066C229.287 119.802 229.085 119.574 228.841 119.398C228.596 119.223 228.315 119.105 228.018 119.053Z" fill="#F9CBDF"/>
<path d="M195.578 143.303C195.223 143.338 194.884 143.466 194.596 143.675C194.308 143.885 194.08 144.167 193.938 144.493C193.792 144.825 193.736 145.188 193.774 145.548C193.813 145.907 193.945 146.251 194.158 146.543C194.258 146.653 194.358 146.783 194.458 146.903C194.723 147.253 195.093 147.509 195.514 147.635C195.934 147.761 196.384 147.75 196.798 147.603C197.046 147.512 197.274 147.373 197.468 147.193C197.663 147.013 197.819 146.796 197.929 146.555C198.039 146.314 198.1 146.054 198.108 145.789C198.116 145.524 198.072 145.261 197.978 145.013L197.768 144.603C197.585 144.184 197.275 143.834 196.882 143.6C196.489 143.367 196.033 143.263 195.578 143.303Z" fill="#F9CBDF"/>
<path d="M178.798 104.153H178.598C178.062 104.162 177.544 104.354 177.133 104.698C176.722 105.042 176.441 105.517 176.338 106.043C176.28 106.579 176.4 107.118 176.681 107.577C176.961 108.036 177.385 108.39 177.888 108.583L178.078 108.673C178.411 108.814 178.771 108.878 179.132 108.86C179.493 108.842 179.845 108.743 180.162 108.57C180.48 108.397 180.754 108.155 180.964 107.861C181.175 107.567 181.316 107.23 181.378 106.873C181.425 106.517 181.392 106.155 181.281 105.813C181.171 105.471 180.985 105.158 180.737 104.897C180.49 104.637 180.187 104.434 179.852 104.306C179.516 104.177 179.156 104.125 178.798 104.153Z" fill="#F9CBDF"/>
<path d="M102.168 133.103C99.7978 134.683 102.398 138.263 104.768 136.683C107.138 135.103 104.538 131.573 102.168 133.103Z" fill="#F9CBDF"/>
<path d="M72.7178 158.573C72.5305 158.571 72.3443 158.601 72.1678 158.663C71.8264 158.791 71.5366 159.028 71.3433 159.337C71.1499 159.646 71.0636 160.01 71.0978 160.373C71.0978 160.523 71.1478 160.673 71.1678 160.823C71.2232 161.306 71.4613 161.749 71.8333 162.062C72.2053 162.374 72.6828 162.532 73.1678 162.503C73.6549 162.392 74.1187 162.196 74.5378 161.923C74.9485 161.621 75.2239 161.17 75.3043 160.667C75.3848 160.163 75.2639 159.648 74.9678 159.233C74.7099 158.901 74.3536 158.658 73.9496 158.539C73.5456 158.421 73.1145 158.433 72.7178 158.573Z" fill="#F9CBDF"/>
<path d="M45.6278 132.573C45.2942 132.94 45.0925 133.408 45.0544 133.902C45.0164 134.397 45.1443 134.89 45.4178 135.303C45.7514 135.75 46.2468 136.048 46.7977 136.133C47.2376 136.181 47.6825 136.126 48.0978 135.973C48.409 135.854 48.6888 135.664 48.9158 135.42C49.1427 135.175 49.3109 134.882 49.4073 134.563C49.5038 134.244 49.526 133.907 49.4724 133.577C49.4187 133.248 49.2906 132.936 49.0978 132.663C48.8978 132.396 48.6397 132.177 48.343 132.023C48.0463 131.87 47.7186 131.786 47.3846 131.777C47.0506 131.768 46.719 131.835 46.4147 131.973C46.1104 132.111 45.8413 132.316 45.6278 132.573Z" fill="#F9CBDF"/>
<path d="M122.398 181.903C122.108 181.507 121.673 181.241 121.187 181.164C120.702 181.088 120.206 181.206 119.808 181.493C119.556 181.682 119.343 181.919 119.184 182.19C119.024 182.461 118.92 182.761 118.878 183.073C118.839 183.643 118.983 184.211 119.288 184.693C119.515 185.013 119.841 185.248 120.215 185.362C120.59 185.476 120.992 185.462 121.358 185.323C121.639 185.215 121.888 185.037 122.082 184.806C122.276 184.575 122.409 184.299 122.468 184.003C122.66 183.684 122.756 183.316 122.744 182.943C122.731 182.57 122.611 182.209 122.398 181.903Z" fill="#F9CBDF"/>
<path d="M100.268 252.703C99.0978 253.483 100.378 255.233 101.538 254.463C102.698 253.693 101.428 251.923 100.268 252.703Z" fill="#F9CBDF"/>
<path d="M168.578 222.653C166.508 224.033 168.778 227.143 170.838 225.763C172.898 224.383 170.638 221.283 168.578 222.653Z" fill="#F9CBDF"/>
<path d="M185.108 186.203C182.608 187.863 185.348 191.603 187.828 189.953C190.308 188.303 187.588 184.573 185.108 186.203Z" fill="#F9CBDF"/>
<path d="M231.928 178.683C229.928 180.033 232.118 183.093 234.148 181.743C236.178 180.393 233.948 177.333 231.928 178.683Z" fill="#F9CBDF"/>
<path d="M266.158 51.7134C264.158 53.0634 266.348 56.1134 268.368 54.7734C270.388 53.4334 268.178 50.3634 266.158 51.7134Z" fill="#F9CBDF"/>
<path d="M35.8178 85.6234C34.2778 86.6234 35.9678 88.9534 37.4878 87.9334C39.0078 86.9134 37.3478 84.5734 35.8178 85.6234Z" fill="#F9CBDF"/>
<path d="M55.9677 193.063C54.2277 194.223 56.1377 196.843 57.8777 195.693C59.6177 194.543 57.7177 191.903 55.9677 193.063Z" fill="#F9CBDF"/>
<path d="M71.4978 226.963C70.3978 227.703 71.6078 229.373 72.7178 228.633C73.8278 227.893 72.6078 226.223 71.4978 226.963Z" fill="#F9CBDF"/>
<path d="M52.1978 208.623C51.2578 209.243 52.2878 210.623 53.1978 210.033C54.1078 209.443 53.1278 208.003 52.1978 208.623Z" fill="#F9CBDF"/>
<path d="M72.7178 206.403C72.4456 206.285 72.1499 206.231 71.8535 206.245C71.557 206.258 71.2677 206.34 71.0078 206.483C70.6263 206.634 70.318 206.926 70.1482 207.299C69.9784 207.672 69.9603 208.097 70.0978 208.483C70.1823 208.706 70.3166 208.906 70.4905 209.069C70.6645 209.232 70.8734 209.353 71.1012 209.422C71.329 209.492 71.5697 209.508 71.8049 209.47C72.04 209.432 72.2634 209.341 72.4578 209.203C72.7211 209.035 72.9425 208.809 73.1054 208.542C73.2682 208.275 73.3682 207.975 73.3978 207.663C73.4365 207.408 73.3912 207.147 73.2685 206.92C73.1458 206.692 72.9525 206.511 72.7178 206.403Z" fill="#F9CBDF"/>
<path d="M93.5178 108.793C92.1978 109.673 93.6478 111.663 94.9578 110.793C96.2678 109.923 94.8378 107.923 93.5178 108.793Z" fill="#FFF200"/>
<path d="M73.8677 61.8834C71.8677 63.2234 74.0577 66.2534 76.0677 64.8834C78.0777 63.5134 75.8777 60.5734 73.8677 61.8834Z" fill="#FFF200"/>
<path d="M47.9278 78.9134C48.0854 79.2204 48.3111 79.4872 48.5878 79.6934C49.0278 79.9734 49.7978 79.6934 49.6878 79.1034C49.5916 78.7062 49.4109 78.3344 49.1578 78.0134C48.6178 77.1934 47.3778 78.0934 47.9278 78.9134Z" fill="#FFF200"/>
<path d="M48.8778 117.773C48.0178 118.353 48.9578 119.643 49.8178 119.073C50.6778 118.503 49.7178 117.203 48.8778 117.773Z" fill="#FFF200"/>
<path d="M42.9477 152.213C41.7477 153.013 43.0677 154.833 44.2677 154.033C45.4677 153.233 44.1577 151.413 42.9477 152.213Z" fill="#FFF200"/>
<path d="M72.9378 179.723C71.6278 180.593 73.0578 182.553 74.3578 181.723C75.6578 180.893 74.2278 178.863 72.9378 179.723Z" fill="#FFF200"/>
<path d="M71.6477 150.373C71.3977 150.543 71.6477 150.913 71.9177 150.753C72.1877 150.593 71.8977 150.213 71.6477 150.373Z" fill="#FFF200"/>
<path d="M121.718 135.203C120.078 136.293 121.878 138.773 123.518 137.683C125.158 136.593 123.388 134.103 121.718 135.203Z" fill="#FFF200"/>
<path d="M138.918 102.443C137.678 103.273 139.038 105.143 140.278 104.313C141.518 103.483 140.168 101.573 138.918 102.443Z" fill="#FFF200"/>
<path d="M230.718 58.6934C228.278 60.3134 230.948 63.9734 233.378 62.3634C235.808 60.7534 233.178 57.0834 230.718 58.6934Z" fill="#FFF200"/>
<path d="M200.528 92.3334C198.868 93.4434 200.698 95.9434 202.358 94.8434C204.018 93.7434 202.198 91.2234 200.528 92.3334Z" fill="#FFF200"/>
<path d="M215.188 117.333C213.828 118.243 215.318 120.283 216.678 119.333C218.038 118.383 216.548 116.433 215.188 117.333Z" fill="#FFF200"/>
<path d="M189.558 125.173C189.008 125.543 189.558 126.383 190.168 126.013C190.778 125.643 190.108 124.813 189.558 125.173Z" fill="#FFF200"/>
<path d="M186.288 159.813C185.288 160.443 186.378 161.893 187.338 161.253C188.298 160.613 187.248 159.173 186.288 159.813Z" fill="#FFF200"/>
<path d="M166.458 136.163C165.138 137.043 166.588 139.023 167.898 138.163C169.208 137.303 167.778 135.283 166.458 136.163Z" fill="#FFF200"/>
<path d="M152.138 178.513C150.738 179.443 152.278 181.513 153.668 180.623C155.058 179.733 153.538 177.573 152.138 178.513Z" fill="#FFF200"/>
<path d="M136.958 174.113L136.368 174.053C135.968 174.053 135.728 174.633 136.158 174.763L136.718 174.923C137.338 175.113 137.548 174.183 136.958 174.113Z" fill="#FFF200"/>
<path d="M119.048 197.243C117.858 198.033 119.168 199.813 120.348 199.023C121.528 198.233 120.238 196.443 119.048 197.243Z" fill="#FFF200"/>
<path d="M152.538 227.353L152.328 227.143C152.078 226.952 151.772 226.848 151.458 226.848C151.143 226.848 150.837 226.952 150.588 227.143C150.335 227.328 150.15 227.59 150.06 227.89C149.97 228.189 149.98 228.51 150.088 228.803C150.088 228.903 150.158 228.993 150.198 229.093C150.281 229.307 150.413 229.498 150.582 229.654C150.75 229.809 150.952 229.924 151.172 229.989C151.392 230.055 151.624 230.069 151.85 230.032C152.076 229.995 152.291 229.906 152.478 229.773C152.64 229.655 152.778 229.506 152.882 229.334C152.987 229.162 153.057 228.972 153.088 228.773C153.125 228.509 153.094 228.24 152.998 227.992C152.902 227.743 152.743 227.523 152.538 227.353Z" fill="#FFF200"/>
<path d="M192.948 200.293C190.518 201.913 193.188 205.583 195.608 203.963C198.028 202.343 195.378 198.683 192.948 200.293Z" fill="#FFF200"/>
<path d="M180.048 232.573C178.398 233.663 180.198 236.143 181.848 235.053C183.498 233.963 181.718 231.453 180.048 232.573Z" fill="#FFF200"/>
<path d="M259.818 116.683C258.188 117.763 259.978 120.213 261.598 119.133C263.218 118.053 261.438 115.573 259.818 116.683Z" fill="#FFF200"/>
<path d="M283.918 80.6534C282.078 81.8834 284.088 84.6534 285.918 83.4234C287.748 82.1934 285.718 79.4334 283.918 80.6534Z" fill="#FFF200"/>
<path d="M199.768 37.1834C199.633 37.2871 199.524 37.4204 199.449 37.573C199.373 37.7255 199.334 37.8933 199.334 38.0634C199.334 38.2335 199.373 38.4013 199.449 38.5539C199.524 38.7065 199.633 38.8398 199.768 38.9434L200.098 39.1834C200.267 39.304 200.47 39.3688 200.678 39.3688C200.886 39.3688 201.088 39.304 201.258 39.1834C201.425 39.0561 201.548 38.8794 201.609 38.6784C201.67 38.4773 201.666 38.2622 201.598 38.0634C201.598 37.9334 201.528 37.8034 201.498 37.6634C201.436 37.4995 201.337 37.3524 201.208 37.2341C201.079 37.1158 200.924 37.0298 200.755 36.983C200.586 36.9362 200.409 36.9299 200.237 36.9648C200.066 36.9996 199.905 37.0745 199.768 37.1834Z" fill="#FFF200"/>
<path d="M181.278 61.1034C180.518 61.6134 181.358 62.7634 182.118 62.2534C182.878 61.7434 182.048 60.5734 181.278 61.1034Z" fill="#FFF200"/>
<path d="M171.818 38.6234C171.599 38.7097 171.402 38.8443 171.243 39.0172C171.084 39.1901 170.965 39.3967 170.897 39.6218C170.829 39.8468 170.812 40.0844 170.849 40.3167C170.885 40.5491 170.974 40.7701 171.108 40.9634C171.269 41.1787 171.483 41.3485 171.729 41.4561C171.975 41.5637 172.245 41.6055 172.512 41.5772C172.78 41.549 173.035 41.4518 173.253 41.2951C173.472 41.1384 173.645 40.9276 173.758 40.6834C173.873 40.4073 173.905 40.1037 173.852 39.8094C173.798 39.5151 173.66 39.2426 173.455 39.0248C173.25 38.807 172.986 38.6532 172.696 38.582C172.405 38.5108 172.1 38.5252 171.818 38.6234Z" fill="#FFF200"/>
<path d="M143.318 20.8834C143.005 20.8374 142.687 20.9166 142.432 21.1038C142.178 21.2911 142.007 21.5712 141.958 21.8834C141.958 22.0434 141.888 22.2034 141.858 22.3734C141.809 22.6876 141.887 23.0085 142.074 23.2653C142.262 23.5222 142.544 23.6942 142.858 23.7434C143.171 23.787 143.489 23.707 143.745 23.5204C144.001 23.3338 144.174 23.0552 144.228 22.7434L144.318 22.2534C144.345 22.0975 144.34 21.9377 144.304 21.7836C144.268 21.6295 144.201 21.4842 144.108 21.3564C144.015 21.2286 143.897 21.1209 143.761 21.0396C143.625 20.9583 143.475 20.9052 143.318 20.8834Z" fill="#FFF200"/>
<path d="M108.188 29.7734C106.508 30.8934 108.358 33.4334 110.038 32.3134C111.718 31.1934 109.878 28.6534 108.188 29.7734Z" fill="#FFF200"/>
<path d="M118.718 66.8734C117.118 67.9534 118.878 70.3734 120.478 69.3034C122.078 68.2334 120.348 65.8034 118.718 66.8734Z" fill="#FFF200"/>
<path d="M102.108 237.323C101.921 237.244 101.719 237.207 101.516 237.216C101.314 237.225 101.116 237.279 100.937 237.375C100.758 237.471 100.603 237.607 100.484 237.771C100.365 237.935 100.284 238.124 100.248 238.323C100.248 238.513 100.248 238.713 100.198 238.903C100.159 239.18 100.21 239.461 100.343 239.706C100.477 239.951 100.685 240.146 100.938 240.263C101.09 240.331 101.254 240.368 101.421 240.373C101.587 240.377 101.753 240.348 101.909 240.287C102.064 240.227 102.206 240.136 102.326 240.02C102.446 239.905 102.542 239.766 102.608 239.613L102.788 239.063C102.918 238.741 102.92 238.382 102.794 238.058C102.667 237.735 102.422 237.472 102.108 237.323Z" fill="#FFF200"/>
<path d="M78.3078 262.193C77.9078 262.463 78.3078 263.073 78.7478 262.803C79.1878 262.533 78.7178 261.923 78.3078 262.193Z" fill="#FFF200"/>
<path d="M23.7678 187.213C23.4278 187.433 23.7678 187.953 24.1478 187.733C24.5278 187.513 24.1178 186.983 23.7678 187.213Z" fill="#FFF200"/>
<path d="M17.3878 221.733C16.5078 222.323 17.4778 223.653 18.3878 223.073C19.2978 222.493 18.2678 221.153 17.3878 221.733Z" fill="#FFF200"/>
</svg>
