<svg width="16" height="16" viewBox="0 0 16 16" fill="none" xmlns="http://www.w3.org/2000/svg">
<g opacity="0.4" clip-path="url(#clip0_789_901)">
<path d="M0.0155589 5.80286H15.8997C15.8997 5.88339 15.9152 5.94415 15.9152 6.01903C15.9152 8.61129 15.9152 11.2017 15.9152 13.7901C15.9152 14.8018 15.3684 15.5888 14.4642 15.8799C14.2282 15.9536 13.9823 15.9903 13.7351 15.9887C9.89571 15.9953 6.05678 15.9953 2.21833 15.9887C0.891587 15.9887 0.00851907 15.0914 0.00569321 13.7647C0.00569321 11.1904 0.00569321 8.616 0.00569321 6.04164C0.00286735 5.97241 0.0113201 5.89752 0.0155589 5.80286ZM12.3985 11.6538C12.5494 11.6515 12.6962 11.6044 12.8203 11.5186C12.9444 11.4327 13.0402 11.3119 13.0955 11.1715C13.1508 11.0311 13.1632 10.8774 13.131 10.73C13.0989 10.5825 13.0236 10.448 12.9148 10.3434C12.806 10.2388 12.6686 10.1688 12.52 10.1425C12.3715 10.1161 12.2184 10.1345 12.0803 10.1952C11.9421 10.256 11.8252 10.3565 11.7442 10.4838C11.6633 10.6112 11.622 10.7597 11.6256 10.9106C11.6322 11.1107 11.7167 11.3004 11.861 11.4392C12.0054 11.578 12.1982 11.655 12.3985 11.6538ZM3.52953 14.3624C3.72648 14.3573 3.91384 14.2763 4.05241 14.1362C4.19097 13.9962 4.26998 13.808 4.2729 13.611C4.27582 13.414 4.20242 13.2235 4.06807 13.0794C3.93372 12.9353 3.74884 12.8487 3.55212 12.8378C3.44949 12.8322 3.34676 12.8473 3.25012 12.8823C3.15347 12.9173 3.0649 12.9715 2.98971 13.0416C2.91453 13.1117 2.8543 13.1962 2.81261 13.2902C2.77092 13.3841 2.74863 13.4856 2.74711 13.5883C2.74558 13.6911 2.76486 13.7931 2.80375 13.8883C2.84263 13.9834 2.90032 14.0698 2.97339 14.142C3.04647 14.2143 3.13341 14.2711 3.22897 14.309C3.32453 14.3468 3.42677 14.365 3.52953 14.3624ZM3.54222 11.6552C3.74273 11.653 3.93428 11.5718 4.07528 11.4292C4.21627 11.2866 4.29534 11.0942 4.29532 10.8936C4.29531 10.7427 4.25044 10.5951 4.16638 10.4697C4.08232 10.3442 3.96287 10.2466 3.82322 10.1893C3.68357 10.1319 3.52998 10.1173 3.38203 10.1474C3.23407 10.1775 3.09839 10.2508 2.99223 10.3582C2.88607 10.4656 2.81423 10.602 2.78581 10.7503C2.75739 10.8986 2.77368 11.052 2.83262 11.191C2.89156 11.33 2.99051 11.4483 3.11686 11.531C3.24321 11.6137 3.39125 11.6569 3.54222 11.6552ZM6.49668 12.8364C6.34551 12.8336 6.19692 12.8758 6.06976 12.9576C5.94261 13.0394 5.8426 13.1572 5.78249 13.2959C5.72237 13.4346 5.70483 13.5881 5.73209 13.7368C5.75935 13.8855 5.83017 14.0228 5.93558 14.1312C6.04099 14.2396 6.17623 14.3142 6.32413 14.3456C6.47203 14.377 6.62594 14.3638 6.76629 14.3075C6.90665 14.2513 7.02713 14.1546 7.11245 14.0298C7.19778 13.905 7.24411 13.7576 7.24554 13.6065C7.24597 13.4057 7.16787 13.2128 7.02794 13.0689C6.88801 12.925 6.69733 12.8416 6.49668 12.8364ZM7.24554 8.18929C7.24553 8.03871 7.20079 7.89152 7.11701 7.76639C7.03323 7.64126 6.91418 7.54384 6.77495 7.48648C6.63572 7.42911 6.48257 7.41439 6.33496 7.44418C6.18736 7.47397 6.05194 7.54693 5.94586 7.65381C5.83978 7.76069 5.76782 7.89666 5.73913 8.04449C5.71044 8.19231 5.72629 8.34533 5.78469 8.48413C5.8431 8.62293 5.94143 8.74125 6.06718 8.82409C6.19292 8.90694 6.34044 8.95057 6.49102 8.94945C6.69153 8.94759 6.8832 8.86673 7.02446 8.72441C7.16571 8.58209 7.24517 8.38981 7.24554 8.18929ZM6.47546 10.1363C6.32468 10.1383 6.1779 10.185 6.05369 10.2705C5.92948 10.356 5.83344 10.4765 5.77776 10.6166C5.72208 10.7567 5.70923 10.9102 5.74089 11.0577C5.77254 11.2051 5.84728 11.3398 5.95558 11.4448C6.06389 11.5497 6.20088 11.6201 6.34924 11.6471C6.49761 11.6741 6.65065 11.6564 6.78896 11.5963C6.92726 11.5362 7.04462 11.4364 7.12615 11.3096C7.20768 11.1827 7.24974 11.0345 7.24695 10.8837C7.24106 10.6832 7.15712 10.4929 7.01304 10.3533C6.86896 10.2137 6.67608 10.1359 6.47546 10.1363ZM13.1515 8.20342C13.1541 8.05224 13.1116 7.90373 13.0296 7.77672C12.9475 7.64972 12.8296 7.54995 12.6908 7.49009C12.5519 7.43023 12.3984 7.41297 12.2497 7.4405C12.1011 7.46804 11.9639 7.53912 11.8557 7.64473C11.7475 7.75035 11.6732 7.88573 11.642 8.03369C11.6109 8.18165 11.6245 8.33552 11.6809 8.47577C11.7374 8.61602 11.8343 8.73633 11.9593 8.82142C12.0843 8.90651 12.2317 8.95255 12.3829 8.95369C12.5844 8.95372 12.7778 8.87468 12.9215 8.73358C13.0652 8.59247 13.1478 8.40058 13.1515 8.19918V8.20342ZM10.1957 13.6022C10.1946 13.452 10.1489 13.3056 10.0645 13.1814C9.98006 13.0572 9.86067 12.9608 9.72144 12.9045C9.58221 12.8482 9.42941 12.8345 9.28238 12.8651C9.13535 12.8957 9.00072 12.9693 8.89552 13.0764C8.79032 13.1836 8.71926 13.3196 8.69141 13.4672C8.66355 13.6148 8.68012 13.7673 8.73901 13.9054C8.7979 14.0436 8.89646 14.1612 9.02222 14.2433C9.14797 14.3254 9.29527 14.3683 9.44544 14.3666C9.64657 14.3633 9.83823 14.2806 9.97874 14.1367C10.1192 13.9927 10.1972 13.7991 10.1957 13.598V13.6022ZM10.1957 8.18364C10.1873 7.98789 10.1036 7.80296 9.96208 7.66743C9.82058 7.53191 9.6322 7.45625 9.43626 7.45625C9.24033 7.45625 9.05195 7.53191 8.91045 7.66743C8.76895 7.80296 8.68526 7.98789 8.67682 8.18364C8.67239 8.28613 8.68876 8.38845 8.72494 8.48444C8.76111 8.58044 8.81635 8.66812 8.88731 8.7422C8.95826 8.81629 9.04346 8.87524 9.13781 8.91552C9.23216 8.9558 9.33368 8.97656 9.43626 8.97656C9.53885 8.97656 9.64037 8.9558 9.73472 8.91552C9.82906 8.87524 9.9143 8.81629 9.98526 8.7422C10.0562 8.66812 10.1114 8.58044 10.1476 8.48444C10.1838 8.38845 10.2001 8.28613 10.1957 8.18364ZM8.67964 10.8682C8.6714 11.0691 8.74328 11.265 8.87948 11.4128C9.01567 11.5607 9.20502 11.6484 9.40587 11.6566C9.60673 11.6649 9.80266 11.593 9.95052 11.4568C10.0984 11.3206 10.1861 11.1312 10.1943 10.9304C10.1988 10.829 10.1832 10.7278 10.1484 10.6325C10.1135 10.5372 10.0601 10.4498 9.99129 10.3753C9.92244 10.3008 9.83951 10.2407 9.74727 10.1984C9.65503 10.1562 9.55532 10.1327 9.45393 10.1292C9.25327 10.1254 9.05927 10.2012 8.91421 10.3399C8.76916 10.4786 8.68483 10.669 8.67964 10.8696V10.8682Z" fill="black"/>
<path d="M5.66163 1.07244H10.2551C10.2551 1.16287 10.2706 1.25613 10.2706 1.35503C10.2706 1.71674 10.2551 2.08127 10.2706 2.44157C10.273 2.59112 10.3049 2.73874 10.3643 2.87598C10.4238 3.01323 10.5097 3.13741 10.6172 3.24146C10.7246 3.3455 10.8515 3.42736 10.9906 3.48237C11.1297 3.53737 11.2782 3.56444 11.4278 3.56202C11.5773 3.55961 11.725 3.52777 11.8622 3.46831C11.9994 3.40885 12.1236 3.32294 12.2277 3.21548C12.3317 3.10803 12.4136 2.98113 12.4686 2.84204C12.5236 2.70295 12.5507 2.55439 12.5482 2.40483C12.5595 2.0516 12.5482 1.69837 12.5482 1.34373V1.09364C13.1134 1.09364 13.6616 1.04277 14.1915 1.10494C15.0929 1.21232 15.8305 2.03747 15.887 2.98414C15.9294 3.60865 15.8955 4.2374 15.8955 4.88876H0.0141552C0.00248642 4.83478 -0.00505846 4.77999 -0.00843922 4.72486C-0.00843922 4.21056 -0.0169168 3.69766 -0.00843922 3.18477C0.0155806 1.99509 0.83931 1.12755 2.03182 1.05831C2.41049 1.03571 2.79199 1.05831 3.17206 1.04842C3.33314 1.04842 3.36424 1.12048 3.36282 1.25895C3.36282 1.63055 3.34869 2.00215 3.36282 2.37375C3.38684 3.04772 3.86156 3.52246 4.5002 3.52811C5.13885 3.53376 5.61784 3.04913 5.64328 2.37658C5.67436 1.94987 5.66163 1.51752 5.66163 1.07244Z" fill="black"/>
<path d="M5.09778 1.46941C5.09778 1.76048 5.09778 2.05154 5.09778 2.3426C5.09778 2.70431 4.86889 2.94451 4.53968 2.9544C4.4599 2.96029 4.37979 2.94918 4.30463 2.9218C4.22946 2.89441 4.16095 2.85139 4.10366 2.79556C4.04636 2.73973 4.00156 2.67237 3.97223 2.59794C3.9429 2.52351 3.92971 2.44371 3.93353 2.3638C3.92222 1.76472 3.92222 1.16516 3.93353 0.565139C3.93353 0.411499 3.99457 0.264151 4.10321 0.155512C4.21185 0.0468716 4.3592 -0.0141602 4.51284 -0.0141602C4.66648 -0.0141602 4.81383 0.0468716 4.92247 0.155512C5.03111 0.264151 5.09216 0.411499 5.09216 0.565139C5.10063 0.86468 5.09216 1.16422 5.09216 1.46376L5.09778 1.46941Z" fill="black"/>
<path d="M10.8343 1.45254C10.8343 1.16995 10.8343 0.887365 10.8343 0.604779C10.8311 0.527743 10.8432 0.450838 10.87 0.378527C10.8967 0.306215 10.9376 0.239937 10.9901 0.183544C11.0427 0.127151 11.106 0.0817662 11.1762 0.0500233C11.2465 0.0182803 11.3224 0.000812633 11.3995 -0.00136614C11.4774 -0.00491929 11.5552 0.00768767 11.628 0.0356624C11.7008 0.0636372 11.767 0.106374 11.8224 0.161184C11.8779 0.215995 11.9214 0.281691 11.9503 0.354143C11.9791 0.426594 11.9927 0.504234 11.9901 0.582174C12.0014 1.18126 12 1.78175 11.9901 2.38083C11.9862 2.53024 11.9249 2.67241 11.8189 2.77776C11.7128 2.88311 11.5703 2.94352 11.4209 2.94643C11.2714 2.94934 11.1266 2.89453 11.0166 2.79339C10.9066 2.69226 10.8397 2.55258 10.8301 2.40344C10.8145 2.0827 10.8343 1.76903 10.8343 1.45254Z" fill="black"/>
</g>
<defs>
<clipPath id="clip0_789_901">
<rect width="15.9209" height="16" fill="white"/>
</clipPath>
</defs>
</svg>
