<svg width="191" height="147" viewBox="0 0 191 147" fill="none" xmlns="http://www.w3.org/2000/svg">
<g filter="url(#filter0_d_1367_208)">
<path d="M32.1269 128.368L167.936 130.905C169.285 130.93 170.626 130.685 171.879 130.184C173.132 129.684 174.272 128.937 175.233 127.99C176.194 127.043 176.956 125.913 177.474 124.667C177.992 123.421 178.256 122.084 178.25 120.735L177.876 35.9918C177.734 24.4989 170.638 15.5491 159.128 15.6899L21.9819 13.6286C20.7245 13.6135 19.4768 13.8492 18.3117 14.3221C17.1465 14.7949 16.0874 15.4953 15.1962 16.3824C14.305 17.2695 13.5997 18.3253 13.1214 19.4882C12.6432 20.6512 12.4017 21.8979 12.411 23.1552L13.07 110.982C13.2138 122.464 20.663 128.514 32.1269 128.368Z" fill="#F8A80C" fill-opacity="0.6"/>
<path d="M144.612 43.2884L152.827 43.3022C152.934 43.4802 153.031 43.7115 153.119 43.9962C153.208 44.263 153.252 44.5565 153.251 44.8766C153.25 45.4456 153.116 45.8721 152.849 46.1562C152.6 46.4403 152.253 46.5819 151.808 46.5812L144.633 46.5692L144.612 43.2884ZM148.367 46.5754L140.152 46.5617C140.046 46.3837 139.949 46.1612 139.86 45.8944C139.772 45.6097 139.728 45.2985 139.728 44.9606C139.729 44.3916 139.854 43.974 140.104 43.7077C140.371 43.4236 140.718 43.2819 141.145 43.2826L148.346 43.2947L148.367 46.5754ZM148.449 45.8554L148.426 59.4582C148.266 59.4935 148.008 59.5375 147.652 59.5903C147.296 59.643 146.932 59.6691 146.558 59.6685C145.776 59.6672 145.216 59.524 144.879 59.2389C144.559 58.9539 144.4 58.4646 144.401 57.7711L144.421 45.8487L148.449 45.8554Z" fill="black"/>
<path d="M137.864 45.491C137.863 45.8822 137.756 46.2377 137.542 46.5574C137.328 46.8593 137.088 47.0901 136.821 47.2496C136.377 46.9466 135.87 46.679 135.302 46.4469C134.751 46.2149 134.093 46.0982 133.329 46.0969C132.368 46.0953 131.541 46.2984 130.847 46.7062C130.171 47.114 129.645 47.7177 129.27 48.5173C128.896 49.299 128.707 50.25 128.705 51.3703C128.703 53.0951 129.127 54.4027 129.979 55.2932C130.849 56.1837 132.022 56.6302 133.498 56.6327C134.28 56.634 134.947 56.5285 135.499 56.316C136.05 56.1035 136.557 55.8555 137.02 55.5717C137.287 55.7678 137.5 56.026 137.659 56.3463C137.836 56.6489 137.925 57.0047 137.924 57.4136C137.923 57.7693 137.825 58.0981 137.629 58.4C137.451 58.6842 137.139 58.9326 136.694 59.1453C136.356 59.3225 135.876 59.4906 135.253 59.6496C134.648 59.8264 133.892 59.9141 132.985 59.9126C131.421 59.9099 129.999 59.6053 128.719 58.9985C127.44 58.3741 126.419 57.4299 125.657 56.1662C124.912 54.9024 124.541 53.3015 124.545 51.3633C124.548 49.514 124.915 47.9587 125.646 46.6975C126.395 45.4185 127.392 44.451 128.638 43.7952C129.902 43.1394 131.28 42.8128 132.774 42.8153C133.823 42.817 134.73 42.943 135.494 43.1932C136.258 43.4257 136.844 43.7467 137.253 44.1564C137.661 44.5483 137.865 44.9931 137.864 45.491Z" fill="black"/>
<path d="M114.972 48.1466L114.954 59.2422C114.794 59.2953 114.544 59.3482 114.207 59.401C113.886 59.4538 113.54 59.4799 113.166 59.4793C112.508 59.4782 111.984 59.2817 111.594 58.8899C111.203 58.498 111.008 57.9731 111.009 57.3152L111.025 48.14L114.972 48.1466ZM111.014 54.5413L111.029 45.3927C111.03 44.7348 111.227 44.2106 111.619 43.8201C112.011 43.4295 112.535 43.2348 113.193 43.2359C113.567 43.2365 113.914 43.2638 114.233 43.3177C114.571 43.3716 114.82 43.4253 114.98 43.479L114.962 54.5479L111.014 54.5413ZM113.183 49.5839L121.238 49.5974C121.344 49.7754 121.433 49.9978 121.503 50.2646C121.592 50.5315 121.636 50.825 121.635 51.145C121.634 51.7141 121.509 52.1317 121.26 52.398C121.01 52.6465 120.672 52.7704 120.246 52.7697L113.177 52.7579L113.183 49.5839ZM113.172 56.2786L122.107 56.2936C122.213 56.4538 122.302 56.6762 122.372 56.9608C122.461 57.2277 122.505 57.5301 122.504 57.8679C122.503 58.4191 122.378 58.8279 122.129 59.0942C121.879 59.3605 121.541 59.4933 121.115 59.4926L113.166 59.4793L113.172 56.2786ZM113.193 43.2359L121.995 43.2507C122.102 43.4287 122.199 43.6511 122.288 43.918C122.376 44.1848 122.42 44.4783 122.419 44.7984C122.418 45.3674 122.293 45.785 122.044 46.0513C121.794 46.3176 121.448 46.4504 121.003 46.4497L113.188 46.4366L113.193 43.2359Z" fill="black"/>
<path d="M100.684 50.8432C101.573 50.8446 102.294 50.6414 102.846 50.2333C103.398 49.8253 103.674 49.23 103.676 48.4477C103.677 47.6653 103.411 47.078 102.878 46.686C102.364 46.2761 101.573 46.0703 100.506 46.0685C100.203 46.068 99.9278 46.0853 99.6788 46.1205C99.4298 46.1378 99.1808 46.1641 98.9318 46.1992L98.924 50.8402L100.684 50.8432ZM94.918 53.9275L94.9336 44.6456C94.9342 44.2899 95.0324 44.0234 95.2283 43.8459C95.4242 43.6506 95.6912 43.491 96.0293 43.3671C96.5986 43.1725 97.2745 43.0314 98.0571 42.9438C98.8574 42.8562 99.6843 42.8131 100.538 42.8146C102.938 42.8186 104.742 43.3284 105.95 44.3439C107.157 45.3417 107.759 46.703 107.757 48.4278C107.755 49.4947 107.46 50.4455 106.872 51.2803C106.301 52.1151 105.509 52.7716 104.494 53.25C103.498 53.7107 102.351 53.9399 101.053 53.9378L94.918 53.9275ZM103.91 52.1555C104.318 52.7074 104.743 53.2682 105.187 53.838C105.631 54.39 106.048 54.9241 106.438 55.4404C106.846 55.9568 107.21 56.4375 107.529 56.8826C107.848 57.3098 108.106 57.6748 108.301 57.9774C108.14 58.5106 107.855 58.928 107.445 59.2296C107.036 59.5134 106.573 59.6549 106.057 59.654C105.417 59.6529 104.92 59.5098 104.565 59.2247C104.227 58.9219 103.899 58.5302 103.58 58.0495L100.334 53.003L103.91 52.1555ZM98.9747 52.4406L98.9631 59.3754C98.7852 59.4107 98.5184 59.4547 98.1627 59.5074C97.8248 59.5602 97.4691 59.5863 97.0957 59.5857C96.2955 59.5843 95.7267 59.4411 95.3894 59.156C95.0698 58.871 94.9106 58.3817 94.9117 57.6883L94.9205 52.4338L98.9747 52.4406Z" fill="black"/>
<path d="M84.5873 50.8162C85.4764 50.8177 86.1969 50.6144 86.7488 50.2063C87.3007 49.7983 87.5773 49.2031 87.5787 48.4207C87.58 47.6383 87.3142 47.0511 86.7814 46.659C86.2665 46.2491 85.4755 46.0433 84.4086 46.0415C84.1064 46.041 83.8307 46.0584 83.5817 46.0935C83.3327 46.1109 83.0838 46.1371 82.8348 46.1723L82.827 50.8132L84.5873 50.8162ZM78.821 53.9005L78.8365 44.6186C78.8371 44.263 78.9354 43.9964 79.1313 43.8189C79.3272 43.6236 79.5942 43.4641 79.9322 43.3401C80.5016 43.1455 81.1775 43.0044 81.96 42.9168C82.7603 42.8292 83.5873 42.7862 84.4408 42.7876C86.8413 42.7916 88.6452 43.3014 89.8527 44.317C91.0601 45.3148 91.6624 46.676 91.6595 48.4008C91.6578 49.4677 91.3628 50.4186 90.7746 51.2533C90.2042 52.0881 89.4118 52.7447 88.3975 53.2231C87.4009 53.6837 86.2536 53.913 84.9556 53.9108L78.821 53.9005ZM87.8125 52.1285C88.2205 52.6804 88.6464 53.2413 89.0899 53.811C89.5336 54.363 89.9505 54.8971 90.3409 55.4134C90.749 55.9298 91.1127 56.4105 91.432 56.8556C91.7514 57.2829 92.0086 57.6478 92.2037 57.9504C92.0427 58.4836 91.7575 58.901 91.3481 59.2026C90.9386 59.4864 90.4761 59.6279 89.9604 59.627C89.3203 59.626 88.8226 59.4829 88.4675 59.1978C88.1301 58.8949 87.8018 58.5032 87.4826 58.0225L84.237 52.976L87.8125 52.1285ZM82.8776 52.4137L82.866 59.3484C82.6882 59.3837 82.4214 59.4277 82.0656 59.4804C81.7277 59.5332 81.372 59.5593 80.9986 59.5587C80.1985 59.5573 79.6297 59.4141 79.2923 59.1291C78.9727 58.844 78.8135 58.3548 78.8147 57.6613L78.8235 52.4069L82.8776 52.4137Z" fill="black"/>
<path d="M75.8596 51.2551C75.8565 53.1043 75.4894 54.6685 74.7582 55.9475C74.027 57.2088 73.0386 58.1673 71.7928 58.8232C70.547 59.479 69.1328 59.8056 67.5502 59.8029C65.9855 59.8003 64.5724 59.469 63.311 58.809C62.0674 58.149 61.091 57.1871 60.3819 55.9235C59.6728 54.642 59.3198 53.0766 59.3229 51.2274C59.326 49.3781 59.6931 47.8228 60.4242 46.5616C61.1554 45.2825 62.1439 44.324 63.3897 43.6859C64.6355 43.0301 66.0319 42.7035 67.5789 42.7061C69.1436 42.7087 70.5478 43.04 71.7914 43.7C73.035 44.3422 74.0203 45.3041 74.7472 46.5855C75.4919 47.8493 75.8627 49.4058 75.8596 51.2551ZM71.6988 51.2481C71.7016 49.5233 71.3304 48.2157 70.5851 47.3254C69.8398 46.4351 68.8359 45.9889 67.5734 45.9867C66.3464 45.9847 65.3588 46.4276 64.6105 47.3154C63.8622 48.2032 63.4866 49.5095 63.4837 51.2343C63.4808 52.9769 63.852 54.2934 64.5973 55.1837C65.3427 56.074 66.3377 56.5202 67.5824 56.5223C68.8271 56.5244 69.8236 56.0815 70.5719 55.1937C71.3202 54.3059 71.6958 52.9907 71.6988 51.2481Z" fill="black"/>
<path d="M57.5608 45.3565C57.5602 45.7477 57.4529 46.1031 57.239 46.4229C57.0251 46.7248 56.7846 46.9555 56.5177 47.1151C56.0736 46.8121 55.5673 46.5445 54.9987 46.3124C54.4478 46.0803 53.7901 45.9636 53.0255 45.9624C52.0653 45.9608 51.2381 46.1639 50.544 46.5717C49.8676 46.9795 49.342 47.5832 48.9673 48.3827C48.5926 49.1645 48.4043 50.1155 48.4024 51.2357C48.3995 52.9605 48.8241 54.2682 49.6761 55.1587C50.5459 56.0492 51.7187 56.4957 53.1946 56.4982C53.977 56.4995 54.6439 56.3939 55.1955 56.1815C55.7471 55.969 56.2543 55.7209 56.7171 55.4372C56.9835 55.6332 57.1964 55.8914 57.3559 56.2118C57.5332 56.5144 57.6216 56.8701 57.6209 57.2791C57.6203 57.6347 57.5219 57.9635 57.3258 58.2655C57.1475 58.5497 56.8359 58.7981 56.391 59.0107C56.0529 59.188 55.5725 59.3561 54.9499 59.5151C54.345 59.6919 53.5892 59.7795 52.6823 59.778C51.1175 59.7754 49.6955 59.4707 48.4163 58.864C47.1371 58.2395 46.1162 57.2954 45.3537 56.0316C44.609 54.7679 44.2383 53.1669 44.2415 51.2288C44.2446 49.3795 44.6117 47.8242 45.3429 46.563C46.0919 45.2839 47.0892 44.3165 48.3351 43.6607C49.5986 43.0049 50.9773 42.6782 52.4709 42.6808C53.52 42.6825 54.4266 42.8085 55.1908 43.0587C55.9551 43.2912 56.5413 43.6122 56.9496 44.0219C57.3579 44.4137 57.5617 44.8586 57.5608 45.3565Z" fill="black"/>
<path d="M143.207 86.4257C144.097 86.4272 144.817 86.2239 145.369 85.8158C145.921 85.4078 146.197 84.8126 146.199 84.0302C146.2 83.2478 145.934 82.6606 145.402 82.2685C144.887 81.8586 144.096 81.6528 143.029 81.651C142.726 81.6505 142.451 81.6679 142.202 81.703C141.953 81.7204 141.704 81.7466 141.455 81.7818L141.447 86.4227L143.207 86.4257ZM137.441 89.51L137.457 80.2281C137.457 79.8724 137.555 79.6059 137.751 79.4284C137.947 79.2331 138.214 79.0735 138.552 78.9496C139.122 78.755 139.798 78.6139 140.58 78.5263C141.38 78.4387 142.207 78.3956 143.061 78.3971C145.461 78.4011 147.265 78.9109 148.473 79.9265C149.68 80.9242 150.283 82.2855 150.28 84.0103C150.278 85.0772 149.983 86.028 149.395 86.8628C148.824 87.6976 148.032 88.3542 147.018 88.8326C146.021 89.2932 144.874 89.5224 143.576 89.5203L137.441 89.51ZM146.433 87.738C146.841 88.2899 147.266 88.8508 147.71 89.4205C148.154 89.9725 148.571 90.5066 148.961 91.0229C149.369 91.5393 149.733 92.02 150.052 92.4651C150.371 92.8924 150.629 93.2573 150.824 93.5599C150.663 94.0931 150.378 94.5105 149.968 94.8121C149.559 95.0959 149.096 95.2374 148.581 95.2365C147.94 95.2355 147.443 95.0924 147.088 94.8073C146.75 94.5044 146.422 94.1127 146.103 93.632L142.857 88.5855L146.433 87.738ZM141.498 88.0231L141.486 94.9579C141.308 94.9932 141.041 95.0372 140.686 95.0899C140.348 95.1427 139.992 95.1688 139.619 95.1682C138.819 95.1668 138.25 95.0236 137.912 94.7386C137.593 94.4535 137.434 93.9643 137.435 93.2708L137.444 88.0164L141.498 88.0231Z" fill="black"/>
<path d="M126.89 83.6777L126.871 94.7734C126.711 94.8264 126.462 94.8794 126.124 94.9321C125.804 94.9849 125.457 95.011 125.084 95.0104C124.426 95.0093 123.902 94.8128 123.511 94.421C123.121 94.0291 122.926 93.5043 122.927 92.8463L122.943 83.6711L126.89 83.6777ZM122.932 90.0724L122.947 80.9239C122.948 80.266 123.145 79.7417 123.537 79.3512C123.928 78.9607 124.453 78.7659 125.111 78.767C125.485 78.7677 125.831 78.7949 126.151 78.8488C126.489 78.9027 126.738 78.9565 126.898 79.0101L126.879 90.079L122.932 90.0724ZM125.101 85.115L133.156 85.1285C133.262 85.3065 133.351 85.5289 133.421 85.7958C133.51 86.0626 133.554 86.3561 133.553 86.6762C133.552 87.2452 133.427 87.6628 133.178 87.9291C132.928 88.1777 132.59 88.3016 132.163 88.3009L125.095 88.289L125.101 85.115ZM125.089 91.8097L134.025 91.8247C134.131 91.9849 134.22 92.2073 134.29 92.492C134.379 92.7588 134.423 93.0612 134.422 93.399C134.421 93.9503 134.296 94.359 134.047 94.6253C133.797 94.8916 133.459 95.0244 133.032 95.0237L125.084 95.0104L125.089 91.8097ZM125.111 78.767L133.913 78.7818C134.019 78.9598 134.117 79.1822 134.205 79.4491C134.294 79.716 134.338 80.0094 134.337 80.3295C134.336 80.8985 134.211 81.3162 133.962 81.5825C133.712 81.8488 133.365 81.9815 132.921 81.9808L125.106 81.9677L125.111 78.767Z" fill="black"/>
<path d="M107.75 82.7121C107.928 82.6235 108.195 82.535 108.551 82.4467C108.924 82.3406 109.298 82.2879 109.671 82.2885C110.329 82.2896 110.871 82.3884 111.298 82.5847C111.742 82.781 112.008 83.066 112.097 83.4395C112.415 84.5069 112.698 85.4765 112.945 86.3482C113.193 87.2199 113.431 88.0649 113.661 88.8833C113.891 89.7016 114.121 90.5555 114.35 91.445L114.484 91.4452C114.735 89.952 114.96 88.5387 115.158 87.2054C115.355 85.8544 115.544 84.5211 115.724 83.2055C115.904 81.8722 116.085 80.5034 116.265 79.0989C116.834 78.7976 117.43 78.6474 118.052 78.6485C118.639 78.6495 119.137 78.7748 119.546 79.0244C119.954 79.274 120.158 79.6922 120.157 80.279C120.156 80.6524 120.111 81.1947 120.021 81.9058C119.931 82.5991 119.814 83.408 119.67 84.3324C119.526 85.239 119.356 86.1811 119.158 87.1588C118.979 88.1187 118.782 89.0697 118.567 90.0117C118.37 90.9538 118.155 91.807 117.922 92.5712C117.708 93.3177 117.511 93.9219 117.333 94.3839C117.083 94.5791 116.701 94.7563 116.185 94.9154C115.669 95.0568 115.135 95.1271 114.584 95.1261C113.873 95.1249 113.26 95.0261 112.744 94.8297C112.247 94.6154 111.936 94.3304 111.812 93.9746C111.653 93.4587 111.458 92.8538 111.228 92.1599C111.016 91.4661 110.786 90.7011 110.539 89.8649C110.309 89.0288 110.079 88.1749 109.85 87.3032C109.635 88.1564 109.411 89.0273 109.178 89.916C108.946 90.8047 108.722 91.6311 108.507 92.3954C108.293 93.1596 108.096 93.8172 107.917 94.3681C107.686 94.5634 107.339 94.7406 106.876 94.8998C106.414 95.0413 105.898 95.1116 105.329 95.1106C104.653 95.1095 104.031 95.0018 103.462 94.7874C102.912 94.5731 102.547 94.2969 102.37 93.9588C102.193 93.5495 101.99 92.9357 101.76 92.1174C101.53 91.2812 101.283 90.3295 101.018 89.2622C100.771 88.1771 100.524 87.0476 100.277 85.8736C100.047 84.6996 99.836 83.5612 99.6422 82.4585C99.4485 81.3379 99.308 80.333 99.2205 79.4438C99.4343 79.2308 99.728 79.0445 100.102 78.8851C100.493 78.708 100.92 78.6198 101.382 78.6206C101.969 78.6215 102.44 78.7557 102.795 79.023C103.168 79.2726 103.408 79.6997 103.513 80.3045C103.795 81.9409 104.024 83.346 104.2 84.5199C104.393 85.6938 104.552 86.6987 104.675 87.5346C104.816 88.3706 104.939 89.0998 105.045 89.7224C105.15 90.3449 105.265 90.9141 105.388 91.43L105.522 91.4302C105.701 90.7014 105.871 90.0171 106.032 89.3773C106.193 88.7374 106.363 88.0976 106.542 87.4577C106.721 86.8179 106.909 86.1158 107.106 85.3516C107.303 84.5873 107.517 83.7075 107.75 82.7121Z" fill="black"/>
<path d="M90.796 92.0457C91.7384 92.0473 92.4144 91.8795 92.824 91.5423C93.2513 91.1874 93.4654 90.7699 93.4662 90.2898C93.4669 89.8453 93.2986 89.4893 92.9612 89.2221C92.6416 88.937 92.1619 88.6873 91.5222 88.4728L90.1093 88.017C89.1496 87.6953 88.3056 87.3383 87.5772 86.9459C86.8488 86.5535 86.2807 86.0546 85.8727 85.4494C85.4648 84.8264 85.2616 84.0347 85.2632 83.0745C85.2657 81.5987 85.8278 80.426 86.9495 79.5566C88.0712 78.6872 89.6278 78.2542 91.6193 78.2575C92.6328 78.2592 93.5306 78.3585 94.3127 78.5554C95.1125 78.7523 95.7344 79.0468 96.1783 79.4387C96.64 79.8129 96.8703 80.2756 96.8694 80.8268C96.8688 81.218 96.7704 81.5646 96.5743 81.8666C96.3782 82.1685 96.1466 82.4171 95.8796 82.6122C95.471 82.3448 94.9202 82.1038 94.2271 81.8893C93.5517 81.6748 92.814 81.5669 92.0138 81.5655C91.1603 81.5641 90.5111 81.7053 90.066 81.989C89.6388 82.2728 89.4248 82.637 89.4241 83.0815C89.4235 83.4371 89.5652 83.7308 89.8494 83.9624C90.1513 84.1763 90.5866 84.3726 91.1553 84.5514L92.6215 85.0339C94.2388 85.5345 95.4824 86.1945 96.3523 87.0139C97.2222 87.8333 97.656 88.9365 97.6537 90.3235C97.6512 91.8171 97.0712 93.0342 95.9139 93.9747C94.7565 94.8974 93.0843 95.3569 90.8972 95.3532C89.8125 95.3514 88.8436 95.2253 87.9905 94.9749C87.1374 94.7423 86.4623 94.4123 85.9651 93.9847C85.468 93.5393 85.2199 93.0232 85.2209 92.4364C85.2216 91.9741 85.3557 91.5831 85.6229 91.2635C85.8902 90.9439 86.1929 90.6955 86.531 90.5182C87.0105 90.9102 87.6055 91.2668 88.3163 91.5881C89.0448 91.8916 89.8714 92.0441 90.796 92.0457Z" fill="black"/>
<path d="M71.6647 83.2386C71.7345 83.9855 71.7866 84.7324 71.8209 85.4793C71.8553 86.2262 71.8718 86.9463 71.8707 87.6398C71.8695 88.3333 71.8684 89.009 71.8673 89.6669L71.8586 94.8413C71.7163 94.8766 71.4673 94.9207 71.1116 94.9734C70.7736 95.0262 70.4268 95.0523 70.0712 95.0517C69.3066 95.0504 68.7645 94.9162 68.4449 94.6489C68.1253 94.3816 67.966 93.9013 67.9672 93.2078L67.9839 83.2591L71.6647 83.2386ZM78.481 90.2648C78.3587 88.9487 78.2897 87.7039 78.2739 86.5303C78.2758 85.3567 78.2777 84.2365 78.2795 83.1696L78.2871 78.662C78.4649 78.6268 78.7228 78.5827 79.0608 78.53C79.3987 78.4772 79.7455 78.4511 80.1011 78.4517C80.8657 78.453 81.3989 78.5872 81.7008 78.8544C82.0204 79.1217 82.1796 79.6021 82.1785 80.2955L82.1619 90.2176L78.481 90.2648ZM82.1682 86.4035L82.1549 94.3785C81.9411 94.5915 81.6208 94.7599 81.1938 94.8836C80.7847 95.0074 80.2956 95.0688 79.7266 95.0679C79.122 95.0669 78.562 94.977 78.0466 94.7983C77.5313 94.6019 77.1053 94.1655 76.7686 93.4893L73.5249 87.3225C73.33 86.9132 73.135 86.5128 72.9401 86.1213C72.7452 85.7298 72.5591 85.3383 72.382 84.9468C72.2048 84.5553 72.0277 84.1549 71.8505 83.7456L67.9816 84.5927L67.9903 79.3916C68.222 79.0897 68.5602 78.8591 69.005 78.6998C69.4498 78.5405 69.9301 78.4613 70.4457 78.4622C71.0503 78.4632 71.6103 78.5619 72.1256 78.7584C72.6587 78.9549 73.0848 79.3823 73.4037 80.0408L76.674 86.2342C76.8868 86.608 77.0817 86.9995 77.2589 87.4088C77.4538 87.8003 77.6398 88.2007 77.817 88.61C77.9941 89.0015 78.1624 89.4018 78.3217 89.8111L82.164 88.9373L82.1682 86.4035Z" fill="black"/>
<path d="M57.846 82.015C57.6672 82.5837 57.4528 83.2146 57.2027 83.9076C56.9704 84.6007 56.7202 85.3293 56.4522 86.0935C56.202 86.8577 55.9607 87.613 55.7283 88.3594L55.2442 90.7325C55.137 91.0701 55.0297 91.4256 54.9224 91.7988C54.8328 92.1721 54.7344 92.5453 54.6271 92.9185C54.5198 93.274 54.4214 93.6117 54.332 93.9316C54.2425 94.2515 54.162 94.5537 54.0904 94.8381C53.877 94.891 53.6457 94.944 53.3967 94.9969C53.1476 95.0676 52.8542 95.1027 52.5163 95.1021C51.7873 95.1009 51.2274 94.9666 50.8366 94.6992C50.4459 94.4319 50.2509 94.0492 50.2518 93.5514C50.2522 93.3202 50.2792 93.0891 50.3329 92.858C50.4045 92.627 50.4849 92.3604 50.5743 92.0583C50.7353 91.4895 50.9588 90.7608 51.2448 89.8722C51.5486 88.9659 51.8792 87.9974 52.2365 86.9666C52.5939 85.9359 52.9512 84.9141 53.3086 83.9011C53.6659 82.8704 53.9965 81.9285 54.3002 81.0755C54.6217 80.2225 54.8806 79.5562 55.077 79.0764C55.344 78.9168 55.7443 78.7752 56.278 78.6517C56.8117 78.5103 57.3452 78.4401 57.8787 78.441C58.6433 78.4422 59.3188 78.5501 59.9052 78.7644C60.5094 78.9788 60.8911 79.3351 61.0503 79.8332C61.4044 80.7762 61.776 81.8704 62.1651 83.1158C62.5542 84.3434 62.9521 85.6332 63.3589 86.9853C63.7656 88.3373 64.1546 89.6538 64.5258 90.9347C64.9149 92.1978 65.2508 93.3364 65.5336 94.3504C65.3555 94.5635 65.0796 94.7409 64.7059 94.8825C64.3323 95.0241 63.8965 95.0945 63.3986 95.0937C62.6518 95.0924 62.1274 94.9671 61.8256 94.7176C61.5415 94.4504 61.3199 94.05 61.1608 93.5163L60.3123 90.5009L59.8627 88.2597C59.6328 87.4591 59.403 86.6852 59.1731 85.938C58.9432 85.173 58.731 84.4614 58.5365 83.8032C58.342 83.1272 58.1652 82.5312 58.0061 82.0153L57.846 82.015ZM55.0619 88.0916L61.3032 88.1021L61.8314 91.2503L53.483 91.2363L55.0619 88.0916Z" fill="black"/>
</g>
<defs>
<filter id="filter0_d_1367_208" x="0.410767" y="5.62793" width="189.84" height="141.279" filterUnits="userSpaceOnUse" color-interpolation-filters="sRGB">
<feFlood flood-opacity="0" result="BackgroundImageFix"/>
<feColorMatrix in="SourceAlpha" type="matrix" values="0 0 0 0 0 0 0 0 0 0 0 0 0 0 0 0 0 0 127 0" result="hardAlpha"/>
<feOffset dy="4"/>
<feGaussianBlur stdDeviation="6"/>
<feComposite in2="hardAlpha" operator="out"/>
<feColorMatrix type="matrix" values="0 0 0 0 0 0 0 0 0 0 0 0 0 0 0 0 0 0 0.1 0"/>
<feBlend mode="normal" in2="BackgroundImageFix" result="effect1_dropShadow_1367_208"/>
<feBlend mode="normal" in="SourceGraphic" in2="effect1_dropShadow_1367_208" result="shape"/>
</filter>
</defs>
</svg>
