<svg width="205" height="224" viewBox="0 0 205 224" fill="none" xmlns="http://www.w3.org/2000/svg">
<g filter="url(#filter0_d_768_586)">
<path d="M43.8764 170.897L179.2 159.15C180.545 159.033 181.852 158.648 183.046 158.019C184.239 157.39 185.295 156.528 186.151 155.484C187.007 154.441 187.646 153.238 188.03 151.944C188.414 150.651 188.536 149.293 188.389 147.952L179.113 63.7178C177.763 52.3035 169.766 44.1489 158.335 45.4982L21.7313 57.8589C20.4793 57.976 19.2633 58.3416 18.1543 58.9342C17.0453 59.5269 16.0656 60.3347 15.2725 61.3105C14.4795 62.2863 13.889 63.4104 13.5356 64.6171C13.1822 65.8239 13.073 67.0891 13.2144 68.3385L23.0982 155.61C24.4476 167.013 32.4913 172.247 43.8764 170.897Z" fill="#F8A80C" fill-opacity="0.6"/>
<path d="M47.2105 165.896L182.534 154.149C183.879 154.032 185.186 153.647 186.38 153.018C187.573 152.389 188.629 151.527 189.485 150.483C190.341 149.44 190.98 148.237 191.364 146.943C191.749 145.65 191.871 144.292 191.723 142.951L182.447 58.7168C181.097 47.3025 173.1 39.1478 161.669 40.4972L25.0654 52.8579C23.8134 52.9749 22.5974 53.3405 21.4884 53.9332C20.3794 54.5259 19.3997 55.3336 18.6066 56.3094C17.8136 57.2852 17.2231 58.4093 16.8697 59.6161C16.5163 60.8228 16.4071 62.088 16.5485 63.3375L26.4323 150.609C27.7817 162.012 35.8254 167.246 47.2105 165.896Z" fill="white" stroke="white" stroke-width="0.98" stroke-miterlimit="10"/>
<path d="M146.895 15.3437C146.936 18.7907 145.789 22.1466 143.648 24.8478C140.832 28.487 137.73 31.9042 134.739 35.4033C134.155 36.1218 133.244 36.6535 132.479 35.9058C132.278 35.6087 132.142 35.2724 132.08 34.9189C132.019 34.5655 132.033 34.2028 132.122 33.8553C133.548 27.6633 134.979 21.483 135.534 15.1275C135.722 13.5066 136.176 11.9278 136.877 10.4543C138.162 7.59197 142.602 7.07224 145.055 9.75349C146.381 11.3019 147.042 13.3107 146.895 15.3437ZM136.381 29.0772C136.574 29.1648 140.797 24.03 142.52 21.2553C143.729 19.3101 144.512 17.0729 144.127 14.7421C143.963 13.4684 143.406 12.2776 142.532 11.3365C140.949 9.89366 139.027 11.1494 138.583 13.7898C137.824 18.463 137.111 23.1363 136.392 27.8504C136.347 28.2674 136.335 28.6874 136.357 29.1063L136.381 29.0772Z" fill="#F8A80C"/>
<path d="M79.6366 194.724C80.2207 188.579 84.561 179.087 85.1276 178.584C85.554 179.168 89.0122 192.51 91.3488 198.346C91.8305 199.559 92.1411 200.833 92.2717 202.131C92.558 204.947 91.4831 206.74 89.205 207.634C88.0647 208.06 86.819 208.116 85.6454 207.793C84.4717 207.469 83.4298 206.784 82.6683 205.835C80.2908 203.031 79.6658 199.713 79.6366 194.724ZM84.7654 186.12C83.013 190.688 82.0375 195.261 82.791 199.999C82.9079 200.946 83.2182 201.859 83.7025 202.681C84.1869 203.503 84.8349 204.216 85.6066 204.777C86.5938 205.473 87.7562 205.554 88.5273 204.777C89.1418 204.091 89.4846 203.204 89.4912 202.283C89.4912 201.313 89.0005 200.332 88.7143 199.362C87.6044 195.604 86.4906 191.846 85.3729 188.088C85.1801 187.411 84.9523 186.774 84.7362 186.12H84.7654Z" fill="#0CD4F8"/>
<path d="M59.46 200.168C56.2238 200.133 54.2786 198.416 53.49 195.425C52.9759 193.462 54.0332 191.616 56.2647 190.209C62.0419 186.564 74.8757 177.562 75.5825 177.433C75.6877 178.14 74.0403 184.151 73.0414 186.406C71.5752 189.741 69.9279 192.983 67.4336 195.694C65.1379 198.182 62.4099 199.923 59.46 200.168ZM71.0027 183.339L69.6183 184.309C67.0305 186.102 64.4545 187.901 61.855 189.677C60.307 190.734 58.7182 191.733 57.1818 192.785C56.1537 193.48 55.5929 194.415 56.177 195.647C56.4001 196.224 56.8191 196.704 57.3606 197.003C57.9021 197.302 58.5316 197.401 59.1387 197.283C60.4177 197.1 61.6527 196.686 62.7838 196.062C67.3694 193.153 71.1021 183.438 71.0027 183.321V183.339Z" fill="#F8A80C"/>
<path d="M38.2495 58.4655C38.5784 57.8465 38.8615 57.2044 39.0965 56.544C39.3593 55.621 39.8968 54.8907 40.8022 55.2704C41.2053 55.4398 41.5032 56.6023 41.3864 57.1923C40.8781 59.2602 40.1654 61.2813 39.517 63.3025C39.278 64.1835 38.9715 65.0448 38.6 65.8786C38.0976 66.8892 37.2506 67.0467 36.4853 66.2055C34.949 64.5232 33.442 62.8117 32.0634 61.0066C31.7947 60.6503 32.1626 59.8383 32.2386 59.1957C32.8067 59.2462 33.3631 59.3884 33.8859 59.6164C34.3564 60.0106 34.7693 60.4688 35.1126 60.9775L35.6441 60.8489L34.9607 52.8753L34.435 52.7878C34.0934 53.5426 33.6828 54.2641 33.2083 54.9432C32.7176 55.5274 31.8822 56.4621 31.4149 56.3511C30.9984 56.2093 30.6175 55.9793 30.2979 55.6769C29.9784 55.3744 29.7278 55.0067 29.5632 54.5987C28.2372 50.7024 27.0688 46.7536 25.883 42.8165C25.4215 41.286 25.0419 39.732 24.6622 38.1841C24.446 37.3195 24.2357 36.3555 25.3748 35.9875C26.5139 35.6195 27.0338 36.4549 27.2967 37.4188C28.5584 42.092 29.8124 46.7769 31.0586 51.4734C31.1404 51.7772 31.2864 52.0577 31.5435 52.7353C32.1276 51.3859 32.6299 50.3578 33.0914 49.3297C33.3208 48.6424 33.6285 47.9836 34.0086 47.3667C34.4058 46.8585 35.247 46.1168 35.5624 46.2512C35.9099 46.4058 36.2195 46.6344 36.4697 46.9209C36.7199 47.2074 36.9047 47.5449 37.0111 47.9101C37.3791 50.8308 37.5309 53.8041 37.7646 56.7599C37.8055 57.3031 37.8697 57.8524 37.9223 58.3957L38.2495 58.4655Z" fill="#F78C0C"/>
<path d="M168.929 34.4278L150.237 36.0342C149.95 36.0634 149.594 36.1921 149.378 36.0753C148.794 35.7715 147.929 35.4385 147.812 34.9595C147.59 34.0832 148.291 33.61 149.22 33.5399C155.178 33.0609 161.143 32.6988 167.078 32.027C170.582 31.6357 173.86 31.9804 176.979 33.5693C181.909 36.0869 185.525 39.9306 187.061 45.2522C188.23 49.2245 188.638 53.4303 189.357 57.5194C189.602 58.9038 189.76 60.3057 189.941 61.696C190.058 62.5371 189.988 63.3608 188.954 63.4484C187.92 63.536 187.739 62.6714 187.64 61.8828C187.196 58.4714 186.886 55.0424 186.296 51.6602C185.449 46.8001 183.732 42.314 179.981 38.85C176.535 35.6839 172.615 33.8203 168.929 34.4278Z" fill="#F8A80C"/>
<path d="M37.2156 175.266C32.04 175.395 27.4837 172.567 23.6633 168.221C20.5615 164.681 19.364 160.341 18.6046 155.861C18.0205 152.514 17.705 149.126 17.2786 145.749C17.2377 145.416 17.1267 144.984 17.2786 144.75C17.5648 144.318 17.9737 143.798 18.4469 143.699C18.7273 143.635 19.4049 144.225 19.4867 144.61C19.808 146.129 19.9131 147.689 20.1876 149.213C20.8769 153.074 21.3559 157 22.384 160.768C24.2533 167.538 31.8648 173.987 40.1772 172.655C45.9661 171.732 51.8602 171.621 57.7426 171.16C58.5137 171.096 59.4133 171.16 59.2906 172.164C59.1992 172.481 59.0316 172.771 58.8025 173.008C58.5734 173.246 58.2897 173.423 57.9762 173.525C55.774 173.858 53.5367 174.005 51.3111 174.18C46.8716 174.559 42.4671 174.863 37.2156 175.266Z" fill="#F8A80C"/>
<path d="M19.8606 79.9272C24.5337 79.863 28.0386 83.1635 28.0854 87.714C28.1438 91.9198 24.3001 95.7226 19.7846 95.5532C15.1406 95.378 12.2549 92.2586 12.0096 87.8483C11.9567 86.8001 12.123 85.7524 12.4979 84.7721C12.8728 83.7918 13.4481 82.9006 14.1869 82.1551C14.9257 81.4097 15.8119 80.8265 16.7888 80.4429C17.7657 80.0593 18.8119 79.8836 19.8606 79.9272ZM20.2753 93.2049C23.0266 93.2692 25.7429 90.6989 25.8422 87.9476C25.857 86.4554 25.2891 85.0164 24.2593 83.9364C23.2295 82.8564 21.8191 82.2208 20.3279 82.1646C18.8604 82.1333 17.438 82.6721 16.3596 83.6677C15.2811 84.6634 14.6306 86.0385 14.5448 87.5038C14.4338 90.5472 17.0041 93.1114 20.2753 93.1932V93.2049Z" fill="#0CD4F8"/>
<path d="M102.71 182.153C102.71 183.713 102.29 184.864 100.894 185.617C100.174 186.045 99.328 186.206 98.5018 186.074C97.6757 185.942 96.9221 185.524 96.3724 184.893C94.7368 183.105 91.594 176.627 91.9036 176.312C92.2132 175.996 98.5746 178.28 101.051 179.466C101.588 179.665 102.042 180.038 102.342 180.525C102.643 181.012 102.772 181.585 102.71 182.153ZM96.7053 180.634C97.0266 182.118 98.0489 183.234 98.9893 183.205C99.1122 183.194 99.2315 183.158 99.3398 183.1C99.4487 183.043 99.543 182.963 99.6152 182.864C99.6875 182.765 99.7357 182.651 99.7561 182.53C99.7765 182.409 99.7685 182.285 99.7327 182.168C99.697 182.051 99.6345 181.944 99.5501 181.855C99.5186 181.825 99.4833 181.8 99.445 181.779C98.6389 181.341 97.7451 181.038 96.7053 180.605V180.634Z" fill="#F78C0C"/>
<path d="M131.041 166.481C128.021 166.428 125.913 164.308 125.954 161.364C125.954 158.969 128.559 156.597 131.211 156.778C133.863 156.959 136.17 158.671 136.176 161.632C136.165 162.29 136.022 162.939 135.757 163.541C135.491 164.143 135.108 164.686 134.63 165.137C134.151 165.589 133.587 165.941 132.971 166.171C132.355 166.402 131.699 166.507 131.041 166.481ZM133.378 161.597C133.352 160.969 133.095 160.372 132.656 159.921C132.218 159.471 131.628 159.198 131.001 159.155C129.996 159.155 128.588 160.493 128.541 161.457C128.567 162.138 128.855 162.784 129.344 163.258C129.834 163.733 130.488 164 131.17 164.004C131.773 163.962 132.337 163.687 132.742 163.239C133.147 162.79 133.363 162.202 133.343 161.597H133.378Z" fill="#00B9EF"/>
<path d="M102.465 76.8371C102.465 78.391 102.547 79.9506 102.465 81.5103C102.464 82.3247 102.145 83.1066 101.577 83.69C101.009 84.2735 100.236 84.6128 99.4216 84.6356C97.5232 84.7582 96.3198 83.8995 95.8116 81.9952C94.6629 77.4154 94.1906 72.6922 94.4097 67.9756C94.4798 65.3995 95.5779 64.0794 97.5115 63.8866C99.445 63.6938 100.467 64.2546 100.97 66.0655C101.561 68.3603 102.022 70.6871 102.348 73.0345C102.547 74.2787 102.518 75.558 102.594 76.8197L102.465 76.8371Z" fill="white"/>
<path d="M136.357 29.1064C136.325 28.6981 136.325 28.2879 136.357 27.8796C137.076 23.2064 137.788 18.4983 138.548 13.8193C138.98 11.1789 140.914 9.92289 142.497 11.3657C143.37 12.3068 143.928 13.4976 144.091 14.7714C144.477 17.108 143.694 19.3394 142.485 21.2846C140.773 24.0301 136.55 29.1648 136.357 29.1064Z" fill="white"/>
<path d="M84.7361 186.12C84.9522 186.774 85.18 187.428 85.3728 188.088C86.4944 191.846 87.6082 195.604 88.7142 199.362C89.0004 200.338 89.5028 201.319 89.4911 202.283C89.4845 203.204 89.1417 204.091 88.5272 204.777C87.7269 205.548 86.5645 205.467 85.6065 204.777C84.8348 204.216 84.1868 203.503 83.7024 202.681C83.2181 201.859 82.9078 200.946 82.7909 199.999C82.0082 195.261 82.9837 190.688 84.7361 186.12Z" fill="white"/>
<path d="M62.7605 196.062C61.6294 196.686 60.3944 197.1 59.1154 197.283C58.5083 197.401 57.8789 197.302 57.3374 197.003C56.7959 196.704 56.3769 196.224 56.1538 195.647C55.5697 194.415 56.1538 193.48 57.1585 192.785C58.7182 191.733 60.3071 190.734 61.8317 189.677C64.4312 187.925 67.0073 186.102 69.5951 184.309L70.9795 183.339C71.1022 183.438 67.3694 193.153 62.7605 196.062Z" fill="white"/>
<path d="M20.2752 93.1932C17.004 93.1114 14.4337 90.547 14.5447 87.4743C14.6306 86.0091 15.281 84.6342 16.3595 83.6386C17.4379 82.6429 18.8603 82.1039 20.3278 82.1351C21.819 82.1913 23.2294 82.827 24.2592 83.907C25.289 84.9869 25.8569 86.4263 25.8421 87.9184C25.7428 90.6873 23.0266 93.2574 20.2752 93.1932Z" fill="white"/>
<path d="M122.688 28.9078C122.084 28.3074 121.515 27.6736 120.982 27.0093C120.941 26.9485 120.915 26.8782 120.907 26.8048C120.899 26.6942 120.913 26.5829 120.95 26.4783C120.987 26.3736 121.045 26.2779 121.121 26.1967C121.197 26.1156 121.288 26.0509 121.39 26.0068C121.492 25.9627 121.602 25.94 121.713 25.9403C121.905 25.9403 122.057 25.9401 122.11 26.0453C123.448 27.3538 122.904 28.7968 122.688 28.9078Z" fill="white"/>
<path d="M96.7053 180.605C97.7685 181.038 98.6389 181.341 99.445 181.774C99.4833 181.794 99.5186 181.82 99.5501 181.85C99.6345 181.938 99.697 182.046 99.7327 182.163C99.7685 182.28 99.7765 182.404 99.7561 182.524C99.7357 182.645 99.6875 182.759 99.6152 182.858C99.543 182.957 99.4487 183.038 99.3398 183.094C99.2315 183.153 99.1122 183.188 98.9894 183.199C98.0489 183.205 97.0266 182.089 96.7053 180.605Z" fill="white"/>
<path d="M133.343 161.597C133.362 162.207 133.142 162.801 132.729 163.25C132.317 163.7 131.744 163.971 131.135 164.004C130.453 164 129.799 163.733 129.309 163.258C128.82 162.783 128.532 162.138 128.506 161.457C128.553 160.493 129.961 159.173 130.966 159.155C131.593 159.198 132.183 159.471 132.621 159.921C133.06 160.372 133.317 160.969 133.343 161.597Z" fill="white"/>
<path d="M172.002 66.7372C169.981 66.7372 168.684 68.0634 168.672 70.1254C168.663 70.5616 168.74 70.995 168.899 71.4012C169.058 71.8075 169.296 72.1781 169.599 72.492C169.902 72.8058 170.264 73.0569 170.665 73.2301C171.065 73.4034 171.496 73.4956 171.932 73.5017C174.017 73.5017 175.507 72.1932 175.513 70.3239C175.49 69.3928 175.115 68.5049 174.464 67.8393C173.812 67.1737 172.932 66.7798 172.002 66.7372ZM172.002 71.4104C171.837 71.4073 171.674 71.3719 171.523 71.306C171.372 71.24 171.235 71.145 171.121 71.0262C171.006 70.9074 170.916 70.767 170.856 70.6134C170.796 70.4599 170.766 70.2961 170.769 70.1311C170.757 69.9603 170.781 69.7888 170.839 69.628C170.898 69.4671 170.991 69.3206 171.111 69.1984C171.231 69.0762 171.375 68.9813 171.535 68.9195C171.695 68.8577 171.866 68.8306 172.037 68.8402C172.389 68.859 172.721 69.0094 172.968 69.2615C173.215 69.5135 173.358 69.8488 173.369 70.2013C173.363 70.3705 173.323 70.5367 173.251 70.6899C173.179 70.843 173.076 70.9797 172.949 71.0918C172.822 71.2039 172.674 71.2892 172.513 71.3419C172.352 71.3947 172.182 71.4139 172.014 71.3987L172.002 71.4104Z" fill="#F78C0C"/>
<path d="M126.059 28.236C125.72 26.0571 124.949 24.112 122.77 23.0956C122.073 22.8112 121.303 22.7588 120.574 22.9461C119.845 23.1334 119.196 23.5505 118.722 24.1355C117.7 25.3038 117.437 26.8284 118.336 28.0083C120.089 30.3449 121.987 32.6289 123.909 34.8604C124.065 35.0665 124.28 35.2198 124.526 35.2996C124.772 35.3795 125.036 35.3819 125.283 35.3068C125.53 35.2316 125.748 35.0826 125.908 34.8795C126.068 34.6764 126.161 34.4289 126.176 34.171C126.246 33.111 126.246 32.0476 126.176 30.9876C126.198 30.0689 126.159 29.1494 126.059 28.236ZM122.688 28.9079C122.085 28.3075 121.515 27.6737 120.983 27.0095C120.941 26.9486 120.915 26.8783 120.907 26.805C120.899 26.6943 120.913 26.583 120.95 26.4784C120.987 26.3737 121.045 26.278 121.121 26.1968C121.197 26.1157 121.288 26.051 121.39 26.0069C121.492 25.9628 121.602 25.9401 121.713 25.9404C121.906 25.9404 122.057 25.9402 122.11 26.0454C123.448 27.3539 122.904 28.797 122.688 28.9079Z" fill="#0CD4F8"/>
<path d="M146.799 74.4693L154.97 73.6198C155.095 73.7856 155.216 74.0054 155.334 74.2792C155.45 74.5353 155.524 74.8226 155.558 75.1409C155.616 75.7069 155.528 76.1451 155.292 76.4557C155.074 76.7644 154.744 76.9417 154.301 76.9877L147.165 77.7297L146.799 74.4693ZM150.879 77.3435L142.708 78.193C142.584 78.0272 142.463 77.8162 142.347 77.5601C142.23 77.2864 142.153 76.9814 142.118 76.6454C142.059 76.0794 142.14 75.6509 142.36 75.3599C142.596 75.0494 142.926 74.872 143.351 74.8279L150.513 74.0832L150.879 77.3435ZM150.884 76.619L152.291 90.1489C152.135 90.2008 151.884 90.2717 151.535 90.3615C151.187 90.4513 150.827 90.5156 150.456 90.5542C149.678 90.6351 149.106 90.5515 148.741 90.3035C148.393 90.0536 148.183 89.5838 148.111 88.894L146.878 77.0354L150.884 76.619Z" fill="black"/>
<path d="M140.32 77.3687C140.36 77.7578 140.291 78.1226 140.112 78.463C139.931 78.7857 139.716 79.0405 139.467 79.2272C138.994 78.9725 138.462 78.7596 137.872 78.5885C137.3 78.4156 136.634 78.3687 135.873 78.4478C134.918 78.5471 134.117 78.836 133.469 79.3144C132.84 79.7911 132.38 80.4467 132.092 81.2812C131.801 82.098 131.714 83.0635 131.83 84.1777C132.008 85.8933 132.568 87.1491 133.509 87.9451C134.467 88.7393 135.68 89.0601 137.148 88.9075C137.927 88.8266 138.579 88.6515 139.105 88.3823C139.631 88.1131 140.11 87.8131 140.54 87.4823C140.826 87.6492 141.064 87.8836 141.257 88.1854C141.465 88.4677 141.59 88.8122 141.632 89.219C141.669 89.5727 141.606 89.91 141.443 90.2309C141.295 90.5323 141.011 90.8121 140.591 91.0703C140.274 91.2821 139.814 91.4997 139.211 91.7233C138.628 91.9627 137.886 92.1292 136.984 92.223C135.427 92.3848 133.981 92.2313 132.645 91.7623C131.307 91.2757 130.193 90.4441 129.302 89.2674C128.429 88.0889 127.892 86.5358 127.691 84.608C127.5 82.7686 127.702 81.1834 128.296 79.8523C128.907 78.5017 129.797 77.4348 130.967 76.6517C132.155 75.8667 133.491 75.397 134.977 75.2426C136.02 75.1341 136.935 75.1641 137.722 75.3327C138.506 75.4835 139.123 75.7412 139.572 76.1057C140.019 76.4525 140.268 76.8735 140.32 77.3687Z" fill="black"/>
<path d="M117.834 82.4149L118.981 93.4511C118.828 93.5207 118.586 93.5995 118.255 93.6875C117.942 93.7737 117.6 93.8361 117.229 93.8747C116.574 93.9427 116.032 93.8024 115.603 93.4538C115.173 93.1051 114.924 92.6036 114.856 91.9492L113.908 82.8232L117.834 82.4149ZM114.57 89.1902L113.624 80.0906C113.556 79.4363 113.696 78.8943 114.044 78.4647C114.393 78.0352 114.895 77.7864 115.549 77.7184C115.92 77.6797 116.268 77.6704 116.592 77.6904C116.933 77.7085 117.187 77.7358 117.351 77.7723L118.496 88.782L114.57 89.1902ZM116.205 84.0323L124.217 83.1994C124.342 83.3652 124.453 83.5771 124.552 83.835C124.668 84.0911 124.742 84.3783 124.775 84.6967C124.834 85.2626 124.753 85.6911 124.533 85.9822C124.312 86.2555 123.988 86.4143 123.564 86.4584L116.534 87.1893L116.205 84.0323ZM116.898 90.6912L125.785 89.7672C125.908 89.9153 126.019 90.1272 126.119 90.4028C126.235 90.6589 126.311 90.955 126.346 91.291C126.403 91.8393 126.321 92.259 126.101 92.55C125.881 92.841 125.559 93.0086 125.134 93.0527L117.229 93.8747L116.898 90.6912ZM115.549 77.7184L124.304 76.8082C124.428 76.974 124.548 77.185 124.664 77.4411C124.78 77.6972 124.855 77.9844 124.888 78.3027C124.947 78.8687 124.866 79.2972 124.646 79.5882C124.426 79.8793 124.095 80.0478 123.653 80.0937L115.88 80.9019L115.549 77.7184Z" fill="black"/>
<path d="M103.909 86.5979C104.793 86.506 105.488 86.2281 105.994 85.7643C106.5 85.3006 106.712 84.6796 106.632 83.9014C106.551 83.1232 106.225 82.5671 105.654 82.2332C105.098 81.8797 104.29 81.7582 103.229 81.8685C102.928 81.8997 102.656 81.9459 102.412 82.0071C102.166 82.0505 101.922 82.1028 101.678 82.1639L102.158 86.78L103.909 86.5979ZM98.4982 90.2711L97.5383 81.0389C97.5016 80.6852 97.5713 80.4098 97.7474 80.2127C97.9217 79.9979 98.1705 79.8111 98.4936 79.6524C99.0394 79.399 99.6967 79.1877 100.466 79.0183C101.252 78.8471 102.07 78.7174 102.919 78.6292C105.307 78.3809 107.154 78.6984 108.462 79.5814C109.767 80.4468 110.509 81.7373 110.688 83.4528C110.798 84.514 110.605 85.4906 110.107 86.3825C109.628 87.2726 108.909 88.0088 107.95 88.5911C107.008 89.1539 105.891 89.5025 104.6 89.6367L98.4982 90.2711ZM107.254 87.5641C107.718 88.0701 108.2 88.5831 108.701 89.1031C109.2 89.6054 109.671 90.0927 110.113 90.5652C110.573 91.0358 110.986 91.4756 111.35 91.8847C111.712 92.2761 112.007 92.612 112.232 92.8924C112.128 93.4395 111.889 93.8846 111.513 94.2275C111.136 94.5528 110.691 94.7421 110.178 94.7954C109.541 94.8616 109.031 94.7716 108.648 94.5254C108.281 94.2597 107.913 93.9046 107.545 93.4602L103.787 88.7826L107.254 87.5641ZM102.376 88.3662L103.093 95.2638C102.92 95.3176 102.659 95.3894 102.311 95.4792C101.981 95.5672 101.63 95.6305 101.258 95.6691C100.462 95.7518 99.8817 95.6692 99.5163 95.4212C99.1685 95.1713 98.9588 94.7015 98.8871 94.0117L98.3437 88.7854L102.376 88.3662Z" fill="black"/>
<path d="M87.8977 88.2625C88.782 88.1706 89.4771 87.8927 89.9831 87.4289C90.4891 86.9652 90.7016 86.3442 90.6207 85.566C90.5398 84.7878 90.2138 84.2317 89.6428 83.8978C89.0876 83.5443 88.2794 83.4228 87.2183 83.5331C86.9176 83.5644 86.6453 83.6105 86.4014 83.6717C86.1556 83.7151 85.9108 83.7674 85.6668 83.8285L86.1467 88.4446L87.8977 88.2625ZM82.4873 91.9357L81.5275 82.7035C81.4907 82.3498 81.5604 82.0744 81.7365 81.8773C81.9109 81.6625 82.1596 81.4758 82.4828 81.317C83.0285 81.0636 83.6859 80.8523 84.4549 80.6829C85.2416 80.5118 86.0594 80.382 86.9083 80.2938C89.2959 80.0455 91.1435 80.363 92.4509 81.246C93.7566 82.1114 94.4986 83.4019 94.6769 85.1175C94.7873 86.1786 94.5938 87.1552 94.0966 88.0471C93.6171 88.9372 92.8981 89.6734 91.9396 90.2557C90.997 90.8186 89.8801 91.1671 88.589 91.3013L82.4873 91.9357ZM91.2429 89.2287C91.7066 89.7347 92.189 90.2477 92.69 90.7677C93.1892 91.27 93.66 91.7574 94.1024 92.2298C94.5625 92.7004 94.9747 93.1402 95.339 93.5493C95.7015 93.9407 95.9957 94.2766 96.2215 94.557C96.1174 95.1041 95.8777 95.5492 95.5022 95.8921C95.1248 96.2174 94.6797 96.4067 94.1668 96.46C93.5301 96.5262 93.0201 96.4362 92.637 96.19C92.2697 95.9243 91.9021 95.5692 91.5341 95.1248L87.7762 90.4473L91.2429 89.2287ZM86.3653 90.0308L87.0824 96.9284C86.9092 96.9822 86.6485 97.054 86.3003 97.1438C85.9698 97.2318 85.6188 97.2951 85.2474 97.3337C84.4516 97.4165 83.8709 97.3338 83.5054 97.0858C83.1577 96.8359 82.9479 96.3661 82.8762 95.6763L82.3328 90.45L86.3653 90.0308Z" fill="black"/>
<path d="M79.2643 89.6159C79.4556 91.4553 79.2548 93.0494 78.6621 94.3981C78.0675 95.7293 77.1852 96.7864 76.0152 97.5695C74.8452 98.3526 73.4732 98.8259 71.8991 98.9896C70.3427 99.1514 68.9026 98.9704 67.5789 98.4465C66.2728 97.9209 65.2008 97.067 64.3628 95.8848C63.523 94.6849 63.0074 93.1653 62.8162 91.326C62.625 89.4866 62.8266 87.9014 63.4212 86.5703C64.014 85.2215 64.8963 84.1644 66.0681 83.399C67.2381 82.6159 68.5924 82.1443 70.1311 81.9843C71.6875 81.8225 73.1187 82.0045 74.4248 82.5301C75.729 83.0381 76.8099 83.8911 77.6674 85.0891C78.5408 86.2676 79.0731 87.7766 79.2643 89.6159ZM75.1258 90.0462C74.9474 88.3306 74.4408 87.0693 73.6061 86.2622C72.7713 85.4551 71.7261 85.1169 70.4704 85.2474C69.25 85.3743 68.3144 85.9185 67.6635 86.8801C67.0127 87.8416 66.7764 89.1801 66.9548 90.8957C67.135 92.6289 67.6424 93.8991 68.4772 94.7062C69.312 95.5133 70.3483 95.8524 71.5864 95.7237C72.8244 95.595 73.7689 95.0499 74.4197 94.0884C75.0706 93.1268 75.306 91.7794 75.1258 90.0462Z" fill="black"/>
<path d="M60.4471 85.6728C60.4876 86.0619 60.4182 86.4267 60.2391 86.7671C60.0581 87.0898 59.8433 87.3446 59.5945 87.5313C59.1211 87.2767 58.5895 87.0638 57.9996 86.8927C57.4274 86.7198 56.7611 86.6728 56.0006 86.7519C55.0455 86.8512 54.2443 87.1401 53.5968 87.6186C52.967 88.0952 52.5078 88.7508 52.2191 89.5853C51.9286 90.4021 51.8413 91.3676 51.9572 92.4819C52.1355 94.1974 52.6951 95.4532 53.636 96.2493C54.5946 97.0435 55.8078 97.3643 57.2758 97.2117C58.054 97.1307 58.7062 96.9557 59.2324 96.6864C59.7586 96.4172 60.2369 96.1172 60.6673 95.7864C60.9528 95.9534 61.1917 96.1878 61.384 96.4896C61.5921 96.7718 61.7173 97.1164 61.7596 97.5231C61.7964 97.8769 61.7331 98.2142 61.5698 98.5351C61.4224 98.8364 61.1386 99.1162 60.7185 99.3744C60.4009 99.5862 59.9408 99.8039 59.3384 100.027C58.7554 100.267 58.013 100.433 57.111 100.527C55.5546 100.689 54.1084 100.535 52.7725 100.066C51.4348 99.5798 50.3203 98.7482 49.4293 97.5715C48.5559 96.3931 48.019 94.8399 47.8186 92.9121C47.6274 91.0728 47.829 89.4875 48.4236 88.1564C49.034 86.8058 49.9243 85.7389 51.0943 84.9558C52.2819 84.1709 53.6186 83.7012 55.1042 83.5467C56.1477 83.4382 57.0626 83.4683 57.8488 83.6368C58.6332 83.7877 59.25 84.0453 59.6991 84.4098C60.1463 84.7566 60.3956 85.1776 60.4471 85.6728Z" fill="black"/>
<path d="M149.935 117.515C150.819 117.423 151.514 117.145 152.02 116.682C152.526 116.218 152.739 115.597 152.658 114.819C152.577 114.04 152.251 113.484 151.68 113.15C151.125 112.797 150.317 112.675 149.255 112.786C148.955 112.817 148.683 112.863 148.439 112.924C148.193 112.968 147.948 113.02 147.704 113.081L148.184 117.697L149.935 117.515ZM144.525 121.188L143.565 111.956C143.528 111.602 143.598 111.327 143.774 111.13C143.948 110.915 144.197 110.728 144.52 110.57C145.066 110.316 145.723 110.105 146.492 109.936C147.279 109.764 148.097 109.635 148.946 109.546C151.333 109.298 153.181 109.616 154.488 110.499C155.794 111.364 156.536 112.655 156.714 114.37C156.824 115.431 156.631 116.408 156.134 117.3C155.654 118.19 154.935 118.926 153.977 119.508C153.034 120.071 151.917 120.42 150.626 120.554L144.525 121.188ZM153.28 118.481C153.744 118.987 154.226 119.5 154.727 120.02C155.226 120.523 155.697 121.01 156.14 121.482C156.6 121.953 157.012 122.393 157.376 122.802C157.739 123.193 158.033 123.529 158.259 123.81C158.155 124.357 157.915 124.802 157.539 125.145C157.162 125.47 156.717 125.659 156.204 125.713C155.567 125.779 155.057 125.689 154.674 125.443C154.307 125.177 153.939 124.822 153.571 124.377L149.813 119.7L153.28 118.481ZM148.403 119.283L149.12 126.181C148.946 126.235 148.686 126.307 148.338 126.396C148.007 126.484 147.656 126.548 147.285 126.586C146.489 126.669 145.908 126.586 145.543 126.338C145.195 126.089 144.985 125.619 144.913 124.929L144.37 119.703L148.403 119.283Z" fill="black"/>
<path d="M133.419 116.497L134.566 127.533C134.413 127.603 134.171 127.682 133.84 127.77C133.527 127.856 133.185 127.918 132.814 127.957C132.159 128.025 131.617 127.884 131.188 127.536C130.758 127.187 130.51 126.686 130.442 126.031L129.493 116.905L133.419 116.497ZM130.155 123.272L129.209 114.173C129.141 113.518 129.281 112.976 129.63 112.547C129.978 112.117 130.48 111.868 131.134 111.8C131.506 111.762 131.853 111.752 132.177 111.772C132.519 111.791 132.772 111.818 132.936 111.854L134.081 122.864L130.155 123.272ZM131.791 118.114L139.802 117.281C139.927 117.447 140.038 117.659 140.137 117.917C140.253 118.173 140.327 118.46 140.36 118.779C140.419 119.345 140.339 119.773 140.118 120.064C139.897 120.338 139.573 120.496 139.149 120.54L132.119 121.271L131.791 118.114ZM132.483 124.773L141.37 123.849C141.493 123.997 141.604 124.209 141.704 124.485C141.82 124.741 141.896 125.037 141.931 125.373C141.988 125.921 141.906 126.341 141.686 126.632C141.466 126.923 141.144 127.091 140.72 127.135L132.814 127.957L132.483 124.773ZM131.134 111.8L139.889 110.89C140.013 111.056 140.134 111.267 140.25 111.523C140.366 111.779 140.44 112.066 140.473 112.385C140.532 112.951 140.451 113.379 140.231 113.67C140.011 113.961 139.68 114.13 139.238 114.176L131.465 114.984L131.134 111.8Z" fill="black"/>
<path d="M114.284 117.548C114.451 117.441 114.708 117.325 115.052 117.2C115.412 117.055 115.778 116.964 116.15 116.925C116.804 116.857 117.354 116.898 117.798 117.048C118.261 117.197 118.555 117.452 118.683 117.815C119.111 118.843 119.494 119.777 119.832 120.618C120.17 121.459 120.496 122.274 120.81 123.064C121.125 123.854 121.443 124.679 121.765 125.539L121.898 125.525C121.991 124.014 122.066 122.585 122.122 121.238C122.177 119.874 122.225 118.528 122.266 117.201C122.305 115.856 122.34 114.476 122.372 113.06C122.906 112.701 123.483 112.489 124.102 112.424C124.686 112.364 125.194 112.436 125.626 112.641C126.059 112.847 126.305 113.241 126.366 113.825C126.405 114.196 126.417 114.74 126.402 115.457C126.385 116.156 126.354 116.972 126.308 117.907C126.26 118.824 126.19 119.778 126.096 120.771C126.019 121.745 125.922 122.711 125.808 123.671C125.711 124.628 125.587 125.499 125.436 126.284C125.301 127.049 125.169 127.67 125.04 128.148C124.812 128.369 124.45 128.585 123.954 128.797C123.456 128.992 122.933 129.118 122.384 129.175C121.677 129.249 121.057 129.215 120.523 129.074C120.006 128.913 119.667 128.662 119.507 128.321C119.294 127.825 119.037 127.244 118.736 126.578C118.452 125.91 118.143 125.174 117.809 124.368C117.492 123.561 117.174 122.736 116.854 121.893C116.73 122.764 116.599 123.654 116.461 124.562C116.323 125.47 116.188 126.316 116.054 127.098C115.921 127.881 115.795 128.555 115.675 129.122C115.465 129.34 115.139 129.553 114.695 129.76C114.25 129.949 113.745 130.073 113.179 130.132C112.507 130.202 111.877 130.16 111.289 130.007C110.718 129.852 110.327 129.615 110.115 129.298C109.896 128.909 109.629 128.32 109.315 127.531C108.999 126.723 108.653 125.803 108.277 124.769C107.917 123.716 107.553 122.619 107.184 121.477C106.833 120.334 106.503 119.224 106.194 118.148C105.884 117.054 105.638 116.069 105.458 115.194C105.648 114.96 105.921 114.744 106.275 114.546C106.646 114.329 107.061 114.196 107.521 114.148C108.105 114.087 108.587 114.171 108.969 114.4C109.366 114.609 109.649 115.009 109.817 115.599C110.27 117.197 110.645 118.57 110.943 119.719C111.259 120.866 111.522 121.849 111.732 122.667C111.96 123.483 112.159 124.196 112.33 124.804C112.5 125.412 112.674 125.966 112.851 126.466L112.984 126.452C113.085 125.708 113.182 125.01 113.275 124.357C113.368 123.704 113.47 123.049 113.581 122.394C113.692 121.739 113.805 121.021 113.92 120.241C114.036 119.46 114.157 118.562 114.284 117.548Z" fill="black"/>
<path d="M98.4042 128.611C99.3415 128.514 99.9961 128.276 100.368 127.898C100.756 127.5 100.925 127.062 100.875 126.584C100.829 126.142 100.624 125.806 100.261 125.576C99.9129 125.326 99.4096 125.128 98.7509 124.982L97.2979 124.677C96.3098 124.458 95.4329 124.192 94.6673 123.878C93.9017 123.564 93.2843 123.128 92.815 122.569C92.3439 121.992 92.0586 121.226 91.9593 120.271C91.8067 118.803 92.2425 117.578 93.2666 116.595C94.2907 115.613 95.7932 115.019 97.7741 114.813C98.7822 114.708 99.6855 114.712 100.484 114.826C101.3 114.938 101.949 115.165 102.432 115.508C102.93 115.832 103.208 116.268 103.265 116.816C103.306 117.205 103.244 117.56 103.081 117.881C102.918 118.202 102.713 118.474 102.468 118.696C102.034 118.473 101.461 118.291 100.749 118.151C100.055 118.008 99.3099 117.978 98.514 118.061C97.6651 118.149 97.0343 118.358 96.6215 118.687C96.2265 119.014 96.0519 119.399 96.0979 119.841C96.1347 120.195 96.3065 120.472 96.6134 120.672C96.9361 120.853 97.3897 121.003 97.974 121.121L99.4828 121.446C101.144 121.774 102.45 122.3 103.401 123.023C104.352 123.747 104.899 124.798 105.043 126.178C105.197 127.664 104.749 128.935 103.696 129.992C102.642 131.031 101.028 131.664 98.8523 131.89C97.7734 132.002 96.7967 131.978 95.922 131.819C95.0492 131.677 94.3431 131.42 93.8037 131.047C93.2625 130.656 92.9616 130.169 92.9009 129.586C92.8531 129.126 92.9453 128.723 93.1775 128.377C93.4097 128.031 93.6846 127.752 94.0023 127.54C94.5203 127.88 95.1495 128.172 95.8901 128.417C96.6464 128.642 97.4845 128.707 98.4042 128.611Z" fill="black"/>
<path d="M78.4533 121.863C78.6013 122.598 78.7315 123.336 78.8441 124.075C78.9567 124.814 79.0489 125.529 79.1206 126.218C79.1923 126.908 79.2622 127.58 79.3302 128.235L79.8653 133.381C79.7275 133.431 79.4845 133.501 79.1363 133.591C78.8058 133.679 78.4636 133.741 78.1099 133.778C77.3494 133.857 76.7962 133.781 76.4503 133.549C76.1043 133.316 75.8955 132.855 75.8238 132.166L74.795 122.27L78.4533 121.863ZM85.9702 128.134C85.7103 126.838 85.5108 125.608 85.3718 124.442C85.2504 123.275 85.1346 122.161 85.0243 121.099L84.5581 116.616C84.7313 116.562 84.9832 116.491 85.3137 116.403C85.6442 116.315 85.9863 116.253 86.3401 116.216C87.1006 116.137 87.6449 116.215 87.9732 116.449C88.3191 116.681 88.5279 117.142 88.5996 117.832L89.6257 127.7L85.9702 128.134ZM89.2313 123.907L90.0559 131.839C89.8658 132.073 89.5649 132.274 89.1533 132.442C88.7594 132.608 88.2795 132.721 87.7135 132.78C87.1122 132.842 86.5459 132.812 86.0146 132.688C85.4814 132.547 85.0119 132.158 84.606 131.521L80.7323 125.729C80.4955 125.342 80.2596 124.965 80.0246 124.596C79.7896 124.227 79.5634 123.857 79.3461 123.486C79.1288 123.116 78.9105 122.736 78.6914 122.348L74.9329 123.597L74.3951 118.423C74.5937 118.099 74.9059 117.834 75.3315 117.629C75.7571 117.424 76.2263 117.294 76.7392 117.241C77.3406 117.179 77.9078 117.218 78.4409 117.359C78.9917 117.499 79.4603 117.879 79.8467 118.5L83.7497 124.316C84.0005 124.665 84.2355 125.034 84.4547 125.422C84.6897 125.791 84.9168 126.17 85.1359 126.558C85.3532 126.929 85.5626 127.309 85.7641 127.7L89.4933 126.427L89.2313 123.907Z" fill="black"/>
<path d="M64.5826 122.098C64.4646 122.683 64.3176 123.333 64.1417 124.048C63.9835 124.762 63.8113 125.513 63.6251 126.301C63.4565 127.087 63.2959 127.863 63.1432 128.63L62.9112 131.041C62.84 131.388 62.7707 131.753 62.7032 132.135C62.6533 132.516 62.5947 132.897 62.5272 133.28C62.4578 133.644 62.3955 133.991 62.3402 134.318C62.2848 134.646 62.2365 134.955 62.1952 135.245C61.9885 135.32 61.7641 135.397 61.522 135.476C61.2817 135.572 60.9936 135.638 60.6575 135.673C59.9324 135.748 59.3615 135.674 58.9448 135.449C58.5281 135.224 58.2941 134.864 58.2426 134.369C58.2187 134.139 58.2213 133.906 58.2505 133.671C58.2973 133.433 58.3493 133.16 58.4065 132.85C58.5068 132.267 58.6525 131.519 58.8435 130.606C59.0504 129.672 59.2774 128.674 59.5245 127.612C59.7716 126.549 60.0196 125.496 60.2685 124.451C60.5155 123.388 60.7453 122.417 60.9577 121.537C61.1878 120.655 61.3753 119.965 61.5202 119.467C61.7689 119.28 62.1521 119.097 62.6699 118.918C63.1857 118.722 63.709 118.596 64.2395 118.541C65 118.462 65.6832 118.498 66.2889 118.649C66.9123 118.799 67.3293 119.113 67.5399 119.592C67.9911 120.492 68.4756 121.542 68.9934 122.739C69.5094 123.919 70.0406 125.16 70.5872 126.462C71.1337 127.764 71.6589 129.032 72.1627 130.267C72.6823 131.482 73.136 132.579 73.5238 133.558C73.369 133.788 73.1133 133.994 72.7566 134.174C72.3999 134.354 71.9739 134.47 71.4787 134.521C70.7359 134.598 70.2013 134.529 69.8749 134.312C69.5643 134.077 69.3019 133.702 69.0875 133.188L67.9269 130.278L67.2442 128.096C66.9316 127.325 66.6217 126.579 66.3145 125.86C66.0055 125.124 65.7197 124.438 65.4572 123.804C65.1927 123.152 64.9543 122.578 64.7418 122.082L64.5826 122.098ZM62.4524 128.434L68.6603 127.788L69.5163 130.864L61.2127 131.727L62.4524 128.434Z" fill="black"/>
</g>
<defs>
<filter id="filter0_d_768_586" x="0" y="0" width="204.274" height="224" filterUnits="userSpaceOnUse" color-interpolation-filters="sRGB">
<feFlood flood-opacity="0" result="BackgroundImageFix"/>
<feColorMatrix in="SourceAlpha" type="matrix" values="0 0 0 0 0 0 0 0 0 0 0 0 0 0 0 0 0 0 127 0" result="hardAlpha"/>
<feOffset dy="4"/>
<feGaussianBlur stdDeviation="6"/>
<feComposite in2="hardAlpha" operator="out"/>
<feColorMatrix type="matrix" values="0 0 0 0 0 0 0 0 0 0 0 0 0 0 0 0 0 0 0.1 0"/>
<feBlend mode="normal" in2="BackgroundImageFix" result="effect1_dropShadow_768_586"/>
<feBlend mode="normal" in="SourceGraphic" in2="effect1_dropShadow_768_586" result="shape"/>
</filter>
</defs>
</svg>
