<svg width="336" height="275" viewBox="0 0 336 275" fill="none" xmlns="http://www.w3.org/2000/svg">
<g filter="url(#filter0_d_769_815)">
<path d="M236.681 211.91C230.027 211.391 223.374 210.872 216.72 210.353C215.723 210.276 214.838 209.763 215.115 208.748C215.239 208.265 216.36 207.716 216.991 207.757C223.604 208.229 230.199 208.908 236.811 209.326C242.515 209.686 246.745 206.784 250.148 202.543C252.767 199.269 253.859 195.34 254.443 191.27C254.92 187.919 255.304 184.551 255.746 181.195C255.864 180.298 256.018 179.29 257.268 179.49C258.336 179.661 258.448 180.593 258.312 181.46C257.475 186.982 257.38 192.633 255.504 197.977C253.003 205.12 248.096 209.739 240.787 211.692C239.483 212.04 238.056 211.927 236.687 212.028L236.681 211.91Z" fill="#F8A80C"/>
<path d="M101.188 62.0703C105.317 62.5128 110.036 63.0319 114.684 63.4802C116.1 63.6218 117.533 63.5628 118.955 63.6159C119.444 63.5694 119.937 63.638 120.394 63.8164C120.601 63.956 120.782 64.1295 120.931 64.3296C121.099 64.5495 121.178 64.825 121.152 65.1007C121.126 65.3764 120.996 65.632 120.79 65.8161C120.635 65.9851 120.426 66.0956 120.2 66.1289C118.636 66.1584 117.067 65.9695 115.481 65.8516C109.8 65.421 104.125 64.6719 98.4448 64.6306C92.9648 64.5657 88.9654 67.7569 85.8921 72.0453C82.9427 76.1273 82.2231 80.9701 81.5742 85.8012C81.2439 88.2257 81.0315 90.6739 80.6422 93.0924C80.6236 93.1987 80.5812 93.2996 80.5183 93.3873C80.4197 93.5309 80.2876 93.6481 80.1334 93.7292C79.9793 93.8103 79.8077 93.8528 79.6335 93.8528C79.4593 93.8528 79.2877 93.8103 79.1336 93.7292C78.9794 93.6481 78.8473 93.5309 78.7487 93.3873C78.5909 93.1999 78.4997 92.9653 78.4891 92.7205C78.6189 90.072 78.8372 87.4118 79.2029 84.7986C79.8282 80.3214 80.4829 75.7793 82.9486 71.886C87.0424 65.4386 92.6699 61.5748 101.188 62.0703Z" fill="#F8A80C"/>
<path d="M222.267 199.867L86.3582 187.479C84.975 187.35 83.6311 186.948 82.4041 186.297C81.1771 185.646 80.0913 184.757 79.2094 183.684C78.3275 182.611 77.667 181.374 77.2659 180.043C76.8649 178.713 76.7313 177.317 76.8729 175.935L85.7211 88.6859C86.377 83.1511 89.2046 78.1035 93.5819 74.6532C97.9592 71.2029 103.528 69.6325 109.063 70.2876L247.006 82.7696C248.271 82.887 249.499 83.2555 250.62 83.8537C251.74 84.4519 252.729 85.2677 253.53 86.2533C254.331 87.2388 254.928 88.3743 255.284 89.5932C255.641 90.8121 255.75 92.0901 255.607 93.352L245.608 181.48C244.95 187.013 242.121 192.058 237.744 195.505C233.367 198.953 227.8 200.522 222.267 199.867Z" fill="#FBC968"/>
<path d="M225.208 202.808L89.2993 190.42C87.9162 190.291 86.5723 189.889 85.3453 189.238C84.1183 188.587 83.0325 187.699 82.1506 186.625C81.2687 185.552 80.6081 184.315 80.2071 182.985C79.8061 181.655 79.6725 180.258 79.814 178.877L88.6623 91.6271C89.3182 86.0922 92.1457 81.0447 96.523 77.5944C100.9 74.1441 106.469 72.5737 112.004 73.2287L249.948 85.7107C251.212 85.8282 252.44 86.1966 253.561 86.7949C254.681 87.3931 255.671 88.2089 256.472 89.1944C257.273 90.18 257.869 91.3155 258.225 92.5344C258.582 93.7533 258.692 95.0313 258.548 96.2931L248.55 184.421C247.891 189.954 245.062 194.999 240.685 198.447C236.308 201.894 230.741 203.463 225.208 202.808Z" fill="white"/>
<path d="M101.764 196.88C102.312 195.582 102.837 194.278 103.421 192.998C103.643 192.506 103.94 192.05 104.3 191.647C105.161 190.715 106.2 190.745 106.66 191.913C107.099 193.296 107.376 194.725 107.485 196.172C107.751 198.348 107.898 200.543 108.075 202.725L108.453 202.79C108.677 202.2 108.872 201.611 109.137 201.021C109.479 200.277 110.028 199.457 110.907 199.982C111.184 200.213 111.4 200.507 111.537 200.84C111.673 201.174 111.726 201.535 111.691 201.894C110.913 204.772 109.981 207.615 109.013 210.441C108.465 212.045 107.244 212.305 106.117 211.066C104.654 209.42 103.309 207.663 101.87 205.987C101.245 205.262 101.363 204.69 102.005 204.094C102.749 203.404 103.362 203.781 103.934 204.318C104.359 204.803 104.885 205.189 105.474 205.451C105.279 202.902 105.091 200.354 104.884 197.328C104.094 198.578 103.575 199.481 102.979 200.331C101.888 201.894 100.672 201.988 99.7934 200.331C98.8839 198.545 98.1719 196.666 97.6699 194.727C96.6258 190.951 95.7115 187.135 94.8325 183.318C94.6202 182.404 94.0421 181.053 95.505 180.711C96.8794 180.387 96.9266 181.755 97.1862 182.652C98.4603 187.023 99.7109 191.406 100.973 195.777C101.085 196.166 101.256 196.543 101.404 196.921L101.764 196.88Z" fill="#F78C0C"/>
<path d="M237.401 70.5742H238.928C239.241 70.5742 239.541 70.6986 239.763 70.9199C239.984 71.1411 240.108 71.4411 240.108 71.754V72.7863C240.108 73.0812 240.167 73.1579 240.444 73.2405C241.209 73.4659 241.947 73.7745 242.645 74.1607C242.721 74.2166 242.815 74.2408 242.908 74.2287C243.002 74.2166 243.087 74.1692 243.146 74.0959L243.86 73.3762C243.971 73.2506 244.107 73.1501 244.259 73.0812C244.412 73.0123 244.577 72.9767 244.745 72.9767C244.912 72.9767 245.077 73.0123 245.23 73.0812C245.383 73.1501 245.519 73.2506 245.629 73.3762L247.718 75.4644C247.85 75.5751 247.957 75.7134 248.03 75.8699C248.103 76.0264 248.141 76.1972 248.141 76.3699C248.141 76.5426 248.103 76.7132 248.03 76.8696C247.957 77.0261 247.85 77.1645 247.718 77.2752C247.493 77.5052 247.263 77.7354 247.033 77.9595C246.96 78.0168 246.911 78.0999 246.897 78.192C246.883 78.2841 246.904 78.3781 246.957 78.4549C247.354 79.1712 247.667 79.9316 247.889 80.7203C247.906 80.8061 247.953 80.8828 248.023 80.936C248.092 80.9892 248.179 81.0152 248.266 81.0092H249.334C249.495 81.0035 249.656 81.0309 249.807 81.0898C249.957 81.1488 250.094 81.238 250.208 81.3519C250.322 81.4659 250.412 81.6022 250.472 81.7523C250.532 81.9024 250.56 82.063 250.555 82.2244V85.2386C250.562 85.4015 250.534 85.564 250.475 85.7158C250.416 85.8677 250.326 86.0058 250.21 86.1211C250.095 86.2364 249.957 86.3265 249.805 86.3858C249.653 86.4451 249.491 86.4722 249.328 86.4656H248.313C248.048 86.4656 247.96 86.5305 247.883 86.7841C247.661 87.5512 247.354 88.2913 246.969 88.9904C246.839 89.2323 246.856 89.3325 247.057 89.5331C247.258 89.7336 247.541 90.0225 247.788 90.2644C248.008 90.48 248.134 90.7727 248.141 91.0801C248.147 91.3875 248.034 91.6853 247.824 91.9102C247.081 92.677 246.326 93.4262 245.565 94.1695C245.456 94.2758 245.327 94.3593 245.185 94.4152C245.044 94.471 244.892 94.4982 244.74 94.4949C244.588 94.4916 244.438 94.4581 244.299 94.3961C244.16 94.3342 244.035 94.245 243.931 94.134C243.671 93.8804 243.412 93.6208 243.158 93.3613C243.102 93.2911 243.022 93.2448 242.933 93.2316C242.844 93.2185 242.754 93.2395 242.68 93.2904C241.964 93.69 241.204 94.005 240.415 94.2285C240.326 94.247 240.248 94.2975 240.195 94.3705C240.141 94.4435 240.117 94.5337 240.126 94.6237V95.715C240.126 96.0279 240.002 96.3279 239.78 96.5492C239.559 96.7704 239.259 96.8948 238.946 96.8948C237.916 96.8948 236.884 96.8948 235.849 96.8948C235.693 96.8997 235.537 96.8725 235.392 96.815C235.247 96.7575 235.115 96.6706 235.004 96.5601C234.894 96.4495 234.807 96.3175 234.749 96.1721C234.692 96.0268 234.665 95.8713 234.669 95.715C234.669 95.3611 234.669 95.0011 234.669 94.6413C234.677 94.5934 234.674 94.5447 234.662 94.4978C234.65 94.4509 234.628 94.4069 234.598 94.3688C234.569 94.3306 234.531 94.2989 234.489 94.2757C234.446 94.2526 234.399 94.2385 234.351 94.2343C233.585 94.0098 232.845 93.7034 232.145 93.3201C232.107 93.287 232.062 93.2623 232.014 93.2475C231.966 93.2327 231.915 93.2281 231.865 93.2342C231.815 93.2404 231.767 93.257 231.723 93.2829C231.68 93.3089 231.643 93.3436 231.614 93.3849L230.888 94.1165C230.78 94.2317 230.65 94.324 230.506 94.3881C230.362 94.4521 230.206 94.4864 230.048 94.4892C229.89 94.4919 229.733 94.4629 229.587 94.4039C229.44 94.3449 229.307 94.2572 229.195 94.1458C228.448 93.4144 227.709 92.6752 226.977 91.928C226.766 91.7202 226.644 91.4373 226.638 91.1406C226.633 90.8438 226.744 90.5566 226.948 90.341C227.207 90.052 227.497 89.7866 227.78 89.5152C227.853 89.4523 227.9 89.3649 227.913 89.2692C227.926 89.1736 227.904 89.0764 227.85 88.9962C227.567 88.3827 227.29 87.7634 227.019 87.1381C226.97 87.018 226.932 86.8937 226.907 86.7666C226.891 86.6775 226.842 86.5974 226.77 86.5428C226.698 86.4881 226.607 86.4628 226.517 86.4716H225.515C225.348 86.482 225.18 86.4565 225.024 86.3973C224.868 86.3381 224.726 86.2466 224.607 86.1283C224.489 86.01 224.397 85.8679 224.338 85.7115C224.279 85.5551 224.254 85.3879 224.264 85.221C224.264 84.2182 224.264 83.2096 224.264 82.2068C224.259 82.0505 224.286 81.8948 224.344 81.7494C224.401 81.6041 224.488 81.472 224.599 81.3614C224.709 81.2509 224.841 81.1644 224.987 81.1068C225.132 81.0493 225.287 81.0221 225.444 81.027H226.494C226.542 81.0345 226.591 81.0321 226.638 81.0204C226.685 81.0087 226.73 80.9876 226.769 80.9585C226.808 80.9294 226.841 80.893 226.865 80.8511C226.89 80.8091 226.906 80.7625 226.913 80.7142C227.132 79.9463 227.439 79.2062 227.827 78.5082C227.886 78.4317 227.914 78.3355 227.905 78.2392C227.896 78.143 227.852 78.0536 227.78 77.9889C227.526 77.7412 227.272 77.4876 227.025 77.234C226.907 77.1236 226.813 76.9901 226.749 76.842C226.684 76.6939 226.651 76.5343 226.651 76.3728C226.651 76.2113 226.684 76.0515 226.749 75.9033C226.813 75.7552 226.907 75.6219 227.025 75.5116C227.732 74.7978 228.446 74.0898 229.154 73.3819C229.264 73.2659 229.397 73.1737 229.544 73.1106C229.691 73.0475 229.849 73.015 230.009 73.015C230.169 73.015 230.328 73.0475 230.475 73.1106C230.622 73.1737 230.755 73.2659 230.865 73.3819C231.113 73.6238 231.354 73.8774 231.596 74.1311C231.657 74.2072 231.744 74.2581 231.84 74.2734C231.936 74.2886 232.034 74.2673 232.115 74.2137C232.813 73.8286 233.551 73.52 234.316 73.2935C234.616 73.205 234.664 73.1343 234.669 72.8217C234.675 72.5091 234.669 72.1315 234.669 71.7894C234.665 71.6332 234.692 71.4774 234.749 71.332C234.807 71.1867 234.894 71.0549 235.004 70.9443C235.115 70.8338 235.247 70.747 235.392 70.6894C235.537 70.6319 235.693 70.6047 235.849 70.6096C236.368 70.5743 236.887 70.5742 237.401 70.5742Z" fill="#0CD4F8"/>
<path d="M237.407 95.1252H238.722C239.023 95.1252 239.041 95.125 239.041 94.8124C239.041 94.4997 239.041 94.2226 239.041 93.8864C239.027 93.6298 239.097 93.3758 239.241 93.1628C239.385 92.9499 239.594 92.7897 239.837 92.7066C240.594 92.4733 241.328 92.1732 242.031 91.81C242.245 91.7006 242.488 91.6617 242.726 91.6988C242.963 91.7359 243.183 91.8471 243.353 92.0165C243.612 92.2642 243.86 92.5179 244.108 92.7656C244.267 92.919 244.32 92.919 244.474 92.7656C245.128 92.1168 245.777 91.462 246.426 90.8131C246.579 90.6597 246.579 90.6125 246.426 90.4473C246.178 90.1937 245.925 89.9518 245.683 89.6863C245.511 89.5225 245.398 89.3073 245.359 89.0731C245.321 88.8389 245.36 88.5988 245.47 88.3888C245.836 87.6655 246.147 86.9161 246.402 86.147C246.468 85.9387 246.594 85.755 246.766 85.6202C246.938 85.4854 247.146 85.406 247.364 85.3921C247.747 85.3567 248.137 85.3921 248.544 85.3921C248.78 85.3921 248.815 85.3566 248.815 85.1266V82.3719C248.815 82.1536 248.78 82.1182 248.556 82.1123C248.208 82.1123 247.859 82.1123 247.517 82.1123C247.245 82.119 246.978 82.031 246.763 81.8632C246.548 81.6954 246.398 81.4582 246.338 81.1921C246.138 80.5137 245.865 79.859 245.524 79.2396C245.382 79.0023 245.325 78.7238 245.364 78.4501C245.403 78.1764 245.534 77.9242 245.736 77.7355C245.966 77.4995 246.196 77.2635 246.432 77.0393C246.556 76.9154 246.568 76.8151 246.432 76.6853L244.479 74.7328C244.314 74.5676 244.261 74.5676 244.096 74.7328C243.931 74.898 243.636 75.1989 243.4 75.4289C243.216 75.6262 242.969 75.7543 242.702 75.7919C242.435 75.8294 242.163 75.7743 241.931 75.6355C241.303 75.2946 240.64 75.0197 239.955 74.8154C239.683 74.7494 239.443 74.5921 239.273 74.3699C239.103 74.1476 239.015 73.874 239.023 73.5945C239.023 73.2701 239.023 72.9514 239.023 72.627C239.023 72.4029 238.982 72.3673 238.769 72.3615C237.849 72.3615 236.929 72.3615 236.009 72.3615C235.832 72.3615 235.749 72.4266 235.755 72.6094C235.755 72.9398 235.755 73.2701 235.755 73.5945C235.764 73.8616 235.682 74.1239 235.522 74.3382C235.362 74.5525 235.135 74.7063 234.876 74.7743C234.161 74.9873 233.471 75.276 232.818 75.6355C232.594 75.7525 232.339 75.7972 232.088 75.7633C231.838 75.7295 231.604 75.6188 231.419 75.4465C231.172 75.187 230.906 74.9393 230.659 74.6798C230.64 74.653 230.615 74.6313 230.587 74.6161C230.558 74.601 230.526 74.5931 230.493 74.5931C230.461 74.5931 230.429 74.601 230.4 74.6161C230.371 74.6313 230.347 74.653 230.328 74.6798L228.346 76.6559C228.318 76.6749 228.295 76.7004 228.279 76.7303C228.264 76.7601 228.255 76.7933 228.255 76.827C228.255 76.8608 228.264 76.894 228.279 76.9238C228.295 76.9536 228.318 76.9792 228.346 76.9981C228.594 77.2341 228.83 77.4818 229.072 77.7237C229.264 77.9046 229.39 78.1448 229.429 78.4057C229.469 78.6666 229.42 78.9332 229.29 79.1629C228.941 79.7919 228.66 80.4562 228.452 81.1449C228.387 81.4302 228.221 81.6825 227.985 81.8557C227.749 82.029 227.458 82.1117 227.166 82.0887H226.258C226.04 82.0887 226.004 82.1301 226.004 82.3543C226.004 83.2686 226.004 84.1829 226.004 85.0972C226.004 85.3213 226.046 85.3567 226.282 85.3567C226.612 85.3567 226.948 85.3567 227.284 85.3567C227.535 85.354 227.779 85.4306 227.983 85.5759C228.186 85.7211 228.338 85.9275 228.417 86.1649C228.646 86.9341 228.954 87.6773 229.337 88.3827C229.403 88.5414 229.433 88.7126 229.426 88.8842C229.421 89.0647 229.378 89.2422 229.3 89.4049C229.222 89.5676 229.11 89.7119 228.971 89.828L228.346 90.4591C228.252 90.5535 228.216 90.6479 228.346 90.754L230.37 92.7714C230.487 92.8953 230.588 92.8717 230.694 92.7714C230.936 92.5236 231.184 92.2818 231.431 92.034C231.612 91.8506 231.847 91.7312 232.102 91.6939C232.356 91.6566 232.616 91.7035 232.841 91.8275C233.502 92.1857 234.197 92.4746 234.917 92.689C235.154 92.749 235.365 92.8845 235.519 93.075C235.672 93.2654 235.759 93.5003 235.767 93.7446C235.767 94.1222 235.767 94.5057 235.767 94.8832C235.767 95.0543 235.838 95.1252 236.015 95.1252C236.481 95.1193 236.947 95.1252 237.407 95.1252Z" fill="white"/>
<path d="M242.621 83.7403C242.62 85.1187 242.072 86.4404 241.098 87.4156C240.124 88.3908 238.803 88.9401 237.425 88.9433C236.741 88.944 236.063 88.81 235.431 88.5489C234.799 88.2879 234.224 87.905 233.74 87.4219C233.255 86.9388 232.871 86.3648 232.609 85.7332C232.346 85.1015 232.211 84.4243 232.21 83.7403C232.209 83.0546 232.344 82.3757 232.607 81.7423C232.869 81.1088 233.254 80.5333 233.74 80.0492C234.226 79.5652 234.802 79.1821 235.437 78.9216C236.071 78.6612 236.751 78.5288 237.436 78.5319C238.814 78.5382 240.132 79.0895 241.104 80.0657C242.076 81.0418 242.621 82.363 242.621 83.7403Z" fill="#0CD4F8"/>
<path d="M237.413 80.0123C236.428 80.0092 235.483 80.3969 234.784 81.0904C234.085 81.7838 233.689 82.7263 233.685 83.7109C233.681 84.2036 233.775 84.6922 233.961 85.1484C234.148 85.6046 234.423 86.0192 234.771 86.3682C235.119 86.7172 235.532 86.9937 235.988 87.1816C236.443 87.3694 236.932 87.4648 237.425 87.4624C238.412 87.4577 239.358 87.0613 240.053 86.3601C240.749 85.6589 241.138 84.7104 241.135 83.7227C241.13 82.738 240.736 81.795 240.039 81.0999C239.341 80.4047 238.397 80.0138 237.413 80.0123Z" fill="white"/>
<path d="M221.841 120.747L229.203 121.417C229.284 121.585 229.353 121.8 229.409 122.062C229.467 122.309 229.483 122.575 229.457 122.862C229.411 123.372 229.256 123.743 228.994 123.977C228.748 124.211 228.426 124.31 228.027 124.274L221.598 123.689L221.841 120.747ZM224.944 123.994L217.582 123.324C217.501 123.155 217.432 122.948 217.374 122.702C217.317 122.44 217.303 122.157 217.33 121.855C217.377 121.345 217.523 120.98 217.767 120.762C218.03 120.529 218.352 120.429 218.734 120.464L225.188 121.052L224.944 123.994ZM225.074 123.355L223.965 135.544C223.819 135.563 223.584 135.582 223.261 135.601C222.938 135.62 222.609 135.614 222.274 135.583C221.573 135.519 221.083 135.346 220.803 135.064C220.54 134.783 220.436 134.332 220.493 133.71L221.465 123.026L225.074 123.355Z" fill="black"/>
<path d="M215.617 122.181C215.585 122.531 215.461 122.841 215.243 123.111C215.027 123.364 214.793 123.552 214.541 123.673C214.168 123.366 213.735 123.086 213.244 122.832C212.769 122.58 212.189 122.423 211.504 122.361C210.643 122.282 209.886 122.398 209.231 122.708C208.592 123.019 208.073 123.518 207.673 124.205C207.275 124.876 207.03 125.713 206.938 126.717C206.798 128.262 207.073 129.468 207.766 130.335C208.474 131.202 209.489 131.696 210.812 131.817C211.513 131.881 212.119 131.839 212.631 131.693C213.142 131.547 213.616 131.365 214.054 131.148C214.277 131.345 214.447 131.593 214.564 131.893C214.699 132.179 214.75 132.505 214.716 132.871C214.687 133.19 214.573 133.477 214.373 133.731C214.19 133.972 213.891 134.17 213.476 134.325C213.158 134.456 212.714 134.569 212.144 134.661C211.587 134.771 210.903 134.789 210.09 134.715C208.688 134.588 207.438 134.201 206.34 133.555C205.243 132.892 204.404 131.965 203.822 130.771C203.256 129.579 203.052 128.114 203.21 126.377C203.36 124.72 203.814 123.356 204.57 122.284C205.344 121.197 206.315 120.41 207.484 119.922C208.669 119.436 209.931 119.253 211.27 119.375C212.21 119.461 213.012 119.646 213.677 119.932C214.343 120.201 214.843 120.536 215.176 120.936C215.511 121.319 215.658 121.735 215.617 122.181Z" fill="black"/>
<path d="M194.888 122.728L193.983 132.671C193.835 132.706 193.608 132.733 193.301 132.753C193.01 132.775 192.697 132.771 192.362 132.74C191.773 132.687 191.318 132.469 191 132.086C190.681 131.704 190.549 131.218 190.602 130.628L191.351 122.406L194.888 122.728ZM190.829 128.142L191.575 119.944C191.628 119.355 191.846 118.901 192.229 118.582C192.611 118.263 193.097 118.131 193.687 118.184C194.022 118.215 194.33 118.267 194.613 118.341C194.911 118.416 195.13 118.484 195.269 118.545L194.366 128.464L190.829 128.142ZM193.169 123.873L200.387 124.53C200.468 124.698 200.53 124.904 200.572 125.149C200.63 125.395 200.646 125.662 200.62 125.949C200.573 126.459 200.428 126.823 200.183 127.042C199.939 127.244 199.627 127.328 199.244 127.294L192.91 126.717L193.169 123.873ZM192.623 129.872L200.63 130.601C200.713 130.753 200.774 130.959 200.815 131.22C200.873 131.466 200.888 131.741 200.86 132.044C200.815 132.538 200.67 132.894 200.426 133.113C200.181 133.331 199.867 133.423 199.485 133.389L192.362 132.74L192.623 129.872ZM193.687 118.184L201.574 118.902C201.655 119.07 201.725 119.278 201.783 119.524C201.841 119.77 201.857 120.037 201.831 120.323C201.784 120.833 201.639 121.198 201.394 121.416C201.149 121.635 200.827 121.726 200.429 121.69L193.426 121.053L193.687 118.184Z" fill="black"/>
<path d="M181.867 124.001C182.663 124.074 183.325 123.949 183.853 123.627C184.38 123.306 184.676 122.795 184.739 122.094C184.803 121.392 184.612 120.845 184.166 120.451C183.737 120.042 183.045 119.794 182.089 119.707C181.818 119.683 181.569 119.676 181.343 119.688C181.119 119.683 180.894 119.687 180.668 119.699L180.289 123.857L181.867 124.001ZM176.452 126.304L177.209 117.986C177.238 117.667 177.347 117.436 177.537 117.293C177.728 117.134 177.98 117.012 178.293 116.928C178.819 116.799 179.436 116.727 180.144 116.711C180.869 116.696 181.613 116.724 182.378 116.794C184.529 116.989 186.105 117.591 187.106 118.598C188.108 119.589 188.539 120.857 188.398 122.402C188.311 123.359 187.971 124.187 187.377 124.888C186.799 125.591 186.036 126.116 185.089 126.463C184.159 126.796 183.112 126.91 181.949 126.804L176.452 126.304ZM184.652 125.435C184.974 125.963 185.31 126.499 185.662 127.046C186.016 127.576 186.347 128.088 186.655 128.582C186.98 129.077 187.267 129.537 187.518 129.962C187.77 130.37 187.971 130.718 188.122 131.005C187.935 131.47 187.646 131.821 187.254 132.059C186.865 132.28 186.439 132.37 185.977 132.328C185.403 132.276 184.969 132.108 184.673 131.824C184.395 131.525 184.132 131.148 183.884 130.691L181.38 125.909L184.652 125.435ZM180.206 125.296L179.641 131.51C179.479 131.528 179.236 131.546 178.913 131.564C178.606 131.585 178.285 131.58 177.95 131.549C177.233 131.484 176.735 131.31 176.455 131.027C176.192 130.746 176.088 130.295 176.145 129.674L176.573 124.965L180.206 125.296Z" fill="black"/>
<path d="M167.442 122.688C168.239 122.761 168.901 122.636 169.428 122.315C169.955 121.993 170.251 121.482 170.315 120.781C170.378 120.08 170.187 119.532 169.741 119.138C169.312 118.729 168.62 118.482 167.664 118.395C167.393 118.37 167.145 118.363 166.919 118.375C166.694 118.371 166.469 118.374 166.243 118.386L165.864 122.545L167.442 122.688ZM162.027 124.991L162.784 116.673C162.813 116.354 162.922 116.123 163.112 115.98C163.303 115.821 163.555 115.699 163.868 115.615C164.394 115.486 165.011 115.414 165.72 115.398C166.444 115.384 167.188 115.411 167.953 115.481C170.104 115.677 171.68 116.278 172.681 117.285C173.684 118.276 174.114 119.544 173.974 121.09C173.887 122.046 173.546 122.874 172.952 123.575C172.374 124.278 171.611 124.803 170.664 125.15C169.734 125.483 168.687 125.597 167.524 125.491L162.027 124.991ZM170.227 124.122C170.549 124.65 170.886 125.187 171.238 125.733C171.591 126.263 171.922 126.775 172.23 127.269C172.555 127.764 172.842 128.224 173.093 128.649C173.345 129.057 173.546 129.405 173.697 129.692C173.51 130.157 173.221 130.508 172.83 130.746C172.44 130.967 172.014 131.057 171.552 131.015C170.978 130.963 170.544 130.795 170.248 130.511C169.97 130.212 169.707 129.835 169.46 129.379L166.955 124.596L170.227 124.122ZM165.782 123.983L165.216 130.197C165.054 130.215 164.811 130.233 164.488 130.251C164.181 130.272 163.86 130.267 163.526 130.236C162.809 130.171 162.31 129.997 162.031 129.715C161.767 129.433 161.664 128.982 161.72 128.361L162.149 123.652L165.782 123.983Z" fill="black"/>
<path d="M159.585 122.383C159.434 124.04 158.979 125.412 158.222 126.5C157.465 127.572 156.503 128.352 155.334 128.84C154.165 129.328 152.871 129.507 151.453 129.378C150.051 129.251 148.811 128.841 147.733 128.148C146.671 127.457 145.873 126.517 145.339 125.328C144.806 124.122 144.615 122.691 144.766 121.034C144.917 119.377 145.37 118.012 146.126 116.94C146.884 115.853 147.847 115.073 149.014 114.601C150.183 114.112 151.461 113.932 152.847 114.058C154.25 114.185 155.482 114.595 156.543 115.286C157.606 115.961 158.412 116.902 158.961 118.109C159.528 119.301 159.735 120.725 159.585 122.383ZM155.856 122.043C155.997 120.498 155.769 119.296 155.172 118.438C154.575 117.581 153.711 117.101 152.58 116.998C151.48 116.897 150.56 117.215 149.818 117.951C149.076 118.687 148.635 119.828 148.494 121.373C148.352 122.935 148.58 124.144 149.176 125.002C149.773 125.86 150.629 126.339 151.744 126.441C152.86 126.542 153.788 126.225 154.53 125.489C155.272 124.753 155.714 123.605 155.856 122.043Z" fill="black"/>
<path d="M143.657 115.631C143.625 115.982 143.5 116.292 143.283 116.561C143.067 116.815 142.833 117.002 142.581 117.124C142.207 116.817 141.775 116.536 141.284 116.283C140.809 116.031 140.229 115.873 139.543 115.811C138.683 115.733 137.925 115.849 137.271 116.158C136.632 116.47 136.112 116.969 135.712 117.655C135.314 118.326 135.069 119.163 134.978 120.167C134.837 121.713 135.113 122.919 135.805 123.785C136.514 124.653 137.529 125.147 138.851 125.267C139.553 125.331 140.159 125.29 140.67 125.144C141.182 124.997 141.656 124.816 142.093 124.598C142.316 124.795 142.487 125.044 142.604 125.344C142.739 125.629 142.789 125.955 142.756 126.321C142.727 126.64 142.612 126.927 142.413 127.182C142.23 127.422 141.931 127.62 141.515 127.775C141.198 127.907 140.754 128.019 140.183 128.112C139.627 128.222 138.942 128.24 138.13 128.166C136.728 128.038 135.477 127.651 134.38 127.005C133.283 126.343 132.444 125.415 131.861 124.221C131.295 123.029 131.091 121.565 131.249 119.828C131.4 118.171 131.854 116.806 132.61 115.734C133.384 114.648 134.355 113.861 135.524 113.373C136.709 112.886 137.971 112.704 139.309 112.825C140.249 112.911 141.052 113.097 141.717 113.382C142.383 113.651 142.883 113.986 143.216 114.386C143.55 114.77 143.697 115.185 143.657 115.631Z" fill="black"/>
<path d="M119.473 115.551C119.475 116.226 119.462 116.899 119.433 117.571C119.404 118.244 119.361 118.89 119.305 119.512C119.248 120.133 119.193 120.739 119.14 121.328L118.717 125.965C118.587 125.985 118.36 126.005 118.037 126.024C117.73 126.044 117.417 126.04 117.099 126.011C116.414 125.948 115.938 125.784 115.673 125.519C115.408 125.254 115.304 124.811 115.361 124.19L116.172 115.274L119.473 115.551ZM125.019 122.394C125.015 121.204 125.053 120.083 125.133 119.03C125.228 117.978 125.32 116.975 125.407 116.018L125.774 111.979C125.936 111.962 126.171 111.943 126.478 111.923C126.785 111.902 127.098 111.907 127.417 111.936C128.102 111.998 128.569 112.161 128.818 112.425C129.083 112.69 129.188 113.133 129.131 113.755L128.322 122.646L125.019 122.394ZM128.633 119.228L127.983 126.375C127.774 126.548 127.473 126.674 127.081 126.75C126.704 126.829 126.261 126.844 125.751 126.798C125.209 126.749 124.715 126.623 124.267 126.422C123.821 126.205 123.474 125.779 123.226 125.146L120.813 119.36C120.671 118.977 120.528 118.603 120.385 118.236C120.242 117.87 120.106 117.504 119.979 117.139C119.851 116.774 119.725 116.401 119.599 116.02L116.063 116.469L116.487 111.809C116.719 111.557 117.041 111.377 117.452 111.27C117.864 111.163 118.3 111.13 118.763 111.172C119.304 111.222 119.798 111.355 120.244 111.572C120.706 111.791 121.054 112.208 121.287 112.824L123.722 118.637C123.883 118.989 124.026 119.355 124.152 119.736C124.296 120.103 124.431 120.476 124.557 120.857C124.684 121.222 124.803 121.595 124.913 121.974L128.426 121.499L128.633 119.228Z" fill="black"/>
<path d="M112.751 115.276L111.835 125.339C111.673 125.356 111.43 125.374 111.107 125.393C110.8 125.413 110.479 125.408 110.145 125.378C109.428 125.312 108.929 125.138 108.65 124.856C108.386 124.575 108.283 124.124 108.339 123.502L109.118 114.946L112.751 115.276ZM108.705 119.487L109.523 110.5C109.701 110.484 109.951 110.467 110.274 110.448C110.597 110.429 110.918 110.434 111.237 110.463C111.922 110.526 112.405 110.69 112.686 110.957C112.967 111.223 113.078 111.683 113.019 112.336L112.338 119.818L108.705 119.487Z" fill="black"/>
<path d="M203.877 152.741C204.673 152.814 205.335 152.689 205.863 152.368C206.39 152.046 206.685 151.535 206.749 150.834C206.813 150.132 206.622 149.585 206.176 149.191C205.747 148.782 205.055 148.535 204.099 148.448C203.828 148.423 203.579 148.416 203.353 148.428C203.129 148.424 202.904 148.427 202.678 148.439L202.299 152.597L203.877 152.741ZM198.462 155.044L199.219 146.726C199.248 146.407 199.357 146.176 199.547 146.033C199.738 145.874 199.99 145.752 200.303 145.668C200.829 145.539 201.446 145.467 202.154 145.451C202.879 145.437 203.623 145.464 204.388 145.534C206.539 145.73 208.115 146.331 209.116 147.338C210.118 148.329 210.549 149.597 210.408 151.143C210.321 152.099 209.981 152.927 209.387 153.628C208.809 154.331 208.046 154.856 207.099 155.203C206.169 155.536 205.122 155.65 203.959 155.544L198.462 155.044ZM206.662 154.175C206.983 154.703 207.32 155.239 207.672 155.786C208.026 156.316 208.357 156.828 208.665 157.322C208.989 157.817 209.277 158.277 209.527 158.702C209.779 159.11 209.981 159.458 210.131 159.745C209.945 160.21 209.655 160.561 209.264 160.799C208.875 161.02 208.449 161.11 207.987 161.068C207.413 161.016 206.978 160.848 206.683 160.564C206.405 160.265 206.142 159.888 205.894 159.432L203.39 154.649L206.662 154.175ZM202.216 154.036L201.651 160.25C201.488 160.268 201.246 160.286 200.923 160.304C200.616 160.325 200.295 160.32 199.96 160.289C199.243 160.224 198.745 160.05 198.465 159.768C198.202 159.486 198.098 159.035 198.155 158.414L198.583 153.705L202.216 154.036Z" fill="black"/>
<path d="M189.472 148.972L188.567 158.915C188.419 158.95 188.192 158.977 187.885 158.997C187.594 159.019 187.281 159.015 186.946 158.984C186.357 158.93 185.902 158.712 185.584 158.33C185.265 157.947 185.133 157.461 185.186 156.872L185.935 148.65L189.472 148.972ZM185.413 154.386L186.159 146.188C186.212 145.599 186.43 145.144 186.813 144.826C187.195 144.507 187.681 144.375 188.271 144.428C188.606 144.459 188.914 144.511 189.197 144.585C189.495 144.66 189.714 144.728 189.853 144.789L188.95 154.708L185.413 154.386ZM187.753 150.117L194.971 150.774C195.052 150.942 195.114 151.148 195.156 151.393C195.214 151.639 195.23 151.906 195.204 152.193C195.157 152.703 195.012 153.067 194.767 153.286C194.523 153.488 194.211 153.572 193.828 153.537L187.494 152.961L187.753 150.117ZM187.207 156.116L195.214 156.845C195.297 156.997 195.358 157.203 195.399 157.464C195.457 157.71 195.472 157.985 195.444 158.288C195.399 158.781 195.254 159.138 195.01 159.357C194.765 159.575 194.451 159.667 194.069 159.632L186.946 158.984L187.207 156.116ZM188.271 144.428L196.158 145.146C196.239 145.314 196.309 145.521 196.367 145.768C196.425 146.014 196.441 146.28 196.415 146.567C196.368 147.077 196.223 147.441 195.978 147.66C195.733 147.879 195.411 147.97 195.013 147.934L188.01 147.296L188.271 144.428Z" fill="black"/>
<path d="M172.395 146.574C172.562 146.509 172.808 146.451 173.134 146.4C173.477 146.335 173.816 146.318 174.151 146.348C174.741 146.402 175.219 146.534 175.585 146.744C175.968 146.956 176.183 147.232 176.233 147.574C176.432 148.556 176.608 149.448 176.76 150.249C176.912 151.05 177.059 151.827 177.199 152.578C177.339 153.33 177.477 154.114 177.612 154.929L177.731 154.94C178.076 153.622 178.39 152.373 178.674 151.194C178.96 149.999 179.236 148.82 179.503 147.655C179.771 146.474 180.042 145.262 180.316 144.018C180.85 143.793 181.396 143.706 181.954 143.757C182.48 143.805 182.916 143.957 183.262 144.213C183.608 144.47 183.757 144.861 183.71 145.387C183.679 145.721 183.595 146.204 183.457 146.834C183.321 147.448 183.152 148.164 182.949 148.981C182.747 149.782 182.519 150.612 182.264 151.473C182.026 152.319 181.773 153.155 181.505 153.982C181.253 154.811 180.992 155.558 180.723 156.225C180.471 156.877 180.246 157.402 180.049 157.802C179.81 157.957 179.453 158.085 178.978 158.187C178.504 158.272 178.02 158.292 177.526 158.247C176.889 158.189 176.347 158.052 175.901 157.834C175.472 157.603 175.217 157.322 175.134 156.993C175.033 156.518 174.907 155.96 174.756 155.32C174.622 154.681 174.477 153.977 174.322 153.208C174.183 152.44 174.045 151.657 173.909 150.857C173.649 151.605 173.378 152.367 173.099 153.145C172.819 153.923 172.552 154.646 172.299 155.313C172.045 155.981 171.816 156.555 171.612 157.034C171.389 157.191 171.064 157.322 170.636 157.427C170.21 157.517 169.743 157.539 169.233 157.492C168.627 157.437 168.078 157.291 167.586 157.053C167.109 156.817 166.805 156.541 166.673 156.223C166.547 155.842 166.414 155.276 166.274 154.524C166.135 153.756 165.989 152.884 165.837 151.906C165.703 150.913 165.572 149.881 165.444 148.809C165.333 147.739 165.234 146.702 165.149 145.698C165.065 144.678 165.02 143.766 165.012 142.962C165.221 142.788 165.499 142.645 165.847 142.532C166.212 142.405 166.602 142.36 167.016 142.397C167.542 142.445 167.953 142.603 168.25 142.871C168.564 143.125 168.745 143.527 168.791 144.077C168.912 145.566 169.005 146.844 169.069 147.91C169.148 148.978 169.21 149.891 169.253 150.65C169.312 151.411 169.364 152.074 169.409 152.641C169.454 153.207 169.511 153.726 169.581 154.198L169.7 154.209C169.919 153.571 170.126 152.971 170.322 152.41C170.517 151.85 170.721 151.29 170.933 150.731C171.144 150.172 171.369 149.557 171.606 148.888C171.844 148.219 172.107 147.448 172.395 146.574Z" fill="black"/>
<path d="M156.453 153.582C157.298 153.659 157.917 153.563 158.311 153.293C158.722 153.009 158.948 152.652 158.987 152.222C159.023 151.824 158.901 151.491 158.62 151.225C158.356 150.944 157.946 150.681 157.39 150.438L156.16 149.916C155.326 149.551 154.598 149.164 153.977 148.754C153.355 148.344 152.886 147.851 152.569 147.276C152.253 146.685 152.134 145.959 152.213 145.099C152.333 143.776 152.931 142.77 154.005 142.081C155.08 141.391 156.51 141.128 158.295 141.29C159.203 141.373 160 141.534 160.685 141.773C161.386 142.013 161.92 142.327 162.286 142.714C162.67 143.086 162.839 143.519 162.794 144.013C162.763 144.364 162.647 144.667 162.447 144.922C162.247 145.177 162.019 145.381 161.764 145.534C161.42 145.262 160.945 145.002 160.341 144.754C159.753 144.508 159.101 144.352 158.384 144.287C157.619 144.217 157.026 144.292 156.604 144.51C156.198 144.73 155.977 145.04 155.941 145.438C155.912 145.757 156.016 146.031 156.252 146.262C156.505 146.477 156.88 146.688 157.375 146.894L158.65 147.444C160.06 148.022 161.122 148.713 161.836 149.517C162.55 150.321 162.85 151.345 162.737 152.587C162.615 153.926 161.998 154.97 160.885 155.721C159.774 156.455 158.239 156.733 156.279 156.554C155.307 156.466 154.449 156.275 153.704 155.983C152.958 155.706 152.379 155.356 151.968 154.933C151.558 154.494 151.377 154.012 151.425 153.486C151.463 153.072 151.614 152.732 151.879 152.467C152.144 152.202 152.436 152.003 152.753 151.872C153.151 152.261 153.656 152.629 154.267 152.973C154.896 153.304 155.624 153.507 156.453 153.582Z" fill="black"/>
<path d="M140.012 144.157C140.015 144.832 140.001 145.505 139.972 146.178C139.943 146.85 139.901 147.497 139.844 148.118C139.787 148.739 139.732 149.345 139.679 149.934L139.257 154.571C139.126 154.592 138.9 154.611 138.577 154.63C138.269 154.65 137.957 154.646 137.638 154.617C136.953 154.554 136.478 154.391 136.213 154.126C135.947 153.86 135.843 153.417 135.9 152.796L136.711 143.881L140.012 144.157ZM145.558 151C145.554 149.811 145.592 148.689 145.672 147.636C145.767 146.585 145.859 145.581 145.946 144.625L146.313 140.585C146.476 140.568 146.71 140.549 147.017 140.529C147.325 140.509 147.637 140.513 147.956 140.542C148.641 140.604 149.108 140.767 149.358 141.031C149.623 141.296 149.727 141.74 149.67 142.361L148.861 151.252L145.558 151ZM149.172 147.834L148.522 154.981C148.313 155.155 148.012 155.28 147.62 155.357C147.243 155.435 146.8 155.451 146.29 155.404C145.748 155.355 145.254 155.23 144.806 155.028C144.36 154.811 144.013 154.386 143.765 153.753L141.352 147.966C141.21 147.584 141.067 147.209 140.924 146.843C140.781 146.476 140.645 146.11 140.518 145.745C140.39 145.38 140.264 145.007 140.138 144.626L136.602 145.076L137.027 140.415C137.258 140.163 137.58 139.983 137.991 139.876C138.403 139.769 138.84 139.736 139.302 139.778C139.843 139.828 140.337 139.961 140.784 140.178C141.246 140.397 141.593 140.814 141.826 141.43L144.262 147.243C144.422 147.595 144.566 147.961 144.692 148.342C144.835 148.709 144.97 149.083 145.096 149.464C145.223 149.829 145.342 150.201 145.452 150.58L148.965 150.105L149.172 147.834Z" fill="black"/>
<path d="M127.725 141.954C127.519 142.45 127.277 142.998 126.997 143.599C126.733 144.201 126.451 144.834 126.149 145.498C125.864 146.163 125.587 146.82 125.319 147.471L124.695 149.559C124.572 149.853 124.447 150.163 124.321 150.489C124.211 150.816 124.093 151.143 123.967 151.469C123.842 151.779 123.727 152.073 123.621 152.353C123.516 152.633 123.419 152.897 123.332 153.146C123.137 153.176 122.925 153.205 122.698 153.233C122.469 153.276 122.203 153.284 121.9 153.257C121.247 153.197 120.756 153.032 120.427 152.761C120.099 152.49 119.954 152.132 119.995 151.686C120.014 151.478 120.057 151.273 120.123 151.071C120.206 150.869 120.299 150.637 120.404 150.373C120.594 149.876 120.852 149.241 121.18 148.468C121.524 147.68 121.898 146.838 122.301 145.943C122.704 145.048 123.106 144.161 123.507 143.281C123.91 142.386 124.282 141.568 124.622 140.828C124.979 140.09 125.264 139.513 125.479 139.099C125.731 138.977 126.101 138.882 126.589 138.814C127.079 138.73 127.562 138.71 128.04 138.754C128.726 138.816 129.322 138.967 129.831 139.206C130.355 139.446 130.669 139.796 130.771 140.255C131.013 141.129 131.259 142.139 131.508 143.286C131.758 144.418 132.012 145.606 132.268 146.85C132.524 148.094 132.767 149.305 132.998 150.483C133.245 151.646 133.455 152.694 133.627 153.625C133.451 153.802 133.189 153.939 132.843 154.036C132.497 154.133 132.101 154.161 131.654 154.12C130.985 154.059 130.525 153.905 130.275 153.657C130.041 153.395 129.875 153.019 129.775 152.527L129.256 149.757L129.032 147.712C128.891 146.976 128.746 146.264 128.6 145.576C128.455 144.872 128.322 144.218 128.201 143.612C128.08 142.991 127.97 142.442 127.868 141.967L127.725 141.954ZM124.743 147.177L130.336 147.686L130.557 150.55L123.076 149.869L124.743 147.177Z" fill="black"/>
</g>
<defs>
<filter id="filter0_d_769_815" x="64.8181" y="54.0278" width="205.791" height="174" filterUnits="userSpaceOnUse" color-interpolation-filters="sRGB">
<feFlood flood-opacity="0" result="BackgroundImageFix"/>
<feColorMatrix in="SourceAlpha" type="matrix" values="0 0 0 0 0 0 0 0 0 0 0 0 0 0 0 0 0 0 127 0" result="hardAlpha"/>
<feOffset dy="4"/>
<feGaussianBlur stdDeviation="6"/>
<feComposite in2="hardAlpha" operator="out"/>
<feColorMatrix type="matrix" values="0 0 0 0 0 0 0 0 0 0 0 0 0 0 0 0 0 0 0.1 0"/>
<feBlend mode="normal" in2="BackgroundImageFix" result="effect1_dropShadow_769_815"/>
<feBlend mode="normal" in="SourceGraphic" in2="effect1_dropShadow_769_815" result="shape"/>
</filter>
</defs>
</svg>
