<svg width="78" height="100" viewBox="0 0 78 100" fill="none" xmlns="http://www.w3.org/2000/svg">
<path d="M70.6593 40.7283C71.7426 40.7283 72.699 40.7283 73.6554 40.7283C76.1172 40.7464 77.8139 42.4118 77.8156 44.867C77.8255 56.0796 77.8255 67.2922 77.8156 78.5048C77.8156 81.0689 76.1584 82.7079 73.568 82.7195C70.2438 82.7343 66.9179 82.7409 63.5937 82.7195C62.9341 82.7195 62.6044 82.8844 62.3438 83.5439C58.8333 92.4645 52.3597 97.9208 42.9328 99.6274C31.3344 101.726 19.6502 94.8703 15.5328 83.7105C15.2492 82.9404 14.9046 82.6881 14.0719 82.703C10.8301 82.7623 7.58836 82.7343 4.3433 82.7228C1.60281 82.7129 0.00170898 81.1002 0.00170898 78.3531C0.00170898 67.2505 0.00170898 56.1477 0.00170898 45.0451C0.00170898 42.3705 1.65062 40.7398 4.32186 40.7316C5.22382 40.7316 6.12577 40.7316 7.11347 40.7316C7.13161 40.3474 7.158 40.0291 7.1613 39.7125C7.19263 36.4147 7.11842 33.1168 7.26847 29.819C7.9132 15.762 18.552 3.43639 32.3616 0.657966C49.3949 -2.76683 65.6697 7.5109 69.7343 24.3661C70.3394 26.8774 70.4763 29.5206 70.6263 32.116C70.7731 34.6355 70.6593 37.1699 70.6593 39.701V40.7283ZM17.1389 74.9894C17.1389 86.9473 26.9433 96.7682 38.9045 96.7748C50.8657 96.7814 60.6867 86.9638 60.6867 75.0091C60.6867 63.0545 50.8855 53.2303 38.921 53.2287C26.9565 53.227 17.1455 63.0282 17.1389 74.9894ZM60.4311 40.6919C60.4509 40.3391 60.4822 40.0175 60.4822 39.7026C60.4822 37.2573 60.5251 34.8103 60.469 32.3666C60.4344 30.8826 60.3833 29.387 60.1079 27.9409C57.8522 16.0951 47.1095 8.5893 35.2093 10.4872C25.6456 12.0124 17.8776 20.6065 17.4439 30.2626C17.2972 33.5258 17.3681 36.7989 17.3483 40.0687C17.3632 40.2809 17.3952 40.4915 17.4439 40.6985L60.4311 40.6919Z" fill="#F78C0C"/>
<path d="M38.8665 61.9365C39.9317 62.174 41.0398 62.2926 42.0522 62.6702C45.6188 63.9993 47.1062 67.739 45.4012 71.2611C44.763 72.5802 43.7852 73.7345 42.9278 74.9283C42.2682 75.8401 41.4273 76.6382 40.8881 77.6094C40.3687 78.5443 40.0637 79.6211 39.8015 80.6698C39.6366 81.3129 39.4502 81.8042 38.733 81.7581C38.0157 81.7119 37.8046 81.1727 37.8327 80.523C37.9036 78.9038 38.5104 77.4692 39.4552 76.1897C40.2797 75.0635 41.2558 74.0461 42.0671 72.9034C42.7464 71.9503 43.4456 70.9577 43.8496 69.876C44.7548 67.4488 43.5758 65.1881 41.1124 64.3983C39.3216 63.8228 37.5359 63.8641 35.8259 64.7281C33.9726 65.6614 33.3097 67.5032 34.1177 69.4077C34.3436 69.9386 34.2562 70.3971 33.7566 70.6922C33.2157 71.0088 32.7359 70.8258 32.4077 70.3229C31.6295 69.134 31.5833 67.833 31.9526 66.5189C32.6336 64.0933 34.9718 62.3718 37.8541 62.1195C38.1839 62.0915 38.5137 62.0882 38.8435 62.0733C38.8451 62.0271 38.855 61.981 38.8665 61.9365Z" fill="#F78C0C"/>
<path d="M38.982 85.4945C39.3004 85.5133 39.5987 85.6563 39.8128 85.8928C40.0268 86.1293 40.1394 86.4405 40.1263 86.7592C40.1237 86.9179 40.089 87.0745 40.0242 87.2195C39.9595 87.3644 39.866 87.4947 39.7495 87.6026C39.6331 87.7104 39.4959 87.7936 39.3464 87.847C39.1969 87.9005 39.0382 87.923 38.8797 87.9134C38.7216 87.9071 38.5663 87.8696 38.4227 87.8031C38.2791 87.7367 38.15 87.6426 38.0428 87.5262C37.9355 87.4098 37.8523 87.2734 37.7979 87.1248C37.7435 86.9762 37.7189 86.8184 37.7255 86.6603C37.7413 86.3404 37.8816 86.0394 38.1164 85.8216C38.3511 85.6037 38.6618 85.4864 38.982 85.4945Z" fill="#F78C0C"/>
</svg>
