<svg width="19" height="18" viewBox="0 0 19 18" fill="none" xmlns="http://www.w3.org/2000/svg">
<g opacity="0.6" clip-path="url(#clip0_791_1063)">
<path d="M11.1318 1.29715C11.1574 1.0281 11.1619 0.796092 11.2047 0.571413C11.2861 0.144033 11.5234 -0.0509234 11.9548 0.0113519C12.5246 0.0927575 13.0876 0.220564 13.6517 0.336974C15.0866 0.630577 16.5207 0.926343 17.954 1.22429C18.5645 1.35047 18.7408 1.56009 18.7408 2.18732C18.7408 6.72487 18.7408 11.2624 18.7408 15.8C18.7415 15.8815 18.7377 15.963 18.7294 16.0442C18.685 16.4463 18.5259 16.6429 18.1282 16.7361C17.7 16.8387 17.2673 16.923 16.8359 17.0121C15.3421 17.3206 13.8482 17.6281 12.3541 17.9344C12.1953 17.9697 12.0338 17.9914 11.8714 17.9991C11.5205 18.0097 11.3015 17.8506 11.2238 17.507C11.1684 17.2579 11.1595 16.9991 11.1269 16.7199C11.0622 16.7162 10.9836 16.7072 10.9047 16.7072C9.39921 16.7072 7.89321 16.7072 6.38666 16.7072C5.16558 16.7072 4.37351 15.9127 4.37391 14.6941C4.37391 13.7853 4.37391 12.8763 4.37391 11.967V11.7395H5.7346C5.73827 11.8209 5.74438 11.8913 5.74438 11.9633C5.74438 12.8859 5.74438 13.8085 5.74438 14.7311C5.74438 15.1516 5.93405 15.3449 6.34963 15.3449C7.8692 15.3449 9.38877 15.3449 10.9083 15.3449H11.1408V2.67209C11.0691 2.66761 10.9975 2.65947 10.9258 2.65947C9.39297 2.65947 7.85983 2.65947 6.32642 2.65947C5.95114 2.65947 5.74559 2.86299 5.74519 3.23501C5.74356 4.15028 5.74356 5.06596 5.74519 5.98204V6.25923H4.3735V6.01502C4.3735 5.10626 4.3735 4.19723 4.3735 3.28793C4.3735 2.10063 5.17983 1.29715 6.36794 1.29715H11.1302H11.1318Z" fill="black"/>
<path d="M3.48212 7.51048H7.40749V10.4952H3.48253C3.48253 10.8103 3.49351 11.1005 3.47682 11.3907C3.47031 11.4989 3.42513 11.6569 3.34902 11.6943C3.2729 11.7318 3.11376 11.6752 3.03235 11.6088C2.07095 10.8257 1.11647 10.0336 0.161172 9.24279C-0.0521102 9.06614 -0.0537339 8.93996 0.155478 8.76697C1.11077 7.97612 2.06526 7.18405 3.02706 6.40092C3.10847 6.33376 3.26557 6.27596 3.34413 6.31096C3.42269 6.34597 3.4699 6.50268 3.47641 6.60972C3.49392 6.89709 3.48212 7.18771 3.48212 7.51048Z" fill="black"/>
</g>
<defs>
<clipPath id="clip0_791_1063">
<rect width="18.7416" height="18" fill="white"/>
</clipPath>
</defs>
</svg>
