<svg width="17" height="20" viewBox="0 0 17 20" fill="none" xmlns="http://www.w3.org/2000/svg">
<g clip-path="url(#clip0_791_1058)">
<path d="M10.6552 2.43103C10.8739 2.54942 11.0996 2.65475 11.3073 2.78618C12.6116 3.61993 13.331 4.83294 13.5317 6.35095C13.6019 6.8827 13.5899 7.42651 13.6139 7.96428C13.6391 8.7803 13.7552 9.59097 13.9601 10.3813C14.1979 11.2481 14.5621 12.0518 15.2223 12.6819C15.5393 12.9828 15.9035 13.2397 16.2436 13.5196C16.3563 13.6086 16.4623 13.7059 16.5607 13.8106C16.8958 14.1868 16.8406 14.6042 16.653 15.0145C16.4844 15.3878 16.1704 15.6266 15.8212 15.8172C15.2744 16.1182 14.6784 16.2707 14.0724 16.3921C13.2919 16.5424 12.5022 16.6402 11.7087 16.6851C9.87722 16.8003 8.04104 16.8207 6.2075 16.7463C5.15338 16.7196 4.10223 16.6224 3.0611 16.4553C2.40193 16.3419 1.74978 16.1944 1.14078 15.9025C0.773563 15.7269 0.438459 15.5011 0.214721 15.152C0.0558772 14.9058 -0.0184485 14.6145 0.00301164 14.3222C0.0220745 14.0273 0.188624 13.8116 0.404336 13.635C0.673223 13.4173 0.955172 13.2146 1.22607 12.9989C1.85345 12.4863 2.33132 11.8143 2.60961 11.0535C2.88214 10.3429 3.05109 9.59682 3.11127 8.83816C3.16143 8.23617 3.18051 7.62916 3.20058 7.02417C3.23569 5.93858 3.51662 4.93126 4.15171 4.03831C4.63898 3.35178 5.30382 2.81075 6.07505 2.47316L6.14729 2.44205C6.58573 3.41426 7.32118 3.98415 8.39673 3.98415C9.47228 3.98415 10.2077 3.4223 10.6552 2.43103Z" fill="#0CD4F8"/>
<path d="M10.7976 17.569C10.7836 18.3937 10.4575 19.0739 9.76723 19.5505C8.95755 20.1073 8.09571 20.1435 7.22884 19.6799C6.8517 19.4742 6.53819 19.169 6.32239 18.7975C6.10658 18.426 5.99673 18.0025 6.00481 17.573L10.7976 17.569Z" fill="#0CD4F8"/>
<path d="M8.39371 2.66445e-06C8.70941 -0.00057355 9.01822 0.0923216 9.28123 0.266948C9.54424 0.441574 9.74969 0.690134 9.87168 0.981317C9.99367 1.2725 10.0267 1.59328 9.96674 1.90323C9.90675 2.21318 9.75637 2.49842 9.53453 2.72305C9.31269 2.94768 9.02933 3.10164 8.72015 3.1655C8.41097 3.22937 8.08979 3.20029 7.79711 3.08195C7.50442 2.96361 7.25331 2.76128 7.07542 2.50047C6.89752 2.23966 6.80079 1.93203 6.79742 1.61635C6.79517 1.40515 6.83477 1.1956 6.91395 0.999786C6.99312 0.803977 7.1103 0.6258 7.25871 0.475522C7.40712 0.325244 7.58384 0.205854 7.77864 0.124241C7.97345 0.0426274 8.1825 0.000388158 8.39371 2.66445e-06Z" fill="#0CD4F8"/>
</g>
<defs>
<clipPath id="clip0_791_1058">
<rect width="16.8035" height="20" fill="white"/>
</clipPath>
</defs>
</svg>
