<svg width="21" height="23" viewBox="0 0 21 23" fill="none" xmlns="http://www.w3.org/2000/svg">
<path d="M0.424556 11.9066C0.424556 9.54512 0.424556 7.18561 0.424556 4.82611C0.400033 3.96339 0.607364 3.10988 1.02494 2.35454C1.82545 0.989676 3.37243 0.4053 5.02749 0.999679C6.04039 1.39624 7.01617 1.88178 7.94335 2.4506C11.3855 4.42186 14.8097 6.42113 18.2359 8.4164C18.5136 8.58283 18.7809 8.76594 19.0364 8.96474C21.0097 10.4577 21.1097 12.9353 19.1945 14.5103C18.428 15.1387 17.5315 15.617 16.6689 16.1113C13.3508 18.0445 10.0347 19.9838 6.68254 21.857C5.89775 22.3129 5.03182 22.6119 4.13292 22.7375C2.31977 22.9376 0.872857 21.7529 0.640709 19.9357C0.496617 18.807 0.522625 17.6543 0.506615 16.5136C0.486602 14.9766 0.506615 13.4376 0.506615 11.9106L0.424556 11.9066Z" fill="#0CD4F8"/>
</svg>
