<svg width="45" height="45" viewBox="0 0 45 45" fill="none" xmlns="http://www.w3.org/2000/svg">
<g filter="url(#filter0_b_57_357)">
<rect width="45" height="45" rx="12" fill="#0CD4F8"/>
<rect x="0.559008" y="0.559008" width="43.882" height="43.882" rx="11.441" stroke="white" stroke-opacity="0.5" stroke-width="1.11802" style="mix-blend-mode:overlay"/>
<g clip-path="url(#clip0_57_357)">
<path d="M21.9483 18.338H30.6943C31.0535 18.3272 31.4097 18.4064 31.7305 18.5684C32.0513 18.7304 32.3265 18.97 32.531 19.2654C32.8059 19.6481 32.9486 20.1099 32.9374 20.581C32.9374 21.9755 32.9374 23.3724 32.9374 24.7718C32.9374 25.288 32.9374 25.8043 32.9374 26.3206C32.95 26.7819 32.8156 27.2354 32.5535 27.6153C32.2915 27.9953 31.9154 28.2821 31.4797 28.4342C31.2924 28.4988 31.0977 28.5392 30.9002 28.5545C30.6634 28.5745 30.4228 28.5545 30.1841 28.5545C30.1094 28.5545 30.073 28.5381 30.073 28.4524C30.073 27.7114 30.073 26.9698 30.073 26.2276C30.073 26.1347 30.1149 26.122 30.1933 26.1201C30.3766 26.1227 30.5597 26.1068 30.7399 26.0728C30.9023 26.0239 31.0417 25.9182 31.1327 25.775C31.2237 25.6318 31.2602 25.4607 31.2355 25.2929C31.2103 25.1259 31.1292 24.9724 31.0054 24.8575C30.8816 24.7426 30.7225 24.6732 30.554 24.6606H13.4263C13.2846 24.6513 13.1431 24.6835 13.0195 24.7534C12.8958 24.8234 12.7953 24.9279 12.7302 25.0542C12.673 25.1628 12.6442 25.2842 12.6464 25.4069C12.6486 25.5297 12.6818 25.6499 12.7429 25.7564C12.8039 25.8629 12.8909 25.9522 12.9957 26.0162C13.1005 26.0801 13.2199 26.1165 13.3425 26.122C13.4628 26.122 13.5812 26.122 13.7069 26.122C13.7816 26.122 13.8181 26.1402 13.8181 26.2258C13.8181 26.9674 13.8181 27.709 13.8181 28.4506C13.8181 28.5162 13.8071 28.5581 13.7251 28.5563C13.3261 28.5563 12.9234 28.5873 12.5299 28.4652C12.2031 28.3761 11.9026 28.2095 11.6539 27.9795C11.4052 27.7495 11.2156 27.463 11.1013 27.1442C11.006 26.8837 10.9561 26.6088 10.9537 26.3315C10.9415 24.4074 10.9415 22.4826 10.9537 20.5573C10.9405 20.1232 11.0601 19.6954 11.2965 19.331C11.5329 18.9667 11.8748 18.6832 12.2766 18.5183C12.5761 18.3877 12.901 18.3254 13.2277 18.3361L21.9483 18.338ZM14.5542 19.9924C14.1661 19.9924 13.778 19.9924 13.3899 19.9924C13.2759 19.9957 13.1638 20.0217 13.06 20.069C12.9159 20.1379 12.7985 20.2523 12.7257 20.3945C12.6529 20.5367 12.6289 20.6989 12.6574 20.8561C12.6891 21.0224 12.7777 21.1725 12.9081 21.2805C13.0384 21.3886 13.2023 21.4479 13.3716 21.4483C14.1478 21.4483 14.9241 21.4483 15.7003 21.4483C15.7972 21.4502 15.8936 21.4328 15.9837 21.397C16.0738 21.3613 16.1559 21.3079 16.2251 21.24C16.2944 21.1722 16.3493 21.0912 16.3869 21.0018C16.4244 20.9124 16.4438 20.8164 16.4437 20.7194C16.4438 20.6217 16.4242 20.525 16.3861 20.4349C16.348 20.3449 16.2921 20.2635 16.2219 20.1955C16.1517 20.1275 16.0685 20.0743 15.9774 20.0391C15.8862 20.0039 15.7888 19.9874 15.6911 19.9906L14.5542 19.9924Z" fill="white"/>
<path d="M28.6045 26.1274C28.6045 26.1894 28.6045 26.2367 28.6045 26.2841V33.2755C28.6128 33.381 28.5981 33.487 28.5613 33.5862C28.5246 33.6854 28.4666 33.7754 28.3915 33.85C28.3164 33.9246 28.226 33.9819 28.1265 34.018C28.0271 34.0541 27.9209 34.0681 27.8155 34.059H16.0576C15.9513 34.0667 15.8447 34.0514 15.745 34.014C15.6453 33.9766 15.5548 33.9181 15.4799 33.8424C15.4049 33.7668 15.3472 33.6758 15.3107 33.5757C15.2743 33.4757 15.2599 33.3689 15.2686 33.2628C15.2686 30.9378 15.2686 28.6115 15.2686 26.2841C15.2686 26.1566 15.305 26.1238 15.4308 26.1238C19.771 26.1238 24.11 26.1238 28.4478 26.1238L28.6045 26.1274ZM21.9484 29.2414C22.5971 29.2414 23.2457 29.2414 23.8944 29.2414C24.0877 29.2414 24.2731 29.1646 24.4098 29.0279C24.5464 28.8912 24.6232 28.7058 24.6232 28.5125C24.6232 28.3192 24.5464 28.1339 24.4098 27.9972C24.2731 27.8605 24.0877 27.7837 23.8944 27.7837C22.5982 27.7837 21.3016 27.7837 20.0042 27.7837C19.8945 27.7857 19.7863 27.8112 19.6872 27.8584C19.5427 27.9267 19.4247 28.0405 19.3513 28.1824C19.2779 28.3243 19.2531 28.4864 19.2808 28.6437C19.3118 28.8104 19.3998 28.9611 19.5299 29.0698C19.6599 29.1786 19.8238 29.2386 19.9933 29.2396C20.642 29.245 21.2961 29.2414 21.9484 29.2414ZM21.9356 32.3572C22.5897 32.3572 23.242 32.3572 23.8944 32.3572C23.9919 32.3572 24.0886 32.3377 24.1784 32.2997C24.2683 32.2617 24.3497 32.206 24.4177 32.136C24.4856 32.066 24.5389 31.9831 24.5742 31.8921C24.6095 31.8011 24.6261 31.704 24.6232 31.6065C24.6175 31.417 24.5383 31.2372 24.4022 31.1052C24.2661 30.9732 24.0839 30.8994 23.8944 30.8995C23.1746 30.8995 22.4549 30.8995 21.737 30.8995C21.1539 30.8995 20.5709 30.8995 19.9897 30.8995C19.7979 30.9019 19.6148 30.9797 19.4801 31.1162C19.3454 31.2526 19.2699 31.4366 19.2699 31.6283C19.2699 31.8216 19.3467 32.007 19.4834 32.1437C19.6201 32.2804 19.8054 32.3572 19.9987 32.3572C20.6401 32.359 21.2851 32.3572 21.9356 32.3572Z" fill="white"/>
<path d="M21.9338 16.8766C19.7703 16.8766 17.6069 16.8766 15.4434 16.8766C15.3141 16.8766 15.2703 16.8511 15.2722 16.7108C15.2722 15.8909 15.2722 15.0709 15.2722 14.2474C15.267 13.8655 15.3641 13.4892 15.5535 13.1576C15.7429 12.826 16.0176 12.5511 16.3491 12.3615C16.6823 12.1578 17.0664 12.0524 17.4569 12.0572H18.7815C21.3106 12.0572 23.8403 12.0572 26.3706 12.0572C26.7659 12.0452 27.1568 12.1427 27.5001 12.3388C27.8435 12.5349 28.126 12.8221 28.3165 13.1687C28.4995 13.4732 28.5977 13.8211 28.6008 14.1763C28.6008 15.0382 28.6008 15.8982 28.6008 16.7582C28.6008 16.8712 28.548 16.8748 28.4624 16.8748H21.921L21.9338 16.8766Z" fill="white"/>
</g>
</g>
<defs>
<filter id="filter0_b_57_357" x="-67.081" y="-67.081" width="179.162" height="179.162" filterUnits="userSpaceOnUse" color-interpolation-filters="sRGB">
<feFlood flood-opacity="0" result="BackgroundImageFix"/>
<feGaussianBlur in="BackgroundImageFix" stdDeviation="33.5405"/>
<feComposite in2="SourceAlpha" operator="in" result="effect1_backgroundBlur_57_357"/>
<feBlend mode="normal" in="SourceGraphic" in2="effect1_backgroundBlur_57_357" result="shape"/>
</filter>
<clipPath id="clip0_57_357">
<rect width="22.0036" height="22" fill="white" transform="translate(10.9392 12.059)"/>
</clipPath>
</defs>
</svg>
