<svg width="17" height="18" viewBox="0 0 17 18" fill="none" xmlns="http://www.w3.org/2000/svg">
<g clip-path="url(#clip0_791_1015)">
<path d="M3.14075 4.96853C3.13968 4.31644 3.26718 3.67053 3.51598 3.06777C3.76478 2.46501 4.12999 1.91722 4.59071 1.45574C5.05142 0.994266 5.59861 0.628158 6.20096 0.378367C6.80332 0.128575 7.449 -7.50421e-08 8.10109 8.09872e-07C9.41077 -0.000747257 10.6675 0.516766 11.5969 1.43952C12.5263 2.36228 13.0528 3.6153 13.0615 4.92494C13.0643 5.96678 12.7383 6.98295 12.1299 7.8287C10.5029 7.01056 8.66363 6.71289 6.86169 6.97609C5.89965 7.11952 4.96534 7.40983 4.09142 7.83687C3.48046 7.00468 3.14777 6.00088 3.14075 4.96853Z" fill="#0CD4F8"/>
<path d="M16.2022 18H0.0326758C0.0326758 17.8693 0.00271606 17.7603 0.00271606 17.6486C0.00271606 17.0112 0.00271606 16.7688 0.00271606 16.7034C0.00271606 16.5563 0.00271606 16.3221 0.00271606 15.9652C0.0126209 14.1345 0.643777 12.3614 1.79285 10.9362C2.94192 9.511 4.54081 8.51814 6.32777 8.12018C11.0239 7.03059 15.7908 10.4437 16.1341 15.2597C16.1722 15.8045 16.194 16.0224 16.2076 16.0769C16.2076 16.2022 16.2076 16.3684 16.2076 16.5863C16.2049 17.0521 16.2022 17.5043 16.2022 18Z" fill="#0CD4F8"/>
</g>
<defs>
<clipPath id="clip0_791_1015">
<rect width="16.2022" height="18" fill="white"/>
</clipPath>
</defs>
</svg>
