<svg width="22" height="23" viewBox="0 0 22 23" fill="none" xmlns="http://www.w3.org/2000/svg">
<g clip-path="url(#clip0_335_204)">
<path d="M3.71588 9.51867L0.340088 8.58678C0.863727 5.81022 3.36814 2.19489 7.48643 0.893752C11.2506 -0.295179 14.6964 0.405925 17.8844 2.80368C17.847 2.53709 17.8207 2.3214 17.7865 2.10654C17.656 1.30039 18.0682 0.64385 18.7884 0.51493C19.5086 0.386009 20.1413 0.851564 20.2726 1.65851C20.575 3.54085 20.8668 5.42425 21.148 7.30872C21.2682 8.11009 20.614 8.8128 19.8381 8.7372C18.0985 8.56849 16.3588 8.39607 14.6192 8.21993C13.9205 8.1499 13.4876 7.59682 13.5449 6.85673C13.5518 6.69412 13.592 6.53463 13.6628 6.3881C13.7337 6.24158 13.8337 6.11109 13.9568 6.00466C14.08 5.89822 14.2236 5.81812 14.3788 5.76922C14.534 5.72031 14.6976 5.70365 14.8595 5.7203C15.1349 5.74178 15.411 5.76565 15.6999 5.78872C15.1102 4.76771 12.3408 3.79924 10.4603 3.92896C7.74185 4.11916 4.77669 5.84126 3.71588 9.51867Z" fill="white"/>
<path d="M3.94906 19.8585C3.99124 20.145 4.02866 20.3925 4.06288 20.6408C4.15598 21.3913 3.70792 22.012 3.00125 22.1194C2.30731 22.2252 1.69695 21.7915 1.57599 21.0514C1.26244 19.1296 0.960016 17.2061 0.679893 15.2795C0.654858 15.0978 0.67105 14.9127 0.727261 14.7381C0.783471 14.5635 0.87828 14.4038 1.00463 14.2708C1.13097 14.1378 1.28561 14.0349 1.45712 13.9698C1.62863 13.9047 1.81261 13.8791 1.99538 13.8948C3.73607 14.064 5.47619 14.237 7.21582 14.4137C7.91852 14.4853 8.34588 15.0408 8.28619 15.7801C8.23049 16.4708 7.69331 16.9475 7.00175 16.9117C6.70356 16.8855 6.40411 16.8765 6.10488 16.8846C8.19148 18.6139 10.5471 19.171 13.1406 18.3545C15.7341 17.538 17.3281 15.718 18.1064 13.1101L21.5419 14.0579C20.6967 17.1186 18.9548 19.475 16.1671 20.9345C11.9191 23.1603 7.84532 22.655 3.94906 19.8585Z" fill="white"/>
</g>
<defs>
<clipPath id="clip0_335_204">
<rect width="21.2018" height="22" fill="white" transform="translate(0.340088 0.326294)"/>
</clipPath>
</defs>
</svg>
