<svg width="143" height="140" viewBox="0 0 143 140" fill="none" xmlns="http://www.w3.org/2000/svg">
<path d="M49.1562 55.1574C49.1562 55.1574 14.4494 49.7383 4.84362 66.7392C-4.76219 83.74 2.88529 94.8927 2.88529 94.8927L21.3393 77.1198L28.5866 80.4656L49.1562 55.1574Z" fill="url(#paint0_radial_1155_252)"/>
<path d="M84.5777 91.9187C84.5777 91.9187 88.7088 126.807 71.3697 135.772C54.0306 144.737 43.124 136.658 43.124 136.658L61.5781 118.886L58.5048 111.522L84.5777 91.9187Z" fill="url(#paint1_radial_1155_252)"/>
<path d="M113.938 71.9724C93.7689 91.4183 44.7964 119.987 44.7964 119.987L19.6383 93.8633C19.6383 93.8633 49.9995 45.9779 70.1689 26.532C77.2574 19.6401 85.3434 13.8559 94.1548 9.37389C96.4705 8.20142 98.7719 7.15764 101.016 6.25684C122.372 -2.32221 139.711 0.365891 142.055 0.780545H142.327C142.335 0.870929 142.335 0.961834 142.327 1.05222C143.226 14.9187 140.774 28.7979 135.18 41.5168C134.222 43.7616 133.136 46.0494 131.892 48.3371C127.197 57.1174 121.137 65.0954 113.938 71.9724Z" fill="url(#paint2_radial_1155_252)"/>
<path d="M70.0107 74.6862L65.8142 70.3318L22.5192 112.08L26.7157 116.435L70.0107 74.6862Z" fill="url(#paint3_radial_1155_252)"/>
<path d="M131.878 48.3514C124.731 43.876 116.783 35.5829 111.208 29.7634C106.219 24.5874 97.8 15.8367 94.1549 9.31666C96.4706 8.14419 98.772 7.10039 101.016 6.19959C122.372 -2.37946 139.711 0.30864 142.055 0.723294H142.327C142.335 0.813678 142.335 0.904583 142.327 0.994967C143.226 14.8615 140.775 28.7407 135.18 41.4595C134.208 43.7187 133.179 46.0636 131.878 48.3514Z" fill="url(#paint4_linear_1155_252)"/>
<path opacity="0.12" d="M113.938 71.9724C93.7689 91.4183 44.8106 119.987 44.8106 119.987L39.0929 114.038C140.097 47.6508 142.284 2.39628 142.327 0.852051C142.455 1.96733 144.414 20.112 135.18 41.5454C130.209 53.0092 122.986 63.3565 113.938 71.9724Z" fill="#202052"/>
<path d="M105.405 66.3388C108.477 63.3776 110.603 59.5713 111.513 55.4014C112.422 51.2316 112.075 46.8855 110.516 42.913C108.956 38.9404 106.253 35.5198 102.75 33.0839C99.246 30.648 95.0989 29.3061 90.8328 29.2281C86.5668 29.1501 82.3734 30.3394 78.7831 32.6456C75.1929 34.9518 72.367 38.2712 70.6631 42.1841C68.9591 46.097 68.4535 50.4274 69.2103 54.6278C69.9671 58.8281 71.9522 62.7095 74.9146 65.7811C76.8795 67.8212 79.227 69.4539 81.823 70.5861C84.419 71.7183 87.2125 72.3277 90.0441 72.3795C92.8756 72.4312 95.6895 71.9244 98.3252 70.8879C100.961 69.8514 103.366 68.3056 105.405 66.3388Z" fill="white"/>
<path d="M104.475 65.3807C107.357 62.6046 109.352 59.0359 110.206 55.1259C111.06 51.216 110.736 47.1404 109.274 43.4149C107.812 39.6893 105.279 36.4811 101.994 34.1961C98.7088 31.9111 94.8202 30.652 90.8198 30.5779C86.8194 30.5039 82.8869 31.6183 79.5198 33.7802C76.1526 35.9421 73.5021 39.0544 71.9036 42.7233C70.305 46.3922 69.8302 50.453 70.5392 54.3919C71.2482 58.3308 73.1091 61.9708 75.8866 64.8516C79.6106 68.7086 84.712 70.9305 90.0716 71.0296C95.4313 71.1288 100.611 69.0972 104.475 65.3807Z" fill="url(#paint5_radial_1155_252)"/>
<path d="M100.845 61.606C102.98 59.5471 104.457 56.901 105.089 54.0023C105.721 51.1037 105.479 48.0827 104.394 45.3215C103.31 42.5602 101.431 40.1828 98.9952 38.4898C96.5596 36.7968 93.6768 35.8644 90.7114 35.8103C87.7459 35.7563 84.8311 36.5832 82.3355 38.1864C79.8399 39.7896 77.8757 42.097 76.6912 44.8169C75.5068 47.5369 75.1553 50.547 75.6813 53.4668C76.2072 56.3865 77.587 59.0847 79.6461 61.2199C82.4064 64.0824 86.1902 65.7311 90.1654 65.8035C94.1407 65.8759 97.982 64.366 100.845 61.606Z" fill="url(#paint6_linear_1155_252)"/>
<path d="M99.9441 58.732C101.889 56.8583 103.235 54.4497 103.811 51.8109C104.387 49.1722 104.168 46.4217 103.181 43.9075C102.195 41.3933 100.485 39.2282 98.2678 37.6861C96.0509 36.1441 93.4266 35.2943 90.7269 35.2443C88.0271 35.1943 85.3732 35.9463 83.1007 37.4052C80.8282 38.8641 79.0394 40.9643 77.9603 43.4403C76.8813 45.9163 76.5606 48.6567 77.0388 51.315C77.5169 53.9733 78.7725 56.4301 80.6467 58.3745C83.1587 60.9808 86.6027 62.4826 90.2214 62.5496C93.8401 62.6166 97.3372 61.2435 99.9441 58.732Z" fill="url(#paint7_linear_1155_252)"/>
<path d="M101.731 52.2977C101.327 52.6871 100.817 52.949 100.266 53.0509C99.7142 53.1527 99.1448 53.09 98.6285 52.8705C98.1123 52.651 97.672 52.2845 97.3625 51.8165C97.053 51.3485 96.8879 50.7998 96.8879 50.2387C96.8879 49.6776 97.053 49.1289 97.3625 48.6609C97.672 48.1929 98.1123 47.8264 98.6285 47.6069C99.1448 47.3874 99.7142 47.3247 100.266 47.4265C100.817 47.5284 101.327 47.7903 101.731 48.1797C102.007 48.4465 102.228 48.7663 102.378 49.1201C102.528 49.4739 102.606 49.8543 102.606 50.2387C102.606 50.6231 102.528 51.0036 102.378 51.3573C102.228 51.7111 102.007 52.0309 101.731 52.2977Z" fill="white"/>
<defs>
<radialGradient id="paint0_radial_1155_252" cx="0" cy="0" r="1" gradientUnits="userSpaceOnUse" gradientTransform="translate(20.062 72.0298) rotate(10.9753) scale(22.7741 22.7801)">
<stop stop-color="#5600FF"/>
<stop offset="1" stop-color="#3E04BC"/>
</radialGradient>
<radialGradient id="paint1_radial_1155_252" cx="0" cy="0" r="1" gradientUnits="userSpaceOnUse" gradientTransform="translate(61.928 112.949) rotate(10.9753) scale(22.6314 22.6373)">
<stop stop-color="#5600FF"/>
<stop offset="1" stop-color="#3E04BC"/>
</radialGradient>
<radialGradient id="paint2_radial_1155_252" cx="0" cy="0" r="1" gradientUnits="userSpaceOnUse" gradientTransform="translate(77.0716 55.665) rotate(10.9753) scale(60.631 60.647)">
<stop stop-color="#F1B943"/>
<stop offset="1" stop-color="#F78C0C"/>
</radialGradient>
<radialGradient id="paint3_radial_1155_252" cx="0" cy="0" r="1" gradientUnits="userSpaceOnUse" gradientTransform="translate(46.3239 93.4063) rotate(10.733) scale(23.2858 23.2919)">
<stop stop-color="#5600FF"/>
<stop offset="1" stop-color="#3E04BC"/>
</radialGradient>
<linearGradient id="paint4_linear_1155_252" x1="89.7109" y1="14.077" x2="137.229" y2="23.287" gradientUnits="userSpaceOnUse">
<stop stop-color="#F15F5D"/>
<stop offset="1" stop-color="#EF3388"/>
</linearGradient>
<radialGradient id="paint5_radial_1155_252" cx="0" cy="0" r="1" gradientUnits="userSpaceOnUse" gradientTransform="translate(87.1412 48.6325) rotate(10.9753) scale(20.1913 20.1966)">
<stop stop-color="#F1B943"/>
<stop offset="1" stop-color="#F38900"/>
</radialGradient>
<linearGradient id="paint6_linear_1155_252" x1="75.4435" y1="50.8107" x2="105.433" y2="50.8107" gradientUnits="userSpaceOnUse">
<stop stop-color="#3E04BC"/>
<stop offset="1" stop-color="#5600FF"/>
</linearGradient>
<linearGradient id="paint7_linear_1155_252" x1="76.8301" y1="48.909" x2="104.118" y2="48.909" gradientUnits="userSpaceOnUse">
<stop stop-color="#5600FF"/>
<stop offset="1" stop-color="#3E04BC"/>
</linearGradient>
</defs>
</svg>
