<svg width="83" height="80" viewBox="0 0 83 80" fill="none" xmlns="http://www.w3.org/2000/svg">
<path d="M41.3576 8.15907C51.5759 8.15907 61.7951 8.17948 72.0134 8.13356C73.3286 8.12846 74.9174 9.53762 74.6531 11.0927C74.5582 11.6458 74.7143 12.2376 74.7143 12.8121C74.7198 23.1739 74.7259 33.536 74.7327 43.8984C74.7327 44.4229 74.5225 44.6331 74.095 44.8168C72.3889 45.5474 70.6882 46.2916 68.993 47.0494C66.9522 47.9596 64.9186 48.8861 62.8829 49.8044C60.8472 50.7228 58.8074 51.6412 56.7758 52.5687C55.5779 53.1177 54.3932 53.6973 53.1952 54.2472C53.1003 54.2901 52.9269 54.2421 52.8238 54.1799C51.1422 53.1595 49.4657 52.131 47.7871 51.1065C46.5872 50.3749 45.4259 49.5636 44.1729 48.9391C42.7607 48.2371 41.224 47.9402 39.6832 48.531C38.7634 48.8976 37.8719 49.3314 37.0158 49.829C35.8046 50.5075 34.6251 51.2422 33.4445 51.9718C32.3618 52.6371 31.2639 53.285 30.2272 54.0177C29.6812 54.4034 29.2629 54.1309 28.8272 53.9411C27.2966 53.2728 25.7731 52.5748 24.2528 51.8759C22.7824 51.2014 21.3242 50.4973 19.8497 49.8351C18.4008 49.181 16.9324 48.5698 15.4804 47.9218C14.2243 47.3616 12.9804 46.7739 11.7294 46.2025C10.5693 45.6719 9.40396 45.1505 8.24786 44.6117C8.13663 44.5596 7.99989 44.4076 7.99887 44.3056C7.99887 43.7158 8.04276 43.126 8.04378 42.5362C8.0448 41.9464 8.0101 41.3648 7.99276 40.7791C7.99276 40.6434 7.98459 40.5077 7.98459 40.3709C7.98459 30.5751 7.98016 20.7814 7.97132 10.9897C7.97132 9.61724 9.206 8.13254 10.8039 8.13969C20.9885 8.19377 31.1731 8.15907 41.3576 8.15907ZM25.5731 28.3088C25.4925 36.8965 32.571 44.0882 41.3087 44.1137C49.9524 44.1402 57.1574 37.0801 57.136 28.3456C57.1146 19.662 50.2259 12.4202 40.9709 12.5621C32.6486 12.6917 25.5813 19.4987 25.5731 28.3109V28.3088Z" fill="#FFFBF3"/>
<path d="M74.0225 79.9949H69.0226C47.197 79.9949 25.3714 79.9949 3.54587 79.9949C1.87854 79.9949 0.484685 78.9673 0.105098 77.3418C-0.00306395 76.8724 -0.0500026 76.3418 0.0663224 75.8878C0.135709 75.6194 0.560195 75.4133 0.85815 75.2357C2.27854 74.3878 3.72342 73.5796 5.13565 72.7174C6.6989 71.7623 8.22643 70.747 9.78865 69.7899C11.3815 68.8134 12.9968 67.8746 14.6018 66.9195C15.6375 66.3073 16.6804 65.7012 17.7059 65.0706C19.511 63.9634 21.3048 62.8379 23.1048 61.7227C24.3136 60.9744 25.5245 60.2288 26.7374 59.4859C28.3578 58.4961 29.9843 57.5155 31.6067 56.5268C33.3298 55.4778 35.0523 54.4275 36.774 53.3758C37.8322 52.7309 38.8546 52.0167 39.9577 51.4616C41.0801 50.8963 42.2219 51.0911 43.2872 51.7452C44.9106 52.7421 46.5423 53.7268 48.1647 54.7268C50.1034 55.9207 52.0299 57.137 53.9809 58.3196C55.5656 59.2829 57.1809 60.1971 58.7666 61.1604C60.0247 61.9247 61.2502 62.742 62.5053 63.5073C63.7298 64.2583 64.9839 64.9685 66.2124 65.7154C67.3287 66.394 68.4216 67.1093 69.5379 67.7889C70.7624 68.5358 72.0144 69.2491 73.2419 69.998C74.1735 70.5664 75.0786 71.1807 76.0082 71.7501C76.747 72.2021 77.5153 72.6072 78.2592 73.0511C79.5265 73.8062 80.7881 74.5704 82.0439 75.3439C82.2714 75.4837 82.6336 75.6694 82.6438 75.8541C82.6785 76.452 82.7102 77.1051 82.5092 77.651C81.9194 79.2591 80.6908 80.0091 78.9745 79.9918C77.3235 79.9836 75.6725 79.9949 74.0225 79.9949Z" fill="#F78C0C"/>
<path d="M26.6844 56.1288L0.0581665 72.3419V44.1239L26.6844 56.1288Z" fill="#F78C0C"/>
<path d="M56.0258 56.133L82.65 44.1168V72.342L56.0258 56.133Z" fill="#F78C0C"/>
<path d="M48.0821 5.22848H34.7149C35.2904 4.61624 35.8547 3.97036 36.4608 3.36935C37.2771 2.56119 38.1158 1.77751 38.9587 0.997924C39.673 0.333647 40.5291 -0.112244 41.5097 0.0255092C42.1627 0.117345 42.9086 0.320397 43.3892 0.733657C44.9709 2.09793 46.4504 3.57954 47.9678 5.01932C48.0142 5.08413 48.0526 5.15436 48.0821 5.22848Z" fill="#F78C0C"/>
<path d="M77.6103 43.2179V33.0057L79.7612 34.9914C80.3653 35.5506 80.9857 36.0904 81.5694 36.672C82.2398 37.3424 82.6918 38.1292 82.6785 39.121C82.6714 39.5802 82.6541 40.0393 82.6857 40.4975C82.7061 40.7985 82.5918 40.9832 82.3408 41.0965C80.801 41.7903 79.2623 42.4791 77.6103 43.2179Z" fill="#F78C0C"/>
<path d="M5.07953 43.1872C4.10812 42.7597 3.20303 42.3628 2.29998 41.9628C1.71529 41.7036 1.13978 41.421 0.547953 41.1791C0.17755 41.0281 -0.0173367 40.8261 0.0214383 40.3944C0.0816416 39.723 -0.00815963 39.023 0.155104 38.3833C0.300323 37.8003 0.593429 37.2647 1.00611 36.8281C2.29793 35.5373 3.66935 34.3272 5.07953 33.0221V43.1872Z" fill="#F78C0C"/>
<path d="M29.0986 29.4904C29.9751 28.6251 30.867 27.7721 31.7241 26.8853C32.019 26.5792 32.1843 26.7598 32.3751 26.9507C34.0383 28.6166 35.6992 30.2849 37.3577 31.9557C37.8332 32.4332 37.8209 32.4302 38.3015 31.9485C41.8389 28.4112 45.378 24.8738 48.9188 21.3364C49.2137 21.0426 49.5249 20.764 49.8841 20.4272C50.2381 20.763 50.6341 21.1252 51.0157 21.5027C51.5004 21.9823 51.9626 22.4864 52.4575 22.9558C52.734 23.218 52.7116 23.4007 52.4514 23.6609C47.6895 28.4112 42.9335 33.1665 38.1832 37.927C37.9495 38.1617 37.775 38.2393 37.5128 37.975C34.7584 35.2111 32.001 32.4499 29.2404 29.6914C29.1889 29.6275 29.1415 29.5604 29.0986 29.4904Z" fill="#F78C0C"/>
</svg>
