<svg width="20" height="18" viewBox="0 0 20 18" fill="none" xmlns="http://www.w3.org/2000/svg">
<g clip-path="url(#clip0_791_1052)">
<path d="M14.733 4.48442C14.6349 4.52228 14.5365 4.56013 14.4388 4.59799C13.7287 4.87912 13.0185 5.16039 12.3084 5.44178C11.7182 5.6761 11.1288 5.91269 10.5387 6.14663C9.98939 6.36467 9.44087 6.58007 8.8897 6.79774C8.41349 6.98702 7.93804 7.17629 7.46183 7.36556C6.94738 7.56922 6.43216 7.77061 5.91809 7.97464C5.44453 8.16202 4.97173 8.35319 4.49892 8.53981C4.02612 8.72644 3.55785 8.91269 3.08731 9.09931C2.60807 9.28858 2.1258 9.47181 1.64883 9.67092C1.12151 9.892 0.529075 9.74019 0.205037 9.2689C0.111202 9.13597 0.0471679 8.98436 0.0172964 8.82441C-0.0125752 8.66446 -0.00757723 8.49995 0.0319541 8.34211C0.0714853 8.18427 0.144613 8.03683 0.246348 7.90985C0.348083 7.78286 0.476027 7.67933 0.621441 7.60632C0.936015 7.45035 1.26915 7.33187 1.59583 7.20051C2.07129 7.01124 2.54788 6.82196 3.0241 6.63269L4.33046 6.11484L5.64555 5.59395L7.07457 5.02613L8.50321 4.45831L9.81866 3.9378L11.2303 3.38663C11.6652 3.21364 12.1009 3.03912 12.5355 2.86651C12.9701 2.69389 13.4012 2.52581 13.8339 2.35471C13.8657 2.3387 13.8962 2.32022 13.9252 2.29944C13.8301 2.25288 13.7454 2.2154 13.664 2.17149C13.2703 1.95761 13.0613 1.61843 13.0473 1.1778C13.0395 0.926941 13.1148 0.680532 13.2613 0.476778C13.4078 0.273024 13.6175 0.123311 13.8578 0.0508549C14.2026 -0.0551388 14.5199 0.0235994 14.836 0.16442C15.4488 0.434703 16.0655 0.694393 16.6787 0.964298C16.9782 1.09528 17.2806 1.22134 17.5691 1.37351C17.8178 1.50449 17.9696 1.72973 18.0559 1.99812C18.1695 2.34487 18.085 2.66549 17.9423 2.98499C17.7023 3.52518 17.4737 4.07029 17.2367 4.61275C17.0766 4.97805 16.921 5.34638 16.7427 5.70259C16.6129 5.96114 16.3823 6.12203 16.1071 6.20531C15.6953 6.32947 15.3243 6.24316 14.9968 5.96304C14.6561 5.67231 14.5183 5.14272 14.6777 4.72215C14.7042 4.65288 14.7284 4.58247 14.7534 4.51282L14.733 4.48442Z" fill="#0CD4F8"/>
<path d="M14.3833 7.43276C14.5892 7.51756 14.7657 7.60198 14.9493 7.66368C15.3454 7.79605 15.768 7.82907 16.1799 7.75983C16.7894 7.66748 17.3483 7.36756 17.7623 6.91075C18.014 6.63895 18.1813 6.31604 18.3248 5.97762C18.5519 5.445 18.7817 4.91466 19.0118 4.38394C19.0277 4.35255 19.0547 4.32823 19.0875 4.3158V4.41383C19.0875 8.66973 19.0875 12.9258 19.0875 17.1819C19.0875 17.5605 18.9267 17.8228 18.6007 17.947C18.5027 17.9815 18.3993 17.9986 18.2953 17.9973C17.2542 18.0008 16.2132 18.0008 15.1722 17.9973C14.8539 17.9973 14.6014 17.8728 14.4568 17.5779C14.4235 17.5001 14.4013 17.418 14.3909 17.3341C14.3834 17.2683 14.3813 17.2019 14.3848 17.1357V7.43126L14.3833 7.43276Z" fill="#0CD4F8"/>
<path d="M12.4743 12.2071V17.1748C12.4743 17.4204 12.4141 17.6408 12.2218 17.8119C12.0775 17.9374 11.891 18.0038 11.6998 17.9977C10.6464 18 9.59294 18 8.53931 17.9977C8.16947 17.9977 7.92077 17.8156 7.80493 17.4723C7.77934 17.3812 7.76847 17.2867 7.77275 17.1922C7.77073 14.4666 7.76997 11.7411 7.77048 9.01551C7.77048 8.9398 7.78525 8.89173 7.86853 8.85993C8.3932 8.65703 8.91559 8.44731 9.43836 8.23986C9.91155 8.05185 10.3846 7.86359 10.8576 7.67507C11.3307 7.4858 11.8039 7.29652 12.2782 7.1133C12.4728 7.03759 12.4743 7.04214 12.4743 7.24807C12.4748 8.90132 12.4748 10.5543 12.4743 12.2071Z" fill="#0CD4F8"/>
<path d="M5.8592 13.524C5.8592 14.7419 5.8592 15.9595 5.8592 17.1766C5.8592 17.4197 5.80278 17.6366 5.61578 17.8073C5.47303 17.9346 5.28688 18.0024 5.09566 17.9966C4.03926 17.9993 2.98273 17.9993 1.92608 17.9966C1.56721 17.9966 1.32228 17.8239 1.2019 17.4965C1.17178 17.4035 1.15783 17.3061 1.16064 17.2084C1.15786 15.2811 1.15699 13.354 1.158 11.4272C1.158 11.3648 1.16103 11.3163 1.24469 11.3137C1.65125 11.305 2.02865 11.1793 2.40115 11.0282C2.8819 10.8333 3.36532 10.6459 3.84721 10.4544C4.36128 10.2502 4.87509 10.0456 5.38865 9.84073C5.50222 9.7953 5.61578 9.75139 5.72935 9.7052C5.8308 9.66394 5.85692 9.68022 5.85692 9.79379C5.85692 10.6675 5.85692 11.5412 5.85692 12.4149L5.8592 13.524Z" fill="#0CD4F8"/>
</g>
<defs>
<clipPath id="clip0_791_1052">
<rect width="19.0864" height="18" fill="white"/>
</clipPath>
</defs>
</svg>
