<svg width="74" height="82" viewBox="0 0 74 82" fill="none" xmlns="http://www.w3.org/2000/svg">
<path d="M31.2127 27.062V22.054L29.5007 22.662C29.3407 22.566 29.186 22.4327 29.0367 22.262C28.898 22.0913 28.8287 21.862 28.8287 21.574C28.8287 21.0087 29.17 20.614 29.8527 20.39L31.7567 19.686H32.2847C32.6793 19.686 32.9887 19.8033 33.2127 20.038C33.4473 20.262 33.5647 20.5767 33.5647 20.982V27.062H31.2127ZM33.5647 25.302V29.51C33.4687 29.542 33.3247 29.574 33.1327 29.606C32.9407 29.638 32.7327 29.654 32.5087 29.654C32.0607 29.654 31.73 29.574 31.5167 29.414C31.314 29.254 31.2127 28.966 31.2127 28.55V25.302H33.5647ZM39.0489 23.798C39.5716 23.6807 39.9769 23.5153 40.2649 23.302C40.5529 23.0887 40.6969 22.7953 40.6969 22.422C40.6969 22.0807 40.5742 21.814 40.3289 21.622C40.0942 21.43 39.7582 21.334 39.3209 21.334C38.9156 21.334 38.5902 21.4353 38.3449 21.638C38.1102 21.8407 37.9929 22.102 37.9929 22.422C37.9929 22.6993 38.0622 22.9287 38.2009 23.11C38.3502 23.2807 38.5476 23.414 38.7929 23.51C39.0489 23.606 39.3316 23.6753 39.6409 23.718L41.0329 24.246C41.3956 24.3633 41.7476 24.5233 42.0889 24.726C42.4302 24.9287 42.7129 25.206 42.9369 25.558C43.1609 25.8993 43.2729 26.342 43.2729 26.886C43.2729 27.494 43.1076 28.0167 42.7769 28.454C42.4462 28.8807 41.9876 29.2113 41.4009 29.446C40.8142 29.6807 40.1209 29.798 39.3209 29.798C38.5529 29.798 37.8702 29.6807 37.2729 29.446C36.6862 29.2113 36.2276 28.8753 35.8969 28.438C35.5769 28.0007 35.4169 27.478 35.4169 26.87C35.4169 26.3153 35.5449 25.8513 35.8009 25.478C36.0569 25.094 36.3822 24.79 36.7769 24.566C37.1822 24.3313 37.5929 24.1767 38.0089 24.102L39.0489 23.798ZM39.7369 25.11C39.0756 25.206 38.5849 25.4033 38.2649 25.702C37.9449 25.99 37.7849 26.3367 37.7849 26.742C37.7849 27.1367 37.9236 27.446 38.2009 27.67C38.4782 27.8833 38.8516 27.99 39.3209 27.99C39.8009 27.99 40.1849 27.8833 40.4729 27.67C40.7609 27.4567 40.9049 27.1473 40.9049 26.742C40.9049 26.294 40.6916 25.9313 40.2649 25.654C39.8489 25.3767 39.2729 25.2167 38.5369 25.174L37.8169 24.694C37.1662 24.5233 36.6436 24.2407 36.2489 23.846C35.8649 23.4407 35.6729 22.9287 35.6729 22.31C35.6729 21.734 35.8222 21.2433 36.1209 20.838C36.4302 20.422 36.8622 20.102 37.4169 19.878C37.9716 19.654 38.6062 19.542 39.3209 19.542C40.4729 19.542 41.3742 19.7927 42.0249 20.294C42.6862 20.7847 43.0169 21.4567 43.0169 22.31C43.0169 22.9393 42.8356 23.4407 42.4729 23.814C42.1102 24.1767 41.6569 24.4433 41.1129 24.614L39.7369 25.11Z" fill="black"/>
<path d="M35.7327 12.662L33.0727 8.924C33.1473 8.69067 33.292 8.47133 33.5067 8.266C33.7307 8.05133 34.02 7.944 34.3747 7.944C34.608 7.944 34.818 8.00933 35.0047 8.14C35.1913 8.26133 35.3733 8.462 35.5507 8.742L37.3567 11.458L37.9027 11.808L40.6467 15.658C40.5907 15.9567 40.4507 16.1947 40.2267 16.372C40.012 16.5493 39.7273 16.638 39.3727 16.638C39.1393 16.638 38.934 16.5773 38.7567 16.456C38.5887 16.3347 38.4113 16.1293 38.2247 15.84L36.1807 12.746L35.7327 12.662ZM37.1607 13.124L34.8087 16.61C34.7527 16.6193 34.692 16.624 34.6267 16.624C34.5613 16.6333 34.496 16.638 34.4307 16.638C33.992 16.638 33.6607 16.5447 33.4367 16.358C33.222 16.1713 33.1147 15.9427 33.1147 15.672C33.1147 15.4387 33.166 15.2333 33.2687 15.056C33.3807 14.8787 33.5253 14.6733 33.7027 14.44L35.7327 11.822L36.6567 11.094L38.7287 8.07C38.794 8.042 38.8827 8.01867 38.9947 8C39.1067 7.98133 39.2187 7.972 39.3307 7.972C39.6947 7.972 39.9793 8.06067 40.1847 8.238C40.39 8.41533 40.4927 8.63467 40.4927 8.896C40.4927 9.11067 40.432 9.31133 40.3107 9.498C40.1987 9.67533 40.0493 9.88533 39.8627 10.128C39.5173 10.5667 39.172 11.0053 38.8267 11.444C38.4907 11.8733 38.1407 12.3073 37.7767 12.746L37.1607 13.124Z" fill="#F78C0C"/>
<path d="M29.832 69.322C29.768 69.2153 29.7093 69.082 29.656 68.922C29.6027 68.762 29.576 68.586 29.576 68.394C29.576 68.0527 29.656 67.8073 29.816 67.658C29.976 67.498 30.1893 67.418 30.456 67.418H33.976C34.0293 67.514 34.0827 67.6473 34.136 67.818C34.2 67.9887 34.232 68.1647 34.232 68.346C34.232 68.6873 34.152 68.938 33.992 69.098C33.832 69.2473 33.6187 69.322 33.352 69.322H29.832ZM35.8864 71.402C35.8864 71.1993 35.9344 71.0073 36.0304 70.826C36.1264 70.634 36.2384 70.4953 36.3664 70.41C36.633 70.5273 36.9264 70.6287 37.2464 70.714C37.5664 70.7887 37.881 70.826 38.1904 70.826C38.681 70.826 39.1077 70.7353 39.4704 70.554C39.8437 70.3727 40.1317 70.1007 40.3344 69.738C40.5477 69.3753 40.649 68.938 40.6384 68.426C40.5104 68.5327 40.345 68.6393 40.1424 68.746C39.9397 68.842 39.7104 68.922 39.4544 68.986C39.209 69.0393 38.937 69.066 38.6384 69.066C38.009 69.066 37.4437 68.954 36.9424 68.73C36.441 68.4953 36.0464 68.1433 35.7584 67.674C35.4704 67.2047 35.3264 66.6127 35.3264 65.898C35.3264 65.2687 35.4704 64.7033 35.7584 64.202C36.0464 63.69 36.4677 63.2847 37.0224 62.986C37.577 62.6767 38.2437 62.522 39.0224 62.522C39.8437 62.522 40.5477 62.7087 41.1344 63.082C41.7317 63.4447 42.1904 63.9833 42.5104 64.698C42.841 65.4127 43.0064 66.298 43.0064 67.354C43.0064 68.57 42.8144 69.5727 42.4304 70.362C42.057 71.1513 41.5344 71.7433 40.8624 72.138C40.1904 72.522 39.4117 72.714 38.5264 72.714C37.737 72.714 37.097 72.602 36.6064 72.378C36.1264 72.154 35.8864 71.8287 35.8864 71.402ZM39.1504 67.274C39.4384 67.274 39.7104 67.21 39.9664 67.082C40.233 66.9433 40.4357 66.778 40.5744 66.586V66.474C40.5744 65.8127 40.441 65.306 40.1744 64.954C39.9077 64.5913 39.5184 64.41 39.0064 64.41C38.601 64.41 38.2757 64.538 38.0304 64.794C37.7957 65.05 37.6784 65.402 37.6784 65.85C37.6784 66.3087 37.817 66.6607 38.0944 66.906C38.3824 67.1513 38.7344 67.274 39.1504 67.274Z" fill="black"/>
<path d="M67.0503 18.131L6.71376 78.4675" stroke="black" stroke-width="3" stroke-linecap="round"/>
<path d="M6.71382 18.131L67.0503 78.4675" stroke="black" stroke-width="3" stroke-linecap="round"/>
<rect x="0.652664" y="39.4635" width="18" height="18" rx="6" fill="#CEF6FE"/>
<rect x="55.3473" y="39.4635" width="18" height="18" rx="6" fill="#CEF6FE"/>
</svg>
