<svg width="74" height="90" viewBox="0 0 74 90" fill="none" xmlns="http://www.w3.org/2000/svg">
<path d="M31.2127 29.062V24.054L29.5007 24.662C29.3407 24.566 29.186 24.4327 29.0367 24.262C28.898 24.0913 28.8287 23.862 28.8287 23.574C28.8287 23.0087 29.17 22.614 29.8527 22.39L31.7567 21.686H32.2847C32.6794 21.686 32.9887 21.8033 33.2127 22.038C33.4474 22.262 33.5647 22.5767 33.5647 22.982V29.062H31.2127ZM33.5647 27.302V31.51C33.4687 31.542 33.3247 31.574 33.1327 31.606C32.9407 31.638 32.7327 31.654 32.5087 31.654C32.0607 31.654 31.73 31.574 31.5167 31.414C31.314 31.254 31.2127 30.966 31.2127 30.55V27.302H33.5647ZM39.049 25.798C39.5716 25.6807 39.977 25.5153 40.265 25.302C40.553 25.0887 40.697 24.7953 40.697 24.422C40.697 24.0807 40.5743 23.814 40.329 23.622C40.0943 23.43 39.7583 23.334 39.321 23.334C38.9156 23.334 38.5903 23.4353 38.345 23.638C38.1103 23.8407 37.993 24.102 37.993 24.422C37.993 24.6993 38.0623 24.9287 38.201 25.11C38.3503 25.2807 38.5476 25.414 38.793 25.51C39.049 25.606 39.3316 25.6753 39.641 25.718L41.033 26.246C41.3956 26.3633 41.7476 26.5233 42.089 26.726C42.4303 26.9287 42.713 27.206 42.937 27.558C43.161 27.8993 43.273 28.342 43.273 28.886C43.273 29.494 43.1076 30.0167 42.777 30.454C42.4463 30.8807 41.9876 31.2113 41.401 31.446C40.8143 31.6807 40.121 31.798 39.321 31.798C38.553 31.798 37.8703 31.6807 37.273 31.446C36.6863 31.2113 36.2276 30.8753 35.897 30.438C35.577 30.0007 35.417 29.478 35.417 28.87C35.417 28.3153 35.545 27.8513 35.801 27.478C36.057 27.094 36.3823 26.79 36.777 26.566C37.1823 26.3313 37.593 26.1767 38.009 26.102L39.049 25.798ZM39.737 27.11C39.0756 27.206 38.585 27.4033 38.265 27.702C37.945 27.99 37.785 28.3367 37.785 28.742C37.785 29.1367 37.9236 29.446 38.201 29.67C38.4783 29.8833 38.8516 29.99 39.321 29.99C39.801 29.99 40.185 29.8833 40.473 29.67C40.761 29.4567 40.905 29.1473 40.905 28.742C40.905 28.294 40.6916 27.9313 40.265 27.654C39.849 27.3767 39.273 27.2167 38.537 27.174L37.817 26.694C37.1663 26.5233 36.6436 26.2407 36.249 25.846C35.865 25.4407 35.673 24.9287 35.673 24.31C35.673 23.734 35.8223 23.2433 36.121 22.838C36.4303 22.422 36.8623 22.102 37.417 21.878C37.9716 21.654 38.6063 21.542 39.321 21.542C40.473 21.542 41.3743 21.7927 42.025 22.294C42.6863 22.7847 43.017 23.4567 43.017 24.31C43.017 24.9393 42.8356 25.4407 42.473 25.814C42.1103 26.1767 41.657 26.4433 41.113 26.614L39.737 27.11Z" fill="black"/>
<path d="M35.7327 12.662L33.0727 8.924C33.1474 8.69067 33.292 8.47133 33.5067 8.266C33.7307 8.05133 34.02 7.944 34.3747 7.944C34.608 7.944 34.818 8.00933 35.0047 8.14C35.1914 8.26133 35.3734 8.462 35.5507 8.742L37.3567 11.458L37.9027 11.808L40.6467 15.658C40.5907 15.9567 40.4507 16.1947 40.2267 16.372C40.012 16.5493 39.7274 16.638 39.3727 16.638C39.1394 16.638 38.934 16.5773 38.7567 16.456C38.5887 16.3347 38.4114 16.1293 38.2247 15.84L36.1807 12.746L35.7327 12.662ZM37.1607 13.124L34.8087 16.61C34.7527 16.6193 34.692 16.624 34.6267 16.624C34.5614 16.6333 34.496 16.638 34.4307 16.638C33.992 16.638 33.6607 16.5447 33.4367 16.358C33.222 16.1713 33.1147 15.9427 33.1147 15.672C33.1147 15.4387 33.166 15.2333 33.2687 15.056C33.3807 14.8787 33.5254 14.6733 33.7027 14.44L35.7327 11.822L36.6567 11.094L38.7287 8.07C38.794 8.042 38.8827 8.01867 38.9947 8C39.1067 7.98133 39.2187 7.972 39.3307 7.972C39.6947 7.972 39.9794 8.06067 40.1847 8.238C40.39 8.41533 40.4927 8.63467 40.4927 8.896C40.4927 9.11067 40.432 9.31133 40.3107 9.498C40.1987 9.67533 40.0494 9.88533 39.8627 10.128C39.5174 10.5667 39.172 11.0053 38.8267 11.444C38.4907 11.8733 38.1407 12.3073 37.7767 12.746L37.1607 13.124Z" fill="#F78C0C"/>
<path d="M34.152 73.402C34.152 73.1993 34.2 73.0073 34.296 72.826C34.392 72.634 34.504 72.4953 34.632 72.41C34.8987 72.5273 35.192 72.6287 35.512 72.714C35.832 72.7887 36.1467 72.826 36.456 72.826C36.9467 72.826 37.3733 72.7353 37.736 72.554C38.1093 72.3727 38.3973 72.1007 38.6 71.738C38.8133 71.3753 38.9147 70.938 38.904 70.426C38.776 70.5327 38.6107 70.6393 38.408 70.746C38.2053 70.842 37.976 70.922 37.72 70.986C37.4747 71.0393 37.2027 71.066 36.904 71.066C36.2747 71.066 35.7093 70.954 35.208 70.73C34.7067 70.4953 34.312 70.1433 34.024 69.674C33.736 69.2047 33.592 68.6127 33.592 67.898C33.592 67.2687 33.736 66.7033 34.024 66.202C34.312 65.69 34.7333 65.2847 35.288 64.986C35.8427 64.6767 36.5093 64.522 37.288 64.522C38.1093 64.522 38.8133 64.7087 39.4 65.082C39.9973 65.4447 40.456 65.9833 40.776 66.698C41.1067 67.4127 41.272 68.298 41.272 69.354C41.272 70.57 41.08 71.5727 40.696 72.362C40.3227 73.1513 39.8 73.7433 39.128 74.138C38.456 74.522 37.6773 74.714 36.792 74.714C36.0027 74.714 35.3627 74.602 34.872 74.378C34.392 74.154 34.152 73.8287 34.152 73.402ZM37.416 69.274C37.704 69.274 37.976 69.21 38.232 69.082C38.4987 68.9433 38.7013 68.778 38.84 68.586V68.474C38.84 67.8127 38.7067 67.306 38.44 66.954C38.1733 66.5913 37.784 66.41 37.272 66.41C36.8667 66.41 36.5413 66.538 36.296 66.794C36.0613 67.05 35.944 67.402 35.944 67.85C35.944 68.3087 36.0827 68.6607 36.36 68.906C36.648 69.1513 37 69.274 37.416 69.274Z" fill="black"/>
<path d="M33.8 83.746C33.736 83.6393 33.6773 83.5113 33.624 83.362C33.5813 83.202 33.56 83.0313 33.56 82.85C33.56 82.5087 33.64 82.2633 33.8 82.114C33.9707 81.954 34.184 81.874 34.44 81.874H40.936C40.9893 81.97 41.0427 82.1033 41.096 82.274C41.1493 82.4447 41.176 82.6207 41.176 82.802C41.176 83.1433 41.096 83.3887 40.936 83.538C40.776 83.6767 40.5627 83.746 40.296 83.746H33.8ZM38.456 86.594C38.36 86.6153 38.216 86.642 38.024 86.674C37.8427 86.706 37.6613 86.722 37.48 86.722C37.1067 86.722 36.8187 86.658 36.616 86.53C36.424 86.3913 36.328 86.114 36.328 85.698V79.09C36.424 79.0687 36.5627 79.042 36.744 79.01C36.936 78.9673 37.1227 78.946 37.304 78.946C37.6773 78.946 37.96 79.0153 38.152 79.154C38.3547 79.2927 38.456 79.5647 38.456 79.97V86.594Z" fill="#F78C0C"/>
<path d="M67.0503 20.131L6.71376 80.4675" stroke="black" stroke-width="3" stroke-linecap="round"/>
<path d="M6.71387 20.131L67.0504 80.4675" stroke="black" stroke-width="3" stroke-linecap="round"/>
<rect x="0.65271" y="41.4635" width="18" height="18" rx="6" fill="#CEF6FE"/>
<rect x="55.3474" y="41.4635" width="18" height="18" rx="6" fill="#CEF6FE"/>
</svg>
