<svg width="74" height="82" viewBox="0 0 74 82" fill="none" xmlns="http://www.w3.org/2000/svg">
<path d="M25.4847 26.374C25.4207 26.2673 25.362 26.134 25.3087 25.974C25.2553 25.814 25.2287 25.638 25.2287 25.446C25.2287 25.1047 25.3087 24.8593 25.4687 24.71C25.6287 24.55 25.842 24.47 26.1087 24.47H29.6287C29.682 24.566 29.7353 24.6993 29.7887 24.87C29.8527 25.0407 29.8847 25.2167 29.8847 25.398C29.8847 25.7393 29.8047 25.99 29.6447 26.15C29.4847 26.2993 29.2713 26.374 29.0047 26.374H25.4847ZM32.7127 27.062V22.054L31.0007 22.662C30.8407 22.566 30.686 22.4327 30.5367 22.262C30.398 22.0913 30.3287 21.862 30.3287 21.574C30.3287 21.0087 30.67 20.614 31.3527 20.39L33.2567 19.686H33.7847C34.1793 19.686 34.4887 19.8033 34.7127 20.038C34.9473 20.262 35.0647 20.5767 35.0647 20.982V27.062H32.7127ZM35.0647 25.302V29.51C34.9687 29.542 34.8247 29.574 34.6327 29.606C34.4407 29.638 34.2327 29.654 34.0087 29.654C33.5607 29.654 33.23 29.574 33.0167 29.414C32.814 29.254 32.7127 28.966 32.7127 28.55V25.302H35.0647ZM40.5489 23.798C41.0716 23.6807 41.4769 23.5153 41.7649 23.302C42.0529 23.0887 42.1969 22.7953 42.1969 22.422C42.1969 22.0807 42.0742 21.814 41.8289 21.622C41.5942 21.43 41.2582 21.334 40.8209 21.334C40.4156 21.334 40.0902 21.4353 39.8449 21.638C39.6102 21.8407 39.4929 22.102 39.4929 22.422C39.4929 22.6993 39.5622 22.9287 39.7009 23.11C39.8502 23.2807 40.0476 23.414 40.2929 23.51C40.5489 23.606 40.8316 23.6753 41.1409 23.718L42.5329 24.246C42.8956 24.3633 43.2476 24.5233 43.5889 24.726C43.9302 24.9287 44.2129 25.206 44.4369 25.558C44.6609 25.8993 44.7729 26.342 44.7729 26.886C44.7729 27.494 44.6076 28.0167 44.2769 28.454C43.9462 28.8807 43.4876 29.2113 42.9009 29.446C42.3142 29.6807 41.6209 29.798 40.8209 29.798C40.0529 29.798 39.3702 29.6807 38.7729 29.446C38.1862 29.2113 37.7276 28.8753 37.3969 28.438C37.0769 28.0007 36.9169 27.478 36.9169 26.87C36.9169 26.3153 37.0449 25.8513 37.3009 25.478C37.5569 25.094 37.8822 24.79 38.2769 24.566C38.6822 24.3313 39.0929 24.1767 39.5089 24.102L40.5489 23.798ZM41.2369 25.11C40.5756 25.206 40.0849 25.4033 39.7649 25.702C39.4449 25.99 39.2849 26.3367 39.2849 26.742C39.2849 27.1367 39.4236 27.446 39.7009 27.67C39.9782 27.8833 40.3516 27.99 40.8209 27.99C41.3009 27.99 41.6849 27.8833 41.9729 27.67C42.2609 27.4567 42.4049 27.1473 42.4049 26.742C42.4049 26.294 42.1916 25.9313 41.7649 25.654C41.3489 25.3767 40.7729 25.2167 40.0369 25.174L39.3169 24.694C38.6662 24.5233 38.1436 24.2407 37.7489 23.846C37.3649 23.4407 37.1729 22.9287 37.1729 22.31C37.1729 21.734 37.3222 21.2433 37.6209 20.838C37.9302 20.422 38.3622 20.102 38.9169 19.878C39.4716 19.654 40.1062 19.542 40.8209 19.542C41.9729 19.542 42.8742 19.7927 43.5249 20.294C44.1862 20.7847 44.5169 21.4567 44.5169 22.31C44.5169 22.9393 44.3356 23.4407 43.9729 23.814C43.6102 24.1767 43.1569 24.4433 42.6129 24.614L41.2369 25.11Z" fill="black"/>
<path d="M35.7327 12.662L33.0727 8.924C33.1473 8.69067 33.292 8.47133 33.5067 8.266C33.7307 8.05133 34.02 7.944 34.3747 7.944C34.608 7.944 34.818 8.00933 35.0047 8.14C35.1913 8.26133 35.3733 8.462 35.5507 8.742L37.3567 11.458L37.9027 11.808L40.6467 15.658C40.5907 15.9567 40.4507 16.1947 40.2267 16.372C40.012 16.5493 39.7273 16.638 39.3727 16.638C39.1393 16.638 38.934 16.5773 38.7567 16.456C38.5887 16.3347 38.4113 16.1293 38.2247 15.84L36.1807 12.746L35.7327 12.662ZM37.1607 13.124L34.8087 16.61C34.7527 16.6193 34.692 16.624 34.6267 16.624C34.5613 16.6333 34.496 16.638 34.4307 16.638C33.992 16.638 33.6607 16.5447 33.4367 16.358C33.222 16.1713 33.1147 15.9427 33.1147 15.672C33.1147 15.4387 33.166 15.2333 33.2687 15.056C33.3807 14.8787 33.5253 14.6733 33.7027 14.44L35.7327 11.822L36.6567 11.094L38.7287 8.07C38.794 8.042 38.8827 8.01867 38.9947 8C39.1067 7.98133 39.2187 7.972 39.3307 7.972C39.6947 7.972 39.9793 8.06067 40.1847 8.238C40.39 8.41533 40.4927 8.63467 40.4927 8.896C40.4927 9.11067 40.432 9.31133 40.3107 9.498C40.1987 9.67533 40.0493 9.88533 39.8627 10.128C39.5173 10.5667 39.172 11.0053 38.8267 11.444C38.4907 11.8733 38.1407 12.3073 37.7767 12.746L37.1607 13.124Z" fill="#F78C0C"/>
<path d="M34.2047 71.402C34.2047 71.1993 34.2527 71.0073 34.3487 70.826C34.4447 70.634 34.5567 70.4953 34.6847 70.41C34.9513 70.5273 35.2447 70.6287 35.5647 70.714C35.8847 70.7887 36.1993 70.826 36.5087 70.826C36.9993 70.826 37.426 70.7353 37.7887 70.554C38.162 70.3727 38.45 70.1007 38.6527 69.738C38.866 69.3753 38.9673 68.938 38.9567 68.426C38.8287 68.5327 38.6633 68.6393 38.4607 68.746C38.258 68.842 38.0287 68.922 37.7727 68.986C37.5273 69.0393 37.2553 69.066 36.9567 69.066C36.3273 69.066 35.762 68.954 35.2607 68.73C34.7593 68.4953 34.3647 68.1433 34.0767 67.674C33.7887 67.2047 33.6447 66.6127 33.6447 65.898C33.6447 65.2687 33.7887 64.7033 34.0767 64.202C34.3647 63.69 34.786 63.2847 35.3407 62.986C35.8953 62.6767 36.562 62.522 37.3407 62.522C38.162 62.522 38.866 62.7087 39.4527 63.082C40.05 63.4447 40.5087 63.9833 40.8287 64.698C41.1593 65.4127 41.3247 66.298 41.3247 67.354C41.3247 68.57 41.1327 69.5727 40.7487 70.362C40.3753 71.1513 39.8527 71.7433 39.1807 72.138C38.5087 72.522 37.73 72.714 36.8447 72.714C36.0553 72.714 35.4153 72.602 34.9247 72.378C34.4447 72.154 34.2047 71.8287 34.2047 71.402ZM37.4687 67.274C37.7567 67.274 38.0287 67.21 38.2847 67.082C38.5513 66.9433 38.754 66.778 38.8927 66.586V66.474C38.8927 65.8127 38.7593 65.306 38.4927 64.954C38.226 64.5913 37.8367 64.41 37.3247 64.41C36.9193 64.41 36.594 64.538 36.3487 64.794C36.114 65.05 35.9967 65.402 35.9967 65.85C35.9967 66.3087 36.1353 66.6607 36.4127 66.906C36.7007 67.1513 37.0527 67.274 37.4687 67.274Z" fill="black"/>
<path d="M67.0503 18.131L6.71377 78.4675" stroke="black" stroke-width="3" stroke-linecap="round"/>
<path d="M6.71383 18.131L67.0504 78.4675" stroke="black" stroke-width="3" stroke-linecap="round"/>
<rect x="0.652664" y="39.4635" width="18" height="18" rx="6" fill="#CEF6FE"/>
<rect x="55.3473" y="39.4635" width="18" height="18" rx="6" fill="#CEF6FE"/>
</svg>
