<svg fill="none" height="90" viewBox="0 0 74 90" width="74" xmlns="http://www.w3.org/2000/svg">
    <path
        d="M31.2126 29.062V24.054L29.5006 24.662C29.3406 24.566 29.186 24.4327 29.0366 24.262C28.898 24.0913 28.8286 23.862 28.8286 23.574C28.8286 23.0087 29.17 22.614 29.8526 22.39L31.7566 21.686H32.2846C32.6793 21.686 32.9886 21.8033 33.2126 22.038C33.4473 22.262 33.5646 22.5767 33.5646 22.982V29.062H31.2126ZM33.5646 27.302V31.51C33.4686 31.542 33.3246 31.574 33.1326 31.606C32.9406 31.638 32.7326 31.654 32.5086 31.654C32.0606 31.654 31.73 31.574 31.5166 31.414C31.314 31.254 31.2126 30.966 31.2126 30.55V27.302H33.5646ZM39.0489 25.798C39.5716 25.6807 39.9769 25.5153 40.2649 25.302C40.5529 25.0887 40.6969 24.7953 40.6969 24.422C40.6969 24.0807 40.5742 23.814 40.3289 23.622C40.0942 23.43 39.7582 23.334 39.3209 23.334C38.9156 23.334 38.5902 23.4353 38.3449 23.638C38.1102 23.8407 37.9929 24.102 37.9929 24.422C37.9929 24.6993 38.0622 24.9287 38.2009 25.11C38.3502 25.2807 38.5476 25.414 38.7929 25.51C39.0489 25.606 39.3316 25.6753 39.6409 25.718L41.0329 26.246C41.3956 26.3633 41.7476 26.5233 42.0889 26.726C42.4302 26.9287 42.7129 27.206 42.9369 27.558C43.1609 27.8993 43.2729 28.342 43.2729 28.886C43.2729 29.494 43.1076 30.0167 42.7769 30.454C42.4462 30.8807 41.9876 31.2113 41.4009 31.446C40.8142 31.6807 40.1209 31.798 39.3209 31.798C38.5529 31.798 37.8702 31.6807 37.2729 31.446C36.6862 31.2113 36.2276 30.8753 35.8969 30.438C35.5769 30.0007 35.4169 29.478 35.4169 28.87C35.4169 28.3153 35.5449 27.8513 35.8009 27.478C36.0569 27.094 36.3822 26.79 36.7769 26.566C37.1822 26.3313 37.5929 26.1767 38.0089 26.102L39.0489 25.798ZM39.7369 27.11C39.0756 27.206 38.5849 27.4033 38.2649 27.702C37.9449 27.99 37.7849 28.3367 37.7849 28.742C37.7849 29.1367 37.9236 29.446 38.2009 29.67C38.4782 29.8833 38.8516 29.99 39.3209 29.99C39.8009 29.99 40.1849 29.8833 40.4729 29.67C40.7609 29.4567 40.9049 29.1473 40.9049 28.742C40.9049 28.294 40.6916 27.9313 40.2649 27.654C39.8489 27.3767 39.2729 27.2167 38.5369 27.174L37.8169 26.694C37.1662 26.5233 36.6436 26.2407 36.2489 25.846C35.8649 25.4407 35.6729 24.9287 35.6729 24.31C35.6729 23.734 35.8222 23.2433 36.1209 22.838C36.4302 22.422 36.8622 22.102 37.4169 21.878C37.9716 21.654 38.6062 21.542 39.3209 21.542C40.4729 21.542 41.3742 21.7927 42.0249 22.294C42.6862 22.7847 43.0169 23.4567 43.0169 24.31C43.0169 24.9393 42.8356 25.4407 42.4729 25.814C42.1102 26.1767 41.6569 26.4433 41.1129 26.614L39.7369 27.11Z"
        fill="black" />
    <path
        d="M35.7326 12.662L33.0726 8.924C33.1473 8.69067 33.292 8.47133 33.5066 8.266C33.7306 8.05133 34.02 7.944 34.3746 7.944C34.608 7.944 34.818 8.00933 35.0046 8.14C35.1913 8.26133 35.3733 8.462 35.5506 8.742L37.3566 11.458L37.9026 11.808L40.6466 15.658C40.5906 15.9567 40.4506 16.1947 40.2266 16.372C40.012 16.5493 39.7273 16.638 39.3726 16.638C39.1393 16.638 38.934 16.5773 38.7566 16.456C38.5886 16.3347 38.4113 16.1293 38.2246 15.84L36.1806 12.746L35.7326 12.662ZM37.1606 13.124L34.8086 16.61C34.7526 16.6193 34.692 16.624 34.6266 16.624C34.5613 16.6333 34.496 16.638 34.4306 16.638C33.992 16.638 33.6606 16.5447 33.4366 16.358C33.222 16.1713 33.1146 15.9427 33.1146 15.672C33.1146 15.4387 33.166 15.2333 33.2686 15.056C33.3806 14.8787 33.5253 14.6733 33.7026 14.44L35.7326 11.822L36.6566 11.094L38.7286 8.07C38.794 8.042 38.8826 8.01867 38.9946 8C39.1066 7.98133 39.2186 7.972 39.3306 7.972C39.6946 7.972 39.9793 8.06067 40.1846 8.238C40.39 8.41533 40.4926 8.63467 40.4926 8.896C40.4926 9.11067 40.432 9.31133 40.3106 9.498C40.1986 9.67533 40.0493 9.88533 39.8626 10.128C39.5173 10.5667 39.172 11.0053 38.8266 11.444C38.4906 11.8733 38.1406 12.3073 37.7766 12.746L37.1606 13.124Z"
        fill="#F78C0C" />
    <path
        d="M34.152 73.402C34.152 73.1993 34.2 73.0073 34.296 72.826C34.392 72.634 34.504 72.4953 34.632 72.41C34.8987 72.5273 35.192 72.6287 35.512 72.714C35.832 72.7887 36.1467 72.826 36.456 72.826C36.9467 72.826 37.3733 72.7353 37.736 72.554C38.1093 72.3727 38.3973 72.1007 38.6 71.738C38.8133 71.3753 38.9147 70.938 38.904 70.426C38.776 70.5327 38.6107 70.6393 38.408 70.746C38.2053 70.842 37.976 70.922 37.72 70.986C37.4747 71.0393 37.2027 71.066 36.904 71.066C36.2747 71.066 35.7093 70.954 35.208 70.73C34.7067 70.4953 34.312 70.1433 34.024 69.674C33.736 69.2047 33.592 68.6127 33.592 67.898C33.592 67.2687 33.736 66.7033 34.024 66.202C34.312 65.69 34.7333 65.2847 35.288 64.986C35.8427 64.6767 36.5093 64.522 37.288 64.522C38.1093 64.522 38.8133 64.7087 39.4 65.082C39.9973 65.4447 40.456 65.9833 40.776 66.698C41.1067 67.4127 41.272 68.298 41.272 69.354C41.272 70.57 41.08 71.5727 40.696 72.362C40.3227 73.1513 39.8 73.7433 39.128 74.138C38.456 74.522 37.6773 74.714 36.792 74.714C36.0027 74.714 35.3627 74.602 34.872 74.378C34.392 74.154 34.152 73.8287 34.152 73.402ZM37.416 69.274C37.704 69.274 37.976 69.21 38.232 69.082C38.4987 68.9433 38.7013 68.778 38.84 68.586V68.474C38.84 67.8127 38.7067 67.306 38.44 66.954C38.1733 66.5913 37.784 66.41 37.272 66.41C36.8667 66.41 36.5413 66.538 36.296 66.794C36.0613 67.05 35.944 67.402 35.944 67.85C35.944 68.3087 36.0827 68.6607 36.36 68.906C36.648 69.1513 37 69.274 37.416 69.274Z"
        fill="black" />
    <path
        d="M33.8 83.746C33.736 83.6393 33.6773 83.5113 33.624 83.362C33.5813 83.202 33.56 83.0313 33.56 82.85C33.56 82.5087 33.64 82.2633 33.8 82.114C33.9707 81.954 34.184 81.874 34.44 81.874H40.936C40.9893 81.97 41.0427 82.1033 41.096 82.274C41.1493 82.4447 41.176 82.6207 41.176 82.802C41.176 83.1433 41.096 83.3887 40.936 83.538C40.776 83.6767 40.5627 83.746 40.296 83.746H33.8ZM38.456 86.594C38.36 86.6153 38.216 86.642 38.024 86.674C37.8427 86.706 37.6613 86.722 37.48 86.722C37.1067 86.722 36.8187 86.658 36.616 86.53C36.424 86.3913 36.328 86.114 36.328 85.698V79.09C36.424 79.0687 36.5627 79.042 36.744 79.01C36.936 78.9673 37.1227 78.946 37.304 78.946C37.6773 78.946 37.96 79.0153 38.152 79.154C38.3547 79.2927 38.456 79.5647 38.456 79.97V86.594Z"
        fill="#F78C0C" />
    <path d="M67.0503 20.131L6.71376 80.4675" stroke="black" stroke-linecap="round"
        stroke-width="3" />
    <path d="M6.71381 20.131L67.0503 80.4675" stroke="black" stroke-linecap="round"
        stroke-width="3" />
    <rect fill="#CEF6FE" height="18" rx="6" width="18" x="0.652649" y="41.4635" />
    <rect fill="#CEF6FE" height="18" rx="6" width="18" x="55.3473" y="41.4635" />
</svg>
