<svg width="74" height="82" viewBox="0 0 74 82" fill="none" xmlns="http://www.w3.org/2000/svg">
<path d="M24.832 26.374C24.768 26.2673 24.7093 26.134 24.656 25.974C24.6027 25.814 24.576 25.638 24.576 25.446C24.576 25.1047 24.656 24.8593 24.816 24.71C24.976 24.55 25.1893 24.47 25.456 24.47H28.976C29.0293 24.566 29.0827 24.6993 29.136 24.87C29.2 25.0407 29.232 25.2167 29.232 25.398C29.232 25.7393 29.152 25.99 28.992 26.15C28.832 26.2993 28.6187 26.374 28.352 26.374H24.832ZM32.06 27.062V22.054L30.348 22.662C30.188 22.566 30.0333 22.4327 29.884 22.262C29.7453 22.0913 29.676 21.862 29.676 21.574C29.676 21.0087 30.0173 20.614 30.7 20.39L32.604 19.686H33.132C33.5267 19.686 33.836 19.8033 34.06 20.038C34.2947 20.262 34.412 20.5767 34.412 20.982V27.062H32.06ZM34.412 25.302V29.51C34.316 29.542 34.172 29.574 33.98 29.606C33.788 29.638 33.58 29.654 33.356 29.654C32.908 29.654 32.5773 29.574 32.364 29.414C32.1613 29.254 32.06 28.966 32.06 28.55V25.302H34.412ZM39.8963 23.798C40.4189 23.6807 40.8243 23.5153 41.1123 23.302C41.4003 23.0887 41.5443 22.7953 41.5443 22.422C41.5443 22.0807 41.4216 21.814 41.1763 21.622C40.9416 21.43 40.6056 21.334 40.1683 21.334C39.7629 21.334 39.4376 21.4353 39.1923 21.638C38.9576 21.8407 38.8403 22.102 38.8403 22.422C38.8403 22.6993 38.9096 22.9287 39.0483 23.11C39.1976 23.2807 39.3949 23.414 39.6403 23.51C39.8963 23.606 40.1789 23.6753 40.4883 23.718L41.8803 24.246C42.2429 24.3633 42.5949 24.5233 42.9363 24.726C43.2776 24.9287 43.5603 25.206 43.7843 25.558C44.0083 25.8993 44.1203 26.342 44.1203 26.886C44.1203 27.494 43.9549 28.0167 43.6243 28.454C43.2936 28.8807 42.8349 29.2113 42.2483 29.446C41.6616 29.6807 40.9683 29.798 40.1683 29.798C39.4003 29.798 38.7176 29.6807 38.1203 29.446C37.5336 29.2113 37.0749 28.8753 36.7443 28.438C36.4243 28.0007 36.2643 27.478 36.2643 26.87C36.2643 26.3153 36.3923 25.8513 36.6483 25.478C36.9043 25.094 37.2296 24.79 37.6243 24.566C38.0296 24.3313 38.4403 24.1767 38.8563 24.102L39.8963 23.798ZM40.5843 25.11C39.9229 25.206 39.4323 25.4033 39.1123 25.702C38.7923 25.99 38.6323 26.3367 38.6323 26.742C38.6323 27.1367 38.7709 27.446 39.0483 27.67C39.3256 27.8833 39.6989 27.99 40.1683 27.99C40.6483 27.99 41.0323 27.8833 41.3203 27.67C41.6083 27.4567 41.7523 27.1473 41.7523 26.742C41.7523 26.294 41.5389 25.9313 41.1123 25.654C40.6963 25.3767 40.1203 25.2167 39.3843 25.174L38.6643 24.694C38.0136 24.5233 37.4909 24.2407 37.0963 23.846C36.7123 23.4407 36.5203 22.9287 36.5203 22.31C36.5203 21.734 36.6696 21.2433 36.9683 20.838C37.2776 20.422 37.7096 20.102 38.2643 19.878C38.8189 19.654 39.4536 19.542 40.1683 19.542C41.3203 19.542 42.2216 19.7927 42.8723 20.294C43.5336 20.7847 43.8643 21.4567 43.8643 22.31C43.8643 22.9393 43.6829 23.4407 43.3203 23.814C42.9576 24.1767 42.5043 24.4433 41.9603 24.614L40.5843 25.11Z" fill="black"/>
<path d="M35.7327 12.662L33.0727 8.924C33.1473 8.69067 33.292 8.47133 33.5067 8.266C33.7307 8.05133 34.02 7.944 34.3747 7.944C34.608 7.944 34.818 8.00933 35.0047 8.14C35.1913 8.26133 35.3733 8.462 35.5507 8.742L37.3567 11.458L37.9027 11.808L40.6467 15.658C40.5907 15.9567 40.4507 16.1947 40.2267 16.372C40.012 16.5493 39.7273 16.638 39.3727 16.638C39.1393 16.638 38.934 16.5773 38.7567 16.456C38.5887 16.3347 38.4113 16.1293 38.2247 15.84L36.1807 12.746L35.7327 12.662ZM37.1607 13.124L34.8087 16.61C34.7527 16.6193 34.692 16.624 34.6267 16.624C34.5613 16.6333 34.496 16.638 34.4307 16.638C33.992 16.638 33.6607 16.5447 33.4367 16.358C33.222 16.1713 33.1147 15.9427 33.1147 15.672C33.1147 15.4387 33.166 15.2333 33.2687 15.056C33.3807 14.8787 33.5253 14.6733 33.7027 14.44L35.7327 11.822L36.6567 11.094L38.7287 8.07C38.794 8.042 38.8827 8.01867 38.9947 8C39.1067 7.98133 39.2187 7.972 39.3307 7.972C39.6947 7.972 39.9793 8.06067 40.1847 8.238C40.39 8.41533 40.4927 8.63467 40.4927 8.896C40.4927 9.11067 40.432 9.31133 40.3107 9.498C40.1987 9.67533 40.0493 9.88533 39.8627 10.128C39.5173 10.5667 39.172 11.0053 38.8267 11.444C38.4907 11.8733 38.1407 12.3073 37.7767 12.746L37.1607 13.124Z" fill="#F78C0C"/>
<path d="M27.832 69.322C27.768 69.2153 27.7093 69.082 27.656 68.922C27.6027 68.762 27.576 68.586 27.576 68.394C27.576 68.0527 27.656 67.8073 27.816 67.658C27.976 67.498 28.1893 67.418 28.456 67.418H31.976C32.0293 67.514 32.0827 67.6473 32.136 67.818C32.2 67.9887 32.232 68.1647 32.232 68.346C32.232 68.6873 32.152 68.938 31.992 69.098C31.832 69.2473 31.6187 69.322 31.352 69.322H27.832ZM33.8864 71.402C33.8864 71.1993 33.9344 71.0073 34.0304 70.826C34.1264 70.634 34.2384 70.4953 34.3664 70.41C34.633 70.5273 34.9264 70.6287 35.2464 70.714C35.5664 70.7887 35.881 70.826 36.1904 70.826C36.681 70.826 37.1077 70.7353 37.4704 70.554C37.8437 70.3727 38.1317 70.1007 38.3344 69.738C38.5477 69.3753 38.649 68.938 38.6384 68.426C38.5104 68.5327 38.345 68.6393 38.1424 68.746C37.9397 68.842 37.7104 68.922 37.4544 68.986C37.209 69.0393 36.937 69.066 36.6384 69.066C36.009 69.066 35.4437 68.954 34.9424 68.73C34.441 68.4953 34.0464 68.1433 33.7584 67.674C33.4704 67.2047 33.3264 66.6127 33.3264 65.898C33.3264 65.2687 33.4704 64.7033 33.7584 64.202C34.0464 63.69 34.4677 63.2847 35.0224 62.986C35.577 62.6767 36.2437 62.522 37.0224 62.522C37.8437 62.522 38.5477 62.7087 39.1344 63.082C39.7317 63.4447 40.1904 63.9833 40.5104 64.698C40.841 65.4127 41.0064 66.298 41.0064 67.354C41.0064 68.57 40.8144 69.5727 40.4304 70.362C40.057 71.1513 39.5344 71.7433 38.8624 72.138C38.1904 72.522 37.4117 72.714 36.5264 72.714C35.737 72.714 35.097 72.602 34.6064 72.378C34.1264 72.154 33.8864 71.8287 33.8864 71.402ZM37.1504 67.274C37.4384 67.274 37.7104 67.21 37.9664 67.082C38.233 66.9433 38.4357 66.778 38.5744 66.586V66.474C38.5744 65.8127 38.441 65.306 38.1744 64.954C37.9077 64.5913 37.5184 64.41 37.0064 64.41C36.601 64.41 36.2757 64.538 36.0304 64.794C35.7957 65.05 35.6784 65.402 35.6784 65.85C35.6784 66.3087 35.817 66.6607 36.0944 66.906C36.3824 67.1513 36.7344 67.274 37.1504 67.274Z" fill="black"/>
<path d="M67.0503 18.131L6.71376 78.4675" stroke="black" stroke-width="3" stroke-linecap="round"/>
<path d="M6.71382 18.131L67.0503 78.4675" stroke="black" stroke-width="3" stroke-linecap="round"/>
<rect x="0.652664" y="39.4635" width="18" height="18" rx="6" fill="#CEF6FE"/>
<rect x="55.3473" y="39.4635" width="18" height="18" rx="6" fill="#CEF6FE"/>
</svg>
