<svg width="268" height="243" viewBox="0 0 268 243" fill="none" xmlns="http://www.w3.org/2000/svg">
<path d="M62.8728 64.5969C60.4775 64.9273 61.6063 71.067 61.8633 72.2693C62.4415 74.9307 63.6529 77.6748 63.5336 80.4372C63.565 81.0045 63.4405 81.5695 63.1736 82.0711C62.9066 82.5726 62.5074 82.9915 62.0193 83.2822C58.2107 85.2278 52.1352 79.4919 48.2531 81.2999C43.591 83.4566 44.3527 90.3764 44.7473 94.3778C45.8082 104.426 48.9727 114.138 54.0349 122.883C55.4808 125.206 56.5321 127.752 57.1461 130.418C57.7702 133.666 54.0074 134.704 51.6396 135.456C46.3075 137.145 44.628 140.632 45.0135 145.937C45.0135 145.937 45.0135 145.992 45.0135 146.019C45.2271 150.075 46.1852 154.057 47.8401 157.766C48.8817 159.853 50.0367 161.881 51.3001 163.842C51.9976 164.879 57.2379 166.485 56.8065 164.081C56.4853 162.364 55.0536 159.675 54.3286 158.097C53.4659 156.179 50.7402 148.828 50.8137 146.717C51.0706 138.292 57.1369 142.816 61.0098 139.375C65.5985 135.263 62.0193 127.967 60.0921 123.553C55.7603 113.806 50.7861 104.225 49.9234 93.4233C49.7583 91.4135 49.7766 88.183 52.2545 87.3662C53.1722 87.0633 55.0812 87.6323 56.0356 87.7975C57.3847 88.0453 58.7063 88.4124 60.0278 88.7703C62.1478 89.3485 64.9286 90.3489 67.0302 89.2017C72.9221 85.9896 67.8378 74.325 66.5346 69.8373C66.1675 68.5432 64.9745 64.7162 63.295 64.6061L62.8728 64.5969Z" fill="#FFF200"/>
<g style="mix-blend-mode:multiply" opacity="0.5">
<path d="M66.0939 73.8203C66.718 76.9498 67.8101 80.9328 67.0117 84.1174C65.5708 89.7156 59.8991 87.1551 56.1915 85.8519C54.4202 85.2278 52.2084 84.6038 50.4647 85.65C49.6486 86.1365 48.9542 86.8026 48.4341 87.5977C47.9141 88.3928 47.5822 89.2961 47.4637 90.2387C46.8947 94.2493 48.1887 98.3057 49.2992 102.105C50.646 107.045 52.3137 111.892 54.2917 116.615C55.6041 119.57 56.9991 122.488 58.2931 125.443C59.3156 127.477 60.1127 129.615 60.6701 131.822C61.4777 135.75 59.1282 138.246 55.4389 138.989C52.9702 139.512 49.1156 139.669 48.4457 142.77C48.1418 144.802 48.412 146.878 49.2258 148.763C50.8318 153.196 53.8145 157.197 55.0167 161.74C55.6867 164.31 54.1632 164.833 52.4103 164.604C54.1449 165.393 57.0633 165.87 56.7237 164.053C56.3842 162.236 54.9709 159.648 54.2458 158.069C53.3832 156.151 50.6574 148.8 50.7309 146.689C50.9878 138.264 57.0541 142.789 60.927 139.347C65.5158 135.236 61.9365 127.94 60.0093 123.525C55.6775 113.779 50.7033 104.198 49.8406 93.3958C49.6755 91.3859 49.6938 88.1554 52.1717 87.3386C53.0895 87.0358 54.9984 87.6048 55.9528 87.77C57.3019 88.0178 58.6235 88.3849 59.945 88.7428C62.065 89.321 64.8458 90.3213 66.9474 89.1741C72.8394 85.962 67.755 74.2975 66.4518 69.8097C66.1398 68.6992 65.2221 65.7624 63.9189 64.8539C65.0844 67.6622 65.5341 70.9936 66.0939 73.8203Z" fill="#F7D12A"/>
</g>
<path d="M202.893 130.922C198.809 130.271 194.78 130.922 191.724 133.832C188.283 137.108 186.741 142.642 184.878 146.864C183.382 150.278 181.299 160.134 176.15 159.318C173.984 158.969 172.562 157.17 170.708 156.243C167.185 154.363 163.065 153.944 159.236 155.078C150.361 158.069 146.663 169.706 145.874 178.076C145.497 181.995 145.167 186.088 143.543 189.722C142.772 191.429 141.909 194.063 139.872 194.697C137.834 195.33 136.026 193.292 134.824 191.943C131.639 188.272 127.978 185.914 122.948 185.978C120.58 186.042 118.275 186.762 116.292 188.058C114.308 189.354 112.724 191.176 111.715 193.32C110.21 196.339 108.595 200.763 109.981 203.993C110.641 205.517 112.403 206.499 113.89 207.251C114.707 207.674 117.304 208.527 118.167 207.848C119.03 207.169 118.8 204.654 118.984 203.562C119.443 200.809 119.397 197.477 121.324 195.229C121.849 194.658 122.503 194.222 123.23 193.955C123.958 193.688 124.74 193.6 125.509 193.696C129.556 193.999 131.649 199.331 135.237 200.855C141.523 203.534 147.342 200.478 151.252 195.348C155.629 189.621 156.005 182.812 156.85 175.975C157.382 171.652 159.126 166.43 161.815 162.988C165.376 158.4 168.881 161.722 172.828 163.576C176.031 165.099 180.381 165.898 183.731 164.494C187.282 163.053 189.347 159.602 190.917 156.289C191.834 154.453 192.541 152.554 193.358 150.682C194.799 147.378 196.111 144.046 197.295 140.641C198.69 136.704 200.718 134.593 204.637 133.354C207.161 132.584 204.04 131.106 202.893 130.922Z" fill="#FFC709"/>
<g style="mix-blend-mode:multiply" opacity="0.5">
<path d="M201.498 132.877C196.909 134.199 194.156 138.622 192.091 142.642C190.026 146.662 188.54 151.388 186.135 155.371C184.052 158.831 180.831 161.694 176.508 161.08C172.709 160.547 169.506 158.033 165.724 157.528C160.044 156.748 156.4 161.841 155.014 166.705C154.445 168.715 153.987 170.753 153.555 172.79L153.06 175.543C151.784 182.555 150.499 193.696 142.836 196.918C138.899 198.569 135.209 196.752 132.181 194.164C130.3 192.54 128.299 190.493 125.757 189.952C122.086 189.172 119.388 190.75 117.717 194.017C116.552 196.303 115.808 198.753 114.771 201.093C114.12 202.562 113.349 204.103 111.88 204.865C111.551 205.037 111.193 205.149 110.825 205.196C111.735 206.043 112.777 206.737 113.909 207.251C114.725 207.673 117.323 208.527 118.185 207.848C119.048 207.169 118.819 204.654 119.002 203.562C119.461 200.809 119.415 197.477 121.342 195.229C121.867 194.658 122.521 194.222 123.249 193.955C123.977 193.688 124.758 193.6 125.527 193.696C129.574 193.999 131.667 199.331 135.255 200.855C141.542 203.534 147.36 200.478 151.27 195.348C155.648 189.621 156.024 182.812 156.868 175.975C157.401 171.652 159.144 166.43 161.833 162.988C165.394 158.4 168.9 161.722 172.846 163.576C176.049 165.099 180.399 165.898 183.749 164.494C187.301 163.053 189.366 159.602 190.935 156.289C191.853 154.453 192.559 152.554 193.376 150.681C194.817 147.378 196.129 144.046 197.313 140.641C198.708 136.704 200.736 134.593 204.655 133.354C205.021 133.296 205.35 133.099 205.573 132.804C204.23 132.491 202.83 132.517 201.498 132.877Z" fill="#FFC709"/>
</g>
<path d="M152.316 111.081L156.767 114.541L158.135 109.75L152.316 111.081Z" fill="#FEEB00"/>
<path d="M156.446 112.191C155.198 111.888 153.867 111.686 152.619 111.273L156.767 114.504L157.373 112.366L156.446 112.191Z" fill="#F6C11C"/>
<path d="M199.461 61.8895L199.58 69.6995L204.463 67.3868L199.461 61.8895Z" fill="#FEEB00"/>
<path d="M199.957 62.4402C199.957 62.6146 200.021 62.7889 200.067 62.9633C200.457 63.9517 200.764 64.9709 200.984 66.0102C201.26 66.928 201.553 67.7723 201.902 68.6441L204.554 67.3868L199.957 62.4402Z" fill="#F6C41B"/>
<path d="M222.175 59.2556L224.983 62.8715L231.784 60.6139L229.811 57.2457C227.166 57.4579 224.581 58.1385 222.175 59.2556Z" fill="#CBDB2A"/>
<path d="M201.03 80.9144L205.692 82.0891C205.692 82.0891 199.534 97.9661 187.053 104.941L181.923 102.068C181.923 102.068 191.66 98.3975 201.03 80.9144Z" fill="#6F3092"/>
<g style="mix-blend-mode:screen">
<path d="M196.148 91.7989C198.259 88.8529 200.893 85.0993 202.159 81.2081L201.003 80.9144C191.633 98.3975 181.895 102.068 181.895 102.068L184.217 103.307C188.901 100.279 192.952 96.3704 196.148 91.7989Z" fill="#6F3092"/>
</g>
<path d="M121.875 125.866C124.8 118.012 130.568 111.543 138.036 107.74L135.228 102.913C135.228 102.913 124.316 108.043 118.103 123.424L121.875 125.866Z" fill="#20C4F4"/>
<path d="M127.436 112.173C129.657 109.732 132.851 106.373 136.348 104.831L135.228 102.904C135.228 102.904 124.316 108.034 118.103 123.415L120.232 124.792C121.655 120.098 124.117 115.784 127.436 112.173Z" fill="#97DAF8"/>
<path d="M174.553 69.1122C174.553 69.1122 176.159 54.2539 172.947 47.4259L177.536 47.7012C177.536 47.7012 181.583 57.9892 178.858 68.3689L174.553 69.1122Z" fill="#E9008C"/>
<g style="mix-blend-mode:screen">
<path d="M177.288 57.1999C177.125 53.9017 176.444 50.6498 175.269 47.5636L172.947 47.4259C176.159 54.2539 174.553 69.1122 174.553 69.1122L175.994 68.8553C177.239 65.104 177.68 61.1328 177.288 57.1999Z" fill="#EA69A6"/>
</g>
<path d="M192.302 36.6791L200.516 41.378L207.418 29.0251L198.727 22.2246L192.302 36.6791Z" fill="#6F3092"/>
<g style="mix-blend-mode:screen">
<path d="M199.938 29.952C200.709 28.3093 201.535 26.6849 202.352 25.0604L198.681 22.2246L192.256 36.6791L196.203 38.9276C197.423 35.9174 198.57 32.8888 199.938 29.952Z" fill="#6F3092"/>
</g>
<path d="M138.954 33.3935C139.303 33.6963 142.946 39.9737 142.946 39.9737L148.287 39.3497L144.552 30.3374L138.954 33.3935Z" fill="#E61E26"/>
<g style="mix-blend-mode:screen">
<path d="M142.836 39.7811C143.029 38.2851 143.231 36.7984 143.423 35.3025C143.616 33.8065 143.689 32.2188 143.91 30.7137L138.954 33.467C139.248 33.6689 142.221 38.7348 142.836 39.7811Z" fill="#E61E26"/>
</g>
<path d="M120.48 33.7882L123.692 39.8086L126.812 39.8728L125.335 31.2277L120.48 33.7882Z" fill="#CBDB2A"/>
<g style="mix-blend-mode:screen">
<path d="M225.341 60.0174C227.123 59.3374 229.024 59.0253 230.93 59.0996L229.811 57.1815C227.163 57.414 224.577 58.1163 222.175 59.2556L223.506 60.9718C224.074 60.5768 224.691 60.2561 225.341 60.0174Z" fill="#CBDB2A"/>
</g>
<g style="mix-blend-mode:screen">
<path d="M123.123 32.3932L120.48 33.7882L123.692 39.8086H124.683C124.068 37.3765 123.646 34.8803 123.123 32.3932Z" fill="#CBDB2A"/>
</g>
<path d="M153.647 51.207L156.887 58.4847L159.888 58.1635L157.703 50.0507L153.647 51.207Z" fill="#20C4F4"/>
<path d="M155.427 50.7021L153.647 51.2069L156.887 58.4846L158.052 58.3561C157.513 55.7017 156.631 53.1287 155.427 50.7021Z" fill="#97DAF8"/>
<path d="M108.687 44.3881L111.128 52.0512L115.974 47.1505L108.687 44.3881Z" fill="#E9008C"/>
<g style="mix-blend-mode:screen">
<path d="M108.797 44.7552L111.128 52.0513L113.743 49.4082C111.983 47.98 110.33 46.4249 108.797 44.7552Z" fill="#EA69A6"/>
</g>
<path d="M83.1274 61.0911L88.9826 58.2369C88.9826 58.2369 98.4538 72.7924 95.6547 81.2815L92.1213 82.1993C92.1213 82.1993 89.6893 70.03 83.1274 61.0911Z" fill="#6F3092"/>
<g style="mix-blend-mode:screen">
<path d="M94.1496 81.6762C92.8831 73.958 89.7169 66.6894 85.7797 59.8339L83.1274 61.0912C89.6893 69.9933 92.1213 82.1443 92.1213 82.1443L94.1496 81.6762Z" fill="#6F3092"/>
</g>
<path d="M35.0745 62.9725L37.7635 58.705L41.9392 64.0279L39.7274 65.7716L35.0745 62.9725Z" fill="#20C4F4"/>
<path d="M40.2045 65.3861C39.2868 63.2569 38.4333 61.0635 37.6716 58.8425L35.0652 62.9724L39.7273 65.7256L40.2045 65.3861Z" fill="#97DAF8"/>
<path d="M17.7288 108.483L22.8773 105.216C22.8773 105.216 29.7145 116.853 29.8797 121.671L26.0527 124.113C26.0527 124.113 21.207 111.2 17.7288 108.483Z" fill="#E9008C"/>
<g style="mix-blend-mode:screen">
<path d="M28.5031 122.58C27.676 119.519 26.4608 116.577 24.8872 113.825C23.6666 111.549 22.3175 108.786 20.4637 106.776L17.7104 108.511C21.1887 111.264 26.0344 124.113 26.0344 124.113L28.5031 122.58Z" fill="#EA69A6"/>
</g>
<path d="M2.74205 140.898L0.778076 144.725L7.16559 147.699L7.99156 144.22L2.74205 140.898Z" fill="#CBDB2A"/>
<g style="mix-blend-mode:screen">
<path d="M7.606 145.845L7.99147 144.22L2.74196 140.898L1.82422 142.651C3.83834 143.55 5.77253 144.619 7.606 145.845Z" fill="#CBDB2A"/>
</g>
<path d="M98.7935 144.624L101.326 150.636L103.795 144.377L98.7935 144.624Z" fill="#E9008C"/>
<g style="mix-blend-mode:screen">
<path d="M101.262 147.726C101.262 146.643 101.336 145.57 101.418 144.496L98.7842 144.624L101.152 150.223C101.198 149.397 101.271 148.552 101.262 147.726Z" fill="#EA69A6"/>
</g>
<path d="M78.7773 148.598L85.3392 149.947L83.8525 160.52L79.2087 160.465L78.7773 148.598Z" fill="#CBDB2A"/>
<g style="mix-blend-mode:screen">
<path d="M81.4296 156.711C81.5305 154.196 81.347 151.663 81.4755 149.149L78.7957 148.589L79.2362 160.465H81.3929C81.3562 159.207 81.347 157.941 81.4296 156.711Z" fill="#CBDB2A"/>
</g>
<path d="M94.48 202.158L97.894 201.837C97.894 201.837 97.8297 205.508 96.3797 206.691L95.104 206.352C95.3215 204.923 95.104 203.462 94.48 202.158Z" fill="#20C4F4"/>
<g style="mix-blend-mode:screen">
<path d="M96.1685 205.306C96.4459 204.218 96.5083 203.086 96.3521 201.974L94.5166 202.158C95.1407 203.462 95.3581 204.923 95.1407 206.352L95.9942 206.581C96.0401 206.15 96.1135 205.709 96.1685 205.306Z" fill="#20C4F4"/>
</g>
<path d="M91.3872 183.041L95.0581 186.538C95.0581 186.538 93.1033 192.962 89.1754 193.246C85.2474 193.531 80.9157 189.621 80.7872 194.504L78.5112 192.879C78.5112 192.879 77.3181 189.208 78.8508 186.776C80.3834 184.344 82.7879 185.969 85.8073 188.089C88.8266 190.209 90.1849 189.218 91.3872 183.041Z" fill="#E61E26"/>
<g style="mix-blend-mode:screen">
<path d="M83.3843 189.63C86.9635 191.347 90.5152 191.301 91.0475 186.584C91.13 185.803 91.1576 185.018 91.1301 184.234C89.9921 189.337 88.6063 190.053 85.798 188.089C82.7786 185.969 80.3741 184.363 78.8415 186.776C77.3088 189.19 78.5019 192.879 78.5019 192.879L78.5937 192.944C79.025 190.365 79.952 187.988 83.3843 189.63Z" fill="#E61E26"/>
</g>
<path d="M143.139 217.347C142.891 217.429 143.442 221.174 143.442 221.174C143.442 221.174 153.115 219.76 156.483 221.091L157.107 216.796C152.479 215.794 147.673 215.983 143.139 217.347Z" fill="#E9008C"/>
<g style="mix-blend-mode:screen">
<path d="M156.804 218.833L157.107 216.796C152.479 215.794 147.673 215.983 143.139 217.347C143.041 218.015 143.063 218.695 143.203 219.356C147.507 218.347 152.426 217.796 156.804 218.833Z" fill="#EA69A6"/>
</g>
<path d="M233.362 165.246C233.362 165.246 241.494 163.594 244.981 164.42L244.687 159.896L232.968 159.942L233.362 165.246Z" fill="#CBDB2A"/>
<g style="mix-blend-mode:screen">
<path d="M240.512 161.951C241.972 161.988 243.426 162.166 244.853 162.484L244.687 159.896L232.968 159.942L233.16 162.594C235.577 162.093 238.045 161.878 240.512 161.951Z" fill="#CBDB2A"/>
</g>
<path d="M242.081 146.047C242.081 146.047 254.93 140.54 264.63 140.375L262.859 135.364C262.859 135.364 247.487 138.576 240.631 143.56L242.081 146.047Z" fill="#E9008C"/>
<g style="mix-blend-mode:screen">
<path d="M255.131 139.88C257.361 139.421 259.784 138.42 262.079 138.374C262.691 138.364 263.304 138.388 263.914 138.448L262.822 135.364C262.822 135.364 247.45 138.576 240.594 143.56L241.319 144.808C245.137 141.981 250.662 140.825 255.131 139.88Z" fill="#EA69A6"/>
</g>
<path d="M129.63 67.4235C128.957 67.1324 128.221 67.02 127.493 67.0971C126.765 67.1743 126.068 67.4385 125.472 67.8641C124.57 68.5244 123.963 69.5134 123.784 70.6173C123.672 71.3372 123.748 72.0736 124.004 72.7556C124.246 73.4064 124.65 73.9845 125.179 74.4351C125.317 74.5992 125.467 74.7526 125.628 74.894L125.683 74.9491C126.348 75.5351 127.202 75.8611 128.088 75.8668H128.161C128.323 75.8761 128.486 75.8761 128.648 75.8668H128.868H128.951C129.175 75.824 129.396 75.7626 129.611 75.6833H129.685H129.776L129.923 75.619L130.116 75.5272L130.382 75.3804C130.775 75.1327 131.126 74.8228 131.419 74.4626C131.617 74.2118 131.784 73.9375 131.915 73.6459C132.005 73.4618 132.081 73.2717 132.144 73.0768C132.493 72.1694 132.473 71.1616 132.089 70.2686L131.869 69.7638C131.452 68.7245 130.649 67.8863 129.63 67.4235Z" fill="#CDEC25"/>
<g style="mix-blend-mode:screen">
<path d="M125.628 74.8573L125.683 74.9124C126.071 75.2767 126.55 75.5303 127.069 75.6466C127.069 72.8199 127.069 70.0025 126.941 67.1666C126.412 67.2975 125.914 67.528 125.472 67.8458C124.57 68.5061 123.963 69.4951 123.784 70.599C123.672 71.3189 123.748 72.0553 124.004 72.7373C124.246 73.3881 124.65 73.9662 125.179 74.4168C125.317 74.5745 125.468 74.7218 125.628 74.8573Z" fill="#CBDB2A"/>
</g>
<path d="M126.161 173.295L125.885 173.047C125.435 172.69 124.88 172.49 124.305 172.477C123.731 172.463 123.167 172.638 122.701 172.973C122.24 173.315 121.902 173.796 121.736 174.345C121.571 174.894 121.587 175.481 121.783 176.02C121.783 176.14 121.866 176.259 121.902 176.369C122.053 176.758 122.291 177.108 122.597 177.392C122.904 177.676 123.271 177.886 123.67 178.008C124.07 178.129 124.492 178.157 124.904 178.091C125.317 178.025 125.709 177.866 126.051 177.626C126.342 177.417 126.588 177.152 126.776 176.846C126.963 176.54 127.088 176.2 127.143 175.846C127.215 175.372 127.163 174.887 126.991 174.44C126.818 173.992 126.532 173.598 126.161 173.295Z" fill="#6F3092"/>
<g style="mix-blend-mode:screen">
<path d="M124.628 172.505C123.95 172.417 123.263 172.584 122.701 172.974C122.24 173.315 121.902 173.796 121.736 174.345C121.571 174.894 121.587 175.481 121.783 176.02C121.783 176.14 121.866 176.259 121.902 176.369C122.031 176.731 122.238 177.06 122.51 177.331C122.781 177.603 123.11 177.81 123.472 177.939C123.802 176.112 124.178 174.295 124.628 172.505Z" fill="#6F3092"/>
</g>
<path d="M28.2923 148.029L29.3752 144.698L31.3576 147.589H34.8634L32.725 150.36L33.808 153.692L30.5041 152.526L27.6682 154.582L27.7692 151.085L24.9333 149.02L28.2923 148.029Z" fill="#6F3092"/>
<g style="mix-blend-mode:screen">
<path d="M30.3756 152.618C30.2746 152.003 30.1829 151.379 30.0911 150.782C29.8158 148.846 29.7882 146.818 29.4854 144.881L29.3752 144.707L28.2923 148.038L24.9333 149.029L27.76 151.094L27.6682 154.591L30.3756 152.618Z" fill="#6F3092"/>
</g>
<path d="M148.673 138.347L152.417 137.337L150.94 140.926L153.05 144.175L149.187 143.872L146.755 146.882L145.846 143.119L142.221 141.733L145.525 139.705L145.718 135.841L148.673 138.347Z" fill="#E61E26"/>
<g style="mix-blend-mode:screen">
<path d="M148.921 144.202C148.232 142.458 147.516 140.715 146.81 138.971C146.535 138.274 146.066 137.42 145.681 136.53L145.525 139.705L142.212 141.733L145.883 143.119L146.801 146.882L148.921 144.202Z" fill="#E61E26"/>
</g>
<path d="M110.642 96.048L114.505 93.304L114.322 98.0487L118.13 100.875L113.569 102.169L112.055 106.657L109.412 102.729L104.667 102.665L107.595 98.9389L106.19 94.4144L110.642 96.048Z" fill="#E9008C"/>
<g style="mix-blend-mode:screen">
<path d="M106.209 94.4327L107.622 98.9572L104.694 102.683L109.439 102.748L112.073 106.675L113.596 102.188H113.679C112.881 101.334 107.301 95.4881 106.209 94.4327Z" fill="#EA69A6"/>
</g>
<path d="M204.655 181.922L210.373 180.582L207.959 185.941L211.006 190.961L205.16 190.319L201.324 194.77L200.122 189.016L194.707 186.74L199.81 183.821L200.305 177.966L204.655 181.922Z" fill="#20C4F4"/>
<path d="M205.022 190.493C204.692 189.64 200.663 179.903 200.287 178.113L199.81 183.83L194.707 186.749L200.122 189.025L201.315 194.779L205.022 190.493Z" fill="#97DAF8"/>
<path opacity="0.7" d="M62.0009 65.9368C61.4686 68.1853 62.0926 70.966 62.4597 73.2053C62.9278 75.9586 64.1851 78.7118 64.0107 81.566C64.0107 81.7128 64.2126 81.7954 64.2677 81.6486C65.1212 79.4552 64.4788 77.2159 63.9373 75.0225C63.1616 72.0356 62.567 69.0046 62.1569 65.946C62.1523 65.9294 62.1426 65.9146 62.1292 65.9038C62.1158 65.893 62.0994 65.8867 62.0822 65.8856C62.065 65.8846 62.0479 65.889 62.0333 65.8982C62.0188 65.9074 62.0074 65.9209 62.0009 65.9368Z" fill="white"/>
<path opacity="0.7" d="M47.0417 83.117C44.8666 85.6132 44.5362 89.7798 44.7473 92.9277C45.1349 96.9351 45.8782 100.9 46.9682 104.776C48.0151 108.767 49.5146 112.625 51.4377 116.275C53.1906 119.735 54.7415 123.25 56.7147 126.591C56.7698 126.692 56.9258 126.591 56.8891 126.499C54.5855 119.79 50.6943 113.724 48.5835 106.932C47.454 103.088 46.5651 99.177 45.922 95.222C45.1511 90.9362 45.922 87.3202 47.2527 83.2913C47.2759 83.2634 47.2869 83.2273 47.2835 83.1912C47.28 83.155 47.2624 83.1217 47.2344 83.0986C47.2064 83.0755 47.1704 83.0644 47.1342 83.0679C47.0981 83.0713 47.0648 83.089 47.0417 83.117Z" fill="white"/>
<path opacity="0.7" d="M49.3728 137.145C47.7479 138.168 46.5085 139.701 45.8487 141.504C45.2272 143.785 45.0927 146.17 45.454 148.506C45.9299 151.055 46.7062 153.538 47.7668 155.903C48.7223 158.449 50.1517 160.791 51.9792 162.805C52.0343 162.869 52.1444 162.805 52.0893 162.722C49.2535 159.106 47.6199 154.545 46.4452 150.149C45.8599 147.655 45.7726 145.069 46.1882 142.541C46.4544 140.283 48.0237 138.87 49.4921 137.264C49.5564 137.191 49.4462 137.09 49.3728 137.145Z" fill="white"/>
<g opacity="0.5">
<path d="M201.939 131.455C196.267 129.995 191.339 133.731 189.09 138.797C187.769 141.761 186.778 144.881 185.484 147.864C184.107 150.97 182.575 154.006 180.895 156.959C180.831 157.069 180.996 157.142 181.069 157.069C182.82 155.066 184.247 152.803 185.3 150.36C186.631 147.607 187.916 144.854 189.044 142.1C190.238 139.099 191.256 136.392 193.909 134.327C196.396 132.382 198.91 131.95 201.966 131.748C202.095 131.757 202.076 131.491 201.939 131.455Z" fill="white"/>
<path d="M164.88 154.894C159.282 153.802 153.867 158.656 151.353 163.153C149.907 165.824 148.876 168.699 148.297 171.679C147.691 174.497 147.773 177.36 147.379 180.205C147.375 180.271 147.396 180.336 147.437 180.387C147.479 180.439 147.538 180.473 147.603 180.483C147.668 180.493 147.735 180.479 147.79 180.443C147.845 180.407 147.885 180.352 147.902 180.288C148.368 178.039 148.705 175.765 148.911 173.478C149.373 170.812 150.156 168.211 151.243 165.732C153.519 160.29 158.777 155.417 164.889 155.114C165 155.114 165 154.921 164.88 154.894Z" fill="white"/>
<path d="M128.382 187.896C127.321 187.225 126.139 186.771 124.902 186.56C123.666 186.349 122.4 186.385 121.177 186.666C115.386 188.373 111.954 194.531 111.082 200.111C111.075 200.138 111.078 200.166 111.092 200.191C111.106 200.215 111.129 200.232 111.155 200.24C111.182 200.247 111.211 200.243 111.235 200.229C111.259 200.216 111.277 200.193 111.284 200.166C113.046 195.311 115.873 189.75 121.104 187.914C125.986 186.207 131.713 190.842 134.87 194.054C134.98 194.164 135.155 193.981 135.063 193.861C133.202 191.497 130.941 189.478 128.382 187.896Z" fill="white"/>
</g>
<path d="M242.76 65.6799C241.725 65.9776 240.71 66.3425 239.722 66.772C238.346 67.3501 238.089 67.8274 238.924 69.2132C240.759 72.2509 243.577 74.7196 244.495 78.253C245.216 80.7405 245.123 83.3937 244.229 85.8244C242.898 89.2292 240.328 92.4046 236.731 93.4967C231.426 95.1028 227.14 96.5528 223.781 101.279C222.617 103.105 222.049 105.247 222.157 107.41C222.171 108.585 222.334 109.754 222.643 110.888C222.758 111.66 223.043 112.397 223.478 113.045C224.212 113.861 224.956 113.302 225.864 113.228C227.094 113.136 228.324 113.687 229.535 113.522C231.371 113.283 231.004 111.475 230.866 110.09C230.729 108.939 230.819 107.773 231.132 106.657C231.774 104.847 232.879 103.237 234.335 101.986C238.639 97.8101 245.348 98.2048 250.13 94.7081C253.874 91.9549 256.279 85.5307 255.517 81.0154C254.599 75.619 252.901 69.4151 248.175 66.102C246.624 64.9732 244.632 65.12 242.76 65.6799Z" fill="#FBAB1B"/>
<g style="mix-blend-mode:multiply" opacity="0.5">
<path d="M248.175 66.0562C246.633 64.9732 244.632 65.1384 242.76 65.634L242.439 65.7258C251.543 67.5613 256.756 83.2455 250.579 90.3764C247.486 93.9556 243.237 94.7174 238.924 95.9655C236.29 96.7272 233.417 97.7 231.665 99.8934C229.912 102.087 229.563 104.354 229.425 107.153C229.425 107.575 229.425 108.006 229.48 108.428C229.574 109.343 229.605 110.263 229.572 111.182C229.536 111.995 229.3 112.786 228.884 113.485C229.107 113.508 229.331 113.508 229.554 113.485C231.389 113.247 231.022 111.439 230.884 110.053C230.747 108.902 230.838 107.736 231.151 106.621C231.793 104.811 232.897 103.2 234.354 101.949C238.658 97.7734 245.367 98.1681 250.148 94.6715C253.892 91.9182 256.297 85.494 255.535 80.9787C254.617 75.5732 252.92 69.3509 248.175 66.0562Z" fill="#FBAB1B"/>
</g>
<path opacity="0.5" d="M244.228 87.926C242.364 90.6899 239.741 92.8569 236.675 94.1667C234.096 95.1946 231.059 95.424 228.682 96.8649C224.598 99.3428 222.056 103.821 223.175 108.621C223.175 108.685 223.285 108.621 223.285 108.621C223.115 105.678 224.059 102.779 225.929 100.499C227.783 98.4754 230.237 97.0989 232.931 96.5712C237.896 95.2772 242.402 93.0562 244.375 88.0453C244.43 87.926 244.293 87.8342 244.228 87.926Z" fill="white"/>
<path opacity="0.5" d="M19.6836 109.576C19.666 109.561 19.644 109.553 19.6213 109.553C19.5986 109.553 19.5765 109.56 19.5584 109.574C19.5404 109.588 19.5275 109.607 19.5219 109.629C19.5163 109.651 19.5183 109.674 19.5275 109.695C22.0054 113.981 23.639 118.661 25.8416 123.085C25.9426 123.268 26.2638 123.232 26.2179 123.002C25.6304 120.589 24.7034 118.272 23.4647 116.119C22.4123 113.824 21.1464 111.633 19.6836 109.576Z" fill="white"/>
<path opacity="0.5" d="M85.2934 63.2661C86.4956 66.1203 87.9548 68.8552 89.1663 71.7094C90.2821 74.4251 91.2262 77.2083 91.9929 80.0425C91.9929 80.1893 92.2499 80.1251 92.2407 79.9783C91.9929 73.8569 88.2577 68.4881 85.4769 63.2019C85.4219 63.0917 85.2383 63.1468 85.2934 63.2661Z" fill="white"/>
<path opacity="0.5" d="M124.729 69.2132C123.306 70.8743 124.288 73.9487 126.289 74.7197C126.312 74.7311 126.338 74.7333 126.363 74.7259C126.387 74.7185 126.408 74.702 126.421 74.6798C126.434 74.6576 126.438 74.6313 126.432 74.6064C126.426 74.5814 126.411 74.5595 126.39 74.5453C125.605 73.8275 125.06 72.8854 124.83 71.8471C124.739 71.0077 124.801 70.1589 125.013 69.3417C125.03 69.3039 125.032 69.261 125.017 69.2223C125.002 69.1835 124.973 69.1522 124.935 69.1352C124.898 69.1181 124.855 69.1168 124.816 69.1314C124.777 69.146 124.746 69.1755 124.729 69.2132Z" fill="white"/>
<path opacity="0.5" d="M109.751 46.9487C109.953 47.7287 110.164 48.5088 110.43 49.2706C110.597 50.0333 110.84 50.7774 111.155 51.4915C111.229 51.6292 111.458 51.5374 111.44 51.3814C111.256 49.812 110.44 48.3528 109.944 46.8752C109.88 46.7468 109.724 46.8202 109.751 46.9487Z" fill="white"/>
<path opacity="0.5" d="M121.122 34.2654C121.661 36.0507 122.469 37.7435 123.518 39.2854C123.547 39.3204 123.588 39.3442 123.633 39.3529C123.678 39.3617 123.725 39.3548 123.765 39.3334C123.806 39.312 123.838 39.2774 123.856 39.2353C123.875 39.1933 123.878 39.1462 123.866 39.1019C123.462 38.1014 122.968 37.1399 122.389 36.2293C122.031 35.541 121.719 34.8344 121.324 34.1552C121.251 34.0451 121.085 34.1461 121.122 34.2654Z" fill="white"/>
<path opacity="0.5" d="M140.542 32.9255C139.697 33.3752 139.835 33.8432 140.211 34.5958C140.789 35.7521 141.542 36.8167 142.166 37.9455C142.239 38.0832 142.45 37.9455 142.441 37.8446C142.249 37.1824 141.938 36.5606 141.524 36.0091C141.092 35.2107 140.064 34.0451 140.743 33.2008C140.826 33.0723 140.698 32.8429 140.542 32.9255Z" fill="white"/>
<path opacity="0.5" d="M154.611 52.4552C154.959 53.5381 155.418 54.5935 155.868 55.6306C156.148 56.4235 156.495 57.1911 156.905 57.9249C156.924 57.9517 156.951 57.9714 156.982 57.981C157.013 57.9906 157.047 57.9895 157.077 57.978C157.108 57.9664 157.134 57.945 157.151 57.9171C157.168 57.8892 157.175 57.8564 157.171 57.824C156.759 55.8482 155.954 53.9756 154.803 52.3175C154.739 52.2441 154.574 52.345 154.611 52.4552Z" fill="white"/>
<path opacity="0.5" d="M173.865 48.6005C174.498 51.7117 175.04 54.8045 175.443 57.9524C175.847 61.1002 175.361 64.5051 175.067 67.7447C175.067 67.9558 175.379 68.0843 175.453 67.8548C176.37 65.175 176.242 61.8803 176.141 59.0812C176.045 57.2815 175.824 55.4907 175.48 53.7216C175.196 51.9778 174.443 50.3075 174.039 48.5822C174.021 48.472 173.837 48.4812 173.865 48.6005Z" fill="white"/>
<path opacity="0.5" d="M198.369 24.3812C197.79 26.281 196.708 27.9972 196.01 29.8877C195.248 31.8884 193.78 33.6229 193.147 35.6512C193.064 35.9265 193.431 36.2202 193.615 35.9357C196.003 32.4723 197.673 28.5652 198.525 24.4455C198.534 24.3812 198.396 24.2987 198.369 24.3812Z" fill="white"/>
<path opacity="0.5" d="M199.681 63.257C199.625 65.0947 199.689 66.9342 199.874 68.7635C199.874 68.8073 199.891 68.8493 199.922 68.8803C199.953 68.9113 199.995 68.9287 200.039 68.9287C200.083 68.9287 200.125 68.9113 200.156 68.8803C200.187 68.8493 200.204 68.8073 200.204 68.7635C200.319 67.9415 200.319 67.1075 200.204 66.2856C200.204 65.2669 199.947 64.2573 199.846 63.2478C199.836 63.235 199.823 63.2249 199.809 63.2182C199.794 63.2115 199.778 63.2085 199.761 63.2094C199.745 63.2103 199.729 63.2151 199.715 63.2234C199.702 63.2317 199.69 63.2432 199.681 63.257Z" fill="white"/>
<path opacity="0.5" d="M228.921 57.6404C227.012 57.2641 225.415 58.4021 223.653 58.8885C223.632 58.8949 223.614 58.9077 223.601 58.9251C223.589 58.9424 223.582 58.9634 223.582 58.9849C223.582 59.0064 223.589 59.0274 223.601 59.0447C223.614 59.062 223.632 59.0748 223.653 59.0812C224.494 59.0204 225.324 58.8508 226.121 58.5765C227.039 58.2553 228.058 58.3562 228.875 57.9983C228.913 57.9893 228.947 57.9689 228.974 57.9397C229 57.9106 229.017 57.8741 229.022 57.8352C229.027 57.7963 229.02 57.7568 229.001 57.722C228.983 57.6872 228.955 57.6587 228.921 57.6404Z" fill="white"/>
<path opacity="0.5" d="M199.911 83.6493C197.92 86.6872 195.776 89.6217 193.486 92.4413C190.968 95.2837 188.287 97.9772 185.456 100.508C185.291 100.664 185.539 100.875 185.704 100.774C188.999 98.7921 191.559 95.7727 194.055 92.9002C196.491 90.1451 198.519 87.0544 200.076 83.7227C200.158 83.6493 199.975 83.53 199.911 83.6493Z" fill="white"/>
<path opacity="0.5" d="M134.54 103.693C131.08 105.134 128.051 108.282 125.748 111.172C124.37 112.936 123.142 114.812 122.077 116.78C121.003 118.725 119.929 120.451 119.681 122.736C119.681 122.929 119.948 123.039 120.021 122.837C121.59 118.834 123.739 115.083 126.399 111.705C127.735 110.033 129.232 108.496 130.869 107.116C131.63 106.455 132.355 105.739 133.172 105.152C133.741 104.832 134.248 104.413 134.668 103.913C134.683 103.905 134.695 103.893 134.705 103.88C134.716 103.867 134.723 103.852 134.727 103.835C134.732 103.819 134.733 103.802 134.73 103.786C134.728 103.769 134.723 103.753 134.714 103.739C134.706 103.724 134.694 103.712 134.681 103.701C134.668 103.691 134.653 103.684 134.636 103.68C134.62 103.675 134.603 103.674 134.587 103.677C134.57 103.679 134.554 103.684 134.54 103.693Z" fill="white"/>
<path opacity="0.5" d="M99.4632 145.524C99.5917 145.918 99.5917 146.341 99.7294 146.735C99.867 147.13 100.023 147.708 100.188 148.185C100.202 148.242 100.237 148.292 100.287 148.323C100.337 148.354 100.397 148.364 100.454 148.35C100.512 148.337 100.561 148.301 100.592 148.252C100.623 148.202 100.633 148.141 100.62 148.084C100.581 147.612 100.482 147.146 100.326 146.698C100.206 146.248 100.062 145.803 99.8946 145.368C99.8727 145.312 99.83 145.267 99.7755 145.243C99.7211 145.218 99.6592 145.216 99.6031 145.236C99.5469 145.256 99.5009 145.298 99.4748 145.352C99.4486 145.405 99.4445 145.467 99.4632 145.524Z" fill="white"/>
<path opacity="0.5" d="M79.4472 149.709C79.4013 152.756 79.4472 155.802 79.539 158.886C79.539 159.161 80.0162 159.18 80.0254 158.886C80.1475 155.826 80.0862 152.761 79.8418 149.709C79.8321 149.664 79.8072 149.623 79.7713 149.594C79.7354 149.565 79.6906 149.55 79.6445 149.55C79.5984 149.55 79.5537 149.565 79.5178 149.594C79.4819 149.623 79.457 149.664 79.4472 149.709Z" fill="white"/>
<path opacity="0.5" d="M90.7356 187.309C90.4749 187.942 90.0594 188.5 89.527 188.932C88.9947 189.363 88.3626 189.654 87.6887 189.777C86.826 189.979 85.7889 189.089 85.1465 188.594C83.9902 187.676 83.311 186.63 81.8702 186.162C79.6951 185.455 78.6581 188.52 78.5112 190.071C78.509 190.113 78.5222 190.155 78.5482 190.188C78.5743 190.221 78.6115 190.244 78.6529 190.252C78.6944 190.259 78.7373 190.252 78.7737 190.231C78.81 190.209 78.8375 190.175 78.8508 190.135C79.1261 188.951 80.0989 185.822 82.2831 187.144C82.8783 187.56 83.4208 188.046 83.8984 188.594C84.6722 189.397 85.5787 190.062 86.5782 190.558C88.5422 191.475 90.6255 189.043 91.121 187.474C91.1358 187.424 91.1319 187.371 91.1099 187.324C91.0879 187.277 91.0495 187.24 91.0019 187.22C90.9543 187.199 90.9009 187.197 90.8518 187.213C90.8027 187.23 90.7613 187.264 90.7356 187.309Z" fill="white"/>
<path opacity="0.5" d="M123.563 172.918C121.801 173.184 121.058 175.873 122.205 177.14C122.258 177.201 122.331 177.242 122.411 177.257C122.491 177.272 122.573 177.259 122.644 177.22C122.716 177.182 122.772 177.12 122.804 177.046C122.836 176.971 122.842 176.888 122.82 176.81C122.569 176.197 122.475 175.531 122.545 174.873C122.605 174.538 122.742 174.222 122.944 173.948C123.146 173.674 123.408 173.451 123.71 173.295C123.746 173.267 123.771 173.228 123.783 173.184C123.795 173.141 123.793 173.094 123.776 173.052C123.76 173.01 123.73 172.974 123.692 172.95C123.654 172.926 123.609 172.915 123.563 172.918Z" fill="white"/>
<path opacity="0.5" d="M262.492 136.521C259.123 136.309 255.544 137.732 252.396 138.668C248.918 139.678 244.697 140.751 241.842 143.082C241.714 143.183 241.842 143.422 241.989 143.349C248.597 140.283 255.563 138.705 262.565 136.924C262.592 136.92 262.617 136.91 262.639 136.895C262.662 136.88 262.682 136.861 262.697 136.839C262.712 136.817 262.723 136.792 262.729 136.766C262.735 136.739 262.735 136.712 262.73 136.686C262.725 136.659 262.715 136.634 262.701 136.611C262.686 136.589 262.667 136.569 262.645 136.554C262.623 136.538 262.598 136.528 262.572 136.522C262.545 136.516 262.518 136.516 262.492 136.521Z" fill="white"/>
<path opacity="0.5" d="M243.274 160.272C241.835 160.055 240.378 159.975 238.924 160.033C237.213 159.894 235.492 160.024 233.821 160.419C233.797 160.419 233.774 160.428 233.756 160.446C233.739 160.463 233.729 160.486 233.729 160.511C233.729 160.535 233.739 160.558 233.756 160.575C233.774 160.593 233.797 160.602 233.821 160.602C236.987 160.428 240.08 160.74 243.228 160.731C243.54 160.731 243.522 160.318 243.274 160.272Z" fill="white"/>
<path opacity="0.5" d="M156.106 217.411C154.546 216.447 152.078 216.328 150.306 216.42C148.214 216.539 145.718 216.594 143.79 217.548C143.689 217.603 143.717 217.778 143.845 217.759C145.61 217.454 147.39 217.249 149.177 217.145C151.49 217.08 153.638 217.695 155.905 217.86C156.125 217.87 156.345 217.558 156.106 217.411Z" fill="white"/>
<path opacity="0.5" d="M35.946 62.33C35.6799 62.275 35.5422 62.7063 35.8084 62.7889C37.0015 63.1744 37.8274 64.2022 38.9562 64.6886C39.0061 64.7191 39.0661 64.7284 39.1229 64.7147C39.1797 64.7009 39.2287 64.6651 39.2591 64.6152C39.2895 64.5653 39.2989 64.5054 39.2851 64.4486C39.2713 64.3918 39.2356 64.3428 39.1857 64.3124C38.2744 63.4089 37.1652 62.7302 35.946 62.33Z" fill="white"/>
<path opacity="0.5" d="M6.23878 143.826C5.27113 142.91 4.19556 142.114 3.03583 141.458C2.98282 141.434 2.92274 141.43 2.86694 141.447C2.81115 141.464 2.76349 141.5 2.73299 141.55C2.70248 141.6 2.69125 141.659 2.70139 141.716C2.71154 141.774 2.74236 141.826 2.78805 141.862C3.87099 142.624 4.82545 143.587 5.98181 144.248C6.2296 144.395 6.44068 144 6.23878 143.826Z" fill="white"/>
<path d="M94.1127 13.6161C92.2772 14.8459 94.2871 17.6542 96.1501 16.4153C98.0131 15.1763 95.9666 12.368 94.1127 13.6161Z" fill="#00B9EF"/>
<path d="M163.109 1.24492C161.273 2.48388 163.292 5.283 165.146 4.05322C167 2.82344 164.944 0.00596476 163.109 1.24492Z" fill="#00B9EF"/>
<path d="M80.1446 116.046C80.0233 115.875 79.8707 115.729 79.6949 115.614C79.4321 115.427 79.128 115.306 78.8086 115.262C78.4891 115.217 78.1635 115.25 77.8594 115.357C77.63 115.439 77.4137 115.553 77.217 115.697V115.743C77.0839 115.844 76.9609 115.958 76.8499 116.082C76.6327 116.345 76.4929 116.663 76.4461 117C76.4002 117.272 76.4142 117.551 76.4871 117.818C76.56 118.084 76.6901 118.331 76.8683 118.542L76.96 118.643L77.0243 118.707C77.1909 118.891 77.3941 119.038 77.6208 119.139C77.9114 119.257 78.2261 119.304 78.5386 119.276C78.7221 119.267 78.9039 119.237 79.08 119.184C79.483 119.024 79.8373 118.762 80.1079 118.423C80.3031 118.195 80.4395 117.923 80.5051 117.63C80.5707 117.337 80.5635 117.033 80.4842 116.743C80.422 116.489 80.3062 116.251 80.1446 116.046Z" fill="#00B9EF"/>
<path d="M164.743 75.0592C163.393 75.977 164.871 77.996 166.22 77.1058C167.569 76.2156 166.092 74.1598 164.743 75.0592Z" fill="#00B9EF"/>
<path d="M170.258 126.168C168.423 127.407 170.433 130.216 172.296 128.977C174.159 127.738 172.121 124.939 170.258 126.168Z" fill="#00B9EF"/>
<path d="M118.571 145.946C117.111 146.919 118.708 149.112 120.158 148.149C121.608 147.185 120.021 144.982 118.571 145.946Z" fill="#00B9EF"/>
<path d="M108.815 221.981C107.044 223.165 108.989 225.836 110.751 224.661C112.514 223.486 110.586 220.779 108.815 221.981Z" fill="#00B9EF"/>
<path d="M70.7285 170.496C70.5134 170.314 70.2561 170.189 69.9803 170.133C69.7045 170.077 69.419 170.091 69.15 170.174C68.8237 170.293 68.5511 170.525 68.3825 170.829C68.2139 171.132 68.1605 171.487 68.2323 171.826C68.2593 172.057 68.3377 172.278 68.4616 172.474C68.5854 172.67 68.7516 172.835 68.948 172.959C69.1443 173.082 69.3658 173.16 69.5961 173.186C69.8264 173.212 70.0597 173.187 70.2788 173.111C70.5303 173.013 70.7521 172.852 70.9226 172.643C71.0931 172.434 71.2065 172.184 71.2517 171.918C71.2991 171.656 71.2755 171.386 71.1836 171.136C71.0916 170.886 70.9345 170.665 70.7285 170.496Z" fill="#00B9EF"/>
<path d="M54.3102 193.889C52.952 194.807 54.4387 196.826 55.7878 195.926C57.1369 195.027 55.6593 192.989 54.3102 193.889Z" fill="#00B9EF"/>
<path d="M7.88146 177.984C6.16528 179.122 8.04668 181.72 9.77204 180.573C11.4974 179.425 9.59764 176.837 7.88146 177.984Z" fill="#00B9EF"/>
<path d="M74.4913 201.754C74.2064 201.866 73.9538 202.047 73.7567 202.281C73.5595 202.515 73.424 202.794 73.3625 203.094C73.3281 203.376 73.3656 203.661 73.4715 203.925C73.5774 204.188 73.7483 204.42 73.9682 204.599C74.2002 204.776 74.4839 204.872 74.7758 204.872C75.0677 204.872 75.3514 204.776 75.5834 204.599C75.7785 204.449 75.9287 204.248 76.0177 204.018C76.1067 203.788 76.131 203.538 76.0882 203.296C76.1543 203.076 76.1587 202.843 76.1009 202.621C76.043 202.399 75.9251 202.197 75.7601 202.038C75.5951 201.879 75.3894 201.768 75.1656 201.718C74.9417 201.668 74.7084 201.68 74.4913 201.754Z" fill="#00B9EF"/>
<path d="M217.614 145.202C215.466 146.634 217.825 149.855 219.963 148.433C222.102 147.01 219.752 143.78 217.614 145.202Z" fill="#00B9EF"/>
<path d="M179.628 211.601C179.337 211.818 179.141 212.14 179.085 212.498C179.028 212.857 179.115 213.224 179.326 213.519L179.555 213.868C179.77 214.162 180.092 214.359 180.452 214.415C180.811 214.472 181.178 214.384 181.473 214.171C181.764 213.955 181.96 213.633 182.018 213.275C182.076 212.917 181.993 212.55 181.785 212.253L181.546 211.904C181.332 211.61 181.009 211.414 180.65 211.357C180.291 211.3 179.923 211.388 179.628 211.601Z" fill="#00B9EF"/>
<path d="M218.458 42.3691C216.861 43.4337 218.614 45.8382 220.211 44.7828C221.808 43.7274 220.055 41.3046 218.458 42.3691Z" fill="#00B9EF"/>
<path d="M267.016 119.827C266.869 119.919 267.016 120.13 267.163 120.038C267.31 119.946 267.154 119.744 267.016 119.827Z" fill="#00B9EF"/>
<path d="M265.897 117.808L265.612 117.514C265.33 117.298 264.985 117.181 264.63 117.181C264.275 117.181 263.93 117.298 263.648 117.514C263.372 117.721 263.167 118.01 263.065 118.339C262.963 118.669 262.968 119.023 263.079 119.35L263.244 119.726C263.339 119.969 263.487 120.187 263.679 120.363C263.87 120.54 264.099 120.671 264.348 120.746C264.598 120.822 264.861 120.839 265.118 120.797C265.375 120.756 265.619 120.656 265.832 120.506C266.192 120.24 266.436 119.846 266.512 119.405C266.546 119.109 266.509 118.808 266.402 118.53C266.294 118.252 266.121 118.004 265.897 117.808Z" fill="#00B9EF"/>
<path d="M31.9814 95.8003C30.1459 97.0393 32.1557 99.8476 34.0188 98.6086C35.8818 97.3696 33.8352 94.5613 31.9814 95.8003Z" fill="#00B9EF"/>
<path d="M82.4391 42.4425C82.2805 42.1657 82.0258 41.9567 81.7233 41.8551H81.659C81.7675 41.9141 81.8691 41.9849 81.9619 42.0662C81.6103 41.7865 81.1768 41.6297 80.7276 41.6198C80.2785 41.6098 79.8384 41.7473 79.4748 42.0111C79.1111 42.2739 78.8434 42.6485 78.7125 43.0777C78.5816 43.5068 78.5947 43.9671 78.7498 44.3881C78.9091 44.8131 79.204 45.1737 79.5889 45.4142C79.9737 45.6548 80.4271 45.7618 80.879 45.7188C81.139 45.6901 81.3913 45.6123 81.6223 45.4894C81.8705 45.4485 82.106 45.3512 82.3106 45.2049C82.4944 45.0737 82.65 44.9071 82.7682 44.7148C82.8864 44.5225 82.9649 44.3084 82.999 44.0852C83.0585 43.6372 82.9507 43.183 82.6961 42.8096C82.6266 42.6767 82.5402 42.5533 82.4391 42.4425Z" fill="#F9CBDF"/>
<path d="M129.363 9.44038C127.271 10.8354 129.565 14.0291 131.658 12.5974C133.75 11.1657 131.456 8.05459 129.363 9.44038Z" fill="#F9CBDF"/>
<path d="M79.0893 94.7266C78.7417 94.6776 78.3874 94.74 78.0774 94.9049C77.7674 95.0698 77.5177 95.3286 77.364 95.6443C77.263 95.8279 77.1621 96.0206 77.0519 96.2042C76.9476 96.4571 76.9012 96.7302 76.916 97.0034C76.9309 97.2766 77.0066 97.5431 77.1377 97.7833C77.2688 98.0234 77.4519 98.2313 77.6737 98.3915C77.8954 98.5518 78.1502 98.6605 78.4194 98.7096C78.6907 98.7473 78.9671 98.7239 79.2282 98.6409C79.4893 98.5579 79.7285 98.4176 79.9283 98.2301C80.128 98.0427 80.2833 97.8129 80.3827 97.5576C80.4821 97.3023 80.5231 97.028 80.5027 96.7548C80.5027 96.5437 80.4568 96.3326 80.4384 96.1307C80.3927 95.7834 80.2371 95.4598 79.9944 95.2072C79.7517 94.9546 79.4345 94.7862 79.0893 94.7266Z" fill="#F9CBDF"/>
<path d="M134.227 54.4925C132.309 55.7682 134.411 58.6499 136.32 57.3834C138.229 56.1169 136.136 53.2169 134.227 54.4925Z" fill="#F9CBDF"/>
<path d="M174.452 15.6535C174.232 15.7507 174.017 15.861 173.81 15.9839C173.57 16.104 173.357 16.2728 173.186 16.4795L173.121 16.5346V16.608C172.81 17.0366 172.681 17.5713 172.764 18.0947C172.778 18.2611 172.815 18.4248 172.874 18.5811C172.953 18.7795 173.061 18.9651 173.195 19.1318L173.287 19.2419C173.325 19.2892 173.368 19.3323 173.415 19.3704C173.453 19.4177 173.496 19.4607 173.544 19.4989L173.626 19.5539C173.95 19.789 174.337 19.9202 174.737 19.9302H175.085C175.255 19.9155 175.421 19.8785 175.581 19.8201C175.911 19.7033 176.209 19.5117 176.453 19.2603C176.75 19.0378 176.987 18.7443 177.141 18.4068C177.357 17.9057 177.374 17.341 177.187 16.8282C176.979 16.3108 176.574 15.8969 176.062 15.6768C175.549 15.4567 174.971 15.4483 174.452 15.6535Z" fill="#F9CBDF"/>
<path d="M194.083 49.4725C191.807 50.9776 194.294 54.3916 196.552 52.8865C198.809 51.3814 196.341 47.9582 194.083 49.4725Z" fill="#F9CBDF"/>
<path d="M222.285 80.8593C220.395 82.1258 222.478 84.98 224.359 83.7227C226.241 82.4654 224.185 79.602 222.285 80.8593Z" fill="#F9CBDF"/>
<path d="M256.086 97.1677C253.883 98.6269 256.297 101.931 258.481 100.472C260.665 99.0124 258.27 95.7085 256.086 97.1677Z" fill="#F9CBDF"/>
<path d="M230.921 133.235C230.492 133.045 230.007 133.027 229.565 133.184C229.123 133.341 228.758 133.662 228.544 134.079C228.438 134.336 228.42 134.62 228.493 134.887C228.566 135.155 228.726 135.391 228.948 135.557C229.195 135.911 229.572 136.154 229.996 136.231C230.421 136.309 230.859 136.215 231.215 135.97C231.438 135.804 231.613 135.583 231.725 135.328C231.836 135.074 231.879 134.795 231.849 134.519C231.819 134.243 231.718 133.979 231.555 133.754C231.393 133.529 231.174 133.35 230.921 133.235Z" fill="#F9CBDF"/>
<path d="M209.272 110.172C208.998 110.132 208.719 110.155 208.455 110.238C208.192 110.322 207.95 110.463 207.749 110.653C207.548 110.843 207.392 111.076 207.293 111.334C207.195 111.592 207.156 111.87 207.179 112.145C207.192 112.629 207.366 113.094 207.675 113.467C207.865 113.72 208.132 113.907 208.435 113.999C208.739 114.092 209.064 114.085 209.364 113.981C209.695 113.85 209.993 113.646 210.235 113.384C210.4 113.172 210.538 112.941 210.648 112.696C210.756 112.441 210.805 112.166 210.791 111.89C210.778 111.614 210.702 111.344 210.569 111.102C210.437 110.859 210.252 110.649 210.027 110.488C209.802 110.327 209.544 110.219 209.272 110.172Z" fill="#F9CBDF"/>
<path d="M179.5 132.427C179.174 132.459 178.863 132.577 178.599 132.769C178.334 132.961 178.126 133.22 177.995 133.52C177.861 133.823 177.809 134.157 177.845 134.487C177.88 134.817 178.002 135.132 178.197 135.401C178.288 135.502 178.38 135.621 178.472 135.731C178.716 136.052 179.055 136.288 179.441 136.403C179.827 136.519 180.24 136.508 180.62 136.374C180.848 136.29 181.057 136.162 181.235 135.997C181.413 135.832 181.557 135.633 181.658 135.412C181.758 135.19 181.814 134.952 181.822 134.709C181.83 134.466 181.789 134.224 181.702 133.997L181.51 133.621C181.342 133.236 181.058 132.914 180.697 132.7C180.336 132.486 179.918 132.391 179.5 132.427Z" fill="#F9CBDF"/>
<path d="M164.1 96.4977H163.917C163.425 96.5053 162.95 96.6818 162.572 96.9976C162.195 97.3133 161.937 97.7492 161.843 98.2322C161.789 98.7233 161.9 99.2181 162.157 99.6397C162.415 100.061 162.804 100.386 163.265 100.563L163.439 100.646C163.745 100.775 164.076 100.834 164.407 100.817C164.738 100.801 165.061 100.71 165.353 100.551C165.644 100.392 165.895 100.17 166.088 99.9001C166.282 99.6305 166.411 99.3207 166.468 98.994C166.512 98.667 166.481 98.3344 166.38 98.0206C166.278 97.7068 166.107 97.4197 165.88 97.1804C165.653 96.941 165.376 96.7555 165.068 96.6374C164.76 96.5193 164.429 96.4715 164.1 96.4977Z" fill="#F9CBDF"/>
<path d="M93.7733 123.066C91.5983 124.516 93.9844 127.802 96.1595 126.352C98.3345 124.902 95.9484 121.662 93.7733 123.066Z" fill="#F9CBDF"/>
<path d="M66.7457 146.441C66.5738 146.439 66.4029 146.467 66.2409 146.524C65.9276 146.641 65.6617 146.859 65.4842 147.142C65.3067 147.426 65.2275 147.76 65.2589 148.093C65.2589 148.231 65.3048 148.369 65.3232 148.506C65.374 148.949 65.5926 149.356 65.9339 149.643C66.2753 149.929 66.7136 150.075 67.1586 150.048C67.6057 149.946 68.0313 149.766 68.416 149.516C68.7929 149.239 69.0456 148.824 69.1195 148.362C69.1933 147.9 69.0824 147.428 68.8106 147.047C68.574 146.742 68.247 146.519 67.8762 146.41C67.5054 146.301 67.1098 146.312 66.7457 146.441Z" fill="#F9CBDF"/>
<path d="M41.884 122.58C41.5779 122.917 41.3927 123.346 41.3578 123.8C41.3229 124.253 41.4403 124.706 41.6913 125.085C41.9975 125.495 42.4522 125.769 42.9578 125.847C43.3614 125.89 43.7697 125.84 44.1508 125.7C44.4365 125.59 44.6933 125.417 44.9016 125.192C45.1099 124.968 45.2642 124.699 45.3527 124.406C45.4412 124.113 45.4616 123.804 45.4124 123.501C45.3632 123.199 45.2456 122.912 45.0686 122.663C44.8851 122.417 44.6482 122.216 44.3759 122.075C44.1036 121.934 43.8029 121.857 43.4963 121.849C43.1898 121.841 42.8855 121.903 42.6062 122.029C42.3269 122.156 42.08 122.344 41.884 122.58Z" fill="#F9CBDF"/>
<path d="M112.339 167.852C112.073 167.489 111.674 167.245 111.228 167.174C110.783 167.104 110.328 167.212 109.962 167.476C109.731 167.649 109.536 167.866 109.39 168.115C109.243 168.364 109.148 168.64 109.109 168.926C109.073 169.449 109.205 169.97 109.485 170.413C109.693 170.706 109.992 170.922 110.336 171.026C110.68 171.131 111.049 171.118 111.385 170.991C111.643 170.891 111.872 170.728 112.05 170.516C112.228 170.304 112.349 170.051 112.403 169.78C112.58 169.487 112.668 169.149 112.657 168.807C112.645 168.465 112.535 168.133 112.339 167.852Z" fill="#F9CBDF"/>
<path d="M92.0296 232.829C90.9559 233.545 92.1306 235.151 93.1952 234.444C94.2598 233.737 93.0942 232.113 92.0296 232.829Z" fill="#F9CBDF"/>
<path d="M154.721 205.251C152.821 206.517 154.904 209.371 156.795 208.105C158.686 206.838 156.611 203.993 154.721 205.251Z" fill="#F9CBDF"/>
<path d="M169.891 171.799C167.597 173.322 170.111 176.755 172.387 175.24C174.663 173.726 172.167 170.303 169.891 171.799Z" fill="#F9CBDF"/>
<path d="M212.86 164.897C211.025 166.136 213.034 168.945 214.897 167.706C216.76 166.467 214.714 163.658 212.86 164.897Z" fill="#F9CBDF"/>
<path d="M244.274 48.3711C242.439 49.6101 244.449 52.4092 246.303 51.1794C248.156 49.9497 246.128 47.1322 244.274 48.3711Z" fill="#F9CBDF"/>
<path d="M32.8808 79.4919C31.4674 80.4097 33.0184 82.548 34.4134 81.6119C35.8083 80.6758 34.2849 78.5283 32.8808 79.4919Z" fill="#F9CBDF"/>
<path d="M51.3736 178.094C49.7768 179.159 51.5297 181.564 53.1265 180.508C54.7234 179.453 52.9797 177.03 51.3736 178.094Z" fill="#F9CBDF"/>
<path d="M65.626 209.206C64.6164 209.885 65.7269 211.418 66.7456 210.739C67.7643 210.06 66.6447 208.527 65.626 209.206Z" fill="#F9CBDF"/>
<path d="M47.9135 192.375C47.0509 192.944 47.9961 194.21 48.8313 193.669C49.6664 193.127 48.7671 191.806 47.9135 192.375Z" fill="#F9CBDF"/>
<path d="M66.7455 190.337C66.4957 190.229 66.2244 190.179 65.9523 190.192C65.6802 190.204 65.4147 190.279 65.1762 190.411C64.826 190.548 64.5431 190.817 64.3873 191.159C64.2314 191.502 64.2148 191.892 64.341 192.246C64.4185 192.451 64.5418 192.635 64.7014 192.784C64.8611 192.933 65.0528 193.044 65.2619 193.108C65.471 193.172 65.6919 193.187 65.9077 193.152C66.1235 193.117 66.3285 193.033 66.5069 192.907C66.7485 192.752 66.9517 192.545 67.1012 192.3C67.2506 192.055 67.3424 191.779 67.3696 191.494C67.4051 191.259 67.3635 191.02 67.2509 190.811C67.1383 190.602 66.9609 190.436 66.7455 190.337Z" fill="#F9CBDF"/>
<path d="M85.835 100.756C84.6236 101.564 85.9543 103.39 87.1566 102.592C88.3588 101.793 87.0464 99.9577 85.835 100.756Z" fill="#FFF200"/>
<path d="M67.8011 57.7047C65.9656 58.9344 67.9755 61.7152 69.8202 60.4579C71.6648 59.2006 69.6458 56.5024 67.8011 57.7047Z" fill="#FFF200"/>
<path d="M43.9947 73.3338C44.1393 73.6155 44.3465 73.8604 44.6004 74.0496C45.0042 74.3066 45.7109 74.0496 45.61 73.5082C45.5217 73.1436 45.3558 72.8024 45.1236 72.5078C44.628 71.7553 43.49 72.5812 43.9947 73.3338Z" fill="#FFF200"/>
<path d="M44.8665 108.997C44.0773 109.53 44.9399 110.714 45.7292 110.191C46.5185 109.667 45.6374 108.474 44.8665 108.997Z" fill="#FFF200"/>
<path d="M39.4243 140.605C38.323 141.339 39.5344 143.009 40.6357 142.275C41.737 141.541 40.5348 139.87 39.4243 140.605Z" fill="#FFF200"/>
<path d="M66.9477 165.852C65.7455 166.65 67.0578 168.449 68.2509 167.687C69.444 166.925 68.1316 165.062 66.9477 165.852Z" fill="#FFF200"/>
<path d="M65.7638 138.916C65.5343 139.072 65.7638 139.412 66.0116 139.265C66.2594 139.118 65.9932 138.769 65.7638 138.916Z" fill="#FFF200"/>
<path d="M111.715 124.994C110.21 125.994 111.862 128.27 113.367 127.27C114.872 126.269 113.248 123.984 111.715 124.994Z" fill="#FFF200"/>
<path d="M127.5 94.9283C126.362 95.6901 127.61 97.4062 128.748 96.6445C129.886 95.8828 128.647 94.1299 127.5 94.9283Z" fill="#FFF200"/>
<path d="M211.75 54.7771C209.51 56.2638 211.961 59.6228 214.191 58.1452C216.421 56.6676 214.007 53.2995 211.75 54.7771Z" fill="#FFF200"/>
<path d="M184.043 85.65C182.519 86.6686 184.199 88.963 185.722 87.9535C187.246 86.944 185.575 84.6313 184.043 85.65Z" fill="#FFF200"/>
<path d="M197.497 108.594C196.249 109.429 197.616 111.301 198.864 110.429C200.113 109.557 198.745 107.768 197.497 108.594Z" fill="#FFF200"/>
<path d="M173.975 115.789C173.47 116.128 173.975 116.899 174.535 116.56C175.095 116.22 174.48 115.458 173.975 115.789Z" fill="#FFF200"/>
<path d="M170.974 147.58C170.056 148.158 171.056 149.488 171.938 148.901C172.819 148.314 171.855 146.992 170.974 147.58Z" fill="#FFF200"/>
<path d="M152.775 125.875C151.564 126.682 152.894 128.5 154.097 127.71C155.299 126.921 153.987 125.067 152.775 125.875Z" fill="#FFF200"/>
<path d="M139.633 164.741C138.348 165.595 139.761 167.495 141.037 166.678C142.313 165.861 140.918 163.879 139.633 164.741Z" fill="#FFF200"/>
<path d="M125.702 160.703L125.16 160.648C124.793 160.648 124.573 161.18 124.968 161.3L125.481 161.447C126.05 161.621 126.243 160.767 125.702 160.703Z" fill="#FFF200"/>
<path d="M109.265 181.931C108.173 182.656 109.375 184.289 110.458 183.564C111.541 182.839 110.357 181.196 109.265 181.931Z" fill="#FFF200"/>
<path d="M140 209.564L139.807 209.371C139.578 209.196 139.298 209.1 139.009 209.1C138.72 209.1 138.44 209.196 138.21 209.371C137.979 209.541 137.809 209.781 137.726 210.056C137.643 210.331 137.652 210.625 137.752 210.895C137.752 210.987 137.816 211.069 137.853 211.161C137.929 211.357 138.05 211.533 138.205 211.675C138.36 211.818 138.545 211.923 138.747 211.983C138.948 212.043 139.161 212.057 139.369 212.022C139.576 211.988 139.773 211.907 139.945 211.785C140.094 211.676 140.22 211.539 140.316 211.382C140.412 211.224 140.476 211.049 140.505 210.867C140.539 210.625 140.511 210.378 140.422 210.15C140.334 209.922 140.189 209.72 140 209.564Z" fill="#FFF200"/>
<path d="M177.086 184.73C174.856 186.217 177.307 189.585 179.527 188.098C181.748 186.611 179.316 183.252 177.086 184.73Z" fill="#FFF200"/>
<path d="M165.247 214.355C163.733 215.355 165.385 217.631 166.899 216.631C168.414 215.63 166.78 213.327 165.247 214.355Z" fill="#FFF200"/>
<path d="M238.456 107.997C236.96 108.988 238.603 111.237 240.09 110.246C241.576 109.254 239.943 106.978 238.456 107.997Z" fill="#FFF200"/>
<path d="M260.573 74.9307C258.885 76.0595 260.729 78.6017 262.409 77.4729C264.088 76.344 262.225 73.8111 260.573 74.9307Z" fill="#FFF200"/>
<path d="M183.345 35.0364C183.222 35.1315 183.121 35.2538 183.052 35.3938C182.983 35.5339 182.948 35.6879 182.948 35.844C182.948 36.0001 182.983 36.1541 183.052 36.2941C183.121 36.4342 183.222 36.5565 183.345 36.6516L183.648 36.8719C183.804 36.9825 183.99 37.042 184.18 37.042C184.371 37.042 184.557 36.9825 184.713 36.8719C184.866 36.755 184.979 36.5928 185.035 36.4083C185.091 36.2238 185.087 36.0264 185.025 35.844C185.025 35.7247 184.961 35.6054 184.933 35.4769C184.877 35.3264 184.786 35.1914 184.667 35.0829C184.549 34.9743 184.406 34.8953 184.251 34.8524C184.097 34.8094 183.934 34.8037 183.776 34.8357C183.619 34.8677 183.471 34.9364 183.345 35.0364Z" fill="#FFF200"/>
<path d="M166.376 56.9888C165.679 57.4568 166.45 58.5122 167.147 58.0442C167.845 57.5761 167.083 56.5024 166.376 56.9888Z" fill="#FFF200"/>
<path d="M157.694 36.3579C157.493 36.437 157.313 36.5606 157.167 36.7192C157.02 36.8779 156.912 37.0676 156.849 37.2741C156.787 37.4807 156.771 37.6987 156.805 37.9119C156.838 38.1251 156.92 38.328 157.043 38.5054C157.19 38.703 157.387 38.8588 157.613 38.9576C157.839 39.0563 158.086 39.0946 158.332 39.0687C158.577 39.0428 158.811 38.9536 159.012 38.8097C159.212 38.6659 159.372 38.4725 159.475 38.2484C159.58 37.995 159.61 37.7164 159.561 37.4463C159.512 37.1762 159.385 36.9261 159.197 36.7262C159.009 36.5263 158.767 36.3852 158.5 36.3198C158.233 36.2545 157.954 36.2677 157.694 36.3579Z" fill="#FFF200"/>
<path d="M131.538 20.077C131.251 20.0348 130.959 20.1075 130.726 20.2793C130.492 20.4512 130.335 20.7083 130.29 20.9948C130.29 21.1416 130.226 21.2885 130.198 21.4445C130.154 21.7329 130.225 22.0273 130.397 22.2631C130.569 22.4988 130.828 22.6566 131.116 22.7018C131.404 22.7418 131.696 22.6684 131.93 22.4972C132.165 22.3259 132.324 22.0702 132.373 21.7841L132.456 21.3344C132.481 21.1913 132.477 21.0446 132.444 20.9032C132.41 20.7618 132.349 20.6285 132.264 20.5112C132.178 20.3939 132.07 20.295 131.945 20.2204C131.82 20.1458 131.682 20.0971 131.538 20.077Z" fill="#FFF200"/>
<path d="M99.2981 28.2359C97.7563 29.2638 99.4542 31.5948 100.996 30.567C102.538 29.5391 100.849 27.208 99.2981 28.2359Z" fill="#FFF200"/>
<path d="M108.962 62.2841C107.494 63.2753 109.109 65.4962 110.577 64.5143C112.046 63.5323 110.458 61.3022 108.962 62.2841Z" fill="#FFF200"/>
<path d="M93.7184 218.714C93.5472 218.641 93.3617 218.607 93.1756 218.615C92.9896 218.623 92.8078 218.673 92.6437 218.761C92.4797 218.85 92.3377 218.974 92.2282 219.124C92.1187 219.275 92.0446 219.448 92.0113 219.632C92.0113 219.806 92.0113 219.99 91.9655 220.164C91.9299 220.417 91.9767 220.675 92.099 220.9C92.2212 221.125 92.4125 221.304 92.6446 221.412C92.7843 221.474 92.9349 221.508 93.0879 221.512C93.2408 221.516 93.3929 221.489 93.5355 221.434C93.678 221.378 93.8081 221.295 93.9183 221.189C94.0284 221.083 94.1165 220.956 94.1772 220.816L94.3424 220.311C94.462 220.015 94.464 219.685 94.348 219.388C94.2319 219.091 94.0066 218.85 93.7184 218.714Z" fill="#FFF200"/>
<path d="M71.876 241.538C71.5089 241.786 71.876 242.346 72.2798 242.098C72.6836 241.85 72.2523 241.29 71.876 241.538Z" fill="#FFF200"/>
<path d="M21.8219 172.726C21.5099 172.928 21.8219 173.405 22.1707 173.203C22.5194 173.001 22.1432 172.515 21.8219 172.726Z" fill="#FFF200"/>
<path d="M15.9667 204.406C15.1591 204.948 16.0493 206.168 16.8845 205.636C17.7196 205.104 16.7744 203.874 15.9667 204.406Z" fill="#FFF200"/>
</svg>
