<svg width="101" height="27" viewBox="0 0 101 27" fill="none" xmlns="http://www.w3.org/2000/svg">
<path d="M0.5 8.02783C0.5 3.60955 4.08172 0.027832 8.5 0.027832H92.5C96.9183 0.027832 100.5 3.60955 100.5 8.02783V26.0278H0.5V8.02783Z" fill="#3A3A3E"/>
<path d="M0.5 8.02783C0.5 3.60955 4.08172 0.027832 8.5 0.027832H92.5C96.9183 0.027832 100.5 3.60955 100.5 8.02783V26.0278H0.5V8.02783Z" fill="#00B9EF"/>
<path d="M0.5 8.02783C0.5 3.60955 4.08172 0.027832 8.5 0.027832H92.5C96.9183 0.027832 100.5 3.60955 100.5 8.02783V26.0278H0.5V8.02783Z" fill="#F78C0C"/>
<path d="M18.6155 8.60783C18.6155 8.72783 18.5755 8.83983 18.4955 8.94383C18.4235 9.04783 18.3355 9.12383 18.2315 9.17183C18.0315 9.02783 17.7955 8.89583 17.5235 8.77583C17.2515 8.65583 16.9075 8.59583 16.4915 8.59583C16.0195 8.59583 15.6035 8.70383 15.2435 8.91983C14.8835 9.12783 14.5955 9.43983 14.3795 9.85583C14.1715 10.2718 14.0675 10.7838 14.0675 11.3918C14.0675 12.3118 14.2955 13.0038 14.7515 13.4678C15.2075 13.9318 15.8035 14.1638 16.5395 14.1638C16.9395 14.1638 17.2835 14.1078 17.5715 13.9958C17.8675 13.8838 18.1155 13.7558 18.3155 13.6118C18.4115 13.6598 18.4955 13.7358 18.5675 13.8398C18.6395 13.9438 18.6755 14.0638 18.6755 14.1998C18.6755 14.3038 18.6475 14.4038 18.5915 14.4998C18.5355 14.5878 18.4395 14.6718 18.3035 14.7518C18.1275 14.8638 17.8875 14.9638 17.5835 15.0518C17.2795 15.1478 16.8915 15.1958 16.4195 15.1958C15.7395 15.1958 15.1235 15.0558 14.5715 14.7758C14.0275 14.4958 13.5915 14.0758 13.2635 13.5158C12.9435 12.9478 12.7835 12.2398 12.7835 11.3918C12.7835 10.5518 12.9475 9.84783 13.2755 9.27983C13.6035 8.71183 14.0395 8.28383 14.5835 7.99583C15.1275 7.70783 15.7195 7.56383 16.3595 7.56383C16.8155 7.56383 17.2115 7.61583 17.5475 7.71983C17.8835 7.81583 18.1435 7.94383 18.3275 8.10383C18.5195 8.26383 18.6155 8.43183 18.6155 8.60783ZM24.9608 12.2198C24.9608 12.8278 24.8448 13.3558 24.6128 13.8038C24.3808 14.2438 24.0528 14.5878 23.6288 14.8358C23.2048 15.0758 22.7088 15.1958 22.1408 15.1958C21.5648 15.1958 21.0648 15.0758 20.6408 14.8358C20.2168 14.5878 19.8888 14.2438 19.6568 13.8038C19.4248 13.3558 19.3088 12.8278 19.3088 12.2198C19.3088 11.6118 19.4248 11.0878 19.6568 10.6478C19.8968 10.1998 20.2288 9.85583 20.6528 9.61583C21.0768 9.37583 21.5728 9.25583 22.1408 9.25583C22.7008 9.25583 23.1928 9.37983 23.6168 9.62783C24.0408 9.86783 24.3688 10.2078 24.6008 10.6478C24.8408 11.0878 24.9608 11.6118 24.9608 12.2198ZM22.1408 10.2398C21.6528 10.2398 21.2648 10.4158 20.9768 10.7678C20.6968 11.1198 20.5568 11.6038 20.5568 12.2198C20.5568 12.8518 20.6928 13.3438 20.9648 13.6958C21.2448 14.0398 21.6368 14.2118 22.1408 14.2118C22.6368 14.2118 23.0208 14.0358 23.2928 13.6838C23.5728 13.3318 23.7128 12.8438 23.7128 12.2198C23.7128 11.6038 23.5728 11.1198 23.2928 10.7678C23.0128 10.4158 22.6288 10.2398 22.1408 10.2398ZM27.3824 12.3758H26.1584V10.5878C26.1584 10.3958 26.1984 10.2398 26.2784 10.1198C26.3664 9.99183 26.4944 9.87183 26.6624 9.75983C26.8864 9.61583 27.1784 9.49583 27.5384 9.39983C27.9064 9.30383 28.3064 9.25583 28.7384 9.25583C29.4344 9.25583 29.7824 9.45183 29.7824 9.84383C29.7824 9.93983 29.7664 10.0278 29.7344 10.1078C29.7104 10.1878 29.6744 10.2558 29.6264 10.3118C29.5464 10.2958 29.4424 10.2838 29.3144 10.2758C29.1944 10.2598 29.0704 10.2518 28.9424 10.2518C28.6144 10.2518 28.3184 10.2878 28.0544 10.3598C27.7904 10.4238 27.5664 10.5078 27.3824 10.6118V12.3758ZM27.3824 11.9678V15.0038C27.3344 15.0198 27.2584 15.0398 27.1544 15.0638C27.0584 15.0878 26.9504 15.0998 26.8304 15.0998C26.6064 15.0998 26.4384 15.0598 26.3264 14.9798C26.2144 14.8918 26.1584 14.7438 26.1584 14.5358V11.8598L27.3824 11.9678ZM31.8111 12.3758H30.5871V10.5878C30.5871 10.3958 30.6271 10.2398 30.7071 10.1198C30.7951 9.99183 30.9231 9.87183 31.0911 9.75983C31.3151 9.61583 31.6071 9.49583 31.9671 9.39983C32.3351 9.30383 32.7351 9.25583 33.1671 9.25583C33.8631 9.25583 34.2111 9.45183 34.2111 9.84383C34.2111 9.93983 34.1951 10.0278 34.1631 10.1078C34.1391 10.1878 34.1031 10.2558 34.0551 10.3118C33.9751 10.2958 33.8711 10.2838 33.7431 10.2758C33.6231 10.2598 33.4991 10.2518 33.3711 10.2518C33.0431 10.2518 32.7471 10.2878 32.4831 10.3598C32.2191 10.4238 31.9951 10.5078 31.8111 10.6118V12.3758ZM31.8111 11.9678V15.0038C31.7631 15.0198 31.6871 15.0398 31.5831 15.0638C31.4871 15.0878 31.3791 15.0998 31.2591 15.0998C31.0351 15.0998 30.8671 15.0598 30.7551 14.9798C30.6431 14.8918 30.5871 14.7438 30.5871 14.5358V11.8598L31.8111 11.9678ZM35.4016 12.0038L38.8216 11.5238C38.7896 11.1478 38.6536 10.8358 38.4136 10.5878C38.1736 10.3318 37.8336 10.2038 37.3936 10.2038C36.9376 10.2038 36.5616 10.3638 36.2656 10.6838C35.9696 11.0038 35.8216 11.4638 35.8216 12.0638L35.8336 12.5078C35.8976 13.0758 36.1016 13.5038 36.4456 13.7918C36.7896 14.0798 37.2456 14.2238 37.8136 14.2238C38.1496 14.2238 38.4576 14.1718 38.7376 14.0678C39.0176 13.9638 39.2376 13.8478 39.3976 13.7198C39.4936 13.7838 39.5736 13.8638 39.6376 13.9598C39.7016 14.0478 39.7336 14.1478 39.7336 14.2598C39.7336 14.4358 39.6416 14.5958 39.4576 14.7398C39.2816 14.8838 39.0456 14.9958 38.7496 15.0758C38.4536 15.1558 38.1176 15.1958 37.7416 15.1958C37.1176 15.1958 36.5736 15.0838 36.1096 14.8598C35.6536 14.6278 35.2976 14.2878 35.0416 13.8398C34.7856 13.3838 34.6576 12.8278 34.6576 12.1718C34.6576 11.6998 34.7256 11.2838 34.8616 10.9238C35.0056 10.5558 35.2016 10.2518 35.4496 10.0118C35.6976 9.76383 35.9896 9.57583 36.3256 9.44783C36.6616 9.31983 37.0216 9.25583 37.4056 9.25583C37.9096 9.25583 38.3536 9.35983 38.7376 9.56783C39.1216 9.77583 39.4216 10.0678 39.6376 10.4438C39.8616 10.8198 39.9736 11.2478 39.9736 11.7278C39.9736 11.9278 39.9256 12.0758 39.8296 12.1718C39.7336 12.2598 39.5976 12.3158 39.4216 12.3398L35.4496 12.9038L35.4016 12.0038ZM43.845 10.2518C43.333 10.2518 42.905 10.4238 42.561 10.7678C42.217 11.1038 42.045 11.5918 42.045 12.2318C42.045 12.8718 42.209 13.3598 42.537 13.6958C42.873 14.0318 43.309 14.1998 43.845 14.1998C44.157 14.1998 44.421 14.1598 44.637 14.0798C44.853 13.9918 45.041 13.8958 45.201 13.7918C45.305 13.8558 45.385 13.9318 45.441 14.0198C45.505 14.0998 45.537 14.1998 45.537 14.3198C45.537 14.5678 45.373 14.7758 45.045 14.9438C44.717 15.1038 44.297 15.1838 43.785 15.1838C43.201 15.1838 42.685 15.0758 42.237 14.8598C41.789 14.6438 41.437 14.3198 41.181 13.8878C40.933 13.4478 40.809 12.8958 40.809 12.2318C40.809 11.5758 40.941 11.0278 41.205 10.5878C41.469 10.1398 41.825 9.80783 42.273 9.59183C42.721 9.36783 43.213 9.25583 43.749 9.25583C44.261 9.25583 44.677 9.34383 44.997 9.51983C45.325 9.69583 45.489 9.90783 45.489 10.1558C45.489 10.2598 45.457 10.3558 45.393 10.4438C45.337 10.5318 45.261 10.5998 45.165 10.6478C45.005 10.5438 44.821 10.4518 44.613 10.3718C44.405 10.2918 44.149 10.2518 43.845 10.2518ZM47.9453 11.8598V13.3958C47.9453 13.6918 48.0293 13.8998 48.1973 14.0198C48.3733 14.1398 48.6093 14.1998 48.9053 14.1998C49.0413 14.1998 49.1853 14.1798 49.3373 14.1398C49.4973 14.0998 49.6333 14.0518 49.7453 13.9958C49.8013 14.0518 49.8493 14.1198 49.8893 14.1998C49.9293 14.2798 49.9493 14.3758 49.9493 14.4878C49.9493 14.6878 49.8413 14.8558 49.6253 14.9918C49.4173 15.1198 49.1053 15.1838 48.6893 15.1838C48.0973 15.1838 47.6213 15.0518 47.2613 14.7878C46.9093 14.5238 46.7333 14.0878 46.7333 13.4798V11.8598H47.9453ZM47.4173 9.53183H49.8173C49.8493 9.57983 49.8773 9.64783 49.9013 9.73583C49.9333 9.82383 49.9493 9.91583 49.9493 10.0118C49.9493 10.1798 49.9093 10.3078 49.8293 10.3958C49.7493 10.4758 49.6413 10.5158 49.5053 10.5158H47.4173V9.53183ZM46.7333 12.2078V7.86383C46.7813 7.84783 46.8573 7.83183 46.9613 7.81583C47.0653 7.79183 47.1773 7.77983 47.2973 7.77983C47.5133 7.77983 47.6733 7.82383 47.7773 7.91183C47.8893 7.99183 47.9453 8.13183 47.9453 8.33183V12.2078H46.7333ZM56.0768 8.73983C55.9648 9.04383 55.8368 9.40383 55.6928 9.81983C55.5488 10.2358 55.3968 10.6678 55.2368 11.1158C55.0848 11.5558 54.9408 11.9758 54.8048 12.3758L54.6968 12.8318C54.6488 12.9838 54.5928 13.1598 54.5288 13.3598C54.4648 13.5598 54.3968 13.7678 54.3248 13.9838C54.2608 14.1918 54.1968 14.3918 54.1328 14.5838C54.0688 14.7678 54.0208 14.9198 53.9888 15.0398C53.9168 15.0718 53.8408 15.0958 53.7608 15.1118C53.6888 15.1278 53.5968 15.1358 53.4848 15.1358C53.2928 15.1358 53.1328 15.0918 53.0048 15.0038C52.8848 14.9158 52.8248 14.7878 52.8248 14.6198C52.8248 14.5318 52.8368 14.4478 52.8608 14.3678C52.8928 14.2798 52.9248 14.1838 52.9568 14.0798C53.0448 13.8158 53.1568 13.4878 53.2928 13.0958C53.4288 12.6958 53.5808 12.2638 53.7488 11.7998C53.9168 11.3358 54.0888 10.8638 54.2648 10.3838C54.4408 9.90383 54.6088 9.44783 54.7688 9.01583C54.9368 8.57583 55.0848 8.18783 55.2128 7.85183C55.3008 7.81183 55.4248 7.77183 55.5848 7.73183C55.7528 7.68383 55.9208 7.65983 56.0888 7.65983C56.3048 7.65983 56.5048 7.69183 56.6888 7.75583C56.8808 7.81983 57.0008 7.92783 57.0488 8.07983C57.2328 8.52783 57.4248 9.04383 57.6248 9.62783C57.8328 10.2038 58.0408 10.8038 58.2488 11.4278C58.4648 12.0518 58.6688 12.6598 58.8608 13.2518C59.0528 13.8438 59.2248 14.3798 59.3768 14.8598C59.3128 14.9398 59.2208 15.0038 59.1008 15.0518C58.9888 15.0998 58.8608 15.1238 58.7168 15.1238C58.5008 15.1238 58.3448 15.0838 58.2488 15.0038C58.1528 14.9238 58.0768 14.7878 58.0208 14.5958L57.4448 12.8318L57.3128 12.2798C57.1688 11.8398 57.0208 11.3958 56.8688 10.9478C56.7248 10.4998 56.5848 10.0838 56.4488 9.69983C56.3208 9.31583 56.2128 8.99583 56.1248 8.73983H56.0768ZM54.5648 12.1838H57.7448L57.9488 13.1918H54.1328L54.5648 12.1838ZM65.3751 12.5438H64.1631V11.3918C64.1631 10.9918 64.0471 10.6998 63.8151 10.5158C63.5911 10.3318 63.2871 10.2398 62.9031 10.2398C62.6231 10.2398 62.3711 10.2758 62.1471 10.3478C61.9311 10.4118 61.7391 10.4918 61.5711 10.5878V12.5438H60.3471V10.5638C60.3471 10.3798 60.3831 10.2318 60.4551 10.1198C60.5351 10.0078 60.6591 9.89583 60.8271 9.78383C61.0511 9.64783 61.3431 9.52783 61.7031 9.42383C62.0631 9.31183 62.4671 9.25583 62.9151 9.25583C63.6831 9.25583 64.2831 9.43183 64.7151 9.78383C65.1551 10.1278 65.3751 10.6478 65.3751 11.3438V12.5438ZM61.5711 11.9198V15.0038C61.5231 15.0198 61.4471 15.0398 61.3431 15.0638C61.2471 15.0878 61.1391 15.0998 61.0191 15.0998C60.7951 15.0998 60.6271 15.0598 60.5151 14.9798C60.4031 14.8918 60.3471 14.7438 60.3471 14.5358V11.9198H61.5711ZM65.3751 11.9198V15.0038C65.3271 15.0198 65.2511 15.0398 65.1471 15.0638C65.0431 15.0878 64.9351 15.0998 64.8231 15.0998C64.5911 15.0998 64.4231 15.0598 64.3191 14.9798C64.2151 14.8918 64.1631 14.7438 64.1631 14.5358V11.9198H65.3751ZM71.0375 13.4918C71.0375 14.0278 70.8375 14.4478 70.4375 14.7518C70.0455 15.0478 69.4735 15.1958 68.7215 15.1958C68.0895 15.1958 67.5735 15.0998 67.1735 14.9078C66.7815 14.7158 66.5855 14.4878 66.5855 14.2238C66.5855 14.1038 66.6135 13.9918 66.6695 13.8878C66.7335 13.7838 66.8175 13.6998 66.9215 13.6358C67.1455 13.7878 67.4015 13.9238 67.6895 14.0438C67.9775 14.1638 68.3095 14.2238 68.6855 14.2238C69.4455 14.2238 69.8255 13.9798 69.8255 13.4918C69.8255 13.2918 69.7575 13.1278 69.6215 12.9998C69.4935 12.8718 69.3015 12.7758 69.0455 12.7118L68.1935 12.4958C67.6575 12.3758 67.2615 12.1838 67.0055 11.9198C66.7575 11.6558 66.6335 11.3158 66.6335 10.8998C66.6335 10.4358 66.8215 10.0478 67.1975 9.73583C67.5815 9.41583 68.1335 9.25583 68.8535 9.25583C69.2375 9.25583 69.5735 9.29583 69.8615 9.37583C70.1495 9.44783 70.3735 9.55183 70.5335 9.68783C70.7015 9.81583 70.7855 9.96383 70.7855 10.1318C70.7855 10.2518 70.7575 10.3598 70.7015 10.4558C70.6455 10.5518 70.5735 10.6238 70.4855 10.6718C70.3895 10.6078 70.2615 10.5438 70.1015 10.4798C69.9495 10.4078 69.7695 10.3478 69.5615 10.2998C69.3615 10.2438 69.1495 10.2158 68.9255 10.2158C68.5975 10.2158 68.3335 10.2758 68.1335 10.3958C67.9335 10.5158 67.8335 10.6838 67.8335 10.8998C67.8335 11.0598 67.8895 11.1958 68.0015 11.3078C68.1135 11.4198 68.3015 11.5078 68.5655 11.5718L69.2855 11.7398C69.8855 11.8838 70.3255 12.0998 70.6055 12.3878C70.8935 12.6678 71.0375 13.0358 71.0375 13.4918ZM75.806 11.1038C75.678 11.5758 75.538 12.0518 75.386 12.5318C75.234 13.0118 75.086 13.4598 74.942 13.8758C74.806 14.2918 74.682 14.6438 74.57 14.9318C74.498 14.9878 74.406 15.0318 74.294 15.0638C74.19 15.0958 74.054 15.1118 73.886 15.1118C73.71 15.1118 73.55 15.0838 73.406 15.0278C73.27 14.9718 73.178 14.8878 73.13 14.7758C73.05 14.6158 72.962 14.3878 72.866 14.0918C72.77 13.7878 72.67 13.4398 72.566 13.0478C72.462 12.6558 72.354 12.2518 72.242 11.8358C72.138 11.4198 72.042 11.0158 71.954 10.6238C71.874 10.2318 71.802 9.88383 71.738 9.57983C71.81 9.50783 71.898 9.44383 72.002 9.38783C72.114 9.33183 72.242 9.30383 72.386 9.30383C72.57 9.30383 72.71 9.35183 72.806 9.44783C72.91 9.53583 72.982 9.68783 73.022 9.90383C73.094 10.3038 73.17 10.7158 73.25 11.1398C73.338 11.5558 73.422 11.9518 73.502 12.3278C73.59 12.6958 73.666 13.0238 73.73 13.3118C73.802 13.5998 73.854 13.8118 73.886 13.9478H73.934C73.99 13.7638 74.082 13.4638 74.21 13.0478C74.338 12.6238 74.486 12.1438 74.654 11.6078C74.83 11.0638 75.002 10.5158 75.17 9.96383C75.258 9.91583 75.354 9.87983 75.458 9.85583C75.562 9.82383 75.682 9.80783 75.818 9.80783C75.994 9.80783 76.142 9.83983 76.262 9.90383C76.382 9.95983 76.462 10.0518 76.502 10.1798C76.678 10.7078 76.842 11.2278 76.994 11.7398C77.154 12.2438 77.29 12.6918 77.402 13.0838C77.522 13.4758 77.606 13.7678 77.654 13.9598H77.714C77.874 13.2718 78.046 12.5398 78.23 11.7638C78.422 10.9798 78.578 10.2078 78.698 9.44783C78.85 9.35183 79.026 9.30383 79.226 9.30383C79.394 9.30383 79.53 9.34383 79.634 9.42383C79.746 9.49583 79.802 9.61983 79.802 9.79583C79.802 9.89183 79.774 10.0678 79.718 10.3238C79.67 10.5718 79.606 10.8638 79.526 11.1998C79.446 11.5278 79.354 11.8798 79.25 12.2558C79.146 12.6238 79.042 12.9838 78.938 13.3358C78.834 13.6798 78.734 13.9958 78.638 14.2838C78.542 14.5638 78.462 14.7798 78.398 14.9318C78.342 14.9798 78.25 15.0198 78.122 15.0518C77.994 15.0918 77.854 15.1118 77.702 15.1118C77.294 15.1118 77.054 15.0118 76.982 14.8118C76.878 14.5478 76.758 14.2158 76.622 13.8158C76.494 13.4158 76.358 12.9798 76.214 12.5078C76.078 12.0358 75.942 11.5678 75.806 11.1038ZM81.273 12.0038L84.693 11.5238C84.661 11.1478 84.525 10.8358 84.285 10.5878C84.045 10.3318 83.705 10.2038 83.265 10.2038C82.809 10.2038 82.433 10.3638 82.137 10.6838C81.841 11.0038 81.693 11.4638 81.693 12.0638L81.705 12.5078C81.769 13.0758 81.973 13.5038 82.317 13.7918C82.661 14.0798 83.117 14.2238 83.685 14.2238C84.021 14.2238 84.329 14.1718 84.609 14.0678C84.889 13.9638 85.109 13.8478 85.269 13.7198C85.365 13.7838 85.445 13.8638 85.509 13.9598C85.573 14.0478 85.605 14.1478 85.605 14.2598C85.605 14.4358 85.513 14.5958 85.329 14.7398C85.153 14.8838 84.917 14.9958 84.621 15.0758C84.325 15.1558 83.989 15.1958 83.613 15.1958C82.989 15.1958 82.445 15.0838 81.981 14.8598C81.525 14.6278 81.169 14.2878 80.913 13.8398C80.657 13.3838 80.529 12.8278 80.529 12.1718C80.529 11.6998 80.597 11.2838 80.733 10.9238C80.877 10.5558 81.073 10.2518 81.321 10.0118C81.569 9.76383 81.861 9.57583 82.197 9.44783C82.533 9.31983 82.893 9.25583 83.277 9.25583C83.781 9.25583 84.225 9.35983 84.609 9.56783C84.993 9.77583 85.293 10.0678 85.509 10.4438C85.733 10.8198 85.845 11.2478 85.845 11.7278C85.845 11.9278 85.797 12.0758 85.701 12.1718C85.605 12.2598 85.469 12.3158 85.293 12.3398L81.321 12.9038L81.273 12.0038ZM88.1924 12.3758H86.9684V10.5878C86.9684 10.3958 87.0084 10.2398 87.0884 10.1198C87.1764 9.99183 87.3044 9.87183 87.4724 9.75983C87.6964 9.61583 87.9884 9.49583 88.3484 9.39983C88.7164 9.30383 89.1164 9.25583 89.5484 9.25583C90.2444 9.25583 90.5924 9.45183 90.5924 9.84383C90.5924 9.93983 90.5764 10.0278 90.5444 10.1078C90.5204 10.1878 90.4844 10.2558 90.4364 10.3118C90.3564 10.2958 90.2524 10.2838 90.1244 10.2758C90.0044 10.2598 89.8804 10.2518 89.7524 10.2518C89.4244 10.2518 89.1284 10.2878 88.8644 10.3598C88.6004 10.4238 88.3764 10.5078 88.1924 10.6118V12.3758ZM88.1924 11.9678V15.0038C88.1444 15.0198 88.0684 15.0398 87.9644 15.0638C87.8684 15.0878 87.7604 15.0998 87.6404 15.0998C87.4164 15.0998 87.2484 15.0598 87.1364 14.9798C87.0244 14.8918 86.9684 14.7438 86.9684 14.5358V11.8598L88.1924 11.9678Z" fill="black"/>
</svg>
