<svg width="297" height="65" viewBox="0 0 297 65" fill="none" xmlns="http://www.w3.org/2000/svg">
<path d="M8.94436 27.7005C9.57022 25.5726 11.5231 24.1113 13.7412 24.1113H283.259C285.477 24.1113 287.43 25.5726 288.056 27.7005L295.114 51.7005C296.056 54.9029 293.656 58.1113 290.318 58.1113H6.68237C3.34433 58.1113 0.943657 54.9029 1.88554 51.7005L8.94436 27.7005Z" fill="#2E2E32"/>
<path d="M8.94436 27.7005C9.57022 25.5726 11.5231 24.1113 13.7412 24.1113H283.259C285.477 24.1113 287.43 25.5726 288.056 27.7005L295.114 51.7005C296.056 54.9029 293.656 58.1113 290.318 58.1113H6.68237C3.34433 58.1113 0.943657 54.9029 1.88554 51.7005L8.94436 27.7005Z" fill="#B6EFF5"/>
<path d="M98.5 8.02783C98.5 3.60955 102.082 0.027832 106.5 0.027832H190.5C194.918 0.027832 198.5 3.60955 198.5 8.02783V26.0278H98.5V8.02783Z" fill="#3A3A3E"/>
<path d="M98.5 8.02783C98.5 3.60955 102.082 0.027832 106.5 0.027832H190.5C194.918 0.027832 198.5 3.60955 198.5 8.02783V26.0278H98.5V8.02783Z" fill="#00B9EF"/>
<path d="M98.5 8.02783C98.5 3.60955 102.082 0.027832 106.5 0.027832H190.5C194.918 0.027832 198.5 3.60955 198.5 8.02783V26.0278H98.5V8.02783Z" fill="#F78C0C"/>
<path d="M116.616 8.60783C116.616 8.72783 116.576 8.83983 116.496 8.94383C116.424 9.04783 116.336 9.12383 116.232 9.17183C116.032 9.02783 115.796 8.89583 115.524 8.77583C115.252 8.65583 114.908 8.59583 114.492 8.59583C114.02 8.59583 113.604 8.70383 113.244 8.91983C112.884 9.12783 112.596 9.43983 112.38 9.85583C112.172 10.2718 112.068 10.7838 112.068 11.3918C112.068 12.3118 112.296 13.0038 112.752 13.4678C113.208 13.9318 113.804 14.1638 114.54 14.1638C114.94 14.1638 115.284 14.1078 115.572 13.9958C115.868 13.8838 116.116 13.7558 116.316 13.6118C116.412 13.6598 116.496 13.7358 116.568 13.8398C116.64 13.9438 116.676 14.0638 116.676 14.1998C116.676 14.3038 116.648 14.4038 116.592 14.4998C116.536 14.5878 116.44 14.6718 116.304 14.7518C116.128 14.8638 115.888 14.9638 115.584 15.0518C115.28 15.1478 114.892 15.1958 114.42 15.1958C113.74 15.1958 113.124 15.0558 112.572 14.7758C112.028 14.4958 111.592 14.0758 111.264 13.5158C110.944 12.9478 110.784 12.2398 110.784 11.3918C110.784 10.5518 110.948 9.84783 111.276 9.27983C111.604 8.71183 112.04 8.28383 112.584 7.99583C113.128 7.70783 113.72 7.56383 114.36 7.56383C114.816 7.56383 115.212 7.61583 115.548 7.71983C115.884 7.81583 116.144 7.94383 116.328 8.10383C116.52 8.26383 116.616 8.43183 116.616 8.60783ZM122.961 12.2198C122.961 12.8278 122.845 13.3558 122.613 13.8038C122.381 14.2438 122.053 14.5878 121.629 14.8358C121.205 15.0758 120.709 15.1958 120.141 15.1958C119.565 15.1958 119.065 15.0758 118.641 14.8358C118.217 14.5878 117.889 14.2438 117.657 13.8038C117.425 13.3558 117.309 12.8278 117.309 12.2198C117.309 11.6118 117.425 11.0878 117.657 10.6478C117.897 10.1998 118.229 9.85583 118.653 9.61583C119.077 9.37583 119.573 9.25583 120.141 9.25583C120.701 9.25583 121.193 9.37983 121.617 9.62783C122.041 9.86783 122.369 10.2078 122.601 10.6478C122.841 11.0878 122.961 11.6118 122.961 12.2198ZM120.141 10.2398C119.653 10.2398 119.265 10.4158 118.977 10.7678C118.697 11.1198 118.557 11.6038 118.557 12.2198C118.557 12.8518 118.693 13.3438 118.965 13.6958C119.245 14.0398 119.637 14.2118 120.141 14.2118C120.637 14.2118 121.021 14.0358 121.293 13.6838C121.573 13.3318 121.713 12.8438 121.713 12.2198C121.713 11.6038 121.573 11.1198 121.293 10.7678C121.013 10.4158 120.629 10.2398 120.141 10.2398ZM125.382 12.3758H124.158V10.5878C124.158 10.3958 124.198 10.2398 124.278 10.1198C124.366 9.99183 124.494 9.87183 124.662 9.75983C124.886 9.61583 125.178 9.49583 125.538 9.39983C125.906 9.30383 126.306 9.25583 126.738 9.25583C127.434 9.25583 127.782 9.45183 127.782 9.84383C127.782 9.93983 127.766 10.0278 127.734 10.1078C127.71 10.1878 127.674 10.2558 127.626 10.3118C127.546 10.2958 127.442 10.2838 127.314 10.2758C127.194 10.2598 127.07 10.2518 126.942 10.2518C126.614 10.2518 126.318 10.2878 126.054 10.3598C125.79 10.4238 125.566 10.5078 125.382 10.6118V12.3758ZM125.382 11.9678V15.0038C125.334 15.0198 125.258 15.0398 125.154 15.0638C125.058 15.0878 124.95 15.0998 124.83 15.0998C124.606 15.0998 124.438 15.0598 124.326 14.9798C124.214 14.8918 124.158 14.7438 124.158 14.5358V11.8598L125.382 11.9678ZM129.811 12.3758H128.587V10.5878C128.587 10.3958 128.627 10.2398 128.707 10.1198C128.795 9.99183 128.923 9.87183 129.091 9.75983C129.315 9.61583 129.607 9.49583 129.967 9.39983C130.335 9.30383 130.735 9.25583 131.167 9.25583C131.863 9.25583 132.211 9.45183 132.211 9.84383C132.211 9.93983 132.195 10.0278 132.163 10.1078C132.139 10.1878 132.103 10.2558 132.055 10.3118C131.975 10.2958 131.871 10.2838 131.743 10.2758C131.623 10.2598 131.499 10.2518 131.371 10.2518C131.043 10.2518 130.747 10.2878 130.483 10.3598C130.219 10.4238 129.995 10.5078 129.811 10.6118V12.3758ZM129.811 11.9678V15.0038C129.763 15.0198 129.687 15.0398 129.583 15.0638C129.487 15.0878 129.379 15.0998 129.259 15.0998C129.035 15.0998 128.867 15.0598 128.755 14.9798C128.643 14.8918 128.587 14.7438 128.587 14.5358V11.8598L129.811 11.9678ZM133.402 12.0038L136.822 11.5238C136.79 11.1478 136.654 10.8358 136.414 10.5878C136.174 10.3318 135.834 10.2038 135.394 10.2038C134.938 10.2038 134.562 10.3638 134.266 10.6838C133.97 11.0038 133.822 11.4638 133.822 12.0638L133.834 12.5078C133.898 13.0758 134.102 13.5038 134.446 13.7918C134.79 14.0798 135.246 14.2238 135.814 14.2238C136.15 14.2238 136.458 14.1718 136.738 14.0678C137.018 13.9638 137.238 13.8478 137.398 13.7198C137.494 13.7838 137.574 13.8638 137.638 13.9598C137.702 14.0478 137.734 14.1478 137.734 14.2598C137.734 14.4358 137.642 14.5958 137.458 14.7398C137.282 14.8838 137.046 14.9958 136.75 15.0758C136.454 15.1558 136.118 15.1958 135.742 15.1958C135.118 15.1958 134.574 15.0838 134.11 14.8598C133.654 14.6278 133.298 14.2878 133.042 13.8398C132.786 13.3838 132.658 12.8278 132.658 12.1718C132.658 11.6998 132.726 11.2838 132.862 10.9238C133.006 10.5558 133.202 10.2518 133.45 10.0118C133.698 9.76383 133.99 9.57583 134.326 9.44783C134.662 9.31983 135.022 9.25583 135.406 9.25583C135.91 9.25583 136.354 9.35983 136.738 9.56783C137.122 9.77583 137.422 10.0678 137.638 10.4438C137.862 10.8198 137.974 11.2478 137.974 11.7278C137.974 11.9278 137.926 12.0758 137.83 12.1718C137.734 12.2598 137.598 12.3158 137.422 12.3398L133.45 12.9038L133.402 12.0038ZM141.845 10.2518C141.333 10.2518 140.905 10.4238 140.561 10.7678C140.217 11.1038 140.045 11.5918 140.045 12.2318C140.045 12.8718 140.209 13.3598 140.537 13.6958C140.873 14.0318 141.309 14.1998 141.845 14.1998C142.157 14.1998 142.421 14.1598 142.637 14.0798C142.853 13.9918 143.041 13.8958 143.201 13.7918C143.305 13.8558 143.385 13.9318 143.441 14.0198C143.505 14.0998 143.537 14.1998 143.537 14.3198C143.537 14.5678 143.373 14.7758 143.045 14.9438C142.717 15.1038 142.297 15.1838 141.785 15.1838C141.201 15.1838 140.685 15.0758 140.237 14.8598C139.789 14.6438 139.437 14.3198 139.181 13.8878C138.933 13.4478 138.809 12.8958 138.809 12.2318C138.809 11.5758 138.941 11.0278 139.205 10.5878C139.469 10.1398 139.825 9.80783 140.273 9.59183C140.721 9.36783 141.213 9.25583 141.749 9.25583C142.261 9.25583 142.677 9.34383 142.997 9.51983C143.325 9.69583 143.489 9.90783 143.489 10.1558C143.489 10.2598 143.457 10.3558 143.393 10.4438C143.337 10.5318 143.261 10.5998 143.165 10.6478C143.005 10.5438 142.821 10.4518 142.613 10.3718C142.405 10.2918 142.149 10.2518 141.845 10.2518ZM145.945 11.8598V13.3958C145.945 13.6918 146.029 13.8998 146.197 14.0198C146.373 14.1398 146.609 14.1998 146.905 14.1998C147.041 14.1998 147.185 14.1798 147.337 14.1398C147.497 14.0998 147.633 14.0518 147.745 13.9958C147.801 14.0518 147.849 14.1198 147.889 14.1998C147.929 14.2798 147.949 14.3758 147.949 14.4878C147.949 14.6878 147.841 14.8558 147.625 14.9918C147.417 15.1198 147.105 15.1838 146.689 15.1838C146.097 15.1838 145.621 15.0518 145.261 14.7878C144.909 14.5238 144.733 14.0878 144.733 13.4798V11.8598H145.945ZM145.417 9.53183H147.817C147.849 9.57983 147.877 9.64783 147.901 9.73583C147.933 9.82383 147.949 9.91583 147.949 10.0118C147.949 10.1798 147.909 10.3078 147.829 10.3958C147.749 10.4758 147.641 10.5158 147.505 10.5158H145.417V9.53183ZM144.733 12.2078V7.86383C144.781 7.84783 144.857 7.83183 144.961 7.81583C145.065 7.79183 145.177 7.77983 145.297 7.77983C145.513 7.77983 145.673 7.82383 145.777 7.91183C145.889 7.99183 145.945 8.13183 145.945 8.33183V12.2078H144.733ZM154.077 8.73983C153.965 9.04383 153.837 9.40383 153.693 9.81983C153.549 10.2358 153.397 10.6678 153.237 11.1158C153.085 11.5558 152.941 11.9758 152.805 12.3758L152.697 12.8318C152.649 12.9838 152.593 13.1598 152.529 13.3598C152.465 13.5598 152.397 13.7678 152.325 13.9838C152.261 14.1918 152.197 14.3918 152.133 14.5838C152.069 14.7678 152.021 14.9198 151.989 15.0398C151.917 15.0718 151.841 15.0958 151.761 15.1118C151.689 15.1278 151.597 15.1358 151.485 15.1358C151.293 15.1358 151.133 15.0918 151.005 15.0038C150.885 14.9158 150.825 14.7878 150.825 14.6198C150.825 14.5318 150.837 14.4478 150.861 14.3678C150.893 14.2798 150.925 14.1838 150.957 14.0798C151.045 13.8158 151.157 13.4878 151.293 13.0958C151.429 12.6958 151.581 12.2638 151.749 11.7998C151.917 11.3358 152.089 10.8638 152.265 10.3838C152.441 9.90383 152.609 9.44783 152.769 9.01583C152.937 8.57583 153.085 8.18783 153.213 7.85183C153.301 7.81183 153.425 7.77183 153.585 7.73183C153.753 7.68383 153.921 7.65983 154.089 7.65983C154.305 7.65983 154.505 7.69183 154.689 7.75583C154.881 7.81983 155.001 7.92783 155.049 8.07983C155.233 8.52783 155.425 9.04383 155.625 9.62783C155.833 10.2038 156.041 10.8038 156.249 11.4278C156.465 12.0518 156.669 12.6598 156.861 13.2518C157.053 13.8438 157.225 14.3798 157.377 14.8598C157.313 14.9398 157.221 15.0038 157.101 15.0518C156.989 15.0998 156.861 15.1238 156.717 15.1238C156.501 15.1238 156.345 15.0838 156.249 15.0038C156.153 14.9238 156.077 14.7878 156.021 14.5958L155.445 12.8318L155.313 12.2798C155.169 11.8398 155.021 11.3958 154.869 10.9478C154.725 10.4998 154.585 10.0838 154.449 9.69983C154.321 9.31583 154.213 8.99583 154.125 8.73983H154.077ZM152.565 12.1838H155.745L155.949 13.1918H152.133L152.565 12.1838ZM163.375 12.5438H162.163V11.3918C162.163 10.9918 162.047 10.6998 161.815 10.5158C161.591 10.3318 161.287 10.2398 160.903 10.2398C160.623 10.2398 160.371 10.2758 160.147 10.3478C159.931 10.4118 159.739 10.4918 159.571 10.5878V12.5438H158.347V10.5638C158.347 10.3798 158.383 10.2318 158.455 10.1198C158.535 10.0078 158.659 9.89583 158.827 9.78383C159.051 9.64783 159.343 9.52783 159.703 9.42383C160.063 9.31183 160.467 9.25583 160.915 9.25583C161.683 9.25583 162.283 9.43183 162.715 9.78383C163.155 10.1278 163.375 10.6478 163.375 11.3438V12.5438ZM159.571 11.9198V15.0038C159.523 15.0198 159.447 15.0398 159.343 15.0638C159.247 15.0878 159.139 15.0998 159.019 15.0998C158.795 15.0998 158.627 15.0598 158.515 14.9798C158.403 14.8918 158.347 14.7438 158.347 14.5358V11.9198H159.571ZM163.375 11.9198V15.0038C163.327 15.0198 163.251 15.0398 163.147 15.0638C163.043 15.0878 162.935 15.0998 162.823 15.0998C162.591 15.0998 162.423 15.0598 162.319 14.9798C162.215 14.8918 162.163 14.7438 162.163 14.5358V11.9198H163.375ZM169.038 13.4918C169.038 14.0278 168.838 14.4478 168.438 14.7518C168.046 15.0478 167.474 15.1958 166.722 15.1958C166.09 15.1958 165.574 15.0998 165.174 14.9078C164.782 14.7158 164.586 14.4878 164.586 14.2238C164.586 14.1038 164.614 13.9918 164.67 13.8878C164.734 13.7838 164.818 13.6998 164.922 13.6358C165.146 13.7878 165.402 13.9238 165.69 14.0438C165.978 14.1638 166.31 14.2238 166.686 14.2238C167.446 14.2238 167.826 13.9798 167.826 13.4918C167.826 13.2918 167.758 13.1278 167.622 12.9998C167.494 12.8718 167.302 12.7758 167.046 12.7118L166.194 12.4958C165.658 12.3758 165.262 12.1838 165.006 11.9198C164.758 11.6558 164.634 11.3158 164.634 10.8998C164.634 10.4358 164.822 10.0478 165.198 9.73583C165.582 9.41583 166.134 9.25583 166.854 9.25583C167.238 9.25583 167.574 9.29583 167.862 9.37583C168.15 9.44783 168.374 9.55183 168.534 9.68783C168.702 9.81583 168.786 9.96383 168.786 10.1318C168.786 10.2518 168.758 10.3598 168.702 10.4558C168.646 10.5518 168.574 10.6238 168.486 10.6718C168.39 10.6078 168.262 10.5438 168.102 10.4798C167.95 10.4078 167.77 10.3478 167.562 10.2998C167.362 10.2438 167.15 10.2158 166.926 10.2158C166.598 10.2158 166.334 10.2758 166.134 10.3958C165.934 10.5158 165.834 10.6838 165.834 10.8998C165.834 11.0598 165.89 11.1958 166.002 11.3078C166.114 11.4198 166.302 11.5078 166.566 11.5718L167.286 11.7398C167.886 11.8838 168.326 12.0998 168.606 12.3878C168.894 12.6678 169.038 13.0358 169.038 13.4918ZM173.806 11.1038C173.678 11.5758 173.538 12.0518 173.386 12.5318C173.234 13.0118 173.086 13.4598 172.942 13.8758C172.806 14.2918 172.682 14.6438 172.57 14.9318C172.498 14.9878 172.406 15.0318 172.294 15.0638C172.19 15.0958 172.054 15.1118 171.886 15.1118C171.71 15.1118 171.55 15.0838 171.406 15.0278C171.27 14.9718 171.178 14.8878 171.13 14.7758C171.05 14.6158 170.962 14.3878 170.866 14.0918C170.77 13.7878 170.67 13.4398 170.566 13.0478C170.462 12.6558 170.354 12.2518 170.242 11.8358C170.138 11.4198 170.042 11.0158 169.954 10.6238C169.874 10.2318 169.802 9.88383 169.738 9.57983C169.81 9.50783 169.898 9.44383 170.002 9.38783C170.114 9.33183 170.242 9.30383 170.386 9.30383C170.57 9.30383 170.71 9.35183 170.806 9.44783C170.91 9.53583 170.982 9.68783 171.022 9.90383C171.094 10.3038 171.17 10.7158 171.25 11.1398C171.338 11.5558 171.422 11.9518 171.502 12.3278C171.59 12.6958 171.666 13.0238 171.73 13.3118C171.802 13.5998 171.854 13.8118 171.886 13.9478H171.934C171.99 13.7638 172.082 13.4638 172.21 13.0478C172.338 12.6238 172.486 12.1438 172.654 11.6078C172.83 11.0638 173.002 10.5158 173.17 9.96383C173.258 9.91583 173.354 9.87983 173.458 9.85583C173.562 9.82383 173.682 9.80783 173.818 9.80783C173.994 9.80783 174.142 9.83983 174.262 9.90383C174.382 9.95983 174.462 10.0518 174.502 10.1798C174.678 10.7078 174.842 11.2278 174.994 11.7398C175.154 12.2438 175.29 12.6918 175.402 13.0838C175.522 13.4758 175.606 13.7678 175.654 13.9598H175.714C175.874 13.2718 176.046 12.5398 176.23 11.7638C176.422 10.9798 176.578 10.2078 176.698 9.44783C176.85 9.35183 177.026 9.30383 177.226 9.30383C177.394 9.30383 177.53 9.34383 177.634 9.42383C177.746 9.49583 177.802 9.61983 177.802 9.79583C177.802 9.89183 177.774 10.0678 177.718 10.3238C177.67 10.5718 177.606 10.8638 177.526 11.1998C177.446 11.5278 177.354 11.8798 177.25 12.2558C177.146 12.6238 177.042 12.9838 176.938 13.3358C176.834 13.6798 176.734 13.9958 176.638 14.2838C176.542 14.5638 176.462 14.7798 176.398 14.9318C176.342 14.9798 176.25 15.0198 176.122 15.0518C175.994 15.0918 175.854 15.1118 175.702 15.1118C175.294 15.1118 175.054 15.0118 174.982 14.8118C174.878 14.5478 174.758 14.2158 174.622 13.8158C174.494 13.4158 174.358 12.9798 174.214 12.5078C174.078 12.0358 173.942 11.5678 173.806 11.1038ZM179.273 12.0038L182.693 11.5238C182.661 11.1478 182.525 10.8358 182.285 10.5878C182.045 10.3318 181.705 10.2038 181.265 10.2038C180.809 10.2038 180.433 10.3638 180.137 10.6838C179.841 11.0038 179.693 11.4638 179.693 12.0638L179.705 12.5078C179.769 13.0758 179.973 13.5038 180.317 13.7918C180.661 14.0798 181.117 14.2238 181.685 14.2238C182.021 14.2238 182.329 14.1718 182.609 14.0678C182.889 13.9638 183.109 13.8478 183.269 13.7198C183.365 13.7838 183.445 13.8638 183.509 13.9598C183.573 14.0478 183.605 14.1478 183.605 14.2598C183.605 14.4358 183.513 14.5958 183.329 14.7398C183.153 14.8838 182.917 14.9958 182.621 15.0758C182.325 15.1558 181.989 15.1958 181.613 15.1958C180.989 15.1958 180.445 15.0838 179.981 14.8598C179.525 14.6278 179.169 14.2878 178.913 13.8398C178.657 13.3838 178.529 12.8278 178.529 12.1718C178.529 11.6998 178.597 11.2838 178.733 10.9238C178.877 10.5558 179.073 10.2518 179.321 10.0118C179.569 9.76383 179.861 9.57583 180.197 9.44783C180.533 9.31983 180.893 9.25583 181.277 9.25583C181.781 9.25583 182.225 9.35983 182.609 9.56783C182.993 9.77583 183.293 10.0678 183.509 10.4438C183.733 10.8198 183.845 11.2478 183.845 11.7278C183.845 11.9278 183.797 12.0758 183.701 12.1718C183.605 12.2598 183.469 12.3158 183.293 12.3398L179.321 12.9038L179.273 12.0038ZM186.192 12.3758H184.968V10.5878C184.968 10.3958 185.008 10.2398 185.088 10.1198C185.176 9.99183 185.304 9.87183 185.472 9.75983C185.696 9.61583 185.988 9.49583 186.348 9.39983C186.716 9.30383 187.116 9.25583 187.548 9.25583C188.244 9.25583 188.592 9.45183 188.592 9.84383C188.592 9.93983 188.576 10.0278 188.544 10.1078C188.52 10.1878 188.484 10.2558 188.436 10.3118C188.356 10.2958 188.252 10.2838 188.124 10.2758C188.004 10.2598 187.88 10.2518 187.752 10.2518C187.424 10.2518 187.128 10.2878 186.864 10.3598C186.6 10.4238 186.376 10.5078 186.192 10.6118V12.3758ZM186.192 11.9678V15.0038C186.144 15.0198 186.068 15.0398 185.964 15.0638C185.868 15.0878 185.76 15.0998 185.64 15.0998C185.416 15.0998 185.248 15.0598 185.136 14.9798C185.024 14.8918 184.968 14.7438 184.968 14.5358V11.8598L186.192 11.9678Z" fill="black"/>
<path d="M96 24.1113H200L191.136 59.5665C190.468 62.2375 188.069 64.1113 185.315 64.1113H110.685C107.931 64.1113 105.532 62.2375 104.864 59.5665L96 24.1113Z" fill="#18181C"/>
<path d="M96 24.1113H200L191.136 59.5665C190.468 62.2375 188.069 64.1113 185.315 64.1113H110.685C107.931 64.1113 105.532 62.2375 104.864 59.5665L96 24.1113Z" fill="#F78C0C"/>
<path d="M96 24.1113H200L191.136 59.5665C190.468 62.2375 188.069 64.1113 185.315 64.1113H110.685C107.931 64.1113 105.532 62.2375 104.864 59.5665L96 24.1113Z" fill="#00B9EF"/>
</svg>
