<svg width="297" height="65" viewBox="0 0 297 65" fill="none" xmlns="http://www.w3.org/2000/svg">
<path d="M8.94436 27.7005C9.57022 25.5726 11.5231 24.1113 13.7412 24.1113H283.259C285.477 24.1113 287.43 25.5726 288.056 27.7005L295.114 51.7005C296.056 54.9029 293.656 58.1113 290.318 58.1113H6.68237C3.34433 58.1113 0.943657 54.9029 1.88554 51.7005L8.94436 27.7005Z" fill="#2E2E32"/>
<path d="M8.94436 27.7005C9.57022 25.5726 11.5231 24.1113 13.7412 24.1113H283.259C285.477 24.1113 287.43 25.5726 288.056 27.7005L295.114 51.7005C296.056 54.9029 293.656 58.1113 290.318 58.1113H6.68237C3.34433 58.1113 0.943657 54.9029 1.88554 51.7005L8.94436 27.7005Z" fill="#B6EFF5"/>
<path d="M98.5 8.02783C98.5 3.60955 102.082 0.027832 106.5 0.027832H190.5C194.918 0.027832 198.5 3.60955 198.5 8.02783V26.0278H98.5V8.02783Z" fill="#3A3A3E"/>
<path d="M98.5 8.02783C98.5 3.60955 102.082 0.027832 106.5 0.027832H190.5C194.918 0.027832 198.5 3.60955 198.5 8.02783V26.0278H98.5V8.02783Z" fill="#00B9EF"/>
<path d="M98.5 8.02783C98.5 3.60955 102.082 0.027832 106.5 0.027832H190.5C194.918 0.027832 198.5 3.60955 198.5 8.02783V26.0278H98.5V8.02783Z" fill="#F78C0C"/>
<path d="M113.868 8.60783C113.868 8.74383 113.828 8.86383 113.748 8.96783C113.676 9.07183 113.588 9.14783 113.484 9.19583C113.276 9.05983 113.036 8.93183 112.764 8.81183C112.5 8.69183 112.164 8.63183 111.756 8.63183C111.404 8.63183 111.08 8.69183 110.784 8.81183C110.496 8.93183 110.244 9.10783 110.028 9.33983C109.82 9.57183 109.656 9.85983 109.536 10.2038C109.416 10.5478 109.356 10.9438 109.356 11.3918C109.356 12.2958 109.58 12.9798 110.028 13.4438C110.476 13.9078 111.068 14.1398 111.804 14.1398C112.196 14.1398 112.536 14.0838 112.824 13.9718C113.112 13.8598 113.36 13.7318 113.568 13.5878C113.656 13.6438 113.736 13.7238 113.808 13.8278C113.888 13.9318 113.928 14.0518 113.928 14.1878C113.928 14.2998 113.896 14.4038 113.832 14.4998C113.776 14.5958 113.68 14.6838 113.544 14.7638C113.368 14.8758 113.128 14.9758 112.824 15.0638C112.52 15.1518 112.136 15.1958 111.672 15.1958C111.16 15.1958 110.684 15.1198 110.244 14.9678C109.804 14.8078 109.42 14.5718 109.092 14.2598C108.764 13.9398 108.504 13.5438 108.312 13.0718C108.128 12.5918 108.036 12.0318 108.036 11.3918C108.036 10.7678 108.132 10.2158 108.324 9.73583C108.516 9.25583 108.772 8.85583 109.092 8.53583C109.42 8.21583 109.8 7.97583 110.232 7.81583C110.664 7.64783 111.124 7.56383 111.612 7.56383C111.956 7.56383 112.264 7.59583 112.536 7.65983C112.816 7.71583 113.052 7.79183 113.244 7.88783C113.444 7.98383 113.596 8.09583 113.7 8.22383C113.812 8.35183 113.868 8.47983 113.868 8.60783ZM120.226 12.2198C120.226 12.6758 120.158 13.0878 120.022 13.4558C119.886 13.8238 119.694 14.1358 119.446 14.3918C119.206 14.6478 118.91 14.8478 118.558 14.9918C118.206 15.1278 117.814 15.1958 117.382 15.1958C116.95 15.1958 116.558 15.1278 116.206 14.9918C115.854 14.8478 115.554 14.6478 115.306 14.3918C115.066 14.1358 114.878 13.8238 114.742 13.4558C114.606 13.0878 114.538 12.6758 114.538 12.2198C114.538 11.7638 114.606 11.3518 114.742 10.9838C114.878 10.6158 115.07 10.3038 115.318 10.0478C115.566 9.79183 115.866 9.59583 116.218 9.45983C116.57 9.31583 116.958 9.24383 117.382 9.24383C117.806 9.24383 118.194 9.31583 118.546 9.45983C118.898 9.59583 119.198 9.79583 119.446 10.0598C119.694 10.3158 119.886 10.6278 120.022 10.9958C120.158 11.3558 120.226 11.7638 120.226 12.2198ZM117.382 10.2518C116.902 10.2518 116.522 10.4238 116.242 10.7678C115.962 11.1118 115.822 11.5958 115.822 12.2198C115.822 12.8438 115.958 13.3278 116.23 13.6718C116.502 14.0078 116.886 14.1758 117.382 14.1758C117.878 14.1758 118.262 14.0078 118.534 13.6718C118.806 13.3278 118.942 12.8438 118.942 12.2198C118.942 11.6038 118.802 11.1238 118.522 10.7798C118.25 10.4278 117.87 10.2518 117.382 10.2518ZM122.659 15.0038C122.603 15.0278 122.523 15.0478 122.419 15.0638C122.323 15.0878 122.215 15.0998 122.095 15.0998C121.863 15.0998 121.691 15.0558 121.579 14.9678C121.467 14.8798 121.411 14.7318 121.411 14.5238V10.5878C121.411 10.3878 121.451 10.2278 121.531 10.1078C121.611 9.97983 121.739 9.85983 121.915 9.74783C122.147 9.60383 122.443 9.48383 122.803 9.38783C123.163 9.29183 123.559 9.24383 123.991 9.24383C124.695 9.24383 125.047 9.44383 125.047 9.84383C125.047 9.93983 125.031 10.0318 124.999 10.1198C124.967 10.1998 124.931 10.2718 124.891 10.3358C124.811 10.3198 124.711 10.3038 124.591 10.2878C124.471 10.2718 124.343 10.2638 124.207 10.2638C123.887 10.2638 123.595 10.2998 123.331 10.3718C123.067 10.4358 122.843 10.5198 122.659 10.6238V15.0038ZM127.099 15.0038C127.043 15.0278 126.963 15.0478 126.859 15.0638C126.763 15.0878 126.655 15.0998 126.535 15.0998C126.303 15.0998 126.131 15.0558 126.019 14.9678C125.907 14.8798 125.851 14.7318 125.851 14.5238V10.5878C125.851 10.3878 125.891 10.2278 125.971 10.1078C126.051 9.97983 126.179 9.85983 126.355 9.74783C126.587 9.60383 126.883 9.48383 127.243 9.38783C127.603 9.29183 127.999 9.24383 128.431 9.24383C129.135 9.24383 129.487 9.44383 129.487 9.84383C129.487 9.93983 129.471 10.0318 129.439 10.1198C129.407 10.1998 129.371 10.2718 129.331 10.3358C129.251 10.3198 129.151 10.3038 129.031 10.2878C128.911 10.2718 128.783 10.2638 128.647 10.2638C128.327 10.2638 128.035 10.2998 127.771 10.3718C127.507 10.4358 127.283 10.5198 127.099 10.6238V15.0038ZM131.193 12.8558C131.305 13.3118 131.521 13.6518 131.841 13.8758C132.169 14.0918 132.585 14.1998 133.089 14.1998C133.425 14.1998 133.733 14.1478 134.013 14.0438C134.293 13.9398 134.517 13.8278 134.685 13.7078C134.909 13.8358 135.021 14.0158 135.021 14.2478C135.021 14.3838 134.969 14.5118 134.865 14.6318C134.761 14.7438 134.617 14.8438 134.433 14.9318C134.257 15.0118 134.045 15.0758 133.797 15.1238C133.557 15.1718 133.297 15.1958 133.017 15.1958C132.553 15.1958 132.129 15.1318 131.745 15.0038C131.369 14.8758 131.045 14.6838 130.773 14.4278C130.501 14.1718 130.289 13.8558 130.137 13.4798C129.993 13.1038 129.921 12.6678 129.921 12.1718C129.921 11.6918 129.993 11.2718 130.137 10.9118C130.281 10.5438 130.477 10.2398 130.725 9.99983C130.973 9.75183 131.265 9.56383 131.601 9.43583C131.937 9.30783 132.297 9.24383 132.681 9.24383C133.065 9.24383 133.413 9.30783 133.725 9.43583C134.045 9.55583 134.317 9.72783 134.541 9.95183C134.773 10.1678 134.949 10.4278 135.069 10.7318C135.197 11.0358 135.261 11.3678 135.261 11.7278C135.261 11.9278 135.213 12.0758 135.117 12.1718C135.021 12.2598 134.881 12.3198 134.697 12.3518L131.193 12.8558ZM132.681 10.2158C132.241 10.2158 131.873 10.3638 131.577 10.6598C131.289 10.9558 131.137 11.3798 131.121 11.9318L134.073 11.5118C134.041 11.1518 133.909 10.8478 133.677 10.5998C133.445 10.3438 133.113 10.2158 132.681 10.2158ZM139.145 10.2638C138.889 10.2638 138.653 10.3078 138.437 10.3958C138.221 10.4758 138.033 10.5998 137.873 10.7678C137.721 10.9358 137.597 11.1438 137.501 11.3918C137.413 11.6318 137.369 11.9118 137.369 12.2318C137.369 12.8638 137.533 13.3478 137.861 13.6838C138.189 14.0118 138.617 14.1758 139.145 14.1758C139.449 14.1758 139.709 14.1358 139.925 14.0558C140.141 13.9758 140.329 13.8798 140.489 13.7678C140.593 13.8318 140.677 13.9078 140.741 13.9958C140.805 14.0838 140.837 14.1918 140.837 14.3198C140.837 14.5678 140.673 14.7758 140.345 14.9438C140.025 15.1118 139.601 15.1958 139.073 15.1958C138.633 15.1958 138.229 15.1358 137.861 15.0158C137.501 14.8958 137.189 14.7118 136.925 14.4638C136.661 14.2158 136.453 13.9078 136.301 13.5398C136.157 13.1638 136.085 12.7278 136.085 12.2318C136.085 11.7358 136.161 11.2998 136.313 10.9238C136.473 10.5478 136.685 10.2358 136.949 9.98783C137.221 9.73983 137.537 9.55583 137.897 9.43583C138.257 9.30783 138.637 9.24383 139.037 9.24383C139.301 9.24383 139.537 9.26783 139.745 9.31583C139.961 9.36383 140.145 9.43183 140.297 9.51983C140.449 9.59983 140.565 9.69583 140.645 9.80783C140.733 9.91183 140.777 10.0238 140.777 10.1438C140.777 10.2558 140.745 10.3598 140.681 10.4558C140.625 10.5438 140.553 10.6118 140.465 10.6598C140.297 10.5558 140.109 10.4638 139.901 10.3838C139.701 10.3038 139.449 10.2638 139.145 10.2638ZM143.257 13.3838C143.257 13.6718 143.341 13.8758 143.509 13.9958C143.677 14.1158 143.913 14.1758 144.217 14.1758C144.353 14.1758 144.497 14.1558 144.649 14.1158C144.801 14.0758 144.933 14.0278 145.045 13.9718C145.101 14.0358 145.149 14.1078 145.189 14.1878C145.237 14.2678 145.261 14.3638 145.261 14.4758C145.261 14.6838 145.153 14.8558 144.937 14.9918C144.729 15.1278 144.409 15.1958 143.977 15.1958C143.377 15.1958 142.897 15.0638 142.537 14.7998C142.185 14.5278 142.009 14.0838 142.009 13.4678V7.86383C142.065 7.84783 142.145 7.82783 142.249 7.80383C142.353 7.77983 142.465 7.76783 142.585 7.76783C142.817 7.76783 142.985 7.81183 143.089 7.89983C143.201 7.98783 143.257 8.13583 143.257 8.34383V9.53183H145.117C145.149 9.57983 145.177 9.64783 145.201 9.73583C145.233 9.82383 145.249 9.91583 145.249 10.0118C145.249 10.3558 145.101 10.5278 144.805 10.5278H143.257V13.3838ZM152.84 13.2038H149.912L149.324 15.0398C149.252 15.0718 149.176 15.0958 149.096 15.1118C149.016 15.1278 148.92 15.1358 148.808 15.1358C148.608 15.1358 148.444 15.0918 148.316 15.0038C148.188 14.9158 148.124 14.7838 148.124 14.6078C148.124 14.5198 148.136 14.4358 148.16 14.3558C148.184 14.2678 148.216 14.1718 148.256 14.0678C148.36 13.7318 148.504 13.2998 148.688 12.7718C148.88 12.2358 149.08 11.6718 149.288 11.0798C149.504 10.4878 149.72 9.90783 149.936 9.33983C150.152 8.76383 150.34 8.27183 150.5 7.86383C150.58 7.81583 150.704 7.77183 150.872 7.73183C151.04 7.68383 151.212 7.65983 151.388 7.65983C151.62 7.65983 151.828 7.69183 152.012 7.75583C152.196 7.81983 152.32 7.93183 152.384 8.09183C152.56 8.54783 152.752 9.06783 152.96 9.65183C153.168 10.2278 153.376 10.8238 153.584 11.4398C153.792 12.0558 153.992 12.6598 154.184 13.2518C154.376 13.8438 154.548 14.3798 154.7 14.8598C154.628 14.9398 154.532 15.0038 154.412 15.0518C154.3 15.1078 154.164 15.1358 154.004 15.1358C153.788 15.1358 153.632 15.0958 153.536 15.0158C153.44 14.9278 153.36 14.7838 153.296 14.5838L152.84 13.2038ZM151.376 8.77583C151.296 8.99183 151.208 9.23583 151.112 9.50783C151.016 9.77983 150.916 10.0678 150.812 10.3718C150.708 10.6678 150.604 10.9718 150.5 11.2838C150.396 11.5878 150.296 11.8838 150.2 12.1718H152.564C152.46 11.8518 152.352 11.5318 152.24 11.2118C152.136 10.8838 152.032 10.5718 151.928 10.2758C151.832 9.97983 151.74 9.70383 151.652 9.44783C151.564 9.18383 151.492 8.95983 151.436 8.77583H151.376ZM159.462 11.3918C159.462 10.9998 159.35 10.7118 159.126 10.5278C158.91 10.3438 158.614 10.2518 158.238 10.2518C157.958 10.2518 157.706 10.2878 157.482 10.3598C157.266 10.4318 157.078 10.5118 156.918 10.5998V15.0038C156.862 15.0278 156.782 15.0478 156.678 15.0638C156.582 15.0878 156.474 15.0998 156.354 15.0998C156.122 15.0998 155.95 15.0558 155.838 14.9678C155.726 14.8798 155.67 14.7318 155.67 14.5238V10.5638C155.67 10.3798 155.706 10.2318 155.778 10.1198C155.85 10.0078 155.97 9.89583 156.138 9.78383C156.362 9.64783 156.654 9.52383 157.014 9.41183C157.374 9.29983 157.782 9.24383 158.238 9.24383C159.014 9.24383 159.622 9.41983 160.062 9.77183C160.502 10.1158 160.722 10.6398 160.722 11.3438V15.0038C160.666 15.0278 160.586 15.0478 160.482 15.0638C160.378 15.0878 160.266 15.0998 160.146 15.0998C159.914 15.0998 159.742 15.0558 159.63 14.9678C159.518 14.8798 159.462 14.7318 159.462 14.5238V11.3918ZM166.396 13.4798C166.396 14.0158 166.196 14.4358 165.796 14.7398C165.396 15.0438 164.816 15.1958 164.056 15.1958C163.744 15.1958 163.456 15.1718 163.192 15.1238C162.928 15.0758 162.7 15.0078 162.508 14.9198C162.324 14.8318 162.18 14.7278 162.076 14.6078C161.972 14.4878 161.92 14.3558 161.92 14.2118C161.92 14.0918 161.948 13.9798 162.004 13.8758C162.068 13.7718 162.152 13.6878 162.256 13.6238C162.48 13.7678 162.736 13.8998 163.024 14.0198C163.312 14.1398 163.648 14.1998 164.032 14.1998C164.392 14.1998 164.668 14.1398 164.86 14.0198C165.052 13.8918 165.148 13.7118 165.148 13.4798C165.148 13.2798 165.08 13.1198 164.944 12.9998C164.816 12.8798 164.624 12.7878 164.368 12.7238L163.552 12.5078C163.008 12.3638 162.608 12.1678 162.352 11.9198C162.096 11.6718 161.968 11.3318 161.968 10.8998C161.968 10.6678 162.016 10.4518 162.112 10.2518C162.208 10.0438 162.348 9.86783 162.532 9.72383C162.724 9.57183 162.96 9.45583 163.24 9.37583C163.52 9.28783 163.84 9.24383 164.2 9.24383C164.488 9.24383 164.748 9.26783 164.98 9.31583C165.22 9.35583 165.424 9.41583 165.592 9.49583C165.768 9.56783 165.904 9.65983 166 9.77183C166.096 9.88383 166.144 10.0038 166.144 10.1318C166.144 10.2598 166.116 10.3718 166.06 10.4678C166.004 10.5558 165.932 10.6278 165.844 10.6838C165.7 10.5958 165.484 10.4998 165.196 10.3958C164.916 10.2918 164.612 10.2398 164.284 10.2398C163.948 10.2398 163.684 10.2998 163.492 10.4198C163.3 10.5318 163.204 10.6918 163.204 10.8998C163.204 11.0598 163.256 11.1918 163.36 11.2958C163.472 11.3998 163.66 11.4838 163.924 11.5478L164.62 11.7278C165.228 11.8878 165.676 12.1038 165.964 12.3758C166.252 12.6478 166.396 13.0158 166.396 13.4798ZM171.164 11.1398C171.068 11.4918 170.964 11.8478 170.852 12.2078C170.748 12.5598 170.64 12.9038 170.528 13.2398C170.424 13.5758 170.32 13.8878 170.216 14.1758C170.12 14.4638 170.032 14.7158 169.952 14.9318C169.872 14.9878 169.776 15.0318 169.664 15.0638C169.552 15.0958 169.412 15.1118 169.244 15.1118C169.06 15.1118 168.896 15.0838 168.752 15.0278C168.608 14.9718 168.512 14.8838 168.464 14.7638C168.368 14.5718 168.256 14.2638 168.128 13.8398C168 13.4158 167.872 12.9518 167.744 12.4478C167.616 11.9438 167.492 11.4358 167.372 10.9238C167.252 10.4118 167.156 9.96383 167.084 9.57983C167.148 9.50783 167.236 9.44383 167.348 9.38783C167.468 9.32383 167.6 9.29183 167.744 9.29183C168.104 9.29183 168.32 9.49583 168.392 9.90383C168.464 10.3118 168.54 10.7238 168.62 11.1398C168.708 11.5558 168.792 11.9478 168.872 12.3158C168.952 12.6758 169.024 12.9998 169.088 13.2878C169.16 13.5678 169.212 13.7798 169.244 13.9238H169.292C169.332 13.7798 169.392 13.5718 169.472 13.2998C169.56 13.0198 169.656 12.7038 169.76 12.3518C169.872 11.9918 169.992 11.6078 170.12 11.1998C170.248 10.7838 170.38 10.3718 170.516 9.96383C170.7 9.85183 170.92 9.79583 171.176 9.79583C171.36 9.79583 171.512 9.82783 171.632 9.89183C171.76 9.95583 171.844 10.0478 171.884 10.1678C172.012 10.5678 172.136 10.9638 172.256 11.3558C172.376 11.7398 172.484 12.0998 172.58 12.4358C172.684 12.7718 172.772 13.0678 172.844 13.3238C172.924 13.5798 172.984 13.7798 173.024 13.9238H173.084C173.244 13.2358 173.412 12.5078 173.588 11.7398C173.764 10.9718 173.912 10.2038 174.032 9.43583C174.112 9.39583 174.2 9.36383 174.296 9.33983C174.392 9.30783 174.488 9.29183 174.584 9.29183C174.76 9.29183 174.9 9.33183 175.004 9.41183C175.116 9.49183 175.172 9.61983 175.172 9.79583C175.172 9.89983 175.148 10.0758 175.1 10.3238C175.052 10.5718 174.984 10.8638 174.896 11.1998C174.816 11.5278 174.724 11.8798 174.62 12.2558C174.524 12.6238 174.424 12.9798 174.32 13.3238C174.224 13.6678 174.128 13.9838 174.032 14.2718C173.936 14.5598 173.856 14.7798 173.792 14.9318C173.728 14.9798 173.632 15.0198 173.504 15.0518C173.376 15.0918 173.232 15.1118 173.072 15.1118C172.648 15.1118 172.4 15.0118 172.328 14.8118C172.256 14.6198 172.172 14.3838 172.076 14.1038C171.98 13.8238 171.88 13.5238 171.776 13.2038C171.672 12.8758 171.568 12.5358 171.464 12.1838C171.36 11.8318 171.26 11.4838 171.164 11.1398ZM177.17 12.8558C177.282 13.3118 177.498 13.6518 177.818 13.8758C178.146 14.0918 178.562 14.1998 179.066 14.1998C179.402 14.1998 179.71 14.1478 179.99 14.0438C180.27 13.9398 180.494 13.8278 180.662 13.7078C180.886 13.8358 180.998 14.0158 180.998 14.2478C180.998 14.3838 180.946 14.5118 180.842 14.6318C180.738 14.7438 180.594 14.8438 180.41 14.9318C180.234 15.0118 180.022 15.0758 179.774 15.1238C179.534 15.1718 179.274 15.1958 178.994 15.1958C178.53 15.1958 178.106 15.1318 177.722 15.0038C177.346 14.8758 177.022 14.6838 176.75 14.4278C176.478 14.1718 176.266 13.8558 176.114 13.4798C175.97 13.1038 175.898 12.6678 175.898 12.1718C175.898 11.6918 175.97 11.2718 176.114 10.9118C176.258 10.5438 176.454 10.2398 176.702 9.99983C176.95 9.75183 177.242 9.56383 177.578 9.43583C177.914 9.30783 178.274 9.24383 178.658 9.24383C179.042 9.24383 179.39 9.30783 179.702 9.43583C180.022 9.55583 180.294 9.72783 180.518 9.95183C180.75 10.1678 180.926 10.4278 181.046 10.7318C181.174 11.0358 181.238 11.3678 181.238 11.7278C181.238 11.9278 181.19 12.0758 181.094 12.1718C180.998 12.2598 180.858 12.3198 180.674 12.3518L177.17 12.8558ZM178.658 10.2158C178.218 10.2158 177.85 10.3638 177.554 10.6598C177.266 10.9558 177.114 11.3798 177.098 11.9318L180.05 11.5118C180.018 11.1518 179.886 10.8478 179.654 10.5998C179.422 10.3438 179.09 10.2158 178.658 10.2158ZM183.609 15.0038C183.553 15.0278 183.473 15.0478 183.369 15.0638C183.273 15.0878 183.165 15.0998 183.045 15.0998C182.813 15.0998 182.641 15.0558 182.529 14.9678C182.417 14.8798 182.361 14.7318 182.361 14.5238V10.5878C182.361 10.3878 182.401 10.2278 182.481 10.1078C182.561 9.97983 182.689 9.85983 182.865 9.74783C183.097 9.60383 183.393 9.48383 183.753 9.38783C184.113 9.29183 184.509 9.24383 184.941 9.24383C185.645 9.24383 185.997 9.44383 185.997 9.84383C185.997 9.93983 185.981 10.0318 185.949 10.1198C185.917 10.1998 185.881 10.2718 185.841 10.3358C185.761 10.3198 185.661 10.3038 185.541 10.2878C185.421 10.2718 185.293 10.2638 185.157 10.2638C184.837 10.2638 184.545 10.2998 184.281 10.3718C184.017 10.4358 183.793 10.5198 183.609 10.6238V15.0038ZM191.06 13.4798C191.06 14.0158 190.86 14.4358 190.46 14.7398C190.06 15.0438 189.48 15.1958 188.72 15.1958C188.408 15.1958 188.12 15.1718 187.856 15.1238C187.592 15.0758 187.364 15.0078 187.172 14.9198C186.988 14.8318 186.844 14.7278 186.74 14.6078C186.636 14.4878 186.584 14.3558 186.584 14.2118C186.584 14.0918 186.612 13.9798 186.668 13.8758C186.732 13.7718 186.816 13.6878 186.92 13.6238C187.144 13.7678 187.4 13.8998 187.688 14.0198C187.976 14.1398 188.312 14.1998 188.696 14.1998C189.056 14.1998 189.332 14.1398 189.524 14.0198C189.716 13.8918 189.812 13.7118 189.812 13.4798C189.812 13.2798 189.744 13.1198 189.608 12.9998C189.48 12.8798 189.288 12.7878 189.032 12.7238L188.216 12.5078C187.672 12.3638 187.272 12.1678 187.016 11.9198C186.76 11.6718 186.632 11.3318 186.632 10.8998C186.632 10.6678 186.68 10.4518 186.776 10.2518C186.872 10.0438 187.012 9.86783 187.196 9.72383C187.388 9.57183 187.624 9.45583 187.904 9.37583C188.184 9.28783 188.504 9.24383 188.864 9.24383C189.152 9.24383 189.412 9.26783 189.644 9.31583C189.884 9.35583 190.088 9.41583 190.256 9.49583C190.432 9.56783 190.568 9.65983 190.664 9.77183C190.76 9.88383 190.808 10.0038 190.808 10.1318C190.808 10.2598 190.78 10.3718 190.724 10.4678C190.668 10.5558 190.596 10.6278 190.508 10.6838C190.364 10.5958 190.148 10.4998 189.86 10.3958C189.58 10.2918 189.276 10.2398 188.948 10.2398C188.612 10.2398 188.348 10.2998 188.156 10.4198C187.964 10.5318 187.868 10.6918 187.868 10.8998C187.868 11.0598 187.92 11.1918 188.024 11.2958C188.136 11.3998 188.324 11.4838 188.588 11.5478L189.284 11.7278C189.892 11.8878 190.34 12.1038 190.628 12.3758C190.916 12.6478 191.06 13.0158 191.06 13.4798Z" fill="black"/>
<path d="M96 24.1113H200L191.136 59.5665C190.468 62.2375 188.069 64.1113 185.315 64.1113H110.685C107.931 64.1113 105.532 62.2375 104.864 59.5665L96 24.1113Z" fill="#18181C"/>
<path d="M96 24.1113H200L191.136 59.5665C190.468 62.2375 188.069 64.1113 185.315 64.1113H110.685C107.931 64.1113 105.532 62.2375 104.864 59.5665L96 24.1113Z" fill="#F78C0C"/>
<path d="M96 24.1113H200L191.136 59.5665C190.468 62.2375 188.069 64.1113 185.315 64.1113H110.685C107.931 64.1113 105.532 62.2375 104.864 59.5665L96 24.1113Z" fill="#00B9EF"/>
</svg>
