<svg width="104" height="41" viewBox="0 0 104 41" fill="none" xmlns="http://www.w3.org/2000/svg">
<path d="M0 0.111328H104L95.1362 35.5665C94.4684 38.2375 92.0686 40.1113 89.3153 40.1113H14.6847C11.9315 40.1113 9.53155 38.2375 8.8638 35.5665L0 0.111328Z" fill="#18181C"/>
<path d="M0 0.111328H104L95.1362 35.5665C94.4684 38.2375 92.0686 40.1113 89.3153 40.1113H14.6847C11.9315 40.1113 9.53155 38.2375 8.8638 35.5665L0 0.111328Z" fill="#F78C0C"/>
<path d="M0 0.111328H104L95.1362 35.5665C94.4684 38.2375 92.0686 40.1113 89.3153 40.1113H14.6847C11.9315 40.1113 9.53155 38.2375 8.8638 35.5665L0 0.111328Z" fill="#00B9EF"/>
</svg>
