<svg width="295" height="35" viewBox="0 0 295 35" fill="none" xmlns="http://www.w3.org/2000/svg">
<path d="M7.94436 3.7005C8.57022 1.57258 10.5231 0.111328 12.7412 0.111328H282.259C284.477 0.111328 286.43 1.57258 287.056 3.7005L294.114 27.7005C295.056 30.9029 292.656 34.1113 289.318 34.1113H5.68237C2.34433 34.1113 -0.0563431 30.9029 0.885539 27.7005L7.94436 3.7005Z" fill="#2E2E32"/>
<path d="M7.94436 3.7005C8.57022 1.57258 10.5231 0.111328 12.7412 0.111328H282.259C284.477 0.111328 286.43 1.57258 287.056 3.7005L294.114 27.7005C295.056 30.9029 292.656 34.1113 289.318 34.1113H5.68237C2.34433 34.1113 -0.0563431 30.9029 0.885539 27.7005L7.94436 3.7005Z" fill="#B6EFF5"/>
</svg>
